<svg width="327" height="280" viewBox="0 0 327 280" fill="none" xmlns="http://www.w3.org/2000/svg">
<g clip-path="url(#clip0_6136_10467)">
<g clip-path="url(#clip1_6136_10467)">
<g clip-path="url(#clip2_6136_10467)">
<path d="M133.179 220.105C132.555 220.105 131.935 220.016 131.336 219.843C130.501 219.604 129.721 219.202 129.043 218.661C128.365 218.119 127.8 217.448 127.383 216.687L75.6964 123.06L72.1232 116.589C71.2787 115.054 71.0774 113.248 71.5635 111.565C72.0497 109.883 73.1835 108.462 74.7164 107.613L200.337 38.3268C201.873 37.4827 203.68 37.2816 205.363 37.7677C207.047 38.2538 208.468 39.3874 209.317 40.9198L212.909 47.4269L264.577 141.019C265.424 142.553 265.626 144.36 265.139 146.043C264.653 147.727 263.517 149.148 261.983 149.994L136.362 219.28C135.388 219.82 134.293 220.104 133.179 220.105ZM203.52 38.4372C202.564 38.437 201.624 38.6796 200.787 39.1422L75.1664 108.429C73.8496 109.157 72.8756 110.378 72.458 111.823C72.0404 113.269 72.2133 114.821 72.9387 116.139L76.5123 122.61L128.199 216.238C128.559 216.89 129.044 217.465 129.626 217.93C130.209 218.396 130.878 218.741 131.594 218.948C132.31 219.155 133.06 219.219 133.801 219.136C134.542 219.053 135.259 218.825 135.912 218.465L261.532 149.179C262.85 148.452 263.826 147.231 264.244 145.785C264.662 144.339 264.488 142.786 263.761 141.469L212.093 47.8768L208.501 41.3697C208.009 40.4803 207.287 39.739 206.411 39.2232C205.535 38.7074 204.537 38.436 203.52 38.4372Z" fill="#66B0F0"/>
<path d="M212.78 47.6501L76.384 122.834L72.8108 116.362C72.0238 114.936 71.8356 113.256 72.2876 111.692C72.7396 110.127 73.7949 108.806 75.2212 108.019L200.842 38.7328C201.548 38.3432 202.325 38.0966 203.126 38.0069C203.928 37.9172 204.74 37.9862 205.515 38.21C206.29 38.4338 207.013 38.808 207.643 39.3113C208.274 39.8145 208.799 40.437 209.188 41.143L212.78 47.6501Z" fill="#66B0F0"/>
<path d="M203.184 46.7956C204.235 46.7956 205.086 45.9442 205.086 44.8939C205.086 43.8436 204.235 42.9922 203.184 42.9922C202.133 42.9922 201.281 43.8436 201.281 44.8939C201.281 45.9442 202.133 46.7956 203.184 46.7956Z" fill="white"/>
<path d="M197.518 49.9206C198.569 49.9206 199.421 49.0692 199.421 48.0189C199.421 46.9686 198.569 46.1172 197.518 46.1172C196.468 46.1172 195.616 46.9686 195.616 48.0189C195.616 49.0692 196.468 49.9206 197.518 49.9206Z" fill="white"/>
<path d="M191.853 53.0535C192.904 53.0535 193.755 52.202 193.755 51.1517C193.755 50.1014 192.904 49.25 191.853 49.25C190.802 49.25 189.95 50.1014 189.95 51.1517C189.95 52.202 190.802 53.0535 191.853 53.0535Z" fill="white"/>
</g>
<g clip-path="url(#clip3_6136_10467)">
<path d="M137.402 48.881C137.402 48.881 132.239 55.2093 126.236 58.7131C123.02 60.5901 117.571 61.9309 109.174 62.4672C99.402 63.0929 93.8101 69.2603 94.1674 77.3048C94.4175 82.8465 96.8472 86.8687 92.7382 94.2875C87.7626 103.279 92.7918 114.935 105.315 118.466C105.315 118.466 151.56 63.4772 144.638 48.5234L137.402 48.881Z" fill="#5B2448"/>
<path d="M210.026 84.9961C211.875 81.3761 208.507 83.5928 206.336 85.9793C206.256 82.7794 205.988 79.5884 205.559 76.4153C204.219 66.9407 203.058 72.9294 203.058 72.9294C203.058 72.9294 201.986 70.7842 201.093 76.8622C200.271 82.4755 200.646 86.2474 200.646 86.2474C200.646 86.2474 197.877 89.8228 195.197 99.4761L159.109 108.146L157.59 120.544C166.166 123.788 178.091 123.931 193.143 111.811C199.851 106.412 204.398 100.191 205.917 93.7556C207.962 89.2865 209.275 86.462 210.026 84.9961Z" fill="#F4ADA2"/>
<path d="M206.801 85.4844C206.649 85.6363 206.497 85.7972 206.354 85.9581V87.0754C206.354 89.2921 206.354 91.2585 205.917 93.7791C205.917 93.7702 205.925 93.7612 205.925 93.7523C206.158 93.2518 206.381 92.7333 206.595 92.2775C206.819 90.4183 206.81 88.8541 206.81 87.0754C206.792 86.5659 206.792 86.0385 206.801 85.4844Z" fill="#9B3C82"/>
<path d="M204.353 83.3827C204.478 83.3827 204.577 83.2844 204.577 83.1593C204.577 82.8465 204.478 75.7673 203.255 72.1562C203.13 72.5585 203.058 72.9249 203.058 72.9249C203.934 76.7416 204.13 83.0878 204.13 83.1593C204.13 83.2844 204.228 83.3827 204.353 83.3827Z" fill="#9B3C82"/>
<path d="M161.431 118.867C161.431 118.867 160.181 119.6 157.635 120.207L159.109 108.141L161.431 118.867Z" fill="#F4ADA2"/>
<path d="M145.888 160.25C145.888 160.25 151.069 169.635 153.124 179.557C155.178 189.478 153.776 193.027 150.176 193.411C146.576 193.795 138.921 189.746 145.888 160.25Z" fill="#5B2448"/>
<path d="M188.211 211.868C188.211 211.868 178.484 215.167 169.551 212.065C160.618 208.964 150.881 211.109 149.988 215.757C149.104 220.405 157.822 230.326 188.211 211.868Z" fill="#5B2448"/>
<path d="M189.561 219.306L173.205 222.345C172.499 220.378 171.793 218.609 171.105 217.035C170.042 214.622 169.015 212.656 168.042 211.109H188.06C188.06 211.109 188.113 211.378 188.221 211.869C188.471 213.138 189.007 215.882 189.561 219.306Z" fill="#F4ADA2"/>
<path d="M191.267 234.258C191.267 234.258 178.591 240.497 175.902 230.862C175.018 227.689 174.107 224.855 173.205 222.344L189.56 219.305C190.293 223.765 191.052 229.351 191.267 234.258Z" fill="#66B0F0"/>
<path d="M190.079 222.641L174.232 225.34L174.393 225.841C174.428 225.957 174.473 226.082 174.509 226.198L190.204 223.499L190.079 222.641Z" fill="white"/>
<path d="M152.945 179.201C152.945 179.201 150.998 179.532 147.96 179.934C147.63 179.979 147.291 180.023 146.933 180.068C145.156 180.291 143.092 180.524 140.868 180.72C136.366 181.123 131.22 181.382 126.602 181.15C115.07 180.551 123.27 168.082 123.27 168.082C125.816 167.17 128.773 166.267 132.033 165.141C134.865 164.158 137.92 163.014 141.118 161.53C141.627 161.298 142.145 161.047 142.663 160.797C143.449 160.404 151.158 174.732 152.945 179.201Z" fill="#F4ADA2"/>
<path d="M152.945 179.201C152.945 179.201 150.998 179.531 147.961 179.934C147.398 175.876 144.968 167.447 141.127 161.53C141.636 161.297 142.154 161.047 142.672 160.797C143.449 160.412 151.158 174.731 152.945 179.201Z" fill="#9B3C82"/>
<path d="M140.868 180.712C136.366 181.114 131.22 181.374 126.602 181.141C115.07 180.542 123.27 168.074 123.27 168.074C125.816 167.162 128.773 166.259 132.033 165.133L140.868 180.712Z" fill="#66B0F0"/>
<path d="M137.098 180.997L129.246 166.07C128.96 166.169 128.666 166.258 128.389 166.356L136.124 181.06C136.446 181.033 136.768 181.015 137.098 180.997Z" fill="white"/>
<path d="M188.212 211.869C181.173 215.695 175.822 216.589 171.097 217.035C170.034 214.622 169.006 212.656 168.033 211.109H184.514C186.792 211.512 188.212 211.869 188.212 211.869Z" fill="#9B3C82"/>
<path d="M124.182 124.586C120.635 134.401 128.38 147.111 135.616 155.334C142.851 163.557 152.32 172.764 152.945 183.4C153.571 194.037 151.069 209.679 149.997 215.757C152.052 210.126 160.806 210.126 170.096 212.182C179.386 214.237 188.212 211.869 188.212 211.869C188.212 211.869 182.87 186.886 179.833 176.25C179.833 176.25 205.738 156.407 196.537 143.804C187.336 131.201 170.364 122.888 161.431 118.866C152.499 114.844 127.666 114.933 124.182 124.586Z" fill="#F94F46"/>
<path d="M170.355 149.297C170.266 149.324 170.212 149.342 170.203 149.342C170.185 149.351 170.159 149.351 170.132 149.351C170.007 149.351 169.909 149.253 169.909 149.128C169.909 149.029 169.971 148.94 170.069 148.913C170.078 148.913 170.114 148.904 170.177 148.877C166.952 141.494 162.557 132.449 157.769 125.414C157.697 125.316 157.563 125.289 157.456 125.361C157.358 125.432 157.331 125.566 157.403 125.674C163.03 133.95 168.122 145.043 171.4 152.882C174.813 161.042 178.082 170.115 179.833 176.255C179.86 176.237 179.994 176.13 180.208 175.96C178.091 168.577 174.393 158.915 171.802 152.712C171.365 151.63 170.873 150.486 170.355 149.297Z" fill="#FCB6B1"/>
<path d="M151.328 164.909C151.31 164.784 151.194 164.703 151.069 164.721C150.944 164.739 150.864 164.855 150.881 164.98C151.65 169.861 152.034 175.054 152.248 179.264C152.507 180.22 152.704 181.195 152.82 182.178C152.659 177.628 152.293 171.023 151.328 164.909Z" fill="#FCB6B1"/>
<path d="M182.852 147.382C177.617 146.721 171.078 148.607 170.176 148.875C170.114 148.893 170.078 148.901 170.069 148.91C169.98 148.937 169.908 149.027 169.908 149.125C169.908 149.25 170.006 149.348 170.132 149.348C170.158 149.348 170.176 149.348 170.203 149.339C170.212 149.339 170.257 149.322 170.355 149.295C171.4 148.982 177.724 147.185 182.789 147.829C182.914 147.847 183.022 147.757 183.039 147.641C183.057 147.516 182.977 147.4 182.852 147.382Z" fill="#FCB6B1"/>
<path d="M159.109 108.141L161.431 118.867C161.431 118.867 160.181 119.6 157.635 120.208C154.571 120.941 149.613 121.495 142.672 120.386C133.114 118.867 124.182 124.587 124.182 124.587L127.04 96.6106L137.402 68.6337C139.635 70.1532 144.191 74.2648 149.104 69.4381C148.389 67.4717 148.774 66.5868 148.774 66.5868C148.774 66.5868 154.205 62.3769 157.778 71.7174C161.333 81.0222 168.176 96.6731 175.822 104.128L159.109 108.141Z" fill="#21A0AA"/>
<path d="M163.155 50.4179C162.977 52.3128 162.664 58.3372 159.689 59.526C158.474 60.0176 155.053 58.9361 153.445 58.2389C153.418 58.2389 153.392 58.2389 153.374 58.2389C152.811 58.2478 151.301 58.6411 150.194 60.5092C149.229 62.1271 148.568 64.8622 149.113 69.4386C149.113 69.4386 144.825 75.1591 137.411 68.6341C137.411 68.6341 137.054 65.6845 135.178 64.3438C135.178 64.3438 141.788 59.3383 143.396 51.2938C143.575 51.0257 145.468 47.2269 145.388 47.2269C144.977 47.218 144.611 47.209 144.289 47.1912L144.155 47.1822C144.119 47.1822 144.093 47.1822 144.057 47.1733C144.003 47.1733 143.941 47.1644 143.887 47.1644C143.762 47.1554 143.646 47.1554 143.539 47.1465C143.494 47.1465 143.449 47.1375 143.414 47.1375C142.985 47.1107 142.646 47.0839 142.351 47.0571C142.306 47.0571 142.27 47.0482 142.226 47.0482C142.181 47.0482 142.145 47.0392 142.11 47.0392C142.074 47.0392 142.038 47.0303 142.002 47.0303C141.967 47.0303 141.931 47.0213 141.895 47.0213L149.935 32.2642C150.024 32.2553 150.113 32.2463 150.203 32.2374H150.221C151.605 32.1212 152.999 32.2463 154.339 32.6039C157.349 33.4262 159.698 35.5982 160.984 38.4138C161.52 39.5847 161.887 40.8182 162.173 42.0785C162.262 42.4628 162.324 42.8472 162.378 43.2315V43.2404C162.449 43.7589 162.503 44.2862 162.566 44.8046C162.61 45.1801 162.655 45.5465 162.709 45.9219C162.78 46.4046 162.86 46.9945 163.075 47.4504C163.289 47.8973 163.682 48.2012 164.075 48.4783C164.924 49.0414 163.906 50.114 163.155 50.4179Z" fill="#F4ADA2"/>
<path d="M162.565 44.8008C154.955 47.6521 147.934 47.2499 147.934 47.2499L158.019 44.4344L162.092 43.2992L162.378 43.2188V43.2277C162.449 43.764 162.503 44.2824 162.565 44.8008Z" fill="#9B3C82"/>
<path opacity="0.52" d="M153.481 53.5556C154.852 53.5556 155.964 52.4431 155.964 51.0708C155.964 49.6984 154.852 48.5859 153.481 48.5859C152.109 48.5859 150.998 49.6984 150.998 51.0708C150.998 52.4431 152.109 53.5556 153.481 53.5556Z" fill="#E57281"/>
<path d="M153.445 58.2379C153.418 58.2379 153.392 58.2379 153.374 58.2379C152.811 58.2469 151.301 58.6402 150.194 60.5083C148.211 58.4614 147.96 55.9408 148.666 55.5833C149.202 55.3151 150.015 56.0123 150.542 56.4056C151.605 57.1922 152.409 57.7285 153.445 58.2379Z" fill="#5B2448"/>
<path d="M157.215 45.0378C155.928 45.5115 155.267 46.6646 155.571 47.2545C155.875 47.8444 157.152 47.8712 158.331 47.1741C159.537 46.4501 160.279 45.4758 159.975 44.9574C159.653 44.4211 158.492 44.573 157.215 45.0378Z" fill="#5B2448"/>
<path d="M160.654 54.326C160.485 54.4064 160.306 54.46 160.118 54.46C159.94 54.469 159.761 54.4422 159.582 54.3975C159.225 54.2991 158.912 54.1114 158.662 53.8433C158.537 53.7092 158.439 53.5483 158.359 53.3874C158.287 53.2176 158.233 53.0388 158.207 52.8601C158.153 52.4936 158.242 52.1271 158.448 51.8143C158.51 51.7249 158.635 51.6981 158.725 51.7607C158.796 51.8143 158.823 51.8947 158.805 51.9841V51.9931C158.698 52.3685 158.734 52.7707 158.912 53.1193C158.966 53.2355 159.037 53.3338 159.127 53.4321C159.305 53.6198 159.52 53.7628 159.761 53.8612C160.002 53.9595 160.261 53.9952 160.52 53.9595H160.529C160.636 53.9416 160.744 54.0131 160.761 54.1204C160.77 54.2008 160.726 54.2902 160.654 54.326Z" fill="#9B3C82"/>
<path d="M158.215 48.0971C158.733 47.82 159.975 47.1764 161.02 46.1932C161.163 46.0591 161.395 46.0591 161.529 46.2022C161.887 46.5776 162.351 47.2926 161.556 47.8736C160.583 48.5887 158.716 48.7674 158.189 48.401C158.108 48.3384 158.09 48.2222 158.144 48.1418C158.171 48.1328 158.198 48.1149 158.215 48.0971Z" fill="#5B2448"/>
<path d="M143.074 48.9349C142.985 48.9528 142.887 48.9707 142.762 48.9885C139.716 49.4355 126.468 49.1584 125.888 45.3328C125.432 42.2759 134.401 40.7743 138.572 40.2469C138.733 40.229 138.885 40.2111 139.037 40.1933C139.948 40.086 140.555 40.0324 140.645 40.0234H140.654L143.074 48.9349Z" fill="#F94F46"/>
<path d="M143.074 48.9349C142.985 48.9528 142.887 48.9707 142.762 48.9885C141.52 48.3718 138.018 45.7618 138.581 40.2469C138.742 40.229 138.894 40.2111 139.046 40.1933C139.957 40.086 140.564 40.0324 140.654 40.0234H140.663C140.663 40.0234 140.797 46.0478 143.074 48.9349Z" fill="#5B2448"/>
<path d="M162.378 43.2304C161.994 43.436 161.449 43.7041 160.985 43.9097C160.985 43.9097 160.976 43.9186 160.967 43.9186C160.208 44.2493 159.296 44.6069 158.296 44.9555C158.216 44.9823 158.135 45.0091 158.064 45.0359C158.064 45.0359 158.064 45.0359 158.055 45.0359C154.768 46.1711 150.587 47.2437 147.925 47.2526C147.032 47.2526 146.264 47.2437 145.611 47.2347C145.531 47.2347 145.451 47.2347 145.379 47.2258C144.968 47.2169 144.602 47.2079 144.28 47.19C144.236 47.19 144.191 47.19 144.146 47.1811L144.048 47.1722C143.995 47.1722 143.932 47.1632 143.878 47.1632C143.753 47.1543 143.637 47.1543 143.53 47.1454C143.485 47.1454 143.441 47.1364 143.405 47.1364C142.976 47.1096 142.637 47.0828 142.342 47.056C142.297 47.056 142.262 47.047 142.217 47.047C142.172 47.047 142.137 47.0381 142.101 47.0381C142.065 47.0381 141.869 47.0023 141.779 46.9934C138.206 40.9243 141.949 33.005 149.935 32.2631C150.024 32.2541 150.114 32.2452 150.203 32.2452H150.221C151.605 32.129 152.999 32.2541 154.339 32.6117C157.349 33.434 159.698 35.606 160.985 38.4216C161.074 38.6182 161.163 38.8149 161.244 39.0204C161.637 40.0126 161.949 41.0405 162.173 42.0863C162.253 42.4527 162.325 42.846 162.378 43.2304Z" fill="#F94F46"/>
<path d="M147.934 47.2584C147.934 47.2584 145.861 44.9702 143.226 45.6853C140.743 46.3557 140.805 50.1008 144.941 52.5052C145.575 52.8717 146.728 53.3186 147.657 53.4616L147.934 47.2584Z" fill="#F4ADA2"/>
<path d="M146.37 53.2085C146.486 53.2085 146.585 53.1191 146.594 53.0029C146.603 52.8778 146.513 52.7705 146.388 52.7616C146.379 52.7616 145.808 52.7169 145.004 52.3683C144.557 52.1716 143.985 51.8677 143.369 51.3672C143.333 51.5281 143.297 51.6979 143.262 51.8588C144.87 53.0923 146.281 53.2085 146.352 53.2085H146.37Z" fill="#9B3C82"/>
<path d="M147.568 50.9746C147.478 50.9746 147.398 50.9209 147.362 50.8405C146.183 48.2126 143.905 48.2752 143.878 48.2752C143.753 48.2752 143.655 48.1858 143.646 48.0607C143.637 47.9355 143.735 47.8372 143.86 47.8283C143.887 47.8283 146.469 47.7568 147.773 50.6617C147.827 50.7779 147.773 50.9031 147.657 50.9567C147.639 50.9656 147.603 50.9746 147.568 50.9746Z" fill="#9B3C82"/>
<path d="M162.378 43.2356C161.994 43.4412 161.449 43.7094 160.984 43.9149C160.984 43.9149 160.976 43.9239 160.967 43.9239C160.207 44.2546 159.296 44.6121 158.296 44.9607C158.215 44.9875 158.135 45.0143 158.063 45.0412C157.59 44.1384 157.349 42.4044 157.912 41.2334C158.474 40.0625 159.591 39.2581 161.235 39.0078C161.628 40 161.94 41.0279 162.164 42.0736C162.253 42.458 162.324 42.8513 162.378 43.2356Z" fill="#5B2448"/>
<path d="M125.209 205.116C123.431 204.847 120.448 202.935 117.768 198.072L104.717 174.404C113.194 170.721 120.073 169.291 124.289 167.664C125.138 170.399 123.467 171.525 124.119 174.252C124.879 177.407 125.986 177.568 127.603 185.228C127.63 185.353 127.666 185.469 127.692 185.594C127.701 185.63 127.71 185.657 127.719 185.693C128.219 187.766 128.514 189.876 128.604 192.003C128.916 200.208 125.584 204.642 125.236 205.071C125.227 205.08 125.218 205.089 125.218 205.098C125.218 205.107 125.209 205.116 125.209 205.116Z" fill="white"/>
<path d="M125.209 205.338C125.2 205.338 125.191 205.338 125.173 205.338C123.244 205.052 120.234 203.014 117.572 198.178L104.521 174.51C104.458 174.403 104.503 174.269 104.61 174.206C104.619 174.206 104.628 174.197 104.637 174.197C109.621 172.159 114.409 170.631 119.045 169.138C120.778 168.584 122.413 168.056 124.066 167.502C124.182 167.466 124.307 167.529 124.352 167.645C124.387 167.761 124.325 167.887 124.209 167.931C122.556 168.485 120.912 169.013 119.179 169.567C114.624 171.024 109.925 172.534 105.039 174.519L117.965 197.964C120.493 202.549 123.289 204.534 125.12 204.873C125.691 204.122 128.854 199.6 128.559 191.823C128.47 189.714 128.175 187.613 127.674 185.558L127.648 185.459C127.639 185.415 127.63 185.379 127.621 185.334C127.603 185.254 127.576 185.173 127.558 185.084C127.219 183.457 126.415 180.802 125.977 179.819C125.924 179.703 125.977 179.578 126.093 179.524C126.21 179.471 126.335 179.524 126.388 179.64C126.835 180.642 127.648 183.35 127.996 184.994C128.014 185.075 128.032 185.146 128.05 185.227C128.059 185.272 128.068 185.316 128.085 185.352L128.112 185.45C128.612 187.533 128.916 189.66 129.005 191.805C129.318 199.975 125.87 204.65 125.432 205.213C125.432 205.222 125.423 205.222 125.423 205.231C125.415 205.24 125.406 205.249 125.406 205.258L125.397 205.267C125.343 205.302 125.281 205.329 125.209 205.338Z" fill="#5B2448"/>
<path d="M122.601 177.134C122.529 177.134 122.467 177.099 122.422 177.045C120.912 174.989 120.162 174.658 118.652 173.997C118.25 173.818 117.795 173.622 117.268 173.362C114.722 172.12 114.293 171.056 114.275 171.012C114.231 170.895 114.293 170.77 114.409 170.726C114.525 170.681 114.65 170.743 114.695 170.851C114.704 170.869 115.124 171.825 117.464 172.96C117.991 173.21 118.438 173.407 118.831 173.586C120.358 174.247 121.198 174.623 122.779 176.777C122.851 176.875 122.833 177.018 122.735 177.09C122.699 177.116 122.654 177.134 122.601 177.134Z" fill="#5B2448"/>
<path d="M126.138 203.9C126.102 203.9 126.067 203.891 126.04 203.873C122.904 202.354 120.519 199.824 118.938 196.365C117.911 194.113 117.232 191.458 116.911 188.481C116.714 186.658 116.053 185.818 115.41 185.013C114.865 184.325 114.293 183.61 114.043 182.341C113.847 181.34 113.981 180.535 114.106 179.758C114.275 178.73 114.436 177.755 113.882 176.316C112.659 173.152 109.979 172.598 109.952 172.589C109.827 172.562 109.755 172.446 109.773 172.33C109.8 172.205 109.916 172.133 110.032 172.151C110.148 172.178 112.971 172.75 114.293 176.156C114.892 177.702 114.713 178.783 114.543 179.829C114.418 180.598 114.293 181.331 114.472 182.251C114.695 183.413 115.204 184.057 115.749 184.727C116.428 185.585 117.143 186.47 117.348 188.428C117.661 191.36 118.331 193.97 119.34 196.177C120.877 199.538 123.199 201.987 126.236 203.471C126.344 203.525 126.397 203.659 126.344 203.766C126.308 203.855 126.227 203.9 126.138 203.9Z" fill="#5B2448"/>
<path d="M111.211 180.782C110.836 180.773 110.47 180.657 110.148 180.451C109.559 180.103 109.014 179.513 108.621 178.789C108.228 178.065 108.013 177.287 108.031 176.608C108.049 175.884 108.326 175.339 108.8 175.071C109.273 174.802 109.88 174.865 110.506 175.24C111.095 175.589 111.64 176.179 112.033 176.903C112.426 177.627 112.641 178.405 112.623 179.084C112.605 179.808 112.328 180.353 111.855 180.621C111.658 180.728 111.435 180.782 111.211 180.782ZM109.434 175.357C109.282 175.357 109.139 175.392 109.005 175.464C108.674 175.643 108.487 176.054 108.469 176.617C108.451 177.225 108.648 177.913 109.005 178.574C109.362 179.236 109.854 179.763 110.372 180.067C110.854 180.353 111.301 180.416 111.631 180.228C111.962 180.049 112.149 179.638 112.167 179.075C112.185 178.467 111.989 177.779 111.631 177.117C111.274 176.456 110.783 175.929 110.264 175.625C110.014 175.455 109.729 175.365 109.434 175.357Z" fill="#5B2448"/>
<path d="M128.139 187.183C127.969 187.183 127.8 187.121 127.683 187.004C126.352 185.753 124.825 184.913 123.146 184.502C121.886 184.198 121.002 184.269 120.993 184.269C120.627 184.305 120.296 184.028 120.269 183.661C120.233 183.295 120.51 182.964 120.877 182.937C121.046 182.92 124.977 182.598 128.612 186.03C128.88 186.28 128.898 186.709 128.639 186.978C128.496 187.103 128.327 187.183 128.139 187.183Z" fill="#FFCF2D"/>
<path d="M128.585 191.01C128.398 191.01 128.21 190.93 128.085 190.787C125.271 187.658 121.466 187.757 121.43 187.757C121.421 187.757 121.412 187.757 121.403 187.757C121.037 187.757 120.733 187.453 120.733 187.086C120.733 186.729 121.019 186.434 121.377 186.416C121.555 186.407 125.852 186.309 129.077 189.893C129.327 190.17 129.3 190.59 129.023 190.84C128.907 190.948 128.746 191.01 128.585 191.01Z" fill="#FFCF2D"/>
<path d="M128.657 194.633C128.46 194.633 128.282 194.553 128.157 194.401C125.682 191.585 122.395 191.567 122.368 191.567C122.002 191.567 121.698 191.272 121.689 190.906C121.689 190.539 121.984 190.236 122.35 190.227C122.511 190.227 126.272 190.218 129.166 193.516C129.407 193.793 129.381 194.222 129.104 194.463C128.97 194.571 128.818 194.633 128.657 194.633Z" fill="#FFCF2D"/>
<path d="M212.277 247.17C211.187 248.6 208.069 250.29 202.513 250.29H175.509C176.304 245.651 177.349 237.919 175.777 230.312C178.582 230.885 178.761 232.896 181.459 233.638C184.576 234.496 188.56 233.182 196.046 235.461C196.171 235.497 196.287 235.524 196.412 235.559C196.448 235.568 196.474 235.577 196.51 235.586C198.565 236.149 200.557 236.909 202.459 237.856C209.793 241.548 212.053 246.607 212.268 247.116C212.277 247.125 212.277 247.134 212.277 247.143V247.17Z" fill="white"/>
<path d="M202.522 250.505H175.509C175.384 250.505 175.286 250.407 175.286 250.281C175.286 250.273 175.286 250.264 175.286 250.255C175.393 249.307 175.509 248.395 175.626 247.511C176.358 241.683 176.93 237.071 175.572 230.492C175.545 230.367 175.626 230.251 175.742 230.224C175.867 230.197 175.983 230.278 176.01 230.394C177.385 237.044 176.805 241.683 176.072 247.555C175.974 248.36 175.867 249.191 175.769 250.049H202.531C207.766 250.049 210.856 248.556 212.036 247.117C211.651 246.25 209.231 241.298 202.272 237.804C200.378 236.865 198.404 236.105 196.359 235.551L196.26 235.524C196.216 235.515 196.18 235.506 196.135 235.489C196.055 235.471 195.974 235.444 195.885 235.417C194.295 234.934 191.588 234.344 190.517 234.255C190.391 234.246 190.302 234.139 190.311 234.014C190.32 233.889 190.427 233.799 190.552 233.808C191.651 233.898 194.402 234.496 196.019 234.988C196.099 235.015 196.171 235.033 196.251 235.051C196.296 235.06 196.341 235.068 196.376 235.086L196.475 235.113C198.538 235.676 200.548 236.445 202.469 237.401C209.776 241.084 212.196 246.366 212.473 247.01C212.473 247.01 212.473 247.019 212.482 247.019C212.491 247.037 212.491 247.046 212.5 247.055L212.509 247.064C212.536 247.135 212.527 247.216 212.482 247.278C211.276 248.851 208.043 250.505 202.522 250.505Z" fill="#5B2448"/>
<path d="M176.733 240.289C176.643 240.289 176.599 240.289 176.59 240.28C176.465 240.271 176.375 240.163 176.384 240.038C176.393 239.913 176.501 239.824 176.626 239.833C176.643 239.833 178.242 239.949 180.413 238.421C180.887 238.09 181.28 237.786 181.619 237.518C182.941 236.499 183.665 235.936 186.318 235.596C186.443 235.578 186.55 235.668 186.568 235.784C186.586 235.909 186.496 236.016 186.38 236.034C186.38 236.034 186.38 236.034 186.371 236.034C183.843 236.356 183.191 236.865 181.887 237.866C181.539 238.135 181.146 238.438 180.663 238.778C178.716 240.164 177.197 240.289 176.733 240.289Z" fill="#5B2448"/>
<path d="M202.986 248.491C202.531 248.491 202.075 248.473 201.602 248.437C199.136 248.25 196.483 247.57 193.723 246.399C192.035 245.684 190.981 245.863 189.962 246.042C189.096 246.194 188.203 246.346 186.97 245.943C185.996 245.631 185.362 245.121 184.737 244.638C183.915 243.995 183.147 243.378 181.619 243.173C178.26 242.717 176.474 244.79 176.456 244.808C176.376 244.898 176.233 244.907 176.143 244.826C176.054 244.746 176.045 244.612 176.116 244.522C176.197 244.433 178.064 242.243 181.682 242.726C183.325 242.949 184.183 243.628 185.014 244.281C185.63 244.764 186.211 245.228 187.104 245.514C188.229 245.881 189.033 245.738 189.891 245.595C190.972 245.407 192.088 245.219 193.902 245.979C196.617 247.123 199.226 247.803 201.646 247.981C205.327 248.258 208.596 247.409 211.356 245.461C211.455 245.389 211.597 245.416 211.669 245.514C211.74 245.613 211.714 245.756 211.615 245.827C209.105 247.597 206.211 248.491 202.986 248.491Z" fill="#5B2448"/>
<path d="M181.226 248.991C179.449 248.991 178.055 248.133 178.055 247.042C178.055 245.952 179.449 245.094 181.226 245.094C183.004 245.094 184.397 245.952 184.397 247.042C184.397 248.133 183.004 248.991 181.226 248.991ZM181.226 245.532C179.752 245.532 178.502 246.22 178.502 247.033C178.502 247.847 179.752 248.535 181.226 248.535C182.7 248.535 183.951 247.847 183.951 247.033C183.951 246.22 182.7 245.532 181.226 245.532Z" fill="#5B2448"/>
<path d="M191.392 241.196C191.025 241.196 190.722 240.892 190.722 240.525C190.722 240.436 190.74 240.347 190.775 240.257C190.838 240.105 192.455 236.503 197.216 234.975C197.573 234.867 197.948 235.064 198.055 235.413C198.163 235.761 197.975 236.137 197.627 236.253C193.473 237.585 192.017 240.767 192.008 240.793C191.901 241.044 191.66 241.196 191.392 241.196Z" fill="#FFCF2D"/>
<path d="M194.67 242.468C194.304 242.468 194 242.164 194 241.798C194 241.691 194.027 241.592 194.071 241.494C194.152 241.333 196.135 237.525 200.825 236.426C201.182 236.337 201.548 236.56 201.638 236.918C201.727 237.275 201.504 237.642 201.146 237.731H201.137C197.073 238.678 195.286 242.066 195.268 242.102C195.152 242.325 194.929 242.468 194.67 242.468Z" fill="#FFCF2D"/>
<path d="M198.458 243.48C198.091 243.48 197.788 243.177 197.788 242.81C197.788 242.703 197.814 242.596 197.868 242.497C197.939 242.354 199.753 239.056 204.041 238.118C204.398 238.037 204.755 238.269 204.836 238.627C204.916 238.985 204.684 239.342 204.326 239.423C200.664 240.227 199.065 243.096 199.047 243.132C198.931 243.346 198.708 243.48 198.458 243.48Z" fill="#FFCF2D"/>
<path d="M124.271 100.456C129.541 94.646 138.179 78.709 137.402 68.6356C136.598 58.2672 126.058 63.4514 113.552 74.9818C108.21 79.9068 101.314 83.2944 99.5273 84.6351C103.726 83.7413 109.711 88.0317 114.534 93.3947C116.526 95.6114 119.715 99.3833 124.271 100.456Z" fill="#21A0AA"/>
<path d="M159.109 108.146L159.538 108.039C158.216 103.596 150.283 76.8082 149.086 69.4609C149.051 69.5056 148.917 69.6665 148.702 69.881C150.087 77.7467 157.84 103.873 159.109 108.146Z" fill="#6CE0DC"/>
<path d="M137.875 69.035C137.714 68.9099 137.563 68.7758 137.402 68.6328C137.67 72.1098 136.759 77.1331 134.901 82.3173C133.516 86.1876 131.06 91.6936 126.959 97.3694L126.87 98.2454C131.274 92.3104 133.873 86.5094 135.321 82.4693C137.152 77.3655 138.054 72.5657 137.875 69.035Z" fill="#6CE0DC"/>
<path d="M122.439 100.106C122.422 100.106 122.404 100.106 122.386 100.097C115.731 98.4163 110.291 96.5303 106.218 94.4924C102.743 92.7494 100.331 90.9171 99.2589 89.1741C98.3925 87.7797 98.2585 86.1798 98.9284 85.2055C99.3661 84.5709 100.313 83.8916 102.368 84.2759C102.493 84.3027 102.573 84.4189 102.546 84.5351C102.519 84.6603 102.403 84.7407 102.287 84.7139C100.849 84.4457 99.8128 84.7049 99.2947 85.4558C98.723 86.287 98.857 87.6903 99.6341 88.9328C101.948 92.669 110.273 96.575 122.493 99.6498C122.609 99.6766 122.69 99.8017 122.654 99.9179C122.636 100.034 122.547 100.097 122.439 100.106Z" fill="#21A0AA"/>
<path d="M175.188 93.3972C175.009 95.0955 173.58 95.9 173.58 95.9C173.312 98.0451 171.793 98.4921 171.793 98.4921C171.793 98.4921 171.704 100.637 167.595 100.28C163.486 99.9222 162.593 97.1513 162.593 97.1513C162.593 97.1513 160.359 96.9725 157.796 95.5156C156.974 95.0329 155.938 95.1849 155.286 95.8731C149.64 101.906 135.598 126.925 116.589 125.486C100.349 124.261 100.403 102.13 103.895 90.3046C103.958 90.0811 104.029 89.8666 104.092 89.661C104.485 88.3918 104.976 87.1583 105.557 85.9695C108.478 87.5158 111.578 90.1705 114.32 93.1738C114.391 93.2453 114.668 93.5581 114.695 93.5939C116.303 95.3905 118.634 98.0451 121.77 99.5736C121.993 99.6898 122.216 99.7971 122.431 99.8864L122.44 99.8775C122.44 99.8775 122.44 99.8775 122.449 99.8686C124.325 98.3133 126.174 96.8474 127.987 95.4799C140.716 85.8891 151.927 80.973 161.798 81.554C167.461 81.8936 177.135 88.6599 180.798 94.1123C184.46 99.5647 175.366 93.4866 175.188 93.3972Z" fill="#F4ADA2"/>
<path d="M122.44 99.8779C117.92 98.5818 114.257 96.2489 110.005 93.3976C107.424 91.6636 105.217 90.7519 103.886 90.296C103.949 90.0726 104.02 89.858 104.083 89.6525C104.476 88.3832 104.967 87.1497 105.548 85.9609C108.469 87.5073 111.568 90.1619 114.311 93.1652C114.382 93.2367 114.659 93.5496 114.686 93.5853C116.294 95.3819 118.625 98.0366 121.761 99.565C122.002 99.6812 122.225 99.7885 122.44 99.8779Z" fill="#9B3C82"/>
<path d="M167.818 98.672C167.898 98.672 167.979 98.6273 168.015 98.5558C168.068 98.4485 168.032 98.3145 167.916 98.2519C166.362 97.4385 164.066 97.1882 162.592 97.1525C161.118 97.1167 162.646 97.3223 162.798 97.5905C164.227 97.6352 166.291 97.9033 167.72 98.6452C167.747 98.6631 167.782 98.672 167.818 98.672Z" fill="#9B3C82"/>
<path d="M168.185 92.7119C168.077 92.6583 167.943 92.694 167.881 92.8102C167.827 92.9175 167.863 93.0515 167.979 93.1141C169.792 94.0616 171.838 96.028 171.793 98.495C171.847 98.4771 172.043 98.4056 172.249 98.2626C172.177 95.6973 170.06 93.6862 168.185 92.7119Z" fill="#9B3C82"/>
<path d="M170.266 90.1258C170.159 90.0543 170.016 90.0812 169.953 90.1884C169.882 90.2957 169.917 90.4297 170.016 90.5013C170.954 91.1359 171.784 91.9314 172.463 92.852C173.196 93.871 173.562 94.881 173.58 95.9C173.598 95.891 173.794 95.7838 174.018 95.5782C173.937 94.5771 173.535 93.576 172.829 92.5928C172.115 91.6275 171.248 90.7962 170.266 90.1258Z" fill="#9B3C82"/>
<path d="M171.865 87.9161C171.758 87.8535 171.624 87.8803 171.561 87.9876C171.499 88.0948 171.525 88.2289 171.633 88.2915C173.919 89.7127 175.107 91.8847 175.188 93.3952C175.223 93.4131 175.393 93.5204 175.643 93.6813C175.742 91.5182 173.794 89.1138 171.865 87.9161Z" fill="#9B3C82"/>
<path d="M115.213 106.162C115.177 106.207 115.15 106.261 115.15 106.314C115.15 106.439 115.249 106.538 115.374 106.538C115.436 106.538 115.499 106.511 115.534 106.466C115.57 106.421 119.376 102.283 122.422 99.8786C122.27 99.816 122.118 99.7445 121.966 99.6641C118.938 102.113 115.258 106.118 115.213 106.162Z" fill="#9B3C82"/>
</g>
<g clip-path="url(#clip4_6136_10467)">
<path d="M108.252 136.645L96.8951 135.103C96.8636 135.099 96.8315 135.103 96.8024 135.116C96.7733 135.129 96.7484 135.15 96.7305 135.176C96.7126 135.202 96.7023 135.233 96.7009 135.264C96.6994 135.296 96.7068 135.327 96.7223 135.355L103.425 147.314C103.441 147.342 103.464 147.364 103.491 147.38C103.519 147.395 103.551 147.403 103.582 147.401C103.614 147.4 103.645 147.39 103.671 147.372C103.698 147.354 103.718 147.329 103.731 147.3L108.385 136.883C108.396 136.858 108.401 136.832 108.4 136.806C108.399 136.779 108.391 136.754 108.379 136.731C108.366 136.707 108.347 136.688 108.326 136.673C108.304 136.658 108.278 136.648 108.252 136.645Z" fill="#F94F46"/>
</g>
<g clip-path="url(#clip5_6136_10467)">
<path d="M183.777 102.592L188.274 68.5961L188.283 68.5605L188.354 68.5249L200.616 62.5L195.897 99.7443L183.777 102.592Z" fill="#66B0F0"/>
<path d="M201.222 62.2673L196.689 98.6661L196.582 99.4938V99.5027L196.547 99.823C196.502 100.188 196.173 100.455 195.808 100.41C195.514 100.375 195.291 100.161 195.229 99.8942C195.211 99.823 195.211 99.7518 195.22 99.6717C195.22 99.6628 195.22 99.6628 195.22 99.6539L195.362 98.5415L195.416 98.0965L199.744 63.3619L188.897 68.9864L184.712 100.642L184.65 101.113L184.471 102.422L184.436 102.671C184.391 103 184.106 103.249 183.777 103.249C183.75 103.249 183.715 103.249 183.688 103.24C183.323 103.196 183.064 102.858 183.109 102.493L183.251 101.443L183.314 100.971L187.615 68.4613C187.642 68.2477 187.775 68.0519 187.971 67.954L188.042 67.9184L200.251 61.5909C200.581 61.4218 200.981 61.5464 201.151 61.8757C201.213 62.0003 201.24 62.1338 201.222 62.2673Z" fill="#FFCF2D"/>
<path d="M196.075 98.2173C195.888 98.1461 195.692 98.1016 195.478 98.1016C195.451 98.1016 195.434 98.1016 195.407 98.1016C195.309 98.1016 195.211 98.1194 195.113 98.1461L184.694 100.647L183.999 100.816L183.305 100.985L183.242 101.457L184.632 101.118L195.211 98.5732C195.255 98.5643 195.3 98.5554 195.344 98.5465C195.389 98.5465 195.425 98.5376 195.469 98.5376C195.505 98.5376 195.621 98.5465 195.629 98.5465C195.647 98.5465 195.674 98.5554 195.692 98.5554C195.71 98.5554 195.727 98.5643 195.745 98.5643C195.79 98.5732 195.843 98.591 195.888 98.6088C195.897 98.6088 195.906 98.6177 195.923 98.6177C195.95 98.6266 195.986 98.6444 196.012 98.6622C196.039 98.68 196.066 98.6889 196.084 98.7067C196.093 98.7156 196.101 98.7245 196.119 98.7245C196.208 98.7868 196.288 98.8669 196.36 98.947C196.377 98.9737 196.395 99.0004 196.413 99.0271C196.422 99.0449 196.431 99.0627 196.44 99.0805C196.458 99.1161 196.484 99.1517 196.502 99.1962C196.511 99.214 196.511 99.2229 196.52 99.2407C196.547 99.3208 196.573 99.4009 196.582 99.4899L196.689 98.6622C196.529 98.4753 196.315 98.3152 196.075 98.2173ZM157.997 107.882C158.014 107.846 158.032 107.82 158.059 107.784C158.032 107.82 158.014 107.855 157.997 107.882Z" fill="white"/>
<path d="M195.745 100.744L159.377 109.484C157.765 109.849 157.444 107.668 158.7 107.357L183.251 101.456L184.64 101.118L195.22 98.573C195.22 98.573 195.977 98.3505 196.413 99.0447C196.912 99.8367 196.288 100.611 195.745 100.744Z" fill="#9B3C82"/>
<path d="M194.151 100.41C194.373 100.41 194.552 100.231 194.552 100.01C194.552 99.7887 194.373 99.6094 194.151 99.6094C193.93 99.6094 193.75 99.7887 193.75 100.01C193.75 100.231 193.93 100.41 194.151 100.41Z" fill="#FFCF2D"/>
<path d="M189.654 101.39C189.458 101.39 189.298 101.23 189.298 101.034C189.298 100.865 189.414 100.723 189.574 100.687L192.245 100.064C192.441 100.02 192.628 100.135 192.673 100.331C192.717 100.527 192.602 100.714 192.406 100.758L189.734 101.381C189.707 101.39 189.681 101.39 189.654 101.39Z" fill="#FFCF2D"/>
</g>
<g clip-path="url(#clip6_6136_10467)">
<path d="M181.159 82.3096C181.097 82.3096 181.037 82.2851 180.992 82.2414C180.947 82.1976 180.921 82.138 180.919 82.0752L180.718 74.3487C180.716 74.2848 180.74 74.2229 180.784 74.1766C180.828 74.1303 180.888 74.1033 180.952 74.1016C181.016 74.1 181.078 74.1237 181.124 74.1677C181.17 74.2117 181.197 74.2722 181.199 74.3361L181.4 82.0626C181.402 82.1264 181.378 82.1883 181.334 82.2346C181.29 82.2809 181.23 82.3079 181.166 82.3095L181.159 82.3096Z" fill="#FFCF2D"/>
<path d="M176.339 84.6003C176.283 84.6004 176.228 84.5803 176.184 84.5435L170.286 79.5567C170.237 79.5154 170.207 79.4567 170.202 79.3932C170.197 79.3298 170.217 79.2669 170.258 79.2182C170.299 79.1696 170.358 79.1392 170.421 79.1337C170.484 79.1282 170.547 79.1481 170.596 79.1889L176.495 84.1757C176.532 84.2075 176.559 84.2501 176.572 84.2978C176.585 84.3455 176.582 84.396 176.565 84.4423C176.548 84.4886 176.518 84.5287 176.477 84.5569C176.437 84.5852 176.389 84.6003 176.339 84.6003Z" fill="#FFCF2D"/>
</g>
</g>
</g>
<defs>
<clipPath id="clip0_6136_10467">
<rect width="327" height="280" fill="white"/>
</clipPath>
<clipPath id="clip1_6136_10467">
<rect width="327" height="280" fill="white"/>
</clipPath>
<clipPath id="clip2_6136_10467">
<rect width="194.1" height="182.6" fill="white" transform="translate(71.2998 37.5)"/>
</clipPath>
<clipPath id="clip3_6136_10467">
<rect width="121.7" height="218.3" fill="white" transform="translate(90.7998 32.2031)"/>
</clipPath>
<clipPath id="clip4_6136_10467">
<rect width="11.7" height="12.3" fill="white" transform="translate(96.7002 135.102)"/>
</clipPath>
<clipPath id="clip5_6136_10467">
<rect width="44" height="48.6" fill="white" transform="translate(157.4 61.3984)"/>
</clipPath>
<clipPath id="clip6_6136_10467">
<rect width="11.2" height="10.5" fill="white" transform="translate(170.2 74.1016)"/>
</clipPath>
</defs>
</svg>
