<svg width="327" height="280" viewBox="0 0 327 280" fill="none" xmlns="http://www.w3.org/2000/svg">
<g clip-path="url(#clip0_6136_10332)">
<g clip-path="url(#clip1_6136_10332)">
<g clip-path="url(#clip2_6136_10332)">
<path d="M229.6 239.2C233.963 239.2 237.5 238.484 237.5 237.6C237.5 236.716 233.963 236 229.6 236C225.237 236 221.7 236.716 221.7 237.6C221.7 238.484 225.237 239.2 229.6 239.2Z" fill="#5B2448"/>
</g>
<g clip-path="url(#clip3_6136_10332)">
<path d="M94.5501 239.3C98.9408 239.3 102.5 238.561 102.5 237.65C102.5 236.739 98.9408 236 94.5501 236C90.1594 236 86.6001 236.739 86.6001 237.65C86.6001 238.561 90.1594 239.3 94.5501 239.3Z" fill="#5B2448"/>
</g>
<g clip-path="url(#clip4_6136_10332)">
<path d="M91.1426 117.052C83.9415 115.339 73.7936 114.05 66.9056 118.102C65.6624 118.829 61.8869 121.058 62.2829 122.807C62.5407 123.94 64.4469 124.41 65.202 124.594C71.823 126.205 86.1792 119.483 91.1426 117.052Z" fill="#5B2448"/>
<path d="M114.008 99.7031C116.466 106.269 118.925 112.835 121.384 119.401C111.144 120.478 100.895 121.565 90.6548 122.642C90.71 116.997 90.7653 111.343 90.8205 105.698C98.5465 103.709 106.282 101.701 114.008 99.7031Z" fill="#F94F46"/>
<path d="M132.811 109.356C128.548 109.144 123.603 109.743 118.612 110.737C118.474 110.765 118.345 110.793 118.207 110.82C104.348 113.647 90.3783 119.477 90.3783 119.477L90.0652 117.091L85.7556 84.6031L85.7188 84.3085C85.7188 84.3085 85.7372 84.29 85.7648 84.2532L85.8477 84.1703C86.1331 83.8664 86.8146 83.0929 87.275 82.2641L101.456 82.1628C101.511 82.126 101.576 82.0984 101.631 82.0615C101.751 81.9971 101.871 81.9326 101.99 81.8682C116.254 74.6946 132.811 109.356 132.811 109.356Z" fill="#F94F46"/>
<path d="M119.395 113.727C119.312 113.727 119.229 113.672 119.202 113.589C116.301 105.034 112.304 96.9768 107.304 89.6375C105.647 87.1971 103.842 84.8029 101.963 82.5191C101.889 82.4362 101.908 82.3073 101.991 82.2337C102.074 82.16 102.203 82.1784 102.276 82.2613C104.164 84.5542 105.969 86.9577 107.636 89.4072C112.645 96.7742 116.669 104.859 119.579 113.451C119.616 113.562 119.561 113.672 119.45 113.709C119.441 113.727 119.423 113.727 119.395 113.727Z" fill="#FCB6B1"/>
<path d="M98.5373 206.13C95.4524 201.111 91.7598 197.244 89.7062 189.37C87.8277 182.141 84.3376 181.386 82.4683 183.035C80.2214 185.005 79.6965 194.159 98.5373 206.13Z" fill="#5B2448"/>
<path d="M99.3291 205.772C99.0804 205.883 98.8134 206.003 98.5371 206.122C96.6217 206.96 93.9605 208.01 91.2808 209.014C88.5734 210.036 85.8477 211.003 83.831 211.666L80.5988 205.8C80.5988 205.8 80.1199 200.836 80.8843 199.437C82.33 198.571 83.6468 197.752 84.8347 196.987C85.1294 196.794 85.4149 196.61 85.6911 196.425C85.8661 196.306 86.0411 196.195 86.2068 196.085C88.2511 194.731 89.8074 193.608 90.8019 192.862C91.6583 192.226 92.1003 191.867 92.1003 191.867C92.1003 191.867 97.9478 200.625 99.3291 205.772Z" fill="#F4ADA2"/>
<path d="M91.2811 209.019C88.5738 210.041 85.848 211.008 83.8313 211.671L80.5991 205.805L80.8846 199.442C82.3303 198.576 83.6472 197.757 84.8351 196.992L91.2811 209.019Z" fill="#66B0F0"/>
<path d="M89.5038 209.681L83.1314 198.078C82.9012 198.225 82.6618 198.373 82.4224 198.52L88.7118 209.976C88.9697 209.874 89.2367 209.782 89.5038 209.681Z" fill="white"/>
<path d="M98.5373 206.13C91.4007 201.903 86.207 196.083 86.207 196.083C88.2513 194.729 89.8168 193.551 90.8113 192.805L98.5373 206.13Z" fill="#9B3C82"/>
<path d="M118.971 213.258C113.86 213.433 108.648 213.11 99.6884 206.222C95.1118 202.704 90.7929 202.087 90.1759 205.338C89.1906 210.513 99.3293 216.95 118.971 213.258Z" fill="#5B2448"/>
<path d="M118.971 213.337C118.971 213.337 118.778 214.037 118.437 215.142C118.382 215.317 118.327 215.51 118.262 215.713C118.161 216.026 118.06 216.367 117.94 216.726C117.24 218.89 116.255 221.763 115.131 224.314C115.085 224.415 115.039 224.516 114.993 224.627L108.4 224.691L103.556 220.557C103.667 219.277 103.768 217.527 103.869 215.713C103.878 215.529 103.888 215.335 103.897 215.142C103.915 214.81 103.934 214.479 103.943 214.147C104.026 212.481 104.099 210.851 104.155 209.561L104.164 209.396C104.228 207.95 104.265 206.992 104.265 206.992L118.971 213.337Z" fill="#F4ADA2"/>
<path d="M118.971 213.34C115.444 214.132 106.383 214.307 103.952 214.15C104.035 212.483 104.109 210.853 104.164 209.564L104.173 209.398L118.971 213.34Z" fill="#9B3C82"/>
<path d="M117.94 216.732C117.24 218.896 116.255 221.769 115.131 224.32C115.085 224.421 115.039 224.522 114.993 224.633L108.4 224.697L103.556 220.563C103.667 219.283 103.768 217.533 103.869 215.719L117.94 216.732Z" fill="#66B0F0"/>
<path d="M117.277 218.724C113.584 218.457 106.798 217.978 103.75 217.812C103.731 218.098 103.713 218.374 103.694 218.65C106.669 218.816 113.253 219.277 116.992 219.553C117.093 219.267 117.185 218.991 117.277 218.724Z" fill="white"/>
<path d="M133.935 235.459C133.116 236.435 131.403 237.789 127.811 238.102C121.2 238.682 101.254 238.388 101.254 238.388C101.641 236.223 101.88 234.815 102.083 233.562C102.073 233.571 102.064 233.581 102.055 233.581C102.322 231.527 102.589 229.391 102.838 227.457C103.188 224.74 103.464 222.41 103.621 221.259C103.621 221.25 103.621 221.241 103.621 221.232C103.685 220.753 103.722 220.477 103.731 220.477C106.107 220.652 107.147 222.788 109.09 223.488C109.155 223.506 109.219 223.534 109.284 223.552C110.932 224.096 114.533 224.602 117.102 224.897C120.27 225.256 123.078 226.306 124.506 226.932C124.763 227.042 124.984 227.144 125.159 227.236C125.463 227.392 125.767 227.54 126.053 227.696C126.145 227.751 126.237 227.797 126.329 227.853C126.476 227.936 126.614 228.019 126.753 228.101C126.799 228.129 126.835 228.147 126.881 228.175C127.784 228.718 128.64 229.317 129.46 229.98C129.524 230.035 129.598 230.09 129.662 230.146C129.69 230.164 129.708 230.183 129.736 230.201C129.755 230.219 129.782 230.238 129.81 230.256C129.819 230.265 129.819 230.265 129.828 230.275C129.837 230.284 129.856 230.293 129.865 230.302L129.874 230.311C129.939 230.367 129.994 230.413 130.049 230.468C130.068 230.477 130.077 230.496 130.095 230.514C130.123 230.542 130.16 230.569 130.197 230.597C130.206 230.606 130.224 230.625 130.233 230.634C130.279 230.671 130.316 230.707 130.362 230.744L130.371 230.753L130.418 230.79C130.436 230.809 130.445 230.818 130.464 230.827C130.491 230.855 130.519 230.882 130.546 230.91C130.565 230.919 130.574 230.938 130.592 230.956C130.602 230.965 130.602 230.965 130.611 230.974C130.62 230.984 130.629 230.984 130.629 230.993C130.675 231.03 130.712 231.076 130.749 231.113L130.915 231.278L130.988 231.352C130.988 231.352 131.044 231.407 131.071 231.444L131.228 231.601L131.329 231.702C131.348 231.72 131.366 231.739 131.375 231.757C131.403 231.794 131.44 231.822 131.467 231.859L131.541 231.932C131.615 232.006 131.679 232.089 131.753 232.162C131.78 232.199 131.817 232.236 131.845 232.273C131.9 232.337 131.946 232.393 131.992 232.448L132.112 232.595L132.167 232.669C132.186 232.687 132.204 232.715 132.222 232.743L132.333 232.881C132.407 232.973 132.48 233.074 132.554 233.166C132.582 233.194 132.6 233.231 132.618 233.258C132.757 233.452 132.885 233.636 133.005 233.811C133.033 233.848 133.051 233.884 133.079 233.912C133.116 233.977 133.162 234.032 133.199 234.087C133.254 234.179 133.309 234.262 133.364 234.345C133.392 234.382 133.41 234.419 133.429 234.455C133.604 234.75 133.723 234.98 133.806 235.155C133.815 235.174 133.825 235.201 133.834 235.22C133.88 235.312 133.908 235.376 133.926 235.413C133.935 235.422 133.935 235.432 133.935 235.441V235.459Z" fill="white"/>
<path d="M133.208 234.115C127.508 238.176 120.813 236.039 117.507 234.676C114.662 233.498 113.713 235.017 111.393 234.28C109.45 233.663 108.842 232.282 106.374 231.997C104.891 231.822 102.976 232.77 102.083 233.562C102.074 233.571 102.064 233.581 102.055 233.581C102.322 231.527 102.589 229.391 102.838 227.457C103.188 224.74 103.464 222.41 103.621 221.259C103.621 221.25 103.621 221.241 103.621 221.232C103.685 220.753 103.722 220.477 103.731 220.477C106.107 220.652 107.148 222.788 109.091 223.488C109.155 223.506 109.219 223.534 109.284 223.552C110.932 224.096 114.533 224.602 117.102 224.897C120.27 225.256 123.078 226.306 124.506 226.932C124.764 227.042 124.985 227.144 125.16 227.236C125.463 227.392 125.767 227.54 126.053 227.696C126.145 227.751 126.237 227.797 126.329 227.853C126.476 227.936 126.614 228.019 126.753 228.101C126.799 228.129 126.836 228.147 126.882 228.175C127.784 228.718 128.64 229.317 129.46 229.98C129.524 230.035 129.598 230.09 129.663 230.146C129.69 230.164 129.709 230.183 129.736 230.201C129.755 230.219 129.782 230.238 129.81 230.256C129.819 230.265 129.819 230.265 129.828 230.275C129.838 230.284 129.856 230.293 129.865 230.302L129.874 230.311C129.893 230.321 129.902 230.339 129.92 230.348C129.966 230.385 130.003 230.422 130.049 230.459C130.068 230.468 130.077 230.486 130.095 230.505C130.123 230.532 130.16 230.56 130.197 230.588C130.206 230.597 130.224 230.615 130.233 230.625C130.28 230.661 130.316 230.698 130.362 230.735L130.372 230.744L130.418 230.781C130.436 230.8 130.445 230.809 130.464 230.818C130.491 230.846 130.519 230.873 130.547 230.901C130.565 230.91 130.574 230.928 130.593 230.947C130.602 230.956 130.602 230.956 130.611 230.965C130.62 230.974 130.629 230.974 130.629 230.984C130.675 231.021 130.712 231.067 130.749 231.103L130.915 231.269L130.952 231.297L130.989 231.334C131.016 231.361 131.044 231.389 131.071 231.426C131.108 231.463 131.145 231.499 131.173 231.527L131.219 231.582L131.246 231.61C131.274 231.638 131.292 231.665 131.32 231.684C131.339 231.702 131.357 231.72 131.366 231.739C131.394 231.776 131.431 231.803 131.458 231.84L131.532 231.914C131.606 231.987 131.67 232.07 131.744 232.144C131.771 232.181 131.808 232.218 131.836 232.255C131.891 232.319 131.937 232.374 131.983 232.429L132.103 232.577L132.158 232.65C132.176 232.669 132.195 232.697 132.213 232.724L132.324 232.862C132.397 232.954 132.471 233.056 132.545 233.148C132.572 233.175 132.591 233.212 132.609 233.24C132.747 233.433 132.876 233.617 132.996 233.792C133.024 233.829 133.042 233.866 133.07 233.894C133.107 233.958 133.153 234.013 133.189 234.069C133.199 234.096 133.208 234.105 133.208 234.115Z" fill="#5B2448"/>
<path d="M102.921 229.493C102.819 229.493 102.755 229.483 102.746 229.483C102.608 229.465 102.506 229.345 102.525 229.207C102.543 229.069 102.663 228.977 102.792 228.986C102.81 228.986 104.33 229.106 106.226 227.761C106.65 227.467 106.991 227.2 107.295 226.96C108.473 226.048 109.118 225.542 111.485 225.229C111.623 225.21 111.752 225.303 111.77 225.441C111.788 225.579 111.696 225.708 111.558 225.726C111.558 225.726 111.558 225.726 111.549 225.726C109.311 226.021 108.74 226.472 107.599 227.356C107.295 227.596 106.945 227.863 106.512 228.166C104.818 229.373 103.409 229.493 102.921 229.493Z" fill="white"/>
<path d="M125.601 236.682C125.224 236.682 124.837 236.673 124.45 236.645C122.259 236.489 119.892 235.899 117.433 234.877C115.868 234.223 114.855 234.371 113.87 234.509C113.115 234.619 112.341 234.73 111.383 234.444C110.481 234.186 109.91 233.763 109.358 233.348C108.667 232.842 108.013 232.354 106.742 232.161C104.56 231.829 102.285 233.496 102.267 233.505C102.175 233.569 102.046 233.551 101.972 233.459C101.908 233.367 101.926 233.238 102.018 233.164C102.12 233.091 104.459 231.378 106.807 231.737C108.188 231.949 108.906 232.483 109.606 232.999C110.149 233.404 110.674 233.79 111.503 234.03C112.369 234.288 113.069 234.186 113.814 234.076C114.8 233.938 115.923 233.781 117.599 234.472C120.021 235.476 122.342 236.065 124.487 236.212C127.756 236.443 130.657 235.678 133.097 233.938C133.189 233.873 133.328 233.901 133.392 233.993C133.456 234.085 133.429 234.223 133.337 234.279C131.09 235.881 128.493 236.682 125.601 236.682Z" fill="#5B2448"/>
<path d="M106.318 237.217C105.591 237.217 104.909 237.051 104.385 236.747C103.823 236.425 103.51 235.973 103.51 235.485C103.51 234.997 103.814 234.546 104.375 234.215C104.9 233.902 105.591 233.727 106.328 233.727H106.355C107.083 233.727 107.764 233.892 108.289 234.196C108.851 234.519 109.164 234.97 109.164 235.458C109.164 235.946 108.86 236.397 108.298 236.729C107.773 237.042 107.083 237.217 106.346 237.217H106.318ZM106.346 234.159H106.328C105.665 234.159 105.048 234.316 104.587 234.592C104.164 234.841 103.924 235.163 103.924 235.495C103.924 235.826 104.164 236.148 104.596 236.397C105.057 236.664 105.665 236.811 106.318 236.811H106.337C107 236.811 107.617 236.655 108.077 236.379C108.501 236.13 108.74 235.808 108.74 235.476C108.74 235.145 108.501 234.822 108.068 234.574C107.608 234.297 107 234.159 106.346 234.159Z" fill="#5B2448"/>
<path d="M112.295 238.675C106.438 238.675 101.355 238.601 101.254 238.601C101.134 238.601 101.042 238.509 101.051 238.39C101.051 238.38 101.051 238.371 101.051 238.353C101.447 236.097 101.687 234.752 101.88 233.527C102.249 231.244 102.46 229.448 103.013 224.641C103.133 223.646 103.261 222.514 103.409 221.225C103.409 221.215 103.409 221.206 103.409 221.188L103.473 220.654C103.492 220.543 103.593 220.46 103.703 220.469C103.814 220.488 103.897 220.589 103.888 220.7L103.823 221.234V221.243V221.252C103.667 222.551 103.538 223.674 103.427 224.669C102.866 229.476 102.654 231.28 102.285 233.573C102.092 234.752 101.871 236.041 101.493 238.159C103.805 238.187 121.651 238.417 127.784 237.874C131.09 237.579 132.812 236.391 133.677 235.397C133.668 235.369 133.65 235.332 133.631 235.295C133.622 235.277 133.613 235.259 133.604 235.231C133.493 235.01 133.374 234.78 133.235 234.55C133.217 234.513 133.189 234.476 133.171 234.439C133.125 234.356 133.07 234.273 133.014 234.181C132.978 234.126 132.941 234.071 132.904 234.006C132.876 233.969 132.858 233.942 132.839 233.905C132.72 233.721 132.591 233.537 132.453 233.362C132.434 233.334 132.407 233.297 132.388 233.27C132.315 233.168 132.241 233.076 132.176 232.993C132.121 232.929 132.066 232.855 132.011 232.791L131.955 232.717C131.928 232.68 131.9 232.653 131.873 232.616L131.836 232.579C131.79 232.524 131.734 232.459 131.688 232.404L131.661 232.376C131.642 232.349 131.615 232.33 131.596 232.303C131.532 232.229 131.458 232.146 131.385 232.072C131.366 232.045 131.338 232.026 131.32 231.999L131.311 231.99C131.283 231.962 131.256 231.925 131.228 231.897C131.21 231.879 131.191 231.861 131.173 231.842L131.081 231.741C131.035 231.686 130.979 231.64 130.933 231.584L130.896 231.548C130.878 231.529 130.869 231.511 130.85 231.501C130.823 231.474 130.804 231.455 130.777 231.428C130.722 231.373 130.666 231.317 130.611 231.262L130.602 231.253C130.547 231.207 130.5 231.152 130.445 231.106C130.399 231.059 130.362 231.023 130.316 230.986L130.27 230.94C130.215 230.884 130.16 230.829 130.095 230.783C130.077 230.765 130.068 230.756 130.058 230.746C130.012 230.7 129.957 230.663 129.911 230.617L129.893 230.608C129.837 230.562 129.782 230.516 129.736 230.47L129.727 230.461C129.681 230.424 129.644 230.387 129.598 230.35C129.57 230.332 129.552 230.314 129.534 230.295C129.469 230.24 129.405 230.185 129.331 230.129C128.521 229.476 127.673 228.877 126.78 228.343C126.743 228.324 126.716 228.297 126.679 228.278L126.651 228.269C126.513 228.186 126.375 228.103 126.228 228.021C126.136 227.965 126.044 227.919 125.951 227.864C125.638 227.698 125.353 227.542 125.067 227.404C124.865 227.302 124.653 227.201 124.423 227.109C123.134 226.547 120.868 225.792 117.406 225.368C117.295 225.35 117.212 225.249 117.222 225.138C117.24 225.028 117.341 224.945 117.452 224.954C120.96 225.387 123.272 226.151 124.589 226.722C124.819 226.823 125.04 226.925 125.252 227.026C125.537 227.164 125.832 227.321 126.154 227.496C126.255 227.551 126.347 227.606 126.44 227.652C126.587 227.735 126.734 227.818 126.872 227.901L126.891 227.91C126.928 227.928 126.964 227.956 127.001 227.975C127.913 228.518 128.778 229.126 129.598 229.798C129.663 229.853 129.736 229.908 129.801 229.964C129.828 229.982 129.847 230 129.874 230.028C129.911 230.056 129.957 230.093 129.994 230.129L130.003 230.139C130.058 230.185 130.114 230.24 130.169 230.286L130.187 230.295C130.233 230.341 130.289 230.378 130.335 230.424C130.344 230.433 130.362 230.452 130.381 230.461C130.436 230.516 130.5 230.571 130.556 230.627L130.602 230.663C130.648 230.7 130.694 230.746 130.731 230.783C130.786 230.829 130.832 230.884 130.887 230.931L130.896 230.94C130.952 230.995 131.007 231.05 131.062 231.106C131.09 231.124 131.108 231.152 131.136 231.179C131.154 231.198 131.173 231.216 131.191 231.234L131.228 231.271C131.283 231.327 131.338 231.382 131.385 231.437L131.486 231.538C131.504 231.557 131.523 231.575 131.532 231.594C131.559 231.63 131.596 231.658 131.624 231.695C131.652 231.722 131.67 231.75 131.698 231.778C131.771 231.851 131.836 231.934 131.909 232.008C131.928 232.036 131.955 232.063 131.974 232.082L132.001 232.109C132.057 232.174 132.103 232.229 132.158 232.293L132.195 232.33C132.223 232.367 132.25 232.404 132.287 232.441L132.342 232.514C132.397 232.588 132.453 232.653 132.508 232.726C132.582 232.818 132.655 232.91 132.729 233.012C132.757 233.039 132.775 233.076 132.803 233.104C132.932 233.279 133.07 233.472 133.189 233.656C133.217 233.693 133.235 233.73 133.263 233.767C133.3 233.822 133.337 233.887 133.383 233.942C133.438 234.034 133.493 234.117 133.549 234.209C133.576 234.246 133.595 234.283 133.622 234.319C133.77 234.568 133.898 234.807 134.009 235.028C134.018 235.056 134.027 235.074 134.046 235.093C134.092 235.185 134.119 235.259 134.138 235.295C134.138 235.305 134.147 235.305 134.147 235.314V235.323C134.193 235.397 134.184 235.489 134.119 235.544C132.499 237.478 129.819 238.095 127.858 238.261C124.579 238.601 118.06 238.675 112.295 238.675Z" fill="#5B2448"/>
<path d="M115.223 230.466C114.873 230.466 114.597 230.181 114.597 229.84C114.597 229.757 114.616 229.674 114.643 229.601C114.708 229.453 116.19 226.009 120.205 224.6C120.528 224.481 120.887 224.656 121.006 224.978C121.126 225.3 120.951 225.659 120.629 225.779H120.62C117.148 226.995 115.813 230.052 115.803 230.079C115.702 230.319 115.472 230.466 115.223 230.466Z" fill="#FFCF2D"/>
<path d="M118.197 231.426C117.848 231.426 117.571 231.141 117.571 230.8C117.571 230.717 117.59 230.625 117.627 230.551C117.691 230.404 119.266 226.914 123.391 225.707C123.723 225.606 124.073 225.79 124.174 226.122C124.275 226.453 124.091 226.803 123.759 226.905C123.75 226.905 123.75 226.905 123.741 226.914C120.196 227.954 118.787 231.03 118.768 231.058C118.676 231.279 118.446 231.426 118.197 231.426Z" fill="#FFCF2D"/>
<path d="M121.614 232.132C121.264 232.132 120.988 231.847 120.988 231.506C120.988 231.414 121.006 231.322 121.043 231.239C121.108 231.11 122.553 228.081 126.32 227.031C126.651 226.939 127.001 227.132 127.093 227.464C127.185 227.795 126.992 228.136 126.66 228.237C123.465 229.13 122.194 231.746 122.185 231.773C122.074 231.994 121.853 232.132 121.614 232.132Z" fill="#FFCF2D"/>
<path d="M84.5216 233.012C83.26 232.837 81.1973 232.109 79.0241 229.246C75.0091 223.96 64.6587 206.924 64.6587 206.924C66.6938 206.095 68.0198 205.552 69.1893 205.063C69.1801 205.063 69.1709 205.054 69.1617 205.054C71.0402 204.189 72.9925 203.277 74.7697 202.457C77.256 201.306 79.3832 200.303 80.4422 199.814C80.4514 199.814 80.4606 199.805 80.4698 199.805C80.9119 199.603 81.1605 199.492 81.1697 199.492C82.2839 201.601 81.0316 203.618 81.4644 205.625C81.4828 205.69 81.492 205.754 81.5104 205.828C81.934 207.513 83.4074 210.828 84.5308 213.158C85.9121 216.022 86.5199 218.969 86.7409 220.506C86.7869 220.783 86.8146 221.022 86.833 221.216C86.8698 221.556 86.8974 221.888 86.9159 222.219C86.9251 222.33 86.9251 222.431 86.9343 222.542C86.9435 222.707 86.9435 222.873 86.9527 223.039V223.186C86.9711 224.236 86.9251 225.286 86.7962 226.326C86.7869 226.409 86.7777 226.501 86.7593 226.584C86.7593 226.612 86.7501 226.649 86.7501 226.676C86.7409 226.704 86.7409 226.741 86.7409 226.768V226.796C86.7409 226.814 86.7409 226.824 86.7317 226.842V226.86C86.7225 226.934 86.7041 227.017 86.6949 227.091C86.6949 227.109 86.6856 227.137 86.6856 227.155C86.6764 227.201 86.6672 227.238 86.6672 227.284C86.6672 227.302 86.658 227.321 86.658 227.339C86.6488 227.395 86.6396 227.45 86.6304 227.505V227.524L86.6212 227.579C86.6212 227.597 86.612 227.616 86.612 227.643C86.6028 227.68 86.5936 227.717 86.5936 227.754C86.5936 227.772 86.5844 227.791 86.5844 227.809C86.5844 227.818 86.5844 227.827 86.5751 227.837C86.5659 227.846 86.5751 227.855 86.5659 227.864C86.5567 227.919 86.5383 227.975 86.5291 228.03C86.5107 228.104 86.4923 228.187 86.4831 228.26C86.4738 228.297 86.4646 228.325 86.4646 228.361C86.4554 228.398 86.4462 228.444 86.437 228.481C86.4186 228.555 86.4002 228.629 86.3818 228.693C86.3726 228.739 86.3633 228.785 86.3449 228.831C86.3357 228.859 86.3357 228.877 86.3265 228.905C86.3173 228.951 86.2989 228.988 86.2897 229.034C86.2805 229.071 86.2713 229.098 86.262 229.135C86.2344 229.236 86.2068 229.338 86.1792 229.439C86.17 229.485 86.1515 229.531 86.1423 229.577C86.1239 229.651 86.0963 229.724 86.0687 229.798C86.0503 229.863 86.0318 229.918 86.0134 229.973L85.9858 230.056C85.9766 230.084 85.9674 230.111 85.9582 230.139C85.9397 230.194 85.9213 230.249 85.9029 230.305C85.8661 230.424 85.82 230.535 85.7832 230.636C85.7648 230.673 85.7556 230.71 85.7372 230.747C85.6543 230.968 85.5622 231.179 85.4793 231.364C85.4609 231.4 85.4425 231.437 85.4241 231.474C85.3964 231.539 85.3688 231.603 85.332 231.667C85.2859 231.76 85.2399 231.852 85.1939 231.944C85.1754 231.981 85.157 232.027 85.1386 232.063C84.9821 232.367 84.8439 232.598 84.7518 232.754C84.7426 232.772 84.7242 232.8 84.715 232.819C84.6598 232.901 84.6229 232.966 84.5953 232.993C84.5861 233.003 84.5861 233.012 84.5769 233.012C84.5216 233.012 84.5216 233.012 84.5216 233.012Z" fill="white"/>
<path d="M85.2678 231.694C78.7942 229.032 77.0353 222.227 76.4368 218.709C75.9211 215.671 74.1254 215.689 73.5176 213.332C73.002 211.361 73.8584 210.108 72.7809 207.871C72.1363 206.526 70.313 205.412 69.1712 205.071C69.162 205.071 69.1528 205.062 69.1436 205.062C71.0221 204.196 72.9743 203.285 74.7516 202.465C77.2379 201.314 81.1424 199.491 81.1424 199.5C82.2566 201.609 81.0042 203.626 81.437 205.633C81.4554 205.698 81.4647 205.762 81.4831 205.836C81.9067 207.521 83.38 210.836 84.5035 213.166C85.8848 216.03 86.4925 218.976 86.7136 220.514C86.7596 220.791 86.7872 221.03 86.8056 221.223C86.8425 221.564 86.8701 221.896 86.8885 222.227C86.8977 222.338 86.8977 222.439 86.9069 222.549C86.9161 222.715 86.9161 222.881 86.9253 223.047V223.194C86.9438 224.244 86.8977 225.294 86.7688 226.334C86.7596 226.417 86.7504 226.509 86.732 226.592C86.732 226.62 86.7228 226.657 86.7228 226.684C86.7135 226.712 86.7136 226.749 86.7136 226.776V226.804C86.7136 226.822 86.7136 226.831 86.7043 226.85V226.868C86.7043 226.887 86.6951 226.905 86.6951 226.933C86.6859 226.988 86.6767 227.043 86.6675 227.108C86.6675 227.126 86.6583 227.154 86.6583 227.172C86.6491 227.218 86.6399 227.255 86.6399 227.301C86.6399 227.32 86.6307 227.338 86.6307 227.356C86.6215 227.412 86.6123 227.467 86.603 227.522V227.541L86.5938 227.596C86.5938 227.614 86.5846 227.633 86.5846 227.66C86.5754 227.697 86.5662 227.734 86.5662 227.771C86.5662 227.789 86.557 227.808 86.557 227.826C86.557 227.835 86.557 227.844 86.5478 227.854C86.5478 227.863 86.5478 227.872 86.5386 227.881C86.5294 227.937 86.511 227.992 86.5018 228.047C86.4833 228.121 86.4649 228.204 86.4557 228.277L86.4465 228.323C86.4465 228.342 86.4373 228.36 86.4373 228.379C86.4281 228.415 86.4189 228.461 86.4097 228.498C86.4005 228.544 86.3912 228.6 86.3728 228.646L86.3544 228.719C86.3544 228.728 86.3452 228.738 86.3452 228.756C86.336 228.793 86.3268 228.83 86.3176 228.857C86.3084 228.885 86.3084 228.903 86.2992 228.931C86.29 228.977 86.2715 229.014 86.2623 229.06C86.2531 229.097 86.2439 229.124 86.2347 229.161C86.2071 229.263 86.1795 229.364 86.1518 229.465C86.1426 229.511 86.1242 229.557 86.115 229.603C86.0966 229.677 86.0689 229.751 86.0413 229.824C86.0229 229.889 86.0045 229.944 85.9861 229.999L85.9584 230.082C85.9492 230.11 85.94 230.137 85.9308 230.165C85.9124 230.22 85.894 230.276 85.8756 230.331C85.8387 230.451 85.7927 230.561 85.7559 230.662C85.7374 230.699 85.7282 230.736 85.7098 230.773C85.6269 230.994 85.5349 231.206 85.452 231.39C85.4336 231.427 85.4151 231.463 85.3967 231.5C85.3691 231.565 85.3415 231.629 85.3046 231.694C85.277 231.666 85.2678 231.675 85.2678 231.694Z" fill="#5B2448"/>
<path d="M81.0596 208.983C80.986 208.983 80.9123 208.946 80.8663 208.891C79.4297 207.16 78.7391 206.911 77.3762 206.414C77.0079 206.285 76.5935 206.129 76.1054 205.926C73.7664 204.959 73.0113 203.495 72.9745 203.43C72.91 203.311 72.9653 203.154 73.085 203.09C73.2047 203.025 73.3613 203.081 73.4257 203.2C73.4349 203.219 74.144 204.563 76.2988 205.456C76.7776 205.65 77.1828 205.806 77.5512 205.935C78.9509 206.442 79.7244 206.727 81.253 208.56C81.3451 208.67 81.3267 208.827 81.2162 208.91C81.1701 208.965 81.1149 208.983 81.0596 208.983Z" fill="white"/>
<path d="M85.2677 231.895C85.2401 231.895 85.2032 231.885 85.1756 231.876C82.3117 230.697 80.0556 228.589 78.4625 225.614C77.422 223.68 76.6761 221.36 76.2341 218.735C75.9486 217.069 75.2856 216.286 74.6502 215.521C74.1621 214.941 73.6557 214.343 73.3794 213.385C73.1216 212.483 73.1768 211.774 73.2321 211.092C73.2965 210.236 73.361 209.435 72.8453 208.247C71.9705 206.221 69.3184 205.217 69.2908 205.208C69.1803 205.171 69.125 205.051 69.1711 204.941C69.2079 204.83 69.3276 204.775 69.4381 204.821C69.5578 204.867 72.2836 205.898 73.2321 208.09C73.7846 209.37 73.7201 210.263 73.6557 211.129C73.6004 211.81 73.5544 212.446 73.7938 213.275C74.0424 214.149 74.4936 214.684 74.9817 215.254C75.6263 216.019 76.363 216.884 76.6577 218.662C77.0997 221.249 77.8271 223.515 78.8493 225.412C80.3963 228.303 82.588 230.348 85.3598 231.489C85.4703 231.535 85.5163 231.655 85.4703 231.766C85.4242 231.849 85.3506 231.895 85.2677 231.895Z" fill="#5B2448"/>
<path d="M70.672 212.235C69.9077 212.235 68.9868 211.618 68.3422 210.605C67.9463 209.988 67.716 209.307 67.6976 208.699C67.67 208.045 67.891 207.548 68.2962 207.29C68.7106 207.032 69.2539 207.05 69.834 207.345C70.3773 207.621 70.893 208.119 71.289 208.736C71.6849 209.353 71.9152 210.034 71.9336 210.642C71.9612 211.296 71.7402 211.793 71.335 212.051C71.1324 212.18 70.9022 212.244 70.672 212.235ZM68.9408 207.52C68.7934 207.52 68.6369 207.557 68.508 207.64C68.2317 207.815 68.0844 208.192 68.1028 208.68C68.1212 209.214 68.333 209.822 68.6829 210.375C69.3828 211.48 70.4878 212.078 71.0956 211.701C71.3719 211.526 71.5192 211.148 71.5008 210.66C71.4824 210.126 71.2706 209.518 70.9206 208.966C70.5707 208.413 70.1103 207.962 69.6314 207.723C69.4196 207.594 69.1894 207.529 68.9408 207.52Z" fill="#5B2448"/>
<path d="M84.5405 233.221C84.522 233.221 84.5036 233.221 84.4944 233.221C81.9897 232.88 80.0467 230.937 78.8588 229.372C74.8806 224.141 64.5762 207.206 64.4749 207.031C64.4105 206.93 64.4473 206.801 64.5486 206.746C64.5578 206.737 64.567 206.737 64.5762 206.727C66.7034 205.862 67.965 205.346 69.1069 204.867C71.234 203.965 72.8732 203.182 77.2473 201.101C78.1497 200.668 79.1719 200.18 80.3506 199.627C80.3598 199.627 80.369 199.618 80.3782 199.609L80.857 199.379C80.9583 199.333 81.0872 199.37 81.1333 199.48C81.1793 199.581 81.1425 199.71 81.032 199.756L80.5439 199.987C80.5439 199.987 80.5347 199.987 80.5347 199.996H80.5255C79.3468 200.557 78.3247 201.046 77.4222 201.478C73.0481 203.56 71.409 204.342 69.2726 205.254C68.1676 205.724 66.9613 206.221 64.963 207.031C66.1601 209.002 75.47 224.224 79.1903 229.123C81.1977 231.766 83.1223 232.585 84.43 232.797C84.4484 232.77 84.4668 232.742 84.4944 232.696C84.5036 232.677 84.522 232.659 84.5313 232.641C84.6602 232.438 84.7891 232.208 84.918 231.959C84.9364 231.922 84.9549 231.886 84.9733 231.839C85.0193 231.757 85.0654 231.665 85.1022 231.572C85.1298 231.508 85.1574 231.453 85.1851 231.388C85.2035 231.351 85.2219 231.315 85.2311 231.278C85.3232 231.075 85.4061 230.873 85.4889 230.661C85.5074 230.624 85.5166 230.587 85.5258 230.559C85.5718 230.44 85.6087 230.329 85.6455 230.228C85.6731 230.145 85.7007 230.062 85.7284 229.979L85.756 229.887C85.7652 229.85 85.7836 229.804 85.7928 229.768L85.8112 229.712C85.8389 229.639 85.8573 229.565 85.8757 229.491L85.8849 229.445C85.8941 229.418 85.9033 229.381 85.9125 229.353C85.9402 229.252 85.9678 229.16 85.9954 229.058C86.0046 229.022 86.0138 228.994 86.023 228.966V228.957C86.0323 228.92 86.0415 228.874 86.0599 228.837C86.0691 228.81 86.0691 228.791 86.0783 228.764L86.1151 228.635C86.1336 228.561 86.152 228.497 86.1704 228.423L86.1796 228.377C86.1888 228.359 86.1888 228.331 86.198 228.313C86.2072 228.276 86.2164 228.248 86.2164 228.211C86.2348 228.138 86.2533 228.055 86.2625 227.981C86.2809 227.907 86.2901 227.834 86.3085 227.76C86.3177 227.705 86.3361 227.64 86.3454 227.585L86.3546 227.521C86.373 227.447 86.3822 227.364 86.4006 227.29C86.4006 227.272 86.4098 227.254 86.4098 227.235C86.419 227.171 86.4282 227.106 86.4466 227.042V227.033C86.4559 226.959 86.4743 226.885 86.4835 226.812V226.802C86.4927 226.747 86.5019 226.692 86.5111 226.637C86.5203 226.6 86.5203 226.572 86.5203 226.554C86.5295 226.462 86.5479 226.379 86.5571 226.296C86.6861 225.264 86.7321 224.224 86.7137 223.183C86.7137 223.137 86.7137 223.1 86.7137 223.064V223.036C86.7137 222.879 86.7045 222.714 86.6953 222.548C86.6861 222.447 86.6861 222.336 86.6769 222.226C86.6584 221.876 86.6308 221.544 86.594 221.231C86.5756 221.01 86.5387 220.771 86.5019 220.531C86.2901 219.141 85.7284 216.82 84.2458 213.671C84.1997 213.569 84.2458 213.44 84.3471 213.394C84.4484 213.348 84.5773 213.394 84.6233 213.496C86.1243 216.691 86.7045 219.058 86.9163 220.476C86.9531 220.725 86.9807 220.964 87.0084 221.194C87.0452 221.517 87.0636 221.839 87.0912 222.207C87.1005 222.318 87.1005 222.428 87.1097 222.529C87.1189 222.704 87.1189 222.87 87.1281 223.027V223.054V223.183C87.1465 224.242 87.1005 225.301 86.9715 226.351C86.9623 226.434 86.9531 226.526 86.9347 226.609C86.9347 226.637 86.9255 226.673 86.9255 226.701C86.9163 226.747 86.9071 226.802 86.8979 226.858V226.867C86.8887 226.95 86.8702 227.023 86.861 227.097V227.106C86.8518 227.171 86.8426 227.235 86.8242 227.3C86.8242 227.318 86.815 227.336 86.815 227.355C86.8058 227.428 86.7874 227.511 86.7689 227.594L86.7597 227.659C86.7505 227.714 86.7413 227.778 86.7229 227.834C86.7045 227.907 86.6953 227.981 86.6769 228.055C86.6584 228.138 86.64 228.211 86.6216 228.285C86.6124 228.322 86.6032 228.349 86.594 228.386C86.594 228.405 86.5848 228.432 86.5756 228.46L86.5664 228.506C86.5479 228.58 86.5295 228.653 86.5111 228.727L86.4743 228.865C86.4651 228.893 86.4651 228.911 86.4559 228.939C86.4466 228.985 86.4282 229.031 86.419 229.068C86.4098 229.104 86.4006 229.141 86.3914 229.169C86.3638 229.27 86.3361 229.372 86.3085 229.473C86.2993 229.5 86.2901 229.537 86.2809 229.565L86.2717 229.602C86.2441 229.675 86.2256 229.758 86.198 229.832L86.1796 229.887C86.1704 229.933 86.152 229.97 86.1428 230.016L86.1151 230.099C86.0875 230.182 86.0599 230.274 86.023 230.357C85.9862 230.467 85.9402 230.578 85.8941 230.698C85.8849 230.734 85.8665 230.771 85.8481 230.808C85.7652 231.02 85.6823 231.232 85.5902 231.434C85.5718 231.471 85.5534 231.517 85.535 231.554C85.5074 231.618 85.4797 231.683 85.4429 231.747C85.3969 231.849 85.3508 231.941 85.3048 232.024C85.2864 232.06 85.2679 232.107 85.2403 232.143C85.1114 232.401 84.9733 232.641 84.8443 232.852C84.8351 232.871 84.8167 232.898 84.8075 232.917C84.7523 233.009 84.7062 233.073 84.6786 233.101C84.6786 233.11 84.6694 233.11 84.6694 233.119L84.6602 233.129C84.6694 233.193 84.6049 233.23 84.5405 233.221ZM84.7062 233.11C84.7062 233.11 84.7062 233.119 84.7062 233.11V233.11Z" fill="#5B2448"/>
<path d="M86.4282 217.293C86.2717 217.293 86.1244 217.237 86.0138 217.136C83.2513 214.705 79.9362 215.027 79.8993 215.036C79.5586 215.073 79.2455 214.825 79.2087 214.484C79.1719 214.143 79.4205 213.83 79.7612 213.793C79.9178 213.775 83.6472 213.388 86.8426 216.206C87.1005 216.436 87.1281 216.832 86.8979 217.09C86.7874 217.219 86.6124 217.293 86.4282 217.293Z" fill="#FFCF2D"/>
<path d="M86.9989 220.585C86.8331 220.585 86.6766 220.52 86.5569 220.41C83.9048 217.804 80.5437 218.099 80.5161 218.099C80.1753 218.135 79.8622 217.877 79.8346 217.537C79.807 217.196 80.0556 216.883 80.3963 216.855C80.5529 216.837 84.3745 216.505 87.4409 219.517C87.6895 219.756 87.6895 220.152 87.4501 220.401C87.3304 220.52 87.1739 220.585 86.9989 220.585Z" fill="#FFCF2D"/>
<path d="M87.2659 223.782C87.1001 223.782 86.9344 223.718 86.8239 223.598C84.4849 221.25 81.5842 221.416 81.5566 221.416C81.2066 221.434 80.912 221.176 80.8935 220.826C80.8751 220.486 81.1238 220.191 81.4645 220.163C81.6026 220.154 84.9545 219.942 87.7171 222.714C87.9657 222.963 87.9565 223.359 87.7171 223.598C87.5882 223.718 87.4316 223.782 87.2659 223.782Z" fill="#FFCF2D"/>
<path d="M130.638 174.485C129.211 179.577 126.504 184.394 122.83 188.74C122.489 194.588 121.347 206.117 118.962 213.337C110.95 214.396 104.827 210.141 99.937 206.384C95.3603 202.866 90.9586 201.982 90.1666 205.325C90.7836 201.098 91.4006 199.339 92.4596 196.706C91.4927 194.238 90.71 193.206 89.8628 189.974C87.4409 180.692 83.5641 182.009 82.4683 183.022C85.857 179.55 93.7856 179.283 96.8797 179.384C97.1744 168.591 91.9715 159.963 88.2789 150.192C85.4703 142.779 84.7336 135.772 85.3413 130.375C85.4979 128.911 85.7834 127.465 86.207 126.056C86.3635 125.532 86.5385 125.043 86.7318 124.574C88.9879 119.132 116.595 122.161 116.595 122.161C116.595 122.161 117.019 123.662 118.096 126.324C119.183 128.994 121.209 132.687 123.594 137.512C128.741 147.955 134.202 161.777 130.638 174.485Z" fill="#21A0AA"/>
<path d="M122.894 176.272C122.314 169.743 121.227 163.647 119.653 158.149C115.058 142.107 115.343 135.753 115.352 135.698C115.362 135.588 115.269 135.486 115.159 135.477C115.039 135.468 114.947 135.56 114.938 135.671C114.938 135.735 114.855 137.291 115.343 140.874C115.794 144.161 116.844 149.852 119.257 158.269C120.822 163.739 121.909 169.807 122.48 176.309C122.857 180.628 122.968 185.075 122.83 188.74C122.977 188.565 123.143 188.372 123.281 188.197C123.401 184.624 123.263 180.397 122.894 176.272Z" fill="#6CE0DC"/>
<path d="M97.7087 166.874C97.7087 166.755 97.6075 166.672 97.4877 166.672C97.368 166.672 97.2851 166.773 97.2851 166.893C97.7272 178.708 96.1801 187.843 92.248 196.177C92.3217 196.342 92.3862 196.527 92.4598 196.711C96.5485 188.22 98.1692 178.929 97.7087 166.874Z" fill="#6CE0DC"/>
<path d="M109.496 76.7031H156.082V120.15H109.496V76.7031Z" fill="#FFCF2D"/>
<path d="M156.082 76.8203V120.138H109.496C152.877 118.692 156.082 76.8203 156.082 76.8203Z" fill="#FFBD11"/>
<path d="M139.23 76.7031H126.43V120.15H135.565C136.79 118.879 138.015 117.599 139.239 116.328C139.23 103.114 139.23 89.9084 139.23 76.7031Z" fill="white"/>
<path d="M109.496 76.4609H156.082V77.345H109.496V76.4609Z" fill="#FFCF2D"/>
<path d="M121.237 85.4045C121.384 85.4045 121.504 85.2848 121.504 85.1375C121.504 85.0822 121.485 85.0177 121.449 84.9717L119.874 82.9366L118.17 80.7449C118.078 80.6252 117.912 80.6068 117.793 80.6989C117.774 80.7173 117.756 80.7265 117.747 80.7449L116.043 82.9366L114.468 84.9717C114.376 85.0914 114.395 85.2572 114.514 85.3493C114.56 85.3861 114.616 85.4045 114.68 85.4045H115.794C115.942 85.4045 116.061 85.5242 116.061 85.6716V90.9205C116.061 91.0679 116.181 91.1876 116.329 91.1876H119.57C119.717 91.1876 119.837 91.0679 119.837 90.9205V85.6716C119.837 85.5242 119.957 85.4045 120.104 85.4045H121.237Z" fill="#5B2448"/>
<path d="M139.11 119.33C138.834 119.523 138.558 119.717 138.263 119.91C134.34 122.498 128.613 124.865 121.2 127.342C120.445 127.59 119.671 127.848 118.87 128.106C118.824 128.124 118.769 128.134 118.723 128.152C118.4 128.253 118.078 128.355 117.746 128.465C117.369 128.585 116.982 128.714 116.586 128.852C115.5 129.229 114.367 129.662 113.179 130.141C112.083 130.583 110.95 131.053 109.79 131.55C109.726 131.578 109.67 131.605 109.652 131.605C97.7822 137.434 89.4024 139.506 84.8441 140.252C81.6948 140.759 78.4626 140.483 75.479 139.359C73.4715 138.604 71.3996 137.425 69.6591 135.464C66.9334 132.388 66.2428 128.76 65.8468 126.706C64.8707 121.568 65.8836 117.323 66.5743 115.113C70.6168 103.657 80.8384 99.3656 85.9491 101.898C90.1114 103.961 92.3952 111.208 90.4798 119.137C90.6639 119.081 90.8205 119.008 91.0139 118.953C91.0323 118.943 90.9955 118.962 91.0139 118.953C97.6164 117.092 99.2648 117.065 106.355 116.558C108.888 116.374 111.264 116.208 113.326 115.997C113.842 115.941 114.339 115.886 114.818 115.831C118.805 115.343 124.524 113.63 127.443 111.843C130.62 109.9 131.329 110.683 129.681 112.82C125.988 117.58 131.79 114.588 137.158 112.921C141.532 111.558 139.681 113.796 139.193 114.182C140.648 113.501 142.978 113.013 140.648 115.831C142.214 114.956 142.536 116.871 139.11 119.33Z" fill="#F4ADA2"/>
<path d="M121.19 127.339C125.224 128.168 145.906 133.702 157.555 119.908C160.272 117.965 164.158 117.145 161.727 116.602C160.852 116.408 159.489 116.5 159.489 116.5C159.489 116.5 160.557 113.784 160.944 111.74C161.331 109.695 160.456 109.695 159.001 112.034C159.388 109.898 159.001 108.047 156.865 112.034C157.058 109.704 156.763 108.443 153.467 113.683C153.66 112.034 153.467 111.159 150.842 114.659C148.218 118.158 144.332 119.908 144.332 119.908H138.217L121.19 127.339Z" fill="#F4ADA2"/>
<path d="M138.263 119.914C134.193 122.161 130.003 124.122 121.2 127.345C121.43 127.392 121.725 127.465 122.065 127.539C130.942 124.261 135.049 122.29 139.276 119.914H138.263Z" fill="#9B3C82"/>
<path d="M132.416 118.118C132.416 118.247 132.527 118.357 132.655 118.357C132.683 118.357 132.711 118.348 132.738 118.339C134.792 117.602 137.794 116.202 140.483 113.734C140.087 113.826 139.599 113.992 139.221 114.167C136.836 116.11 134.368 117.252 132.591 117.897C132.471 117.934 132.416 118.016 132.416 118.118Z" fill="#9B3C82"/>
<path d="M133.77 120.352C133.77 120.481 133.88 120.592 134.009 120.592C134.037 120.592 134.064 120.583 134.092 120.573C136.403 119.643 140.133 117.295 141.468 115.647C141.468 115.647 141.468 115.647 141.468 115.637C141.275 115.582 140.989 115.637 140.648 115.831L140.658 115.822C139.203 117.267 136.164 119.229 133.908 120.131C133.834 120.168 133.77 120.251 133.77 120.352Z" fill="#9B3C82"/>
<path d="M141.634 122.133C141.615 122.17 141.606 122.207 141.606 122.244C141.606 122.373 141.707 122.483 141.845 122.483C141.937 122.483 142.02 122.437 142.057 122.354C142.066 122.336 142.739 121.001 144.332 119.914H143.577C142.251 120.964 141.661 122.078 141.634 122.133Z" fill="#9B3C82"/>
<path d="M150.86 119.284C150.86 119.413 150.962 119.523 151.1 119.523C151.173 119.523 151.247 119.487 151.293 119.422C151.385 119.284 153.614 116.07 154.221 112.516C153.991 112.856 153.733 113.262 153.466 113.685C152.647 116.632 150.925 119.127 150.906 119.155C150.879 119.183 150.86 119.229 150.86 119.284Z" fill="#9B3C82"/>
<path d="M154.065 119.377C154.065 119.506 154.166 119.617 154.304 119.617C154.396 119.617 154.47 119.571 154.516 119.488C155.557 117.453 157.223 113.438 157.619 110.758C157.398 111.08 157.131 111.531 156.864 112.038C156.247 114.533 154.967 117.581 154.102 119.276C154.074 119.303 154.065 119.34 154.065 119.377Z" fill="#9B3C82"/>
<path d="M156.395 119.377C156.395 119.506 156.496 119.617 156.634 119.617C156.717 119.617 156.8 119.571 156.846 119.497C158.135 117.121 159.176 113.52 159.719 111.016C159.508 111.283 159.259 111.623 159.001 112.038C158.43 114.404 157.546 117.222 156.432 119.276C156.404 119.303 156.395 119.34 156.395 119.377Z" fill="#9B3C82"/>
<path d="M159.489 116.503C158.927 117.7 158.31 118.823 157.555 119.91C157.868 119.689 158.2 119.477 158.54 119.275C159.102 118.381 159.599 117.451 160.032 116.484C159.747 116.484 159.535 116.503 159.489 116.503Z" fill="#9B3C82"/>
<path d="M116.688 129.768L113.179 130.128L111.816 130.266L110.085 130.45C109.965 129.308 109.8 128.148 109.579 126.987C109.505 126.573 109.422 126.168 109.33 125.753C108.639 122.475 107.599 119.243 106.374 116.554C108.906 116.37 111.282 116.204 113.345 115.992C114.293 118.451 115.067 120.965 115.647 123.534C115.73 123.875 115.804 124.225 115.877 124.565C116.098 125.624 116.292 126.683 116.439 127.743C116.476 127.973 116.503 128.212 116.54 128.442C116.559 128.571 116.577 128.709 116.586 128.838C116.623 129.151 116.66 129.465 116.688 129.768Z" fill="#5B2448"/>
<path d="M114.919 131.516C117.88 130.376 119.636 127.775 118.839 125.705C118.043 123.636 114.996 122.882 112.034 124.022C109.072 125.162 107.317 127.764 108.114 129.833C108.91 131.903 111.957 132.656 114.919 131.516Z" fill="#5B2448"/>
<path d="M111.862 123.572C110.831 123.968 109.928 124.539 109.21 125.192C109.247 125.367 109.293 125.552 109.33 125.727C110.039 125.027 110.96 124.428 112.037 124.004C113.253 123.535 114.505 123.369 115.647 123.507C115.61 123.341 115.573 123.185 115.536 123.019C114.358 122.918 113.087 123.102 111.862 123.572Z" fill="white"/>
<path d="M114.931 131.55C117.808 130.443 119.586 128.107 118.903 126.331C118.22 124.556 115.334 124.014 112.458 125.121C109.581 126.228 107.803 128.564 108.486 130.339C109.169 132.115 112.055 132.656 114.931 131.55Z" fill="white"/>
<path d="M113.815 128.941C113.713 128.941 113.621 128.876 113.594 128.784L112.903 126.758C112.866 126.638 112.931 126.5 113.05 126.463C113.17 126.427 113.299 126.491 113.345 126.611L113.962 128.407L116.863 127.348C116.982 127.301 117.12 127.366 117.167 127.486C117.213 127.605 117.148 127.743 117.028 127.79L113.897 128.931C113.87 128.941 113.842 128.941 113.815 128.941Z" fill="#5B2448"/>
<path d="M103.436 95.0643C103.625 95.0643 103.777 94.9117 103.777 94.7235C103.777 94.5354 103.625 94.3828 103.436 94.3828C103.248 94.3828 103.096 94.5354 103.096 94.7235C103.096 94.9117 103.248 95.0643 103.436 95.0643Z" fill="#FCB6B1"/>
<path d="M101.595 91.0486C101.783 91.0486 101.935 90.8961 101.935 90.7079C101.935 90.5197 101.783 90.3672 101.595 90.3672C101.406 90.3672 101.254 90.5197 101.254 90.7079C101.254 90.8961 101.406 91.0486 101.595 91.0486Z" fill="#FCB6B1"/>
<path d="M105.066 91.569C104.652 91.8084 104.081 91.6795 103.234 91.1638C101.723 90.2337 100.103 88.5025 98.528 86.1358C98.7582 88.6038 98.9424 93.5673 96.8429 94.3408C96.6679 94.4053 96.4837 94.4421 96.2535 94.4421C96.2075 94.4421 96.1614 94.4421 96.1154 94.4421C93.2515 94.3132 90.5166 90.5929 89.4668 88.9997C89.4023 88.9077 89.4299 88.7787 89.522 88.7235C89.6141 88.659 89.743 88.6867 89.7983 88.7787C90.8112 90.3166 93.4449 93.9172 96.1246 94.0369C96.364 94.0461 96.5298 94.0277 96.6955 93.9725C98.3715 93.3555 98.4544 88.9445 98.0216 85.3531C98.0123 85.261 98.0676 85.1689 98.1505 85.1413C98.2426 85.1137 98.3439 85.1413 98.3899 85.2242C100.084 87.9039 101.825 89.847 103.436 90.8323C104.127 91.2559 104.587 91.3848 104.854 91.2375C105.342 90.952 105.213 89.7088 105.158 89.2484C104.956 87.3882 103.952 85.215 102.248 82.8944C102.138 82.747 102.036 82.6089 101.917 82.4616C101.825 82.3326 101.723 82.2129 101.622 82.084C101.742 82.0195 101.862 81.9551 101.981 81.8906C102.184 82.1393 102.368 82.3879 102.552 82.6365C103.335 83.6955 103.97 84.7269 104.458 85.7122C105.066 86.9554 105.434 88.1249 105.554 89.2023C105.646 89.8193 105.794 91.1546 105.066 91.569Z" fill="#FCB6B1"/>
<path d="M104.55 97.235C103.832 97.235 103.151 96.839 102.801 96.1852C102.285 95.2091 101.779 94.2145 101.3 93.2292C100.112 90.7429 99.0344 88.1644 98.1135 85.5584C98.0767 85.4571 98.1319 85.3373 98.2332 85.3005C98.3345 85.2637 98.4542 85.3189 98.4911 85.4202C99.4119 88.0079 100.48 90.5771 101.668 93.0542C102.138 94.0396 102.644 95.0341 103.16 96.001C103.51 96.6641 104.283 96.9864 104.992 96.7746L105.011 96.7654C105.296 96.6825 105.536 96.6088 105.729 96.5536C105.84 96.5259 105.95 96.5904 105.978 96.7009C106.005 96.8114 105.941 96.9219 105.83 96.9495C105.646 97.0048 105.407 97.0692 105.121 97.1521L105.103 97.1613C104.919 97.2074 104.734 97.235 104.55 97.235Z" fill="#FCB6B1"/>
<path d="M66.4176 117.133C65.7638 118.339 65.598 119.555 65.5428 119.923C65.4138 120.752 65.4138 121.47 65.4415 122.004C67.0806 121.056 68.9499 120.135 71.0311 119.325C78.8676 116.304 86.1148 116.359 90.894 116.894C77.8731 111.387 70.2207 110.125 66.4176 117.133Z" fill="#9B3C82"/>
<path d="M91.4651 115.527C91.3454 116.117 91.2073 116.706 91.0599 117.304C90.9678 117.286 90.8758 117.268 90.7837 117.24C90.5535 117.185 90.314 117.139 90.0746 117.093C83.0577 115.638 71.685 114.579 63.5815 121.108C63.1118 121.485 62.6514 121.89 62.2002 122.323C62.9093 117.627 67.1176 91.4464 79.144 85.3503C80.203 84.8162 82.4223 83.6927 84.7244 83.9966C85.0743 84.0426 85.4243 84.1255 85.7742 84.2452C85.8202 84.2636 85.8663 84.2821 85.9215 84.3005C86.0412 84.3465 86.1517 84.3926 86.2622 84.4386C88.5552 85.4792 89.5037 88.1681 90.7468 90.94C91.4743 93.4263 91.8519 96.1797 92.165 98.4543C92.2386 99.016 92.3123 99.633 92.3768 100.287C92.7359 104.062 92.7819 109.284 91.4651 115.527Z" fill="#F94F46"/>
<path d="M91.4653 115.521C91.3088 116.562 91.1154 117.704 90.968 118.551C90.9404 118.708 90.9128 118.864 90.8852 118.993C90.7378 119.039 90.5905 119.085 90.4431 119.131C90.4708 119.002 90.4984 118.846 90.526 118.68C90.6089 118.22 90.7102 117.649 90.7747 117.234C91.9441 110.263 94.4305 90.308 85.756 84.5894C85.5902 84.4789 85.4153 84.3683 85.2403 84.2671C85.0745 84.175 84.8996 84.0829 84.7246 84C85.0745 84.046 85.4245 84.1289 85.7744 84.2486L85.8573 84.1658C85.9954 84.2578 86.1335 84.3407 86.2624 84.442C88.2055 85.8233 89.7157 88.0058 90.747 90.9434C90.8115 91.1275 90.8759 91.3117 90.9312 91.4959C91.7139 93.9454 92.202 96.8922 92.377 100.29C92.4138 100.981 92.4322 101.69 92.4414 102.408C92.5059 107.344 91.9718 112.169 91.4653 115.521Z" fill="#FCB6B1"/>
<path d="M90.9678 118.555C90.9402 118.711 90.9125 118.868 90.8849 118.997C90.7376 119.043 90.5902 119.089 90.4429 119.135C89.2274 119.512 88.0303 119.982 86.8792 120.525C86.8516 120.535 86.8239 120.544 86.7963 120.544C86.7226 120.544 86.649 120.498 86.6121 120.424C86.5661 120.323 86.6121 120.203 86.7134 120.157C87.9474 119.577 89.2274 119.089 90.5258 118.684C90.6179 118.656 90.7007 118.628 90.7928 118.601C90.8573 118.592 90.9125 118.573 90.9678 118.555Z" fill="#9B3C82"/>
<path d="M87.8551 67.2211C87.8459 67.2303 87.8367 67.2303 87.8275 67.2303C87.7907 67.2488 87.7631 67.258 87.717 67.2764C87.6894 67.2856 87.671 67.2948 87.6433 67.304C85.5254 68.0868 75.4235 70.6836 74.3093 67.9947C73.4069 65.8214 79.8621 63.2614 82.9746 62.1563C83.1127 62.1103 83.2508 62.0643 83.3706 62.0182C83.4811 61.9814 83.5916 61.9445 83.6929 61.9077C84.3282 61.6867 84.7518 61.5578 84.8163 61.5394H84.8255C84.8716 61.5209 85.1294 61.4381 85.2307 61.4012C85.2583 61.392 85.2859 61.3828 85.2859 61.3828L87.6065 66.6502L87.8551 67.2211Z" fill="#F94F46"/>
<path d="M87.8552 67.2286C87.846 67.2379 87.8367 67.2379 87.8275 67.2379C86.3634 67.0168 83.6284 65.0186 82.9746 62.1639C83.1127 62.1178 83.2509 62.0718 83.3706 62.0257C83.4811 61.9889 83.5916 61.9521 83.6929 61.9152C84.3283 61.6942 84.7519 61.5653 84.8163 61.5469H84.8255C85.1847 62.6059 86.1792 65.2119 87.6065 66.6577L87.8552 67.2286Z" fill="#5B2448"/>
<path d="M86.4371 66.8573C88.3525 67.106 92.7358 70.2646 92.7358 70.2646C94.071 63.8645 93.9421 58.9102 92.0359 58.1183C89.6877 57.1422 84.6875 62.4832 85.3873 64.0395C85.5347 64.3618 86.0135 64.7117 86.2806 65.5773C86.4463 66.1022 86.4555 66.5719 86.4371 66.8573Z" fill="#5B2448"/>
<path d="M99.8451 75.4819C99.8543 75.528 100.075 76.7343 100.471 78.3735C100.748 79.5061 101.107 80.8506 101.54 82.1582C101.503 82.7936 101.291 85.1603 99.5781 86.2469C98.1047 87.177 96.3274 86.6245 93.9793 85.8509C92.3585 85.3168 89.9551 84.3039 87.3675 82.2595C87.3675 82.2595 89.0066 79.3404 89.4855 74.2111C89.5039 74.0454 89.5131 73.8796 89.5315 73.7139V73.7046C80.5163 74.736 81.7226 62.4884 90.305 68.2899C91.8797 69.1648 91.981 68.3452 92.2572 66.5679C92.7545 62.3135 95.6184 60.0758 99.4215 59.1181C99.7438 59.0352 100.066 58.9615 100.398 58.9062C100.582 59.4772 100.784 60.0389 101.005 60.6007C101.401 61.632 101.843 62.6542 102.322 63.6487C103.611 66.3561 105.794 67.0375 106.788 69.3766C108.566 73.5113 100.278 75.7214 99.8451 75.4819Z" fill="#F4ADA2"/>
<path opacity="0.52" d="M95.3878 71.178C96.5372 71.178 97.4689 70.2462 97.4689 69.0968C97.4689 67.9474 96.5372 67.0156 95.3878 67.0156C94.2384 67.0156 93.3066 67.9474 93.3066 69.0968C93.3066 70.2462 94.2384 71.178 95.3878 71.178Z" fill="#E57281"/>
<path d="M102.276 68.2309C102.202 68.4151 102.092 68.5716 101.954 68.7097C101.816 68.8387 101.659 68.9492 101.493 69.032C101.153 69.207 100.766 69.2715 100.379 69.2346C100.186 69.207 100.002 69.161 99.8266 69.0781C99.6517 68.9952 99.4859 68.8939 99.3478 68.765C99.0531 68.5163 98.8597 68.1664 98.8137 67.7797C98.8045 67.6599 98.8874 67.5586 98.9979 67.5402C99.0899 67.531 99.1728 67.5771 99.2097 67.6599L99.2189 67.6691C99.3938 68.0375 99.6977 68.323 100.084 68.4703C100.204 68.5163 100.333 68.5532 100.471 68.5624C100.738 68.59 101.005 68.5532 101.263 68.4611C101.521 68.3782 101.751 68.2217 101.926 68.0099L101.935 68.0007C102.009 67.9086 102.147 67.8994 102.23 67.973C102.276 68.0467 102.304 68.148 102.276 68.2309Z" fill="#9B3C82"/>
<path d="M89.6233 71.0114C89.5496 71.0114 89.476 70.9746 89.4299 70.9101C87.7632 68.5803 85.6636 69.4183 85.5715 69.4551C85.4518 69.5012 85.3137 69.4459 85.2676 69.3262C85.2216 69.2065 85.2768 69.0684 85.3965 69.0223C85.4242 69.0131 87.9289 67.9909 89.8259 70.6338C89.8995 70.7443 89.8811 70.8917 89.7706 70.9654C89.7154 71.0022 89.6693 71.0114 89.6233 71.0114Z" fill="#9B3C82"/>
<path d="M100.987 66.1128C100.886 66.1128 100.794 66.03 100.794 65.9195C100.794 65.8826 100.803 65.8366 100.83 65.809C101.116 65.4314 101.236 65.1643 101.199 64.9894C101.153 64.796 100.895 64.6394 100.48 64.4184C99.311 63.7922 99.3018 63.0648 99.3018 63.0279C99.3018 62.9266 99.3846 62.8438 99.4951 62.8438C99.5964 62.8438 99.6793 62.9266 99.6793 63.0279C99.6793 63.0463 99.7161 63.5804 100.655 64.0777C101.097 64.3171 101.484 64.5197 101.567 64.9065C101.632 65.2012 101.493 65.5511 101.125 66.0392C101.097 66.0852 101.042 66.1128 100.987 66.1128Z" fill="#5B2448"/>
<path d="M93.0859 63.6264C93.178 63.3225 93.7397 61.6465 95.4341 60.873C96.2997 60.477 97.1009 60.477 97.5429 60.5139L100.305 59.1049L100.444 59.0312V59.0405C100.444 59.0405 100.453 59.0589 100.453 59.0681V59.0773C100.573 59.418 100.701 59.7587 100.821 60.1087C99.9555 60.6336 98.9979 61.1677 97.9481 61.6834C96.2169 62.5306 94.5685 63.1568 93.0859 63.6264Z" fill="#9B3C82"/>
<path d="M93.9053 64.1282L93.8592 63.9624C93.8408 63.9072 93.8316 63.8611 93.8224 63.8059C93.804 63.7046 93.7948 63.6033 93.7855 63.4928C93.7763 63.281 93.7948 63.0784 93.8316 62.8758C93.9145 62.443 94.0986 62.047 94.3657 61.6971C94.5038 61.5129 94.6696 61.3472 94.8537 61.209C95.0379 61.0709 95.2497 60.9604 95.4707 60.8775C95.6825 60.8039 95.9127 60.7578 96.143 60.7578C96.364 60.7578 96.585 60.7946 96.7968 60.8867C97.0638 61.0064 97.1835 61.3103 97.0638 61.5682C97.0454 61.6142 97.0086 61.6603 96.9717 61.7063L96.9073 61.78C96.7783 61.9181 96.6678 62.0194 96.5665 62.1299C96.4653 62.2312 96.3824 62.3233 96.2995 62.4062C96.1429 62.5811 96.0048 62.7193 95.8483 62.8942C95.7009 63.06 95.5444 63.2534 95.3786 63.4744L95.1116 63.8243C95.0655 63.8888 95.0195 63.944 94.9642 64.0085C94.8537 64.1558 94.7064 64.2755 94.5407 64.3584C94.4486 64.3953 94.3565 64.4137 94.2552 64.4137C94.1263 64.4045 94.0066 64.3216 93.9421 64.2111C93.9237 64.1835 93.9145 64.1558 93.9053 64.1282Z" fill="#5B2448"/>
<path d="M95.1946 65.2621C95.6274 65.0135 96.6772 64.4334 97.5428 63.5585C97.6625 63.4388 97.8559 63.4388 97.9848 63.5585C98.2979 63.8716 98.7123 64.4702 98.0493 64.9859C97.2297 65.6213 95.6366 65.8239 95.1854 65.52C95.1117 65.4739 95.0933 65.3727 95.1394 65.299C95.1578 65.2898 95.1762 65.2714 95.1946 65.2621Z" fill="#5B2448"/>
<path d="M101.244 62.245C100.793 62.4568 100.434 62.5397 99.5317 62.7146C99.3659 62.7423 99.2554 62.908 99.283 63.0738C99.3659 63.5066 99.7158 63.8657 100.406 63.7184C101.18 63.5526 101.465 62.8435 101.465 62.3831C101.465 62.291 101.392 62.2266 101.309 62.2266C101.291 62.2358 101.272 62.2358 101.244 62.245Z" fill="#5B2448"/>
<path d="M91.0784 73.5441C90.5904 73.8664 90.0471 74.0874 89.4854 74.2163C89.5038 74.0506 89.513 73.8848 89.5314 73.7191C89.9826 73.5993 90.4246 73.4152 90.8206 73.1481C90.9311 73.0745 91.0784 73.1113 91.1521 73.2126C91.2166 73.3231 91.1889 73.4704 91.0784 73.5441Z" fill="#9B3C82"/>
<path d="M100.996 60.6007C100.802 60.6007 100.618 60.6007 100.453 60.6191C100.25 60.6375 100.066 60.6467 99.854 60.6651C99.7527 60.6743 99.633 60.6835 99.504 60.7019C99.3751 60.7112 99.237 60.7388 99.0712 60.748L98.9791 60.7572C98.9331 60.7572 98.8779 60.7572 98.8318 60.7388C98.5832 60.6743 98.4266 60.4165 98.4911 60.1678C98.5463 59.9745 98.6384 59.7903 98.7581 59.6337C98.8871 59.468 99.0436 59.3299 99.2186 59.2193C99.2738 59.1825 99.3383 59.1457 99.3935 59.1181C99.7158 59.0352 100.038 58.9615 100.37 58.9062C100.581 59.4772 100.784 60.0389 100.996 60.6007Z" fill="#5B2448"/>
<path d="M100.471 78.3738C100.452 78.3738 100.434 78.3738 100.416 78.3738C96.1613 78.5027 95.1483 75.1231 95.5443 74.6719C97.2111 75.5375 99.8539 75.4822 99.8539 75.4822C99.8539 75.5191 100.066 76.7346 100.471 78.3738Z" fill="#5B2448"/>
<path d="M100.444 59.0194C100.434 59.0194 100.434 59.0194 100.444 59.0194C100.398 59.0655 100.352 59.1023 100.306 59.1484C99.44 59.9127 97.6167 60.9348 95.1488 61.9478C95.0843 61.9754 95.0198 62.0031 94.9462 62.0307C94.9278 62.0399 94.9093 62.0491 94.8909 62.0583C91.981 63.2186 88.979 64.1118 85.9125 64.738C85.8481 64.6552 85.7744 64.5815 85.6915 64.4986C85.2864 63.9645 84.9733 63.3751 84.743 62.749C83.417 59.0931 85.2587 54.4151 89.9459 53.0061C90.0104 52.9877 90.0748 52.9693 90.1301 52.9509H90.1393C91.1154 52.6654 92.1283 52.5549 93.1505 52.6194C95.425 52.7759 97.4233 53.9915 98.7585 55.824C99.3018 56.5883 99.7623 57.4171 100.14 58.2735C100.241 58.5037 100.333 58.7248 100.416 58.955C100.425 58.9734 100.434 58.9918 100.444 59.0194C100.434 59.0102 100.434 59.0102 100.444 59.0194Z" fill="#F94F46"/>
<path d="M100.434 59.0236C100.388 59.0697 100.342 59.1065 100.296 59.1525C99.4303 59.9169 97.607 60.939 95.1391 61.952C94.826 61.2245 94.1906 58.775 96.6954 57.6147C99.154 56.4728 100.342 58.8394 100.434 59.0236Z" fill="#5B2448"/>
</g>
<g clip-path="url(#clip5_6136_10332)">
<path d="M235.808 209.844C237.518 214.486 230.232 219.063 215.318 215.429C215.309 215.429 232.174 199.967 235.808 209.844Z" fill="#5B2448"/>
<path d="M206.433 211.925C206.756 213.145 207.847 217.399 208.356 218.999C209.558 222.837 211.111 227.313 212.174 230.124C212.184 230.133 212.886 230.688 214.181 231.16C214.227 231.169 214.264 231.187 214.31 231.206C215.79 231.705 217.648 232.14 219.035 231.742C220.024 231.456 221.726 226.656 221.8 226.166C221.79 226.138 221.79 226.11 221.781 226.083C221.43 223.984 221.143 221.94 220.94 220.016C220.884 219.471 220.829 218.953 220.783 218.426C220.699 217.418 219.34 207.31 219.386 206.117L206.433 211.925Z" fill="#FCB6B1"/>
<path d="M208.781 220.353C209.983 224.191 211.102 227.326 212.175 230.128C212.184 230.137 212.887 230.692 214.181 231.164C214.227 231.173 214.264 231.191 214.31 231.21L219.026 231.746C220.015 231.46 221.726 226.66 221.791 226.17C221.781 226.142 221.911 226.003 221.901 225.976C221.541 223.877 220.884 219.271 220.773 218.43L208.781 220.353Z" fill="#66B0F0"/>
<path d="M221.06 220.562L209.429 222.44C209.503 222.662 209.577 222.884 209.651 223.106L221.162 221.247C221.125 221.016 221.088 220.784 221.06 220.562Z" fill="white"/>
<path d="M221.624 223.465C221.624 223.465 222.484 232.297 222.928 238.243L200.164 238.585C200.164 238.585 195.948 238.261 194.524 236.338C194.524 236.338 197.686 229.134 207.709 226.748C212.36 225.648 215.651 228.283 218.675 224.852C220.145 223.169 221.624 223.465 221.624 223.465Z" fill="white"/>
<path d="M223.002 238.401C223.066 238.373 223.113 238.299 223.103 238.225C222.669 232.353 221.846 223.447 221.827 223.355C221.818 223.253 221.735 223.179 221.633 223.188C221.532 223.198 221.458 223.281 221.467 223.382C221.476 223.466 222.281 232.177 222.715 238.049L201.172 238.382C200.016 238.41 198.86 238.262 197.741 237.957C196.317 237.568 195.273 236.995 194.718 236.301C195.078 235.506 196.142 233.721 197.954 231.983C199.369 230.642 200.978 229.532 202.734 228.681C204.963 227.599 207.884 226.823 210.612 226.536C210.714 226.527 210.788 226.434 210.778 226.342C210.769 226.24 210.686 226.166 210.584 226.175H210.575C207.801 226.471 204.833 227.266 202.559 228.358C200.765 229.218 199.119 230.355 197.686 231.733C195.273 234.045 194.376 236.172 194.339 236.255C194.32 236.311 194.32 236.375 194.357 236.431C194.949 237.235 196.049 237.864 197.64 238.299C198.786 238.613 199.979 238.761 201.172 238.733L222.909 238.401C222.946 238.419 222.974 238.419 223.002 238.401Z" fill="#5B2448"/>
<path d="M208.726 235.581C209.345 235.331 209.845 235.137 210.113 235.1C210.612 235.035 211.056 235.137 211.518 235.248C212.11 235.387 212.729 235.535 213.524 235.368C214.505 235.165 215.189 234.628 215.845 234.101C216.511 233.574 217.14 233.084 218.027 232.936C219.978 232.594 221.763 233.685 222.549 234.268C222.53 234.101 222.521 233.935 222.502 233.768C221.578 233.13 219.867 232.233 217.963 232.575C216.973 232.751 216.289 233.297 215.614 233.824C214.958 234.342 214.338 234.832 213.441 235.017C212.729 235.174 212.156 235.035 211.601 234.906C211.121 234.786 210.63 234.675 210.066 234.749C209.752 234.795 209.262 234.989 208.578 235.248C207.191 235.803 205.101 236.626 202.66 236.82C199.988 237.023 197.501 236.404 195.245 234.98C195.171 235.091 195.106 235.192 195.051 235.294C200.626 238.808 206.063 236.644 208.726 235.581Z" fill="#5B2448"/>
<path d="M218.277 230.114C218.083 229.975 217.898 229.809 217.694 229.633C217.001 229.032 216.206 228.347 215.022 228.273C214.921 228.273 214.837 228.347 214.828 228.449C214.828 228.551 214.902 228.634 214.995 228.643C216.058 228.708 216.77 229.328 217.454 229.91C217.657 230.086 217.852 230.252 218.064 230.41C219.682 231.621 220.884 231.408 221.855 231.242C221.985 231.223 222.114 231.196 222.234 231.177C222.225 231.048 222.207 230.927 222.197 230.807C222.068 230.826 221.929 230.854 221.781 230.872C220.847 231.038 219.775 231.223 218.277 230.114Z" fill="#5B2448"/>
<path d="M220.145 237.076C220.69 236.827 221.041 236.429 221.041 235.976C221.041 235.19 219.997 234.57 218.656 234.57C217.325 234.57 216.27 235.181 216.261 235.967C216.261 236.364 216.52 236.725 217.001 236.993C217.509 237.252 218.073 237.382 218.647 237.372C219.165 237.382 219.673 237.28 220.145 237.076ZM217.315 235.208C217.741 235.033 218.194 234.94 218.647 234.949C219.858 234.949 220.672 235.486 220.672 235.985C220.672 236.494 219.858 237.021 218.656 237.012C218.147 237.021 217.639 236.91 217.186 236.679C216.834 236.485 216.631 236.235 216.64 235.976C216.631 235.699 216.881 235.403 217.315 235.208Z" fill="#5B2448"/>
<path d="M210.039 232.298C210.27 232.224 210.399 231.974 210.325 231.743C210.288 231.613 209.327 228.451 205.684 226.694C205.462 226.583 205.185 226.684 205.083 226.906C204.981 227.128 205.074 227.396 205.286 227.507L205.296 227.517C208.569 229.089 209.447 231.974 209.456 232.002C209.53 232.242 209.78 232.381 210.02 232.307L210.039 232.298Z" fill="#FFCF2D"/>
<path d="M207.284 232.901C207.524 232.809 207.644 232.559 207.57 232.319C207.524 232.18 206.304 228.86 202.698 227.464C202.466 227.381 202.208 227.501 202.124 227.741C202.041 227.963 202.152 228.213 202.374 228.305C205.592 229.554 206.71 232.596 206.72 232.624C206.794 232.855 207.052 232.975 207.284 232.901Z" fill="#FFCF2D"/>
<path d="M204.843 234.19C205.083 234.098 205.203 233.848 205.129 233.608C205.083 233.469 203.863 230.149 200.257 228.753C200.025 228.67 199.767 228.79 199.683 229.03C199.6 229.252 199.711 229.502 199.933 229.594C203.151 230.843 204.269 233.885 204.279 233.913C204.353 234.153 204.612 234.274 204.843 234.19C204.843 234.2 204.843 234.2 204.843 234.19Z" fill="#FFCF2D"/>
<path d="M262.806 182.483C268.391 185.229 261.937 197.14 253.412 201.976C253.135 202.134 248.253 205.287 248.216 205.731C248.318 202.171 253.819 178.071 262.806 182.483Z" fill="#5B2448"/>
<path d="M243.667 204.205C244.73 204.88 248.124 207.321 249.584 208.153C253.07 210.151 257.25 212.379 259.949 213.711C259.968 213.72 260.865 213.646 262.122 213.101C262.159 213.082 262.205 213.064 262.252 213.054C263.676 212.416 265.34 211.464 266.07 210.243C266.607 209.365 264.591 204.676 264.304 204.279C264.277 204.26 264.258 204.242 264.24 204.223C262.557 202.928 260.948 201.615 259.496 200.348C259.089 199.988 258.692 199.636 258.294 199.294C257.555 198.619 252.626 194.781 251.831 193.875L243.667 204.205Z" fill="#FCB6B1"/>
<path d="M250.795 208.843C254.281 210.841 257.24 212.376 259.931 213.707C259.949 213.717 260.846 213.643 262.103 213.097C262.14 213.079 262.187 213.06 262.233 213.051L266.051 210.24C266.588 209.361 264.572 204.673 264.285 204.275C264.258 204.256 264.258 204.072 264.23 204.053C262.547 202.758 258.923 199.827 258.266 199.281L250.795 208.843Z" fill="#66B0F0"/>
<path d="M259.94 200.656L252.691 209.941C252.894 210.052 253.107 210.163 253.31 210.283L260.495 201.091C260.3 200.934 260.125 200.795 259.94 200.656Z" fill="white"/>
<path d="M262.085 202.336C262.085 202.336 269.685 206.349 274.734 209.161L262.862 227.748C262.862 227.748 260.347 230.994 258.035 231.114C258.035 231.114 253.893 224.715 257.314 215.338C258.904 210.992 262.797 209.743 261.632 205.471C261.059 203.372 262.085 202.336 262.085 202.336Z" fill="white"/>
<path d="M258.368 231.243C259.256 231.104 260.236 230.558 261.308 229.624C262.177 228.866 262.936 227.978 263.546 226.998L274.872 209.243C274.919 209.16 274.9 209.058 274.817 209.002L274.808 208.993C269.824 206.21 262.187 202.131 262.103 202.085C262.02 202.039 261.919 202.067 261.872 202.141V202.15C261.826 202.233 261.854 202.344 261.937 202.39C261.937 202.39 261.946 202.39 261.946 202.4C262.02 202.437 269.491 206.431 274.475 209.206L263.241 226.804C262.64 227.747 261.909 228.607 261.068 229.347C259.986 230.29 258.978 230.827 258.118 230.91C257.665 230.198 256.787 228.376 256.352 225.99C256.019 224.131 255.983 222.236 256.232 220.368C256.547 217.982 257.332 215.587 258.553 213.228C258.599 213.145 258.571 213.034 258.479 212.988C258.386 212.942 258.285 212.97 258.239 213.062V213.071C256.99 215.476 256.204 217.926 255.881 220.34C255.622 222.245 255.668 224.178 256.01 226.073C256.593 229.255 257.822 231.113 257.878 231.187C257.915 231.233 257.97 231.27 258.035 231.261C258.146 231.27 258.257 231.27 258.368 231.243Z" fill="#5B2448"/>
<path d="M264.998 219.214C265.127 218.576 265.238 218.077 265.358 217.837C265.571 217.402 265.894 217.097 266.237 216.782C266.662 216.375 267.115 215.959 267.402 215.22C267.753 214.322 267.688 213.481 267.623 212.667C267.559 211.853 267.494 211.086 267.845 210.281C268.613 208.524 270.434 207.655 271.331 207.331C271.192 207.257 271.054 207.183 270.915 207.109C269.907 207.516 268.271 208.423 267.522 210.143C267.133 211.03 267.207 211.881 267.272 212.695C267.337 213.499 267.402 214.258 267.078 215.081C266.819 215.737 266.403 216.135 265.996 216.514C265.645 216.838 265.284 217.18 265.044 217.67C264.905 217.948 264.803 218.447 264.655 219.14C264.36 220.555 263.925 222.682 262.769 224.772C261.512 227.038 259.69 228.712 257.333 229.784C257.379 229.895 257.434 230.006 257.471 230.099C263.278 227.482 264.434 221.942 264.998 219.214Z" fill="#5B2448"/>
<path d="M265.673 208.575C265.46 208.649 265.22 208.723 264.97 208.788C264.11 209.038 263.13 209.306 262.446 210.231C262.39 210.305 262.4 210.416 262.474 210.471C262.511 210.508 262.566 210.517 262.612 210.508C262.658 210.499 262.695 210.48 262.723 210.443C263.343 209.611 264.212 209.371 265.062 209.13C265.312 209.066 265.553 208.992 265.784 208.908C267.624 208.252 268.095 207.161 268.484 206.282C268.539 206.153 268.585 206.042 268.641 205.931C268.539 205.875 268.428 205.82 268.326 205.773C268.271 205.894 268.215 206.014 268.16 206.143C267.79 206.994 267.365 207.965 265.673 208.575Z" fill="#5B2448"/>
<path d="M270.037 213.468C270.222 213.441 270.397 213.376 270.555 213.283C270.989 213.052 271.415 212.655 271.738 212.155C272.45 211.073 272.524 209.899 271.886 209.483C271.562 209.27 271.137 209.288 270.666 209.538C270.231 209.769 269.806 210.167 269.482 210.666C269.168 211.12 268.974 211.647 268.909 212.192C268.863 212.719 269.02 213.126 269.334 213.33C269.547 213.468 269.796 213.515 270.037 213.468ZM271.257 209.705C271.415 209.668 271.572 209.695 271.71 209.779C272.163 210.075 272.052 211.083 271.461 211.961C271.165 212.405 270.786 212.766 270.407 212.969C270.055 213.154 269.75 213.172 269.547 213.043C269.343 212.904 269.242 212.608 269.279 212.22C269.334 211.73 269.519 211.258 269.796 210.861C270.092 210.417 270.471 210.056 270.851 209.853C270.971 209.779 271.109 209.732 271.257 209.705Z" fill="#5B2448"/>
<path d="M256.297 217.528C256.362 217.519 256.426 217.491 256.482 217.445C259.2 215.374 261.974 215.873 262.002 215.882C262.224 215.928 262.446 215.79 262.501 215.559V215.549C262.547 215.318 262.399 215.096 262.168 215.05C262.168 215.05 262.159 215.05 262.159 215.041C262.029 215.022 258.978 214.467 255.964 216.761C255.779 216.899 255.742 217.168 255.881 217.353C255.992 217.491 256.149 217.556 256.297 217.528Z" fill="#FFCF2D"/>
<path d="M256.575 225.42C256.658 225.41 256.732 225.373 256.787 225.318C259.21 223.163 262.215 223.524 262.252 223.533C262.483 223.561 262.696 223.385 262.714 223.154C262.742 222.932 262.585 222.729 262.353 222.692C262.215 222.673 258.923 222.276 256.214 224.68C256.038 224.837 256.02 225.096 256.177 225.272C256.279 225.392 256.427 225.447 256.575 225.42Z" fill="#FFCF2D"/>
<path d="M243.63 204.165C244.693 204.841 248.087 207.282 249.547 208.114C253.033 210.112 257.212 212.34 259.912 213.672C259.931 213.681 260.828 213.607 262.085 213.062C262.122 213.043 262.168 213.025 262.215 213.015C263.638 212.377 265.303 211.425 266.033 210.204C266.569 209.326 264.554 204.637 264.267 204.239C264.239 204.221 264.221 204.202 264.202 204.184C262.52 202.889 260.911 201.576 259.459 200.309C259.052 199.949 258.655 199.597 258.257 199.255C257.508 198.58 252.589 194.742 251.794 193.836L243.63 204.165Z" fill="#FCB6B1"/>
<path d="M250.759 208.82C254.245 210.817 257.203 212.352 259.894 213.684C259.912 213.693 260.809 213.619 262.067 213.074C262.104 213.055 262.15 213.037 262.196 213.027L266.015 210.216C266.551 209.338 264.535 204.649 264.249 204.252C264.221 204.233 264.221 204.048 264.193 204.03C262.511 202.735 258.886 199.803 258.23 199.258L250.759 208.82Z" fill="#66B0F0"/>
<path d="M259.903 200.625L252.654 209.9C252.858 210.011 253.07 210.122 253.274 210.242L260.458 201.05C260.264 200.902 260.079 200.764 259.903 200.625Z" fill="white"/>
<path d="M262.048 202.297C262.048 202.297 269.648 206.31 274.697 209.122L262.834 227.718C262.834 227.718 260.319 230.964 258.007 231.085C258.007 231.085 253.865 224.685 257.286 215.308C258.877 210.962 262.769 209.713 261.604 205.441C261.022 203.342 262.048 202.297 262.048 202.297Z" fill="white"/>
<path d="M258.331 231.219C259.219 231.081 260.199 230.535 261.272 229.601C262.141 228.843 262.899 227.955 263.509 226.975L274.836 209.219C274.882 209.136 274.863 209.034 274.78 208.979L274.771 208.97C269.787 206.186 262.15 202.108 262.067 202.062C261.984 202.015 261.882 202.043 261.836 202.117V202.126C261.789 202.21 261.817 202.321 261.9 202.367C261.9 202.367 261.91 202.367 261.91 202.376C261.984 202.413 269.454 206.408 274.438 209.182L263.204 226.78C262.603 227.724 261.873 228.584 261.031 229.324C259.949 230.267 258.942 230.803 258.082 230.886C257.629 230.174 256.75 228.353 256.316 225.967C255.983 224.108 255.946 222.212 256.196 220.344C256.51 217.958 257.296 215.563 258.516 213.205C258.563 213.122 258.535 213.011 258.452 212.965C258.368 212.918 258.257 212.946 258.211 213.029C258.211 213.029 258.211 213.039 258.202 213.039C256.954 215.443 256.168 217.894 255.844 220.307C255.585 222.212 255.632 224.145 255.974 226.041C256.556 229.222 257.786 231.081 257.841 231.155C257.878 231.201 257.934 231.238 257.999 231.229C258.109 231.247 258.22 231.238 258.331 231.219Z" fill="#5B2448"/>
<path d="M264.96 219.183C265.09 218.545 265.201 218.046 265.321 217.805C265.534 217.371 265.857 217.066 266.199 216.751C266.625 216.344 267.078 215.928 267.364 215.188C267.716 214.291 267.651 213.45 267.586 212.636C267.522 211.822 267.457 211.055 267.808 210.25C268.576 208.493 270.397 207.633 271.285 207.3C271.146 207.226 271.007 207.152 270.869 207.078C269.861 207.485 268.224 208.391 267.485 210.102C267.096 210.99 267.17 211.841 267.235 212.654C267.3 213.459 267.364 214.217 267.041 215.04C266.782 215.697 266.366 216.095 265.959 216.474C265.608 216.797 265.247 217.139 265.007 217.63C264.868 217.907 264.766 218.406 264.618 219.1C264.322 220.515 263.888 222.642 262.732 224.732C261.475 226.997 259.644 228.68 257.286 229.744C257.332 229.855 257.388 229.966 257.434 230.058C263.25 227.451 264.406 221.902 264.96 219.183Z" fill="#5B2448"/>
<path d="M265.636 208.541C265.423 208.615 265.183 208.689 264.933 208.754C264.073 209.004 263.093 209.272 262.409 210.197C262.353 210.271 262.362 210.382 262.436 210.446C262.473 210.483 262.529 210.502 262.575 210.483C262.621 210.474 262.658 210.456 262.686 210.419C263.306 209.586 264.175 209.346 265.025 209.105C265.275 209.041 265.515 208.967 265.747 208.884C267.587 208.227 268.058 207.136 268.446 206.257C268.502 206.137 268.548 206.017 268.604 205.915C268.502 205.86 268.391 205.804 268.289 205.758C268.234 205.878 268.178 205.998 268.123 206.118C267.753 206.96 267.337 207.931 265.636 208.541Z" fill="#5B2448"/>
<path d="M270 213.445C270.185 213.417 270.36 213.352 270.518 213.26C270.952 213.029 271.377 212.631 271.701 212.132C272.413 211.05 272.487 209.875 271.849 209.459C271.525 209.247 271.1 209.265 270.628 209.515C270.194 209.746 269.769 210.144 269.445 210.643C269.131 211.096 268.936 211.623 268.872 212.169C268.825 212.696 268.983 213.103 269.297 213.306C269.51 213.445 269.759 213.491 270 213.445ZM271.22 209.672C271.377 209.635 271.535 209.663 271.673 209.746C272.126 210.042 272.015 211.05 271.424 211.928C271.128 212.372 270.749 212.733 270.37 212.936C270.018 213.121 269.713 213.14 269.51 213.01C269.306 212.872 269.205 212.576 269.242 212.187C269.297 211.697 269.482 211.226 269.759 210.828C270.055 210.384 270.434 210.023 270.813 209.82C270.943 209.755 271.082 209.7 271.22 209.672Z" fill="#5B2448"/>
<path d="M256.269 217.496C256.334 217.486 256.399 217.459 256.454 217.412C259.154 215.359 261.946 215.84 261.983 215.85C262.214 215.887 262.427 215.729 262.473 215.498C262.51 215.276 262.362 215.054 262.14 215.017C262.011 214.999 258.96 214.444 255.945 216.737C255.761 216.876 255.724 217.144 255.862 217.329C255.955 217.459 256.112 217.523 256.269 217.496Z" fill="#FFCF2D"/>
<path d="M255.511 220.943C255.594 220.934 255.668 220.897 255.724 220.841C258.146 218.687 261.151 219.047 261.188 219.057C261.419 219.084 261.632 218.909 261.651 218.677C261.678 218.456 261.521 218.252 261.29 218.215C261.151 218.197 257.86 217.799 255.151 220.203C254.975 220.361 254.956 220.629 255.114 220.804C255.234 220.906 255.372 220.962 255.511 220.943Z" fill="#FFCF2D"/>
<path d="M255.4 223.605C255.493 223.587 255.576 223.541 255.64 223.476C257.397 221.571 260.153 221.774 260.19 221.774C260.421 221.793 260.624 221.617 260.643 221.386C260.661 221.155 260.485 220.951 260.254 220.933C260.125 220.924 257.046 220.692 255.012 222.903C254.855 223.078 254.864 223.337 255.039 223.495C255.141 223.578 255.271 223.615 255.4 223.605Z" fill="#FFCF2D"/>
<path d="M246.136 205.883C247.412 205.347 248.919 204.561 250.574 203.239C253.274 201.093 254.818 198.67 255.65 197.107L252.173 194.25C250.121 198.152 248.188 201.999 246.136 205.883Z" fill="#9B3C82"/>
<path d="M207.191 214.682C208.411 215.218 210.177 215.82 212.378 216.023C215.975 216.337 218.823 215.394 220.32 214.765C220.191 213.323 220.061 211.88 219.923 210.438C215.679 211.852 211.435 213.267 207.191 214.682Z" fill="#9B3C82"/>
<path d="M235.965 210.045C232.146 202.6 220.737 212.421 216.234 214.058C214.329 214.752 211.38 215.39 207.21 214.696C197.899 181.553 203.733 150.925 212.693 128.213C213.58 127.796 215.207 127.316 217.177 126.992C223.122 126.012 232.23 126.456 234.06 134.538C236.307 144.47 228.152 154.855 226.747 174.034C226.257 180.646 227.144 186.768 228.651 192.271C228.661 192.317 228.679 192.363 228.688 192.409C228.753 192.659 228.827 192.909 228.901 193.158C230.824 199.78 233.626 205.476 235.965 210.045Z" fill="#F94F46"/>
<path d="M209.068 124.999C237.768 134.598 247.448 128.023 244.693 124.906C239.941 119.173 209.576 122.881 209.068 124.999Z" fill="#5B2448"/>
<path d="M222.151 134.591C222.151 134.591 213.145 133.019 214.652 131.742C215.438 131.252 219.451 132.316 222.151 134.591Z" fill="#5B2448"/>
<path d="M246.172 174.913C252.071 178.372 258.608 181.063 262.057 182.126C253.902 179.897 257.416 197.061 246.135 205.883C242.714 203.664 237.786 200.335 232.507 195.674C231.157 194.481 229.871 193.353 228.651 192.252C227.939 191.605 227.246 190.976 226.58 190.357C222.022 186.103 218.591 182.246 216.409 177.401C216.113 176.753 215.854 176.097 215.623 175.449C213.136 168.541 213.682 161.458 215.022 155.715C215.281 154.596 215.577 153.533 215.882 152.525C216.65 150.019 217.5 147.892 218.184 146.338C217.87 145.275 217.63 144.304 217.445 143.425C217.352 143 217.278 142.602 217.214 142.214C216.576 138.45 217.047 136.739 217.047 136.739L217.186 126.983L217.241 123.21C219.876 122.137 229.65 118.059 236.501 122.572C252.034 132.8 237.555 162.614 237.675 168.773C237.675 168.939 237.694 169.087 237.721 169.226C237.777 169.263 237.823 169.3 237.879 169.346C240.283 171.177 243.056 173.082 246.172 174.913Z" fill="#F94F46"/>
<path d="M262.427 182.244C262.307 182.207 262.187 182.17 262.057 182.133C262.177 182.17 262.307 182.207 262.427 182.244Z" fill="#F94F46"/>
<path d="M199.711 116.549C199.702 116.586 199.692 116.614 199.683 116.651C199.665 116.706 199.646 116.762 199.637 116.817C199.628 116.845 199.618 116.864 199.609 116.891C198.731 119.518 195.994 120.646 195.846 120.701C192.582 121.987 189.29 120.054 187.82 119.194C187.173 118.815 186.128 118.14 184.76 116.679C184.751 116.669 184.741 116.66 184.741 116.651C184.649 116.558 184.566 116.457 184.473 116.355C183.401 115.153 182.143 113.47 180.729 111.102C176.364 103.741 177.298 101.614 173.35 94.8451C172.352 93.125 170.41 91.0443 168.625 89.7589C167.211 88.7417 166.12 88.3255 166.138 87.6967C166.138 87.6967 160.211 89.2688 163.66 86.7072C163.189 86.7442 159.213 86.8274 164.15 84.7097C163.623 84.571 159.925 83.748 163.383 83.2301C175.976 82.9897 185.537 95.0485 192.906 102.567C193.701 103.381 194.838 103.778 195.966 103.649H195.985C196.743 105.665 197.871 108.67 199.212 112.249C199.877 114.052 200.053 115.236 199.711 116.549Z" fill="#F4ADA2"/>
<path d="M171.418 87.8381C171.436 87.8381 171.455 87.8473 171.473 87.8381H171.483C171.501 87.8381 171.51 87.8288 171.529 87.8288H171.538C171.557 87.8196 171.566 87.8103 171.575 87.8011C171.575 87.8011 171.575 87.7918 171.584 87.7918C171.594 87.7826 171.603 87.7733 171.612 87.7641C171.612 87.7641 171.612 87.7641 171.621 87.7548C171.621 87.7548 171.621 87.7548 171.621 87.7456C171.621 87.7456 171.621 87.7456 171.621 87.7363C171.621 87.7271 171.631 87.7178 171.631 87.7086C171.631 87.6993 171.64 87.6901 171.64 87.6808C171.64 87.6808 171.64 87.6808 171.64 87.6716C171.64 87.6623 171.64 87.6531 171.64 87.6439V87.6346C171.64 87.6254 171.64 87.6161 171.631 87.6069V87.5976C171.631 87.5884 171.621 87.5791 171.621 87.5699C171.621 87.5699 171.621 87.5699 171.621 87.5606C171.621 87.5514 171.612 87.5421 171.603 87.5421L171.594 87.5329C171.584 87.5236 171.584 87.5236 171.575 87.5144L171.566 87.5051L171.557 87.4959C169.153 86.0533 165.787 85.1008 164.15 84.7031C163.956 84.7864 163.771 84.8603 163.605 84.9436C164.751 85.2117 167.627 85.9423 170.068 87.1075C167.165 86.4879 164.724 86.6081 163.66 86.7006C163.466 86.8486 163.3 86.978 163.161 87.0982C163.586 87.052 164.779 86.9503 166.351 87.015C166.138 87.089 165.99 87.2 165.907 87.3109C165.824 87.4127 165.769 87.5976 165.787 87.7733C165.963 87.7271 166.092 87.6993 166.138 87.6901C166.138 87.6254 166.157 87.5699 166.194 87.5236C166.656 86.8948 169.633 87.3849 171.418 87.8381Z" fill="#9B3C82"/>
<path d="M195.338 103.727C195.014 105.419 194.764 107.768 195.051 110.533C195.43 114.176 196.595 117.006 197.483 118.772C198.222 118.911 198.962 119.059 199.702 119.198C198.25 114.047 196.799 108.887 195.338 103.727Z" fill="#9B3C82"/>
<path d="M214.468 92.3335C214.283 95.9215 214.098 99.5096 213.941 103.098C213.82 105.826 213.7 108.563 213.589 111.291C212.757 113.917 211.925 116.553 211.093 119.179C211.056 119.29 211.019 119.401 210.982 119.521C210.899 119.771 210.825 120.021 210.741 120.28C209.937 120.613 205.249 122.471 201.699 120.206C200.46 119.41 199.591 118.254 199.091 117.598C198.934 117.385 198.731 117.108 198.509 116.747C198.435 116.627 198.361 116.497 198.278 116.359C197.778 115.48 197.187 114.204 196.623 112.327C196.04 110.394 195.374 107.463 195.337 103.726C195.652 103.699 196.142 103.643 196.734 103.505C200.145 102.728 201.671 100.545 207.478 95.3667C208.717 94.2662 210.409 92.7866 212.914 92.4167C213.571 92.315 214.116 92.3242 214.468 92.3335Z" fill="#FFCF2D"/>
<path d="M224.74 122.403C219.119 117.881 229.345 105.027 222.419 95.3172C222.124 94.9104 222.688 94.0781 222.706 93.3013C223.742 92.9314 224.833 92.3303 225.896 91.4148C225.896 91.4148 226.405 90.2033 226.099 88.3261C223.381 88.3908 221.116 85.5795 219.341 79.7813C221.606 78.5699 221.911 76.4429 220.487 75.6106C219.461 75.0096 218.36 75.25 217.63 75.5274C217.371 75.398 217.168 75.5367 216.909 75.6476C216.715 75.4904 216.622 75.1575 216.585 75.1575C216.04 75.1575 215.291 75.0096 214.412 74.0478C213.737 73.1415 212.859 70.6077 212.304 69.6829C212.23 69.7014 212.147 69.7292 212.064 69.7477C210.954 70.0251 208.865 70.1916 207.376 69.7292C207.321 69.7107 207.256 69.6922 207.2 69.6737C200.793 67.519 205.924 59.1407 210.769 63.5241C213.044 63.1542 220.635 61.9797 223.917 66.5388C227.172 71.0608 226.025 74.205 227.385 78.0798C228.725 82.9255 234.855 82.3706 239.062 87.2534C240.856 89.3341 240.995 90.49 241.208 91.8402C241.633 94.4942 241.494 96.7876 241.92 98.4984C243.158 103.455 247.245 103.954 248.937 107.885C251.878 114.691 248.225 118.131 244.499 120.276C238.008 124.031 229.447 126.195 224.74 122.403Z" fill="#5B2448"/>
<path d="M216.899 75.6403C216.705 75.7236 216.483 75.779 216.178 75.6958C215.485 75.5016 215.05 74.8265 214.468 74.1237C214.449 74.096 214.421 74.0682 214.403 74.0312C215.281 74.9838 216.039 75.1317 216.576 75.141C216.613 75.1502 216.705 75.4924 216.899 75.6403Z" fill="#5B2448"/>
<path d="M225.896 91.4185C224.833 92.334 223.742 92.9259 222.706 93.305C222.715 92.9259 222.604 92.5652 222.188 92.2785C218.333 89.5597 217.38 87.3866 218.333 79.0267C218.37 78.3517 218.508 75.975 217.63 75.5404C218.351 75.263 219.461 75.0225 220.487 75.6236C221.911 76.4559 221.606 78.5829 219.34 79.7943C221.116 85.5925 225.175 86.9149 227.893 86.8502C228.198 88.709 225.896 91.4185 225.896 91.4185Z" fill="#5B2448"/>
<path d="M226.673 89.6253C226.7 90.6795 225.998 91.3268 225.896 91.4193C225.147 91.8447 224.037 92.492 222.706 93.3058C220.884 94.4155 219.83 95.1646 218.767 95.6362C218.61 95.7102 218.453 95.7749 218.286 95.8304C217.907 95.9691 217.51 96.0709 217.066 96.1448C216.252 96.2743 215.069 96.45 214.421 95.7842C213.848 95.1923 214.135 94.3601 214.181 93.0192C214.273 90.3651 213.33 88.2474 212.313 85.9355C211.971 85.168 211.463 84.1322 210.714 82.967C210.695 82.9578 210.677 82.9578 210.658 82.9485C209.345 83.1612 206.645 83.2999 205.85 82.7173C203.899 81.284 204.796 76.8174 205.018 75.4025C204.519 75.0419 203.973 74.0709 204.713 73.8119C205.055 73.6825 205.397 73.5345 205.638 73.2478C205.878 72.9611 206.044 72.545 206.192 72.2028C206.303 71.9439 206.405 71.6757 206.507 71.4075C206.645 71.0376 206.784 70.6677 206.932 70.2978V70.2886C207.015 70.0851 207.108 69.8817 207.2 69.6875C207.256 69.706 207.311 69.7245 207.376 69.743C208.865 70.2054 210.945 70.0389 212.064 69.7615C212.896 71.9717 213.7 73.2756 214.412 74.0524C215.291 75.0049 216.049 75.1528 216.585 75.1621C216.622 75.1621 216.705 75.5042 216.909 75.6522C217.001 75.7262 217.121 75.7539 217.269 75.6892C217.371 75.6429 217.5 75.5875 217.63 75.532C218.027 75.384 218.527 75.2453 219.072 75.2453C219.535 75.2453 220.015 75.347 220.487 75.6152C221.911 76.4475 221.606 78.5744 219.34 79.7859C219.571 83.7253 220.727 86.7123 222.207 88.044C222.318 88.1364 222.419 88.2289 222.53 88.3029C222.909 88.5711 223.307 88.7375 223.714 88.7745C224.158 88.8208 224.906 88.756 225.914 87.9607C226.016 88.0624 226.645 88.6543 226.673 89.6253Z" fill="#F4ADA2"/>
<path d="M219.451 80.1547C219.119 80.2564 218.767 80.3489 218.388 80.4321C218.24 80.4598 218.092 80.4968 217.935 80.5246C217.833 80.5431 217.741 80.4783 217.722 80.3766C217.704 80.2749 217.769 80.1824 217.87 80.1639C218.397 80.0714 218.887 79.9512 219.34 79.8125L219.451 80.1547Z" fill="#9B3C82"/>
<path d="M211.13 63.716C213.719 62.3289 209.604 57.2335 208.078 57.5109C206.793 57.7513 208.004 65.3898 211.13 63.716Z" fill="#F94F46"/>
<path d="M214.495 74.544C211.462 70.7433 211.037 65.4629 210.769 63.5394C210.769 63.5394 211.407 62.5129 213.663 62.4297C213.756 64.27 213.829 70.2624 217.62 75.5335C216.4 76.1254 215.392 75.663 214.495 74.544Z" fill="#F94F46"/>
<path d="M212.826 62.7176C213.063 62.0054 212.769 61.2656 212.168 61.0651C211.568 60.8647 210.888 61.2795 210.65 61.9917C210.413 62.7039 210.707 63.4437 211.308 63.6442C211.908 63.8446 212.588 63.4298 212.826 62.7176Z" fill="#F94F46"/>
<path d="M211.675 63.8441C211.527 63.8533 211.389 63.8348 211.25 63.7886C210.575 63.5574 210.242 62.7251 210.51 61.9391C210.631 61.5692 210.871 61.264 211.204 61.0606C211.278 61.0051 211.37 60.9681 211.453 60.9404C212.064 60.7277 212.729 61.0513 212.951 61.6617C213.09 62.0223 213.09 62.42 212.961 62.7806C212.748 63.4002 212.221 63.8164 211.675 63.8441ZM211.352 61.3103C211.084 61.4767 210.88 61.7356 210.788 62.0316C210.575 62.6604 210.825 63.3262 211.342 63.5112C211.869 63.6869 212.47 63.3262 212.683 62.6881C212.794 62.3922 212.785 62.0686 212.674 61.7726C212.581 61.5137 212.378 61.3103 212.119 61.2178C212.017 61.1808 211.906 61.1715 211.805 61.1715C211.648 61.1808 211.49 61.227 211.352 61.3103Z" fill="#FCB6B1"/>
<path d="M212.517 63.5867C211.139 60.8494 217.676 58.9814 218.804 60.1373C219.747 61.1083 214.181 66.888 212.517 63.5867Z" fill="#F94F46"/>
<path d="M212.545 63.6566C212.461 63.4994 212.406 63.3329 212.369 63.1572C212.332 62.9815 212.323 62.8058 212.341 62.6301C212.36 62.4544 212.415 62.2787 212.489 62.1215C212.572 61.955 212.674 61.7886 212.794 61.6406C212.619 61.7423 212.471 61.8718 212.35 62.029C212.221 62.1955 212.138 62.3804 212.092 62.5839C212.045 62.7873 212.045 63 212.082 63.2035C212.119 63.4069 212.193 63.6011 212.295 63.7861C212.508 64.1375 212.831 64.4149 213.22 64.5629C213.405 64.6368 213.608 64.6831 213.802 64.7016C213.802 64.6553 213.793 64.6183 213.793 64.5721C213.626 64.5259 213.46 64.4611 213.303 64.3779C212.988 64.2207 212.72 63.971 212.545 63.6566Z" fill="#FCB6B1"/>
<path opacity="0.52" d="M212.098 79.562C213.132 79.4909 213.913 78.5948 213.841 77.5605C213.77 76.5262 212.874 75.7454 211.84 75.8165C210.806 75.8877 210.025 76.7838 210.097 77.8181C210.168 78.8524 211.064 79.6332 212.098 79.562Z" fill="#E57281"/>
<path d="M212.147 85.6031C211.925 85.1592 211.685 84.6968 211.416 84.2159C211.167 83.7628 210.908 83.3374 210.658 82.9398C211.121 82.8565 211.768 82.6993 212.48 82.3479C213.358 81.9225 213.802 81.4601 214.024 81.6174C214.292 81.8023 213.968 82.7086 213.857 83.0045C213.626 83.6426 213.155 84.5951 212.147 85.6031Z" fill="#5B2448"/>
<path d="M210.751 72.0745C211.602 72.6664 211.879 73.6281 211.537 73.998C211.195 74.3679 210.27 74.1552 209.54 73.4247C208.791 72.6664 208.43 71.8156 208.754 71.5012C209.077 71.1682 209.9 71.4919 210.751 72.0745Z" fill="#5B2448"/>
<path d="M206.285 78.4793C206.47 78.5533 206.664 78.581 206.858 78.5533C207.052 78.5348 207.237 78.4608 207.404 78.3591C207.487 78.3036 207.552 78.2389 207.617 78.1741C207.811 77.9522 207.922 77.6655 207.903 77.3696V77.3603C207.903 77.2771 207.968 77.2031 208.051 77.2031C208.116 77.2031 208.171 77.2401 208.199 77.3048C208.291 77.5638 208.282 77.8505 208.181 78.1094C208.134 78.2389 208.06 78.3591 207.977 78.47C207.885 78.581 207.783 78.6735 207.672 78.7475C207.441 78.8954 207.173 78.9787 206.895 78.9787C206.757 78.9787 206.627 78.9602 206.488 78.9232C206.35 78.8862 206.23 78.8122 206.128 78.7197C206.063 78.6642 206.063 78.5718 206.119 78.507C206.146 78.4608 206.22 78.4423 206.285 78.4793Z" fill="#9B3C82"/>
<path d="M209.059 74.6293C208.735 74.3241 207.94 73.6306 207.366 72.7058C207.283 72.5763 207.117 72.5393 206.987 72.6226C206.655 72.8353 206.183 73.2699 206.655 73.8432C207.237 74.5461 208.568 75.0269 209.012 74.8605C209.086 74.8327 209.123 74.7495 209.096 74.6755C209.086 74.657 209.077 74.6385 209.059 74.6293Z" fill="#5B2448"/>
<path d="M216.363 78.7249C216.271 78.7341 216.188 78.6602 216.188 78.5677C216.188 78.5214 216.197 78.4845 216.224 78.4475C217.001 77.4672 217.88 77.1528 218.481 77.0696C218.86 77.0048 219.248 77.0233 219.618 77.1158C219.71 77.1436 219.756 77.236 219.729 77.3285C219.701 77.421 219.609 77.4672 219.516 77.4395C219.451 77.421 217.833 76.9678 216.483 78.6694C216.456 78.7064 216.419 78.7249 216.363 78.7249Z" fill="#9B3C82"/>
<path d="M244.693 124.916C242.918 123.048 237.139 123.316 228.171 125.711C220.071 127.875 210.076 131.602 204.094 128.245C206.849 124.203 210.52 117.739 212.535 109.093C213.848 103.47 214.098 98.4952 213.987 94.6389C214.2 95.4065 214.523 95.7301 214.828 95.8596C215.929 96.3405 217.686 94.7869 219.128 93.1871C219.415 92.8634 219.692 92.549 219.942 92.2346C220.654 91.3653 221.208 90.6162 221.421 90.3203C224.851 91.0139 227.893 91.1711 231.324 91.8647C234.504 102.536 239.543 119.496 244.693 124.916Z" fill="#FFCF2D"/>
<path d="M214.403 120.607C221.948 124.898 227.717 124.602 230.436 124.185C231.545 124.019 237.148 123.168 237.518 120.764C237.786 119.016 235.17 117.296 234.753 117.019C228.309 112.783 216.918 119.146 214.403 120.607Z" fill="#5B2448"/>
<path d="M230.103 133.488C224.195 139.573 211.583 139.064 195.217 129.558C193.71 128.762 189.06 125.822 184.205 126.293C180.997 126.599 177.548 128.346 174.959 129.512C172.361 130.677 172.491 129.465 175.227 127.218C175.218 127.218 175.2 127.237 175.172 127.246C174.95 127.375 174.109 127.865 173.175 128.319C171.473 129.16 169.495 129.891 170.623 128.069C170.632 128.05 170.651 128.032 170.66 128.004C170.456 128.078 170.244 128.161 170.04 128.217C169.689 128.309 169.375 128.337 169.254 128.18C168.977 127.81 169.948 126.589 170.484 125.96C171.159 125.174 172.389 124.009 173.119 123.39C173.101 123.399 173.082 123.408 173.064 123.417C172.823 123.528 172.417 123.686 171.964 123.834C170.392 124.351 168.247 124.777 170.632 122.622C170.697 122.567 170.752 122.511 170.817 122.456C174.691 119.034 179.693 117.841 179.823 117.795C181.126 117.388 182.449 117.064 183.789 116.824C184.104 116.768 184.427 116.713 184.742 116.667C189.827 115.881 195.033 116.149 199.628 116.824C204.242 117.499 208.236 118.59 210.899 119.422C211.038 119.459 211.167 119.506 211.296 119.543C212.24 119.848 212.988 120.107 213.506 120.301C213.7 120.366 213.867 120.43 214.006 120.477C214.209 120.551 214.348 120.588 214.394 120.606C214.403 120.606 214.412 120.615 214.412 120.615C214.412 120.597 214.422 120.578 214.431 120.551C214.449 120.449 214.486 120.301 214.523 120.144C214.523 120.125 214.533 120.107 214.533 120.097C214.995 117.887 215.171 116.232 215.235 115.733C215.374 114.558 215.698 112.801 216.539 110.277C225.082 110.138 231.989 114.632 233.709 120.689C234.902 124.943 233.367 130.131 230.103 133.488Z" fill="#F4ADA2"/>
<path d="M215.207 115.891C214.957 117.666 214.745 119.1 214.514 120.098C214.708 119.09 214.93 118.619 215.207 117.074C215.281 116.677 215.124 116.261 215.207 115.891Z" fill="#F4ADA2"/>
<path d="M176.198 121.739C176.18 121.749 174.636 122.285 173.064 123.404C172.823 123.515 172.416 123.672 171.963 123.82C173.822 122.183 175.976 121.434 176.087 121.406C176.18 121.379 176.281 121.425 176.309 121.517C176.337 121.61 176.291 121.712 176.198 121.739Z" fill="#9B3C82"/>
<path d="M177.326 123.525C177.28 123.544 172.962 125.393 170.66 128.01C170.669 127.992 170.65 128.038 170.66 128.01C170.456 128.084 170.243 128.158 170.04 128.214C170.891 127.113 172.213 125.994 173.979 124.903C175.005 124.265 176.078 123.692 177.187 123.202C177.28 123.165 177.381 123.202 177.418 123.294C177.455 123.387 177.418 123.488 177.326 123.525Z" fill="#9B3C82"/>
<path d="M178.075 125.58C178.056 125.589 176.956 126.107 175.68 126.912C175.514 127.014 175.347 127.125 175.181 127.236C174.959 127.365 174.117 127.855 173.184 128.308C173.803 127.753 174.58 127.18 175.504 126.597C176.29 126.107 177.095 125.663 177.927 125.257C178.019 125.22 178.121 125.257 178.167 125.34C178.195 125.432 178.158 125.543 178.075 125.58Z" fill="#9B3C82"/>
<path d="M198.287 116.358C198.37 116.497 198.444 116.626 198.518 116.747C197.963 116.673 197.418 116.617 196.872 116.562C192.684 116.155 188.597 116.173 184.751 116.663L184.741 116.654C184.658 116.571 184.575 116.46 184.482 116.358C188.421 115.831 192.591 115.785 196.891 116.201C197.353 116.247 197.815 116.303 198.287 116.358Z" fill="#9B3C82"/>
<path d="M233.607 120.445C231.804 120.954 229.455 121.416 226.691 121.425C221.3 121.444 217.13 119.742 214.81 118.577C214.81 118.364 214.837 118.004 214.976 117.597C216.751 112.233 232.719 112.825 232.692 112.307C232.692 112.252 232.497 112.187 231.748 112.141C231.906 113.139 232.1 114.175 232.322 115.239C232.692 117.088 233.135 118.827 233.607 120.445Z" fill="#9B3C82"/>
<path d="M237.518 120.115C237.509 120.078 237.49 120.041 237.481 120.004C237.472 119.985 237.472 119.976 237.463 119.967C237.444 119.911 237.416 119.856 237.389 119.8C237.213 119.439 236.954 119.162 236.64 118.949C234.3 117.387 228.605 119.458 225.877 119.874C223.353 120.253 219.636 120.309 214.8 118.561C214.671 118.515 214.541 118.468 214.412 118.413C214.403 118.413 214.403 118.413 214.394 118.404C214.745 115.787 215.106 113.151 215.494 110.488C215.891 107.788 216.289 105.106 216.705 102.461C216.705 102.461 216.798 101.832 217.167 100.436C217.62 98.6879 218.508 95.7564 220.172 91.3638C220.376 90.8182 220.792 89.764 221.8 88.8392C222.771 87.9515 224.056 87.4151 225.267 87.2301C226.044 87.1099 226.793 87.1377 227.412 87.3041C229.483 87.8775 231.111 90.0876 232.1 94.4525C232.285 95.2848 232.451 96.1911 232.59 97.1805C232.71 98.0221 232.821 98.7989 232.932 99.5294V99.5479C233.662 104.32 234.273 106.992 235.364 112.051C236.076 115.38 236.843 118.015 237.416 119.819C237.463 119.939 237.49 120.031 237.518 120.115Z" fill="#FFCF2D"/>
<path d="M237.684 121.027C237.675 121.027 237.62 120.842 237.518 120.5C237.601 120.694 237.666 120.879 237.684 121.018C237.684 121.009 237.684 121.027 237.684 121.027Z" fill="#FFCF2D"/>
<path d="M237.426 119.844C235.207 115.331 233.94 106.712 232.96 99.7118C232.951 99.6656 232.951 99.6194 232.941 99.5639C232.941 99.5546 232.941 99.5546 232.941 99.5454C232.72 97.9363 232.507 96.429 232.303 95.1066L232.109 94.4685L231.36 91.9531V91.9624C231.767 93.7194 232.165 96.5399 232.609 99.7673C233.515 106.287 234.68 114.194 236.64 118.956C236.954 119.169 237.213 119.446 237.389 119.807C237.417 119.862 237.444 119.918 237.463 119.973C237.472 119.983 237.472 120.001 237.481 120.01C237.491 120.047 237.509 120.084 237.518 120.121C237.491 120.029 237.463 119.936 237.426 119.844Z" fill="white"/>
<path d="M228.855 192.992C222.087 186.842 217.547 180.452 216.437 177.715C216.132 176.957 215.855 176.208 215.614 175.449C214.791 172.851 214.357 170.197 214.246 167.256C214.135 164.167 214.366 160.644 215.013 155.715C215.087 155.16 215.161 154.596 215.244 154.014C215.67 150.98 216.086 148.724 216.446 146.726C216.742 145.108 217.001 143.702 217.205 142.214C217.334 141.317 217.436 140.383 217.528 139.365C217.538 139.254 217.639 139.171 217.75 139.18C217.861 139.19 217.944 139.291 217.935 139.402C217.815 140.873 217.648 142.149 217.445 143.425C217.269 144.507 217.075 145.598 216.853 146.8C216.557 148.437 216.225 150.259 215.882 152.534C215.809 153.024 215.735 153.542 215.661 154.078C214.227 164.241 214.015 170.668 216.826 177.576C217.778 179.916 221.301 185.067 226.589 190.375C227.264 191.05 227.912 191.577 228.651 192.252C228.716 192.483 228.781 192.742 228.855 192.992Z" fill="#FCB6B1"/>
<path d="M219.951 92.2422C219.534 93.2224 219.146 94.3599 218.767 95.636C218.554 96.3574 218.351 97.1157 218.157 97.9295C216.946 102.858 216.178 108.657 215.549 113.317C215.429 114.242 215.309 115.102 215.198 115.898C215.059 116.905 214.93 117.803 214.8 118.57C214.671 118.524 214.542 118.478 214.412 118.422C214.643 117.035 214.884 115.259 215.143 113.262C215.66 109.415 216.28 104.754 217.167 100.454C217.5 98.8542 217.87 97.2914 218.286 95.8302C218.545 94.9055 218.832 94.0177 219.128 93.1947C219.423 92.871 219.701 92.5474 219.951 92.2422Z" fill="white"/>
<path d="M214.357 95.4542C214.218 96.7489 214.08 98.0343 213.932 99.329C213.663 101.743 213.377 104.156 213.072 106.561C212.998 107.143 212.924 107.717 212.85 108.299C212.369 112.035 211.851 115.799 211.287 119.544C211.158 119.507 211.028 119.461 210.89 119.424C211.315 116.566 211.722 113.69 212.101 110.824C212.212 109.964 212.332 109.104 212.434 108.253C212.998 103.842 213.525 99.366 213.987 94.9364C213.996 94.8717 214.006 94.8069 214.006 94.7422L214.357 95.4542Z" fill="white"/>
<path d="M237.861 169.333C236.816 168.787 235.817 168.159 234.856 167.465C234.763 167.4 234.745 167.271 234.809 167.178C234.874 167.086 235.003 167.067 235.096 167.132C235.919 167.724 236.797 168.279 237.676 168.769C237.676 168.935 237.694 169.093 237.722 169.231C237.777 169.268 237.814 169.296 237.861 169.333Z" fill="#FCB6B1"/>
<path d="M217.953 122.227C217.916 122.292 217.852 122.329 217.778 122.329C217.741 122.329 217.704 122.319 217.676 122.301C217.066 121.931 216.446 121.58 215.817 121.247C215.355 121.006 214.874 120.821 214.403 120.609C214.421 120.507 214.468 120.368 214.505 120.211C215.013 120.442 215.522 120.636 216.012 120.895C216.65 121.228 217.278 121.589 217.898 121.959C217.981 122.005 218.009 122.125 217.953 122.227Z" fill="#9B3C82"/>
</g>
</g>
</g>
<defs>
<clipPath id="clip0_6136_10332">
<rect width="327" height="280" fill="white"/>
</clipPath>
<clipPath id="clip1_6136_10332">
<rect width="327" height="280" fill="white"/>
</clipPath>
<clipPath id="clip2_6136_10332">
<rect width="15.8" height="3.2" fill="white" transform="translate(221.7 236)"/>
</clipPath>
<clipPath id="clip3_6136_10332">
<rect width="15.9" height="3.3" fill="white" transform="translate(86.6001 236)"/>
</clipPath>
<clipPath id="clip4_6136_10332">
<rect width="100.3" height="186.9" fill="white" transform="translate(62.2002 52.6016)"/>
</clipPath>
<clipPath id="clip5_6136_10332">
<rect width="113.2" height="181.9" fill="white" transform="translate(161.7 57.5)"/>
</clipPath>
</defs>
</svg>
