<svg width="327" height="280" viewBox="0 0 327 280" fill="none" xmlns="http://www.w3.org/2000/svg">
<g clip-path="url(#clip0_6136_10197)">
<g clip-path="url(#clip1_6136_10197)">
<g clip-path="url(#clip2_6136_10197)">
<path d="M228.917 240.669C233.565 240.669 237.333 239.923 237.333 239.003C237.333 238.082 233.565 237.336 228.917 237.336C224.268 237.336 220.5 238.082 220.5 239.003C220.5 239.923 224.268 240.669 228.917 240.669Z" fill="#5B2448"/>
</g>
<g clip-path="url(#clip3_6136_10197)">
<path d="M191.18 192.602C191.119 193.659 191.081 198.139 191.043 199.196C190.852 204.063 190.852 208.504 190.852 208.504C181.568 210.444 179.616 205.877 179.616 205.877C179.616 205.877 178.586 197.484 178.578 197.429C178.555 197.263 191.18 192.602 191.18 192.602Z" fill="#F4ADA2"/>
<path d="M191.043 199.195C190.852 204.069 190.852 208.503 190.852 208.503C181.568 210.443 179.615 205.876 179.615 205.876C179.615 205.876 179.242 202.949 178.692 198.453L191.043 199.195Z" fill="#66B0F0"/>
<path d="M190.959 201.497L179.005 200.992C179.036 201.245 179.066 201.497 179.097 201.734L190.944 202.231C190.951 201.986 190.951 201.742 190.959 201.497Z" fill="white"/>
<path d="M207.634 216.872C207.634 216.864 207.627 216.856 207.627 216.848C207.444 216.462 205.506 212.691 199.876 210.23C198.412 209.599 196.894 209.118 195.338 208.787C195.315 208.779 195.284 208.779 195.261 208.771C195.17 208.755 195.078 208.739 194.987 208.716C189.311 207.343 189.479 208.061 186.092 207.793C183.582 207.596 182.476 205.9 179.669 205.781C180.203 211.666 180.745 216.793 180.455 221.139L200.54 219.767C204.667 219.483 206.902 218.032 207.642 216.88C207.634 216.888 207.634 216.88 207.634 216.872Z" fill="white"/>
<path d="M180.272 221.133C180.439 216.061 180.119 212.637 179.753 208.67C179.669 207.786 179.585 206.863 179.501 205.909C179.493 205.806 179.562 205.719 179.661 205.712C179.76 205.704 179.844 205.775 179.852 205.877C179.936 206.84 180.02 207.755 180.104 208.638C180.47 212.566 180.783 215.966 180.63 220.943L200.517 219.587C204.4 219.319 206.62 218.025 207.428 216.865C207.093 216.203 205.041 212.543 199.724 210.216C198.274 209.592 196.764 209.111 195.223 208.78L195.147 208.764C195.116 208.756 195.086 208.748 195.055 208.748C194.994 208.733 194.933 208.725 194.865 208.709C193.659 208.417 191.615 208.102 190.814 208.086C190.715 208.086 190.638 207.999 190.638 207.897C190.638 207.794 190.722 207.715 190.822 207.715C191.638 207.731 193.72 208.046 194.941 208.346C195.002 208.362 195.055 208.37 195.116 208.386C195.147 208.393 195.177 208.401 195.215 208.401L195.292 208.417C196.856 208.748 198.389 209.238 199.861 209.869C205.476 212.322 207.535 216.258 207.772 216.747C207.772 216.747 207.772 216.755 207.779 216.755C207.787 216.763 207.787 216.771 207.795 216.786V216.794C207.825 216.85 207.817 216.921 207.779 216.976C206.971 218.23 204.652 219.666 200.54 219.95L180.455 221.322C180.355 221.33 180.272 221.251 180.264 221.149C180.272 221.149 180.272 221.141 180.272 221.133Z" fill="#5B2448"/>
<path d="M180.157 213.235C180.157 213.133 180.241 213.054 180.34 213.062C180.356 213.062 181.538 213.093 183.079 211.807C183.415 211.523 183.689 211.279 183.933 211.058C184.864 210.206 185.383 209.741 187.336 209.338C187.435 209.323 187.526 209.386 187.541 209.48C187.557 209.583 187.496 209.678 187.404 209.693C185.543 210.072 185.085 210.49 184.17 211.326C183.926 211.547 183.651 211.799 183.308 212.091C181.668 213.464 180.386 213.432 180.333 213.424C180.241 213.424 180.165 213.346 180.165 213.251C180.157 213.243 180.157 213.235 180.157 213.235Z" fill="#5B2448"/>
<path d="M180.363 216.882C180.424 216.795 181.957 214.831 184.673 215.021C185.909 215.107 186.588 215.589 187.236 216.046C187.717 216.385 188.167 216.709 188.846 216.882C189.7 217.103 190.287 216.961 190.913 216.803C191.706 216.606 192.53 216.401 193.918 216.898C195.993 217.64 197.961 218.026 199.769 218.042C202.516 218.065 204.903 217.253 206.856 215.612C206.932 215.549 207.047 215.565 207.108 215.644C207.169 215.723 207.154 215.833 207.085 215.896C205.063 217.584 202.607 218.428 199.769 218.405C197.923 218.389 195.917 217.994 193.804 217.245C192.515 216.788 191.744 216.977 190.997 217.158C190.356 217.316 189.7 217.482 188.762 217.237C188.022 217.048 187.518 216.693 187.038 216.346C186.397 215.888 185.794 215.462 184.65 215.384C182.133 215.21 180.668 217.079 180.645 217.103C180.584 217.182 180.47 217.198 180.393 217.135C180.317 217.079 180.302 216.961 180.363 216.882Z" fill="#5B2448"/>
<path d="M184.452 216.846C185.779 216.751 186.863 217.351 186.916 218.195C186.969 219.039 185.97 219.772 184.643 219.867C183.315 219.962 182.232 219.362 182.179 218.518C182.125 217.674 183.125 216.94 184.452 216.846ZM186.557 218.218C186.519 217.595 185.566 217.138 184.475 217.217C183.384 217.295 182.499 217.879 182.537 218.494C182.575 219.11 183.529 219.575 184.62 219.496C185.711 219.417 186.596 218.841 186.557 218.218Z" fill="#5B2448"/>
<path d="M191.279 212.659C191.325 212.541 192.355 209.669 195.826 208.25C196.1 208.139 196.413 208.273 196.52 208.557C196.627 208.841 196.497 209.165 196.222 209.275C195.009 209.756 193.934 210.561 193.118 211.61C192.515 212.391 192.286 213.022 192.286 213.03C192.187 213.314 191.882 213.464 191.6 213.361C191.317 213.258 191.18 212.951 191.279 212.659Z" fill="#FFCF2D"/>
<path d="M193.797 213.431C193.85 213.305 195.139 210.26 198.595 209.179H198.602C198.885 209.093 199.182 209.258 199.266 209.55C199.35 209.842 199.19 210.15 198.908 210.236C195.948 211.167 194.796 213.841 194.781 213.865C194.666 214.149 194.353 214.275 194.079 214.157C193.804 214.038 193.674 213.715 193.797 213.431Z" fill="#FFCF2D"/>
<path d="M196.665 214.003C196.711 213.893 197.909 211.25 201.059 210.304C201.341 210.217 201.639 210.39 201.723 210.682C201.807 210.974 201.639 211.282 201.357 211.369C198.694 212.165 197.649 214.445 197.642 214.461C197.52 214.737 197.199 214.863 196.932 214.737C196.665 214.611 196.543 214.279 196.665 214.003Z" fill="#FFCF2D"/>
<path d="M198.312 203.367L198.374 203.399L198.312 203.367Z" fill="#5B2448"/>
<path d="M203.546 185.671C194.155 194.576 182.85 197.542 178.662 198.079C177.922 193.567 175.946 187.587 175.55 185.797C175.519 185.647 175.496 185.505 175.466 185.355C173.246 173.657 171.095 165.303 168.73 159.167C168.677 159.032 168.631 158.906 168.577 158.78C166.762 154.158 164.824 150.821 162.627 148.257L162.604 148.234C162.482 148.092 162.36 147.957 162.238 147.815C161.277 146.751 160.224 145.772 159.095 144.905C158.851 144.715 152.565 144.502 152.565 144.502C152.565 144.502 146.325 137.6 165.778 137.9C185.23 138.2 192.004 154.513 192.004 154.513C192.317 157.581 192.446 160.31 192.622 162.85C192.645 163.15 192.668 163.45 192.691 163.742C193.278 171.306 194.636 177.222 203.546 185.671Z" fill="#F94F46"/>
<path d="M166.342 175.117L176.618 184.086C176.618 184.086 174.962 185.719 172.903 187.707C170.324 190.184 167.105 193.205 165.679 194.23C162.742 196.36 158.081 187.588 160.323 184.646C161.498 183.1 162.513 181.617 163.337 180.339C163.512 180.063 163.68 179.803 163.84 179.542C163.977 179.329 164.099 179.124 164.222 178.919C165.244 177.239 166.342 175.117 166.342 175.117Z" fill="#F4ADA2"/>
<path d="M163.329 180.344L172.903 187.703C170.324 190.18 167.105 193.201 165.679 194.227C162.742 196.357 158.081 187.585 160.323 184.643C161.491 183.097 162.505 181.622 163.329 180.344Z" fill="#66B0F0"/>
<path d="M171.034 189.483L162.024 182.297C161.902 182.478 161.773 182.66 161.643 182.841L170.545 189.94C170.706 189.791 170.873 189.641 171.034 189.483Z" fill="white"/>
<path d="M170.843 211.925C169.523 212.209 166.952 211.626 163.817 208.825L148.591 195.218C153.908 190.438 157.752 187.078 160.316 184.656C161.91 186.707 160.987 188.111 162.139 189.902C163.481 191.976 164.298 191.803 167.402 196.907C167.456 196.985 167.509 197.064 167.555 197.143C167.57 197.167 167.585 197.19 167.601 197.206C168.486 198.571 169.233 200.014 169.843 201.529C172.17 207.382 170.972 211.476 170.85 211.886C170.85 211.894 170.843 211.902 170.843 211.91V211.925Z" fill="white"/>
<path d="M170.995 211.983C170.972 212.038 170.934 212.077 170.881 212.085C169.462 212.393 166.83 211.73 163.718 208.954L148.492 195.347C148.423 195.284 148.415 195.181 148.476 195.11C148.484 195.102 148.484 195.102 148.492 195.094C150.239 193.438 152.069 191.852 153.832 190.322C156.166 188.295 158.378 186.378 160.186 184.493C160.247 184.43 160.354 184.43 160.415 184.493C160.476 184.556 160.476 184.666 160.415 184.729C158.592 186.63 156.379 188.547 154.038 190.582C152.321 192.073 150.544 193.611 148.843 195.22L163.931 208.709C166.884 211.352 169.355 212.03 170.721 211.786C170.927 211.091 171.979 206.974 169.775 201.421C169.165 199.914 168.425 198.478 167.547 197.122L167.502 197.058C167.486 197.035 167.463 197.003 167.448 196.98C167.41 196.924 167.379 196.869 167.341 196.814C166.693 195.749 165.694 194.298 165.144 193.714C165.083 193.651 165.083 193.54 165.144 193.477C165.205 193.414 165.312 193.414 165.373 193.477C165.961 194.1 166.968 195.568 167.616 196.632C167.646 196.688 167.685 196.735 167.715 196.782C167.73 196.814 167.753 196.838 167.769 196.869L167.814 196.932C168.699 198.305 169.462 199.764 170.072 201.286C172.391 207.116 171.178 211.415 171.018 211.935V211.951C171.018 211.951 171.011 211.967 171.011 211.975L170.995 211.983C170.995 211.983 170.995 211.975 170.995 211.983Z" fill="#5B2448"/>
<path d="M161.918 192.292C161.887 192.379 161.788 192.418 161.704 192.386C161.697 192.379 161.681 192.379 161.674 192.371C160.087 191.282 159.477 191.251 158.249 191.18C157.921 191.164 157.554 191.14 157.112 191.093C155.007 190.88 154.434 190.225 154.411 190.193C154.35 190.123 154.358 190.02 154.427 189.957C154.495 189.894 154.595 189.902 154.656 189.973C154.671 189.988 155.205 190.556 157.142 190.754C157.577 190.801 157.943 190.817 158.264 190.84C159.507 190.911 160.186 190.951 161.849 192.087C161.918 192.134 161.941 192.221 161.918 192.292Z" fill="#5B2448"/>
<path d="M171.278 210.699C171.247 210.77 171.179 210.81 171.11 210.802C168.524 210.541 166.205 209.358 164.206 207.284C162.91 205.935 161.75 204.199 160.758 202.125C160.156 200.855 159.469 200.429 158.813 200.019C158.249 199.672 157.669 199.309 157.173 198.457C156.776 197.786 156.662 197.171 156.555 196.572C156.41 195.783 156.273 195.033 155.51 194.142C153.839 192.186 151.818 192.493 151.795 192.501C151.704 192.517 151.62 192.454 151.604 192.359C151.589 192.265 151.65 192.178 151.742 192.162C151.833 192.146 153.954 191.807 155.754 193.913C156.57 194.876 156.723 195.704 156.876 196.501C156.982 197.092 157.089 197.652 157.455 198.275C157.913 199.056 158.432 199.38 158.981 199.727C159.683 200.161 160.4 200.618 161.048 201.975C162.025 204.018 163.161 205.722 164.435 207.047C166.373 209.066 168.631 210.218 171.141 210.47C171.232 210.478 171.293 210.565 171.286 210.652C171.286 210.668 171.278 210.683 171.278 210.699Z" fill="#5B2448"/>
<path d="M155.35 197.52C155.312 197.623 155.258 197.717 155.19 197.796C154.923 198.112 154.488 198.23 153.954 198.128C153.45 198.033 152.924 197.749 152.459 197.339C151.993 196.929 151.65 196.416 151.482 195.919C151.307 195.39 151.36 194.925 151.627 194.609C151.894 194.294 152.329 194.176 152.863 194.278C153.366 194.373 153.893 194.657 154.358 195.067C154.823 195.477 155.167 195.99 155.334 196.487C155.457 196.873 155.457 197.236 155.35 197.52ZM151.757 195.012C151.673 195.225 151.68 195.501 151.787 195.808C151.932 196.25 152.245 196.7 152.665 197.078C153.084 197.457 153.565 197.71 154.007 197.796C154.419 197.875 154.747 197.796 154.938 197.575C155.121 197.355 155.151 197.007 155.014 196.589C154.869 196.148 154.556 195.698 154.137 195.319C153.717 194.941 153.237 194.688 152.794 194.602C152.382 194.523 152.054 194.602 151.864 194.822C151.818 194.886 151.78 194.949 151.757 195.012Z" fill="#5B2448"/>
<path d="M168.562 197.874C168.455 198.142 168.165 198.26 167.921 198.15C164.9 196.825 162.551 197.961 162.528 197.976C162.284 198.095 161.994 197.992 161.872 197.74C161.757 197.487 161.857 197.188 162.093 197.069H162.101C162.215 197.014 164.877 195.72 168.302 197.227C168.547 197.329 168.661 197.621 168.562 197.874Z" fill="#FFCF2D"/>
<path d="M169.859 200.522C169.76 200.783 169.47 200.909 169.218 200.806C169.203 200.798 169.188 200.79 169.172 200.783C166.396 199.276 163.749 200.365 163.726 200.38C163.474 200.483 163.192 200.357 163.085 200.096C162.986 199.836 163.1 199.544 163.352 199.442C163.474 199.386 166.449 198.164 169.63 199.883C169.851 200.01 169.95 200.286 169.859 200.522Z" fill="#FFCF2D"/>
<path d="M170.835 203.117C170.828 203.133 170.82 203.149 170.812 203.173C170.683 203.417 170.385 203.512 170.149 203.378C167.692 202.005 165.381 202.873 165.358 202.881C165.106 202.975 164.824 202.841 164.733 202.581C164.641 202.321 164.763 202.037 165.007 201.934C165.114 201.887 167.746 200.877 170.614 202.486C170.835 202.605 170.927 202.881 170.835 203.117Z" fill="#FFCF2D"/>
<path d="M182.445 71.777C182.125 78.3084 166.823 93.5167 154.282 99.8903C144.777 104.726 139.109 109.632 139.109 109.632C129.695 100.663 131.48 89.4464 139.04 85.2263C141.611 83.7906 144.227 82.2051 146.134 77.6379C148.812 71.217 153.824 68.1169 160.941 70.16C166.014 71.6114 167.921 71.2327 170.309 70.9409C175.305 70.3414 179.31 67.3281 179.31 67.3281L182.445 71.777Z" fill="#5B2448"/>
<path d="M196.169 72.7772C196.794 72.5721 197.664 71.7439 197.008 71.2232C196.703 70.9708 196.405 70.6947 196.26 70.3161C196.115 69.9296 196.085 69.4405 196.054 69.0303C196.032 68.7227 196.016 68.4072 196.001 68.0995C195.986 67.6657 195.971 67.2318 195.94 66.798V66.7901C195.917 66.4667 195.887 66.1433 195.841 65.8278C195.696 64.7708 195.444 63.7295 195.093 62.7277C194.208 60.314 192.446 58.3893 190.081 57.5373C189.029 57.1666 187.915 56.9852 186.801 57.0009C186.794 57.0009 186.794 57.0009 186.786 57.0009C186.717 57.0009 186.641 57.0009 186.572 57.0009C180.134 57.1666 177.144 63.9504 178.914 68.699C178.982 68.7069 179.058 68.7227 179.135 68.7385C179.158 68.7385 179.173 68.7464 179.196 68.7464L179.31 68.77C179.341 68.7779 179.364 68.7779 179.394 68.7858C179.425 68.7937 179.448 68.7937 179.486 68.8016C179.524 68.8095 179.547 68.8095 179.577 68.8174C179.608 68.8252 179.646 68.8252 179.676 68.8331C179.905 68.8726 180.18 68.912 180.523 68.9593C180.554 68.9672 180.592 68.9672 180.622 68.9751C180.714 68.983 180.805 68.9988 180.905 69.0067C180.95 69.0146 180.988 69.0146 181.034 69.0225L181.111 69.0303C181.149 69.0303 181.179 69.0382 181.217 69.0382C181.477 69.0698 181.774 69.1013 182.095 69.125C182.156 69.1329 182.217 69.1329 182.285 69.1408C178.052 74.694 169.851 79.6556 169.851 79.6556C169.958 84.6173 179.409 86.9916 179.409 86.9916C180.76 84.6094 183.887 78.6696 187.946 78.6933C189.197 79.3638 191.882 80.4445 192.873 80.1132C195.345 79.3086 195.917 74.339 196.169 72.7772Z" fill="#F4ADA2"/>
<path d="M195.94 66.7891L195.704 66.8285L192.378 67.5384L184.147 69.2975C184.147 69.2975 189.754 70.0232 196.001 68.0985C195.986 67.6646 195.971 67.2229 195.94 66.7891Z" fill="#9B3C82"/>
<path opacity="0.52" d="M190.077 73.8705C190.662 72.9029 190.378 71.6277 189.443 71.0222C188.507 70.4167 187.274 70.7102 186.688 71.6778C186.103 72.6453 186.386 73.9206 187.322 74.5261C188.258 75.1316 189.491 74.8381 190.077 73.8705Z" fill="#E57281"/>
<path d="M193.919 68.0815C194.132 68.5311 193.492 69.2884 192.477 69.8248C191.493 70.3375 190.478 70.2428 190.265 69.738C190.051 69.2332 190.646 68.3181 191.707 67.9947C192.752 67.6713 193.698 67.6161 193.919 68.0815Z" fill="#5B2448"/>
<path d="M193.873 75.5369C193.972 75.529 194.056 75.6079 194.064 75.7025C194.071 75.7814 194.026 75.8524 193.957 75.8839C193.82 75.947 193.667 75.9786 193.514 75.9707C193.37 75.9707 193.225 75.9392 193.08 75.8918C192.797 75.7972 192.546 75.6157 192.363 75.3712C192.271 75.245 192.202 75.1109 192.141 74.9689C192.088 74.8269 192.057 74.6692 192.05 74.5193C192.027 74.2117 192.118 73.904 192.309 73.6595C192.37 73.5806 192.485 73.5727 192.561 73.6358C192.622 73.6831 192.637 73.762 192.614 73.8409V73.8488C192.546 74.046 192.53 74.2669 192.561 74.472C192.576 74.5745 192.607 74.6692 192.645 74.7638C192.683 74.8585 192.736 74.9452 192.797 75.032C192.927 75.1977 193.087 75.3239 193.27 75.4106C193.453 75.5053 193.652 75.5526 193.858 75.5447L193.873 75.5369Z" fill="#9B3C82"/>
<path d="M192.294 70.6236C192.241 70.6867 192.248 70.7893 192.309 70.8445C192.706 71.1758 194.209 71.1285 195.033 70.5921C195.704 70.1582 195.368 69.5351 195.109 69.2038C195.01 69.0776 194.827 69.0539 194.697 69.1643C193.812 69.9216 192.775 70.3791 192.347 70.5842C192.325 70.5921 192.309 70.6079 192.294 70.6236Z" fill="#5B2448"/>
<path d="M177.869 61.2163C178.784 61.2321 180.081 61.2399 180.081 61.2399L179.57 68.4655L179.539 68.8599V68.8993V68.9072L179.516 68.8993C179.463 68.8835 179.287 68.8362 179.013 68.7652C176.473 68.0789 165.564 64.9789 166.113 62.6046C166.457 61.1768 174.413 61.1453 177.869 61.2163Z" fill="#F94F46"/>
<path d="M180.081 61.2503L179.57 68.4758L179.524 68.9097L179.494 69.1936C179.318 69.0753 179.166 68.9333 179.021 68.7756C177.96 67.6081 176.686 64.7369 177.869 61.2188C178.784 61.2345 180.081 61.2503 180.081 61.2503Z" fill="#5B2448"/>
<path d="M195.841 65.8199C195.719 64.9443 195.521 64.0766 195.261 63.2326C195.208 63.059 195.155 62.8934 195.086 62.7277C194.209 60.314 192.447 58.3893 190.082 57.5373C189.029 57.1666 187.915 56.9852 186.802 57.0009C186.794 57.0009 186.794 57.0009 186.786 57.0009C186.718 57.0009 186.641 57.0009 186.573 57.0009C180.127 57.1666 176.877 63.8163 179.135 68.7858C179.204 68.7937 179.372 68.7779 179.402 68.7858C179.433 68.7937 179.455 68.7937 179.494 68.8016C179.532 68.8095 179.555 68.8095 179.585 68.8174C179.616 68.8252 179.646 68.8252 179.684 68.8331C179.913 68.8726 180.188 68.912 180.531 68.9593C180.562 68.9672 180.6 68.9672 180.63 68.9751C180.722 68.983 180.813 68.9988 180.912 69.0067C180.958 69.0146 180.996 69.0146 181.042 69.0225L181.118 69.0303C181.157 69.0303 181.187 69.0382 181.225 69.0382C181.485 69.0698 181.782 69.1013 182.102 69.125C182.163 69.1329 182.225 69.1329 182.293 69.1408C182.82 69.1881 183.43 69.2354 184.147 69.2906C186.283 69.4405 189.685 68.7858 192.385 68.0285H192.393C192.447 68.0128 192.515 67.997 192.584 67.9733C193.408 67.7367 194.163 67.4922 194.781 67.2634C194.788 67.2634 194.788 67.2634 194.796 67.2555C195.177 67.1135 195.628 66.9242 195.948 66.7743C195.917 66.4667 195.887 66.1433 195.841 65.8199Z" fill="#F94F46"/>
<path d="M183.59 74.4166C182.835 74.2194 182.118 73.9039 181.462 73.47C178.281 71.2535 178.433 68.1455 180.462 67.7275C182.613 67.2857 184.147 69.2972 184.147 69.2972L183.59 74.4166Z" fill="#F4ADA2"/>
<path d="M180.943 73.4678C181.82 74.0357 182.514 74.1462 182.568 74.1541C182.667 74.162 182.758 74.091 182.781 73.9884C182.804 73.878 182.728 73.7754 182.621 73.7518C182.606 73.7518 181.172 73.5151 179.829 71.9375C179.737 72.0322 179.638 72.1268 179.539 72.2215C179.943 72.7026 180.416 73.1207 180.943 73.4678Z" fill="#9B3C82"/>
<path d="M184.223 75.9804C183.689 76.225 183.575 78.1418 184.871 79.8298C185.779 79.1672 186.771 78.7413 187.831 78.7097H187.953H187.969C187.046 78.1812 186.428 77.6448 185.68 76.8797C185.299 76.4932 184.719 75.7517 184.223 75.9804Z" fill="#5B2448"/>
<path d="M183.483 72.237C182.69 70.0126 180.928 69.9258 180.851 69.9258C180.745 69.9179 180.661 69.8233 180.661 69.7128C180.668 69.6024 180.752 69.5156 180.859 69.5156C180.943 69.5156 182.964 69.6024 183.849 72.095C183.887 72.1976 183.834 72.3159 183.727 72.3554C183.636 72.3948 183.521 72.3396 183.483 72.237Z" fill="#9B3C82"/>
<path d="M195.841 65.8217C195.719 64.9461 195.521 64.0784 195.262 63.2344C193.934 63.3448 192.988 63.9443 192.477 64.883C191.966 65.8217 192.058 67.2731 192.393 68.0461C192.447 68.0304 192.515 68.0146 192.584 67.9909C193.408 67.7543 194.163 67.5097 194.781 67.281C194.789 67.281 194.789 67.281 194.796 67.2731C195.178 67.1311 195.628 66.9418 195.948 66.7919C195.918 66.4685 195.887 66.1451 195.841 65.8217Z" fill="#5B2448"/>
<path d="M131.229 109.429L131.183 109.421C131.191 109.429 131.359 109.255 131.229 109.429Z" fill="#F94F46"/>
<path d="M174.604 186.055C174.604 186.055 160.812 173.868 156.868 164.812C168.265 163.384 172.925 154.881 174.283 149.233C167.723 147.916 155.868 147.419 148.957 147.269C144.647 147.174 140.97 147.277 137.721 146.906C132.983 146.362 129.177 144.761 125.714 139.76C123.829 136.667 122.708 132.794 122.708 128.59C122.708 128.227 122.716 127.864 122.731 127.509C123.219 123.273 124.844 119.195 126.537 116.19C126.545 116.174 126.553 116.158 126.56 116.142C127.43 114.612 129.436 111.575 130.298 110.558C130.886 109.871 131.13 109.556 131.229 109.43C131.587 109.469 134.112 109.745 137.713 110.266C138.506 110.384 139.353 110.51 140.238 110.652C149.476 112.12 163.108 114.951 167.731 119.345C166.449 120.52 165.488 121.964 164.778 123.455C173.612 126.768 184.559 130.925 190.066 138.71C206.231 161.523 174.604 186.055 174.604 186.055Z" fill="#F94F46"/>
<path d="M171.239 116.894C163.886 122.399 149.285 123.07 137.705 114.945C128.368 108.39 125.79 108.311 123.898 108.848L161.353 85.1202L162.482 84.4102L164.427 83.1797L171.239 116.894Z" fill="#FFCF2D"/>
<path d="M213.607 134.391C212.547 136.126 210.632 137.097 208.657 136.915C205.453 136.607 203.53 133.168 204.926 130.92C205.819 129.484 206.597 130.147 206.422 131.054C206.185 132.364 206.536 133.152 207.085 133.594C207.856 134.217 209.023 134.131 209.473 133.823C211.311 132.569 210.625 130.754 209.572 130.06C209.32 129.887 209.03 129.792 208.725 129.784C207.97 129.784 206.864 129.603 205.781 129.287C203.424 128.601 200.96 128.372 198.519 128.617C192.24 129.256 186.176 129.958 182.041 130.171C174.36 130.565 154.061 129.524 152.1 117.763C151.833 116.138 151.902 114.497 152.222 112.888C152.543 111.342 153.054 109.851 153.748 108.439C155.601 104.605 161.933 102.405 164.397 100.953C164.397 100.953 171.049 105.197 175.794 104.976C175.794 104.976 175.435 107.003 175.061 108.904C174.84 110.032 174.634 111.381 174.558 112.17C174.543 112.32 174.535 112.454 174.527 112.557C174.566 112.564 174.611 112.572 174.657 112.58C177.121 112.998 191.554 115.483 196.673 117.013C208.687 120.602 213.615 125.619 214.317 129.177C214.408 129.626 214.462 130.092 214.492 130.549C214.569 132.095 214.218 133.389 213.607 134.391Z" fill="#F4ADA2"/>
<path d="M151.902 106.586C150.239 115.089 152.009 122.307 156.555 124.216C162.299 126.614 170.523 119.956 175.016 108.937C163.657 111.035 154.77 107.753 151.902 106.586Z" fill="#F4ADA2"/>
<path d="M175.076 108.867C175.076 108.867 164.282 111.738 151.886 106.587C144.51 104.679 146.897 105.948 146.081 108.678C143.129 106.958 137.042 103.692 135.02 104.584C145.067 100.245 157.051 87.1905 169.859 79.6574L169.882 79.6732C176.122 77.4803 178.921 82.4813 179.417 86.9933C180.157 93.6194 175.076 108.867 175.076 108.867Z" fill="#FFCF2D"/>
<path d="M162.482 84.4062L143.968 105.894L143.686 105.625L161.361 85.1162L162.482 84.4062Z" fill="white"/>
<path d="M175.062 108.913C166.945 111.95 157.463 111.106 151.398 110.136C151.444 108.881 151.643 107.43 151.894 106.586C159.057 109.331 169.592 109.938 175.077 108.866C175.077 108.866 175.062 108.905 175.062 108.913Z" fill="#9B3C82"/>
<path d="M192.691 163.751C188.159 175.244 179.806 182.233 176.152 185.285C175.931 185.467 175.74 185.64 175.55 185.798C175.519 185.648 175.496 185.506 175.466 185.356C175.611 185.238 175.748 185.112 175.908 184.978C177.823 183.376 181.019 180.702 184.238 176.916C187.931 172.578 190.745 167.853 192.614 162.852C192.645 163.159 192.668 163.459 192.691 163.751Z" fill="#F4ADA2"/>
<path d="M130.451 110.388C129.306 111.927 128.627 112.92 126.919 115.642C123.257 112.589 122.715 109.876 123.661 109.055C125.019 107.872 127.354 108.74 130.451 110.388Z" fill="#5B2448"/>
<path d="M178.654 198.077C182.377 197.801 186.504 196.35 191.127 194.654C191.081 192.99 191.226 192.169 191.226 190.82C188.228 193.187 182.529 197.304 178.654 198.077Z" fill="#9B3C82"/>
<path d="M204.004 186.74C204.69 190.463 198.206 195.204 191.104 196.561L191.15 190.897C191.623 190.479 202.966 181.132 204.004 186.74Z" fill="#5B2448"/>
<path d="M165.9 176.206C164.672 174.203 158.851 161.014 155.525 165.833C153.321 169.028 157.203 175.591 163.543 180.008C163.55 180.008 165.709 176.577 165.9 176.206Z" fill="#5B2448"/>
<path d="M174.596 186.048C169.996 183.342 167.029 181.181 164.367 178.672C164.863 177.939 165.297 177.173 165.885 176.203C167.822 178.917 170.195 182.143 174.596 186.048Z" fill="#9B3C82"/>
<path d="M173.147 153.806C173.132 153.853 173.109 153.893 173.086 153.948C172.628 154.879 171.171 156.583 170.713 157.103C170.073 157.829 169.317 158.72 168.753 159.225C168.7 159.091 168.646 158.941 168.593 158.815C169.813 157.671 172.346 154.745 172.796 153.656L172.857 153.68L173.147 153.806Z" fill="#F4ADA2"/>
<path d="M129.124 113.383C128.17 114.195 127.316 115.126 126.568 116.152C126.561 116.167 126.553 116.183 126.545 116.199C124.844 119.196 123.219 123.282 122.739 127.518C122.723 127.873 122.716 128.236 122.716 128.599C122.716 132.803 123.837 136.676 125.721 139.769C128.376 144.123 132.541 146.931 137.233 146.931C137.4 146.931 137.561 146.931 137.728 146.923C144.853 146.623 150.681 139.832 151.62 131.084L129.124 113.383Z" fill="#F94F46"/>
<path d="M162.627 148.262C165.297 148.625 167.845 149.619 170.065 151.181C171.087 151.89 172.025 152.727 172.849 153.665C172.926 153.752 173.002 153.839 173.078 153.933C174.108 155.156 174.886 156.584 175.367 158.13C175.39 158.209 175.466 158.272 175.55 158.272C175.573 158.272 175.588 158.272 175.611 158.264C175.71 158.232 175.771 158.122 175.733 158.02C174.894 155.243 173.01 152.774 170.279 150.865C167.868 149.177 165.03 148.112 162.238 147.836L162.627 148.262Z" fill="#F4ADA2"/>
<path d="M143.343 106.342C142.649 108.456 144.907 111.051 151.291 112.124C151.337 110.262 151.543 108.409 151.902 106.586C147.424 104.875 144.357 103.258 143.343 106.342Z" fill="#5B2448"/>
<path d="M174.657 112.585C172.849 112.38 171.011 112.262 169.302 112.238C169.195 112.238 169.111 112.143 169.111 112.041C169.111 111.931 169.203 111.844 169.302 111.844C170.98 111.867 172.773 111.986 174.55 112.183C174.535 112.333 174.527 112.467 174.52 112.569C174.573 112.569 174.611 112.577 174.657 112.585Z" fill="#9B3C82"/>
</g>
<g clip-path="url(#clip4_6136_10197)">
<path d="M184.251 222.846L169.931 214.18" stroke="#5B2448" stroke-width="12.3136" stroke-linecap="round" stroke-linejoin="round"/>
<path d="M182.15 221L194.9 220.109L195.098 222.948L182.349 223.84L182.15 221Z" fill="#5B2448"/>
<path d="M210.489 131.731C210.489 132.172 210.358 132.604 210.112 132.97C209.867 133.337 209.519 133.623 209.111 133.792C208.703 133.961 208.254 134.005 207.822 133.918C207.389 133.832 206.991 133.62 206.679 133.308C206.367 132.996 206.155 132.598 206.069 132.166C205.983 131.733 206.027 131.284 206.196 130.877C206.365 130.469 206.651 130.121 207.018 129.876C207.385 129.631 207.816 129.5 208.258 129.5C208.551 129.5 208.841 129.558 209.112 129.67C209.382 129.782 209.628 129.946 209.836 130.153C210.043 130.361 210.207 130.607 210.319 130.877C210.431 131.148 210.489 131.438 210.489 131.731Z" fill="#9B3C82"/>
<path d="M267.944 204.867L239.95 208.654L239.848 208.668L239.568 208.706H239.567L211.627 212.485" stroke="#66B0F0" stroke-width="4.736" stroke-miterlimit="10"/>
<path d="M240.03 214.028C243.014 214.028 245.432 211.61 245.432 208.627C245.432 205.645 243.014 203.227 240.03 203.227C237.046 203.227 234.627 205.645 234.627 208.627C234.627 211.61 237.046 214.028 240.03 214.028Z" fill="#9B3C82"/>
<path d="M143.843 209.146L116.367 209.125H116.367L115.821 209.129L115.273 209.133L87.9863 209.337" stroke="#66B0F0" stroke-width="4.736" stroke-miterlimit="10"/>
<path d="M112.979 181.133L115.762 208.532L115.772 208.638L115.822 209.126L118.619 236.669" stroke="#66B0F0" stroke-width="4.736" stroke-miterlimit="10"/>
<path d="M133.286 187.055L115.762 208.534L115.714 208.592L115.273 209.132L97.9961 230.307" stroke="#66B0F0" stroke-width="4.736" stroke-miterlimit="10"/>
<path d="M137.607 226.446L116.368 209.126H116.367L115.773 208.641L115.714 208.594L94.3384 191.164" stroke="#66B0F0" stroke-width="4.736" stroke-miterlimit="10"/>
<path d="M115.901 239.778C108.265 239.769 100.906 236.925 95.2494 231.798C89.5931 226.671 86.0433 219.626 85.2886 212.03C84.5339 204.435 86.6281 196.83 91.1649 190.691C95.7017 184.551 102.358 180.315 109.842 178.805C117.326 177.294 125.105 178.616 131.669 182.514C138.234 186.412 143.116 192.609 145.368 199.902C147.621 207.195 147.084 215.065 143.861 221.984C140.638 228.904 134.959 234.38 127.926 237.351C124.122 238.96 120.032 239.786 115.901 239.778ZM115.901 181.254C109.504 181.254 103.305 183.471 98.3599 187.528C93.4151 191.585 90.0303 197.23 88.7823 203.502C87.5344 209.774 88.5004 216.285 91.5159 221.925C94.5313 227.564 99.4096 231.984 105.32 234.432C111.23 236.879 117.805 237.202 123.927 235.345C130.048 233.489 135.336 229.568 138.89 224.251C142.444 218.934 144.044 212.549 143.417 206.185C142.79 199.821 139.975 193.871 135.452 189.35C132.89 186.775 129.843 184.734 126.487 183.344C123.131 181.954 119.533 181.244 115.901 181.254Z" fill="#9B3C82"/>
<path d="M139.445 177.658L136.28 181.975C135.691 181.554 135.092 181.153 134.484 180.771C134.373 180.7 134.261 180.631 134.148 180.562C123.09 173.769 109.283 173.386 98.0882 180.984C97.9792 181.056 97.8703 181.131 97.7621 181.207C97.1235 181.651 96.494 182.122 95.8738 182.619C95.7711 182.701 95.6688 182.784 95.5667 182.867C94.6556 183.615 93.767 184.421 92.9007 185.285C84.3019 193.88 82.4972 202.073 81.658 209.932H79.1665C79.1665 199.315 82.6117 187.217 92.7491 178.89C92.8509 178.806 92.9533 178.723 93.0562 178.64C93.6609 178.154 94.2893 177.682 94.9414 177.225C95.0488 177.148 95.1569 177.073 95.2659 177C97.184 175.686 99.2133 174.542 101.33 173.582C112.315 168.567 126.658 169.717 137.347 176.268C137.453 176.333 137.558 176.397 137.662 176.464C138.269 176.844 138.864 177.242 139.445 177.658Z" fill="#66B0F0"/>
<path d="M163.365 212.263C163.331 212.762 163.109 213.229 162.744 213.57C162.379 213.911 161.898 214.101 161.398 214.101C161.353 214.101 161.307 214.1 161.261 214.097L155.854 213.726L155.457 213.699L115.831 210.986C115.477 210.962 115.137 210.843 114.845 210.642C114.554 210.44 114.322 210.165 114.173 209.843C114.025 209.521 113.966 209.166 114.003 208.813C114.039 208.461 114.17 208.125 114.381 207.841L115.51 206.322L144.48 167.346L145.885 165.456V165.455L145.956 165.36C146.021 165.272 146.094 165.19 146.173 165.114C146.22 165.068 146.271 165.024 146.323 164.983C146.699 164.688 147.17 164.54 147.647 164.565C148.125 164.591 148.577 164.789 148.919 165.123C149.261 165.456 149.471 165.903 149.509 166.379C149.547 166.856 149.41 167.33 149.125 167.713L147.888 169.377L147.612 169.748V169.749L119.704 207.296L155.91 209.775L156.31 209.803L161.531 210.16C162.053 210.196 162.54 210.437 162.884 210.832C163.228 211.226 163.401 211.741 163.365 212.263Z" fill="#649FE3"/>
<path d="M148.608 166.166C148.607 166.479 148.482 166.779 148.26 167.001C148.038 167.222 147.737 167.346 147.424 167.346H147.421L147.073 167.345L146.648 167.345L144.48 167.339L95.5724 167.219C94.8411 167.23 94.1266 167.44 93.5061 167.827C92.8855 168.214 92.3824 168.763 92.0509 169.415C91.7194 170.067 91.5721 170.797 91.6249 171.526C91.6777 172.255 91.9286 172.956 92.3506 173.553L115.51 206.315L116.933 208.328C117.024 208.455 117.09 208.598 117.126 208.751C117.162 208.903 117.167 209.061 117.141 209.216C117.116 209.37 117.06 209.518 116.976 209.651C116.893 209.783 116.785 209.898 116.657 209.988C116.529 210.079 116.384 210.143 116.231 210.177C116.078 210.211 115.92 210.215 115.766 210.187C115.612 210.16 115.465 210.102 115.333 210.017C115.201 209.933 115.087 209.823 114.998 209.694L114.087 208.404L90.4164 174.92C89.7449 173.97 89.3457 172.855 89.2621 171.695C89.1785 170.534 89.4136 169.373 89.942 168.337C90.4704 167.3 91.272 166.428 92.2603 165.813C93.2485 165.199 94.3859 164.867 95.5495 164.852H95.5676L145.694 164.975L146.12 164.975L146.323 164.976L147.427 164.979C147.582 164.979 147.736 165.01 147.88 165.07C148.023 165.13 148.154 165.217 148.263 165.328C148.373 165.438 148.46 165.569 148.519 165.712C148.578 165.856 148.608 166.01 148.608 166.166Z" fill="#649FE3"/>
<path d="M164.879 201.637L161.278 203.077L140.733 151.481C140.633 151.24 140.581 150.981 140.582 150.719C140.582 150.458 140.635 150.199 140.736 149.958C140.837 149.717 140.986 149.498 141.172 149.315C141.359 149.132 141.58 148.988 141.823 148.891C142.066 148.794 142.326 148.746 142.588 148.75C142.849 148.755 143.107 148.811 143.347 148.916C143.586 149.021 143.803 149.172 143.983 149.361C144.164 149.55 144.305 149.774 144.398 150.018L164.879 201.637Z" fill="#649FE3"/>
<path d="M145.213 155.784H131.386C130.163 155.784 128.99 155.298 128.125 154.433C127.26 153.569 126.774 152.396 126.774 151.173C126.774 149.95 127.26 148.778 128.125 147.913C128.99 147.048 130.163 146.563 131.386 146.562L154.414 147.24C154.414 152.332 150.307 155.784 145.213 155.784Z" fill="#5B2448"/>
<path d="M115.966 214.208C118.835 214.208 121.161 211.882 121.161 209.014C121.161 206.146 118.835 203.82 115.966 203.82C113.096 203.82 110.771 206.146 110.771 209.014C110.771 211.882 113.096 214.208 115.966 214.208Z" fill="#9B3C82"/>
<path d="M98.0882 180.984C97.9792 181.057 97.8703 181.132 97.7621 181.207L94.9414 177.225C95.0488 177.148 95.1569 177.073 95.2659 177L98.0882 180.984Z" fill="#B0DCF7"/>
<path d="M137.682 176.476L134.49 180.782C134.379 180.711 134.261 180.628 134.148 180.56L137.347 176.266C137.453 176.33 137.558 176.395 137.662 176.461L137.682 176.476Z" fill="#B0DCF7"/>
<path d="M179.232 223.033C177.963 224.303 176.455 225.31 174.796 225.997C173.137 226.684 171.359 227.037 169.563 227.037C167.767 227.037 165.989 226.684 164.329 225.997C162.67 225.31 161.163 224.303 159.893 223.033C155.155 218.296 154.745 210.396 158.29 205.622C161.01 201.96 163.901 200.196 168.146 199.769C170.956 199.476 173.789 200.061 176.253 201.443C178.717 202.825 180.693 204.937 181.908 207.487C183.123 210.037 183.519 212.901 183.039 215.685C182.56 218.469 181.23 221.036 179.232 223.033Z" fill="#649FE3"/>
<path d="M169.549 218.62C172.379 218.62 174.673 216.326 174.673 213.497C174.673 210.668 172.379 208.375 169.549 208.375C166.719 208.375 164.425 210.668 164.425 213.497C164.425 216.326 166.719 218.62 169.549 218.62Z" fill="white"/>
<path d="M222.693 230.962L222.38 230.722L239.47 208.511H239.471L239.654 208.273L256.804 185.984L257.117 186.225L239.89 208.613L239.665 208.906L222.693 230.962Z" fill="#66B0F0"/>
<path d="M235.814 181.016L236.205 180.961L243.914 236.571L243.523 236.625L235.814 181.016Z" fill="#66B0F0"/>
<path d="M217.117 191.617L217.355 191.303L262.449 225.434L262.211 225.749L217.117 191.617Z" fill="#66B0F0"/>
<path d="M215.926 160.442C215.841 160.72 215.694 160.975 215.497 161.189L214.148 162.66L214.131 162.678L213.853 162.981L177.98 202.08L177.71 202.373L173.33 207.148C172.976 207.534 172.483 207.763 171.96 207.786C171.437 207.808 170.927 207.622 170.541 207.269C170.155 206.915 169.926 206.422 169.903 205.9C169.881 205.377 170.067 204.866 170.421 204.481L174.112 200.457L174.408 200.134L212.206 158.938L212.502 158.616L212.514 158.603L212.588 158.522C212.891 158.191 213.298 157.974 213.741 157.906C214.184 157.838 214.637 157.922 215.026 158.146C215.415 158.369 215.716 158.718 215.879 159.136C216.043 159.553 216.06 160.014 215.926 160.442Z" fill="#649FE3"/>
<path d="M268.393 196.662C265.183 189.084 259.096 183.089 251.468 179.993C243.841 176.897 235.296 176.953 227.71 180.15C227.022 180.44 226.348 180.754 225.687 181.092C224.498 181.698 223.35 182.38 222.25 183.134C217.351 186.499 213.515 191.193 211.192 196.662C209.202 201.38 208.41 206.516 208.887 211.614C209.364 216.712 211.096 221.613 213.928 225.879C216.759 230.145 220.603 233.645 225.116 236.066C229.629 238.487 234.671 239.753 239.793 239.753C244.914 239.753 249.956 238.487 254.469 236.066C258.982 233.645 262.826 230.145 265.658 225.879C268.489 221.613 270.221 216.712 270.698 211.614C271.175 206.516 270.383 201.38 268.393 196.662ZM262.162 225.221C262.084 225.326 262.005 225.432 261.925 225.536C261.16 226.539 260.329 227.489 259.437 228.38C255.232 232.608 249.768 235.359 243.867 236.219C243.737 236.239 243.606 236.257 243.476 236.274C242.255 236.434 241.024 236.515 239.793 236.514C233.662 236.532 227.7 234.506 222.85 230.758C222.746 230.677 222.642 230.597 222.539 230.514C221.702 229.849 220.903 229.136 220.148 228.38C215.408 223.64 212.542 217.348 212.078 210.663C211.613 203.978 213.581 197.35 217.619 192C217.699 191.895 217.779 191.791 217.86 191.688C219.474 189.623 221.368 187.792 223.486 186.249C227.133 183.592 231.378 181.874 235.847 181.246C235.977 181.227 236.107 181.209 236.238 181.193C237.417 181.043 238.604 180.968 239.793 180.969C245.787 180.952 251.623 182.888 256.418 186.485C256.523 186.563 256.627 186.642 256.732 186.725C257.684 187.459 258.587 188.253 259.437 189.103C264.136 193.803 266.996 200.031 267.496 206.657C267.996 213.283 266.103 219.87 262.162 225.221Z" fill="#9B3C82"/>
<path d="M263.955 180.252C253.044 170.961 236.01 168.624 223.389 174.386C209.452 180.749 203.371 192.407 201.655 203.722H204.8C206.165 198.045 208.868 192.194 214.919 186.145C229.209 171.859 249.959 172.564 265.555 184.892L263.955 180.252Z" fill="#66B0F0"/>
<path d="M240.993 209.761C240.843 209.972 240.653 210.152 240.433 210.29C240.214 210.428 239.97 210.521 239.714 210.564C239.459 210.608 239.197 210.601 238.944 210.543C238.692 210.485 238.453 210.379 238.242 210.229C232.242 205.974 227.196 195.494 226.985 195.05C226.966 195.01 226.948 194.969 226.932 194.928L207.1 144.964C206.99 144.686 206.944 144.386 206.967 144.088C206.989 143.789 207.079 143.5 207.23 143.242C207.381 142.983 207.589 142.763 207.837 142.596C208.086 142.43 208.37 142.322 208.666 142.281C212.848 141.708 215.791 140.231 216.538 138.332C216.97 137.233 216.5 136.315 216.029 135.738C215.509 135.101 214.665 134.497 213.513 134.108C214.15 133.101 214.514 131.811 214.432 130.266C214.438 130.267 214.444 130.27 214.45 130.271C216.372 130.854 217.975 131.882 219.087 133.243C220.672 135.182 221.082 137.564 220.211 139.776C219.536 141.493 217.539 144.366 211.656 145.742L230.574 193.406C230.965 194.208 235.565 203.492 240.525 207.01C240.737 207.16 240.917 207.35 241.054 207.569C241.192 207.789 241.286 208.033 241.329 208.289C241.372 208.544 241.365 208.805 241.307 209.058C241.25 209.311 241.143 209.549 240.993 209.761Z" fill="#649FE3"/>
<path d="M222.474 164.08C220.551 164.139 218.683 163.433 217.279 162.118C215.876 160.803 215.051 158.985 214.986 157.063C214.92 155.141 215.62 153.271 216.931 151.864C218.242 150.456 220.058 149.626 221.98 149.555L222.474 164.08Z" fill="#649FE3"/>
<path d="M221.958 149.562L225.443 149.439L225.959 163.943L222.473 164.067L221.958 149.562Z" fill="#B0DCF7"/>
<path d="M230.225 150.887C230.137 150.887 230.052 150.858 229.983 150.804C229.913 150.75 229.864 150.675 229.842 150.59C229.82 150.506 229.827 150.416 229.862 150.336C229.897 150.255 229.957 150.189 230.034 150.146L234.71 147.57C234.802 147.521 234.909 147.51 235.009 147.54C235.108 147.569 235.192 147.637 235.242 147.728C235.292 147.818 235.305 147.925 235.276 148.025C235.248 148.125 235.182 148.21 235.091 148.261L230.415 150.837C230.357 150.87 230.291 150.887 230.225 150.887Z" fill="#FFCF2D"/>
<path d="M231.145 156.813C231.041 156.814 230.94 156.774 230.865 156.701C230.79 156.627 230.748 156.527 230.747 156.423C230.746 156.318 230.786 156.217 230.859 156.143C230.933 156.068 231.033 156.025 231.137 156.024L236.432 155.914C236.537 155.912 236.638 155.951 236.713 156.024C236.789 156.096 236.833 156.196 236.835 156.301C236.837 156.405 236.797 156.506 236.725 156.582C236.653 156.658 236.553 156.701 236.448 156.703L231.154 156.813H231.145Z" fill="#FFCF2D"/>
<path d="M235.033 165.53C234.961 165.53 234.891 165.51 234.829 165.473L230.271 162.725C230.181 162.671 230.116 162.583 230.091 162.482C230.066 162.38 230.082 162.273 230.136 162.183C230.19 162.093 230.278 162.029 230.379 162.004C230.481 161.979 230.589 161.995 230.678 162.049L235.237 164.797C235.311 164.842 235.368 164.909 235.4 164.99C235.432 165.07 235.437 165.158 235.413 165.241C235.39 165.324 235.34 165.398 235.272 165.45C235.203 165.502 235.119 165.53 235.033 165.53Z" fill="#FFCF2D"/>
<path d="M212.132 158.758L212.497 158.609L214.25 162.915L213.885 163.063L212.132 158.758Z" fill="#B0DCF7"/>
<path d="M219.168 176.539L219.534 176.392L221.387 181.015L221.021 181.162L219.168 176.539Z" fill="#B0DCF7"/>
<path d="M223.024 174.438L223.39 174.291L225.243 178.913L224.877 179.06L223.024 174.438Z" fill="#B0DCF7"/>
<path d="M169.926 214.071L160.257 208.219" stroke="#5B2448" stroke-width="12.3136" stroke-linecap="round" stroke-linejoin="round"/>
<path d="M159.47 210.396L149.924 201.899L151.818 199.773L161.58 208.189L159.47 210.396Z" fill="#5B2448"/>
<path d="M155.916 213.725L155.519 213.697C155.503 213.373 155.467 211.889 155.973 209.773L156.372 209.801C155.83 212.032 155.909 213.592 155.916 213.725Z" fill="#B0DCF7"/>
<path d="M177.71 202.372L177.979 202.078C177.722 201.88 176.432 200.93 174.408 200.133L174.112 200.456C176.252 201.289 177.605 202.29 177.71 202.372Z" fill="#B0DCF7"/>
<path d="M164.468 200.597L164.327 200.242C163.155 200.706 162.678 200.916 160.935 202.217L161.087 202.588C162.922 201.208 163.37 201.081 164.468 200.597Z" fill="#B0DCF7"/>
<path d="M147.95 169.372L147.674 169.743L146.71 167.347L145.947 165.451V165.45L145.756 164.977L146.183 164.977L146.235 165.109L147.136 167.347L147.95 169.372Z" fill="#B0DCF7"/>
<path d="M95.9362 182.611C95.8336 182.693 95.7312 182.776 95.6291 182.86L92.8115 178.882C92.9134 178.799 93.0157 178.715 93.1186 178.633L95.9362 182.611Z" fill="#B0DCF7"/>
</g>
<g clip-path="url(#clip5_6136_10197)">
<path d="M62.6293 224.913C65.1976 224.913 67.2796 222.843 67.2796 220.289C67.2796 217.735 65.1976 215.664 62.6293 215.664C60.061 215.664 57.979 217.735 57.979 220.289C57.979 222.843 60.061 224.913 62.6293 224.913Z" fill="#90C6F5"/>
<path d="M96.5 240.032C96.5 240.032 92.2661 238.306 88.2405 233.544C84.8495 229.533 78.6623 219.188 72.4156 221.327C68.5751 222.643 69.4311 225.814 66.9324 227.539C63.9395 229.606 57.7342 226.222 56.1742 231.75C55.0637 235.684 59.4049 239.169 65.1278 239.825C70.5418 240.446 79.3563 240.032 96.5 240.032Z" fill="#90C6F5"/>
</g>
<g clip-path="url(#clip6_6136_10197)">
<path d="M159.251 81.4032C159.251 81.4032 171.039 76.2513 176.5 80.2426C171.876 79.3722 169.918 80.9667 161.177 86.0232C157.406 77.5219 159.251 81.4032 159.251 81.4032Z" fill="#21A0AA"/>
<path d="M163.708 84.5565L163.632 84.603L162.324 85.3997L158.191 87.9186L157.447 88.3718L157.175 88.5373L153.143 90.9947L151.902 91.7506L150.885 92.3708L139.495 99.31L138.518 99.9054L138.463 99.9388L133.246 103.118L132.268 103.713L126.875 107.002L110 79.334L110.04 79.31L110.28 79.1641L115.355 76.0714L116.332 75.4759L118.968 73.8704L121.587 72.2743L122.581 71.6687L134.989 64.1087L136.229 63.3527L140.262 60.8961L140.533 60.7305L145.411 57.7576L146.834 56.8906L161.306 80.6164V80.6172L163.706 84.5515L163.708 84.5565Z" fill="#3FB1B5"/>
<path d="M153.353 69.25L155.679 72.9918L146.319 78.804L143.993 75.0622L153.353 69.25Z" fill="#21A0AA"/>
<path d="M146.823 53L165.472 83.4773L162.326 85.4001L143.677 54.9227L146.823 53Z" fill="#21A0AA"/>
<path d="M151.434 68.2812L151.744 68.0926L155.74 74.6643L155.43 74.8529L151.434 68.2812Z" fill="#3FB1B5"/>
<path d="M157.18 88.5434L153.605 90.7407L146.471 79.08L146.281 78.7707L144.132 75.2582L143.943 74.9489L136.665 63.0537L140.246 60.8672L140.262 60.8926L147.486 72.7L147.57 72.8372L147.675 73.0093L149.824 76.5218L149.869 76.5951L150.014 76.8311L157.121 88.4468L157.175 88.5339L157.18 88.5434Z" fill="#21A0AA"/>
<path d="M147.584 72.825L144.04 75.0739L143.852 74.7645L147.395 72.5156L147.478 72.6529L147.584 72.825Z" fill="#3FB1B5"/>
<path d="M150.081 76.9031L146.538 79.152L146.348 78.8426L149.892 76.5938L149.937 76.6671L150.081 76.9031Z" fill="#3FB1B5"/>
<path d="M153.673 90.6813L133.246 103.119L132.268 103.714L126.875 107.003L110 79.3351L110.04 79.311L110.28 79.1652L111.474 78.4375C113.19 82.196 115.7 85.5387 118.831 88.2361C121.962 90.9334 125.641 92.9214 129.613 94.0637C133.586 95.2059 137.759 95.4752 141.845 94.8532C145.932 94.2311 149.835 92.7324 153.287 90.46L153.673 90.6813Z" fill="#21A0AA"/>
<path d="M131.307 100.918C131.307 100.918 142.231 103.533 145.505 103.944C147.677 101.477 149.536 99.4051 149.536 99.4051C149.536 99.4051 138.365 97.1687 134.811 96.1328C131.998 99.4627 131.307 100.918 131.307 100.918Z" fill="#21A0AA"/>
</g>
<g clip-path="url(#clip7_6136_10197)">
<path d="M82.6162 156.055H125.527V164.798H82.6162V156.055Z" fill="#FFBD11"/>
<path d="M89.1294 146.789H120.249V155.533H89.1294V146.789Z" fill="#FFCF2D"/>
<path d="M121.02 160.819H86.5773L82.5 156.141L82.7992 155.883L86.7581 160.425H120.856L125.387 155.92L125.667 156.198L121.02 160.819Z" fill="#FFCF2D"/>
<path d="M105.892 145.164H104.159C103.729 145.164 103.317 145.335 103.013 145.637C102.71 145.939 102.539 146.349 102.54 146.777V146.8C102.54 146.8 103.858 146.833 104.272 146.8C104.272 146.799 104.273 146.797 104.273 146.796H105.779V167.149H103.645V167.15H102.737C102.737 167.547 102.894 167.928 103.174 168.211C103.454 168.494 103.835 168.656 104.234 168.663L104.234 168.664H106.049L106.045 168.661C106.439 168.647 106.812 168.482 107.085 168.2C107.359 167.918 107.512 167.542 107.512 167.15V146.777C107.512 146.565 107.47 146.355 107.389 146.16C107.307 145.964 107.188 145.787 107.038 145.637C106.887 145.487 106.709 145.368 106.512 145.287C106.315 145.206 106.105 145.164 105.892 145.164V145.164Z" fill="#9B3C82"/>
</g>
<g clip-path="url(#clip8_6136_10197)">
<path d="M206.862 185.924C196.743 195.516 184.561 198.71 180.048 199.288C179.25 194.428 177.121 187.988 176.694 186.06C176.661 185.898 176.636 185.745 176.603 185.584C174.211 172.984 171.893 163.987 169.345 157.377C169.287 157.232 169.238 157.096 169.18 156.96C167.224 151.982 165.136 148.388 162.769 145.627L162.744 145.601C162.612 145.448 162.481 145.304 162.349 145.151C161.314 144.004 160.179 142.95 158.963 142.016C158.7 141.812 151.926 141.582 151.926 141.582C151.926 141.582 145.202 134.148 166.164 134.471C187.125 134.794 194.425 152.364 194.425 152.364C194.762 155.669 194.902 158.609 195.091 161.344C195.116 161.667 195.14 161.99 195.165 162.304C195.798 170.452 197.261 176.824 206.862 185.924Z" fill="#F94F46"/>
<path d="M166.772 174.555L177.845 184.215C177.845 184.215 176.061 185.973 173.842 188.115C171.063 190.782 167.594 194.036 166.057 195.141C162.892 197.435 157.87 187.987 160.286 184.818C161.552 183.153 162.646 181.555 163.533 180.179C163.722 179.882 163.903 179.601 164.076 179.321C164.224 179.092 164.355 178.871 164.487 178.65C165.588 176.84 166.772 174.555 166.772 174.555Z" fill="#F4ADA2"/>
<path d="M163.525 180.188L173.842 188.114C171.063 190.782 167.594 194.036 166.057 195.141C162.892 197.435 157.87 187.987 160.286 184.818C161.544 183.153 162.637 181.564 163.525 180.188Z" fill="#66B0F0"/>
<path d="M171.827 190.029L162.119 182.289C161.987 182.484 161.848 182.68 161.708 182.875L171.301 190.522C171.474 190.36 171.655 190.199 171.827 190.029Z" fill="white"/>
<path d="M171.622 214.199C170.2 214.505 167.429 213.876 164.051 210.86L147.643 196.204C153.373 191.056 157.516 187.436 160.278 184.828C161.996 187.037 161.001 188.549 162.242 190.478C163.689 192.713 164.569 192.526 167.914 198.023C167.972 198.108 168.029 198.193 168.079 198.278C168.095 198.303 168.112 198.328 168.128 198.345C169.082 199.815 169.887 201.37 170.545 203.001C173.052 209.305 171.761 213.715 171.63 214.157C171.63 214.165 171.622 214.174 171.622 214.182V214.199Z" fill="white"/>
<path d="M171.787 214.269C171.762 214.329 171.721 214.371 171.663 214.38C170.134 214.711 167.298 213.998 163.944 211.007L147.537 196.351C147.463 196.283 147.454 196.173 147.52 196.096C147.528 196.088 147.528 196.088 147.537 196.079C149.419 194.295 151.392 192.587 153.291 190.939C155.806 188.755 158.19 186.691 160.138 184.66C160.204 184.592 160.319 184.592 160.385 184.66C160.451 184.728 160.451 184.847 160.385 184.915C158.42 186.963 156.036 189.027 153.513 191.219C151.663 192.825 149.748 194.482 147.915 196.215L164.175 210.743C167.356 213.59 170.019 214.32 171.491 214.057C171.713 213.309 172.847 208.874 170.471 202.893C169.814 201.27 169.016 199.724 168.071 198.263L168.022 198.195C168.005 198.169 167.981 198.135 167.964 198.11C167.923 198.05 167.89 197.991 167.849 197.931C167.15 196.784 166.073 195.221 165.482 194.592C165.416 194.524 165.416 194.405 165.482 194.337C165.547 194.269 165.662 194.269 165.728 194.337C166.361 195.009 167.446 196.589 168.145 197.736C168.178 197.795 168.219 197.846 168.252 197.897C168.268 197.931 168.293 197.957 168.309 197.991L168.359 198.059C169.312 199.537 170.134 201.109 170.792 202.749C173.291 209.027 171.984 213.658 171.811 214.218V214.235C171.811 214.235 171.803 214.252 171.803 214.261L171.787 214.269C171.787 214.269 171.787 214.261 171.787 214.269Z" fill="#5B2448"/>
<path d="M162.004 193.053C161.971 193.147 161.864 193.189 161.774 193.155C161.766 193.147 161.749 193.147 161.741 193.138C160.031 191.966 159.373 191.932 158.05 191.855C157.697 191.838 157.302 191.813 156.825 191.762C154.556 191.532 153.94 190.827 153.915 190.793C153.849 190.717 153.858 190.606 153.932 190.538C154.006 190.47 154.112 190.479 154.178 190.555C154.195 190.572 154.77 191.184 156.858 191.396C157.327 191.447 157.721 191.464 158.066 191.49C159.406 191.566 160.138 191.609 161.93 192.832C162.004 192.883 162.029 192.977 162.004 193.053Z" fill="#5B2448"/>
<path d="M172.09 212.88C172.058 212.957 171.984 212.999 171.91 212.991C169.123 212.71 166.624 211.436 164.47 209.201C163.073 207.749 161.823 205.879 160.755 203.645C160.105 202.277 159.365 201.818 158.658 201.376C158.05 201.003 157.425 200.612 156.891 199.694C156.464 198.972 156.34 198.309 156.225 197.664C156.069 196.814 155.921 196.007 155.099 195.047C153.299 192.94 151.12 193.271 151.096 193.28C150.997 193.297 150.907 193.229 150.89 193.127C150.874 193.025 150.94 192.931 151.038 192.914C151.137 192.897 153.422 192.532 155.362 194.8C156.242 195.837 156.406 196.729 156.57 197.587C156.686 198.224 156.801 198.828 157.195 199.499C157.688 200.34 158.247 200.688 158.839 201.062C159.596 201.529 160.368 202.022 161.067 203.484C162.119 205.684 163.344 207.519 164.717 208.947C166.805 211.122 169.238 212.362 171.942 212.634C172.041 212.642 172.107 212.736 172.099 212.829C172.099 212.846 172.09 212.863 172.09 212.88Z" fill="#5B2448"/>
<path d="M154.926 198.687C154.885 198.797 154.828 198.899 154.754 198.984C154.466 199.324 153.997 199.452 153.422 199.341C152.879 199.239 152.312 198.933 151.811 198.492C151.309 198.05 150.939 197.497 150.759 196.962C150.57 196.393 150.627 195.892 150.915 195.552C151.202 195.212 151.671 195.085 152.246 195.195C152.789 195.297 153.356 195.603 153.858 196.045C154.359 196.486 154.729 197.039 154.91 197.574C155.041 197.99 155.041 198.381 154.926 198.687ZM151.055 195.985C150.964 196.215 150.972 196.512 151.087 196.843C151.244 197.319 151.581 197.803 152.033 198.211C152.485 198.619 153.003 198.891 153.48 198.984C153.923 199.069 154.277 198.984 154.482 198.746C154.68 198.509 154.713 198.135 154.565 197.684C154.408 197.209 154.071 196.724 153.619 196.317C153.167 195.909 152.649 195.637 152.172 195.543C151.729 195.458 151.375 195.543 151.17 195.781C151.12 195.849 151.079 195.917 151.055 195.985Z" fill="#5B2448"/>
<path d="M169.164 199.066C169.049 199.354 168.737 199.482 168.474 199.363C165.219 197.936 162.687 199.159 162.662 199.176C162.399 199.303 162.087 199.193 161.955 198.921C161.832 198.649 161.939 198.326 162.193 198.199H162.202C162.325 198.14 165.194 196.746 168.885 198.369C169.148 198.479 169.271 198.794 169.164 199.066Z" fill="#FFCF2D"/>
<path d="M170.562 201.923C170.455 202.204 170.142 202.34 169.871 202.229C169.855 202.221 169.838 202.212 169.822 202.204C166.83 200.581 163.977 201.753 163.952 201.77C163.681 201.881 163.377 201.745 163.262 201.464C163.155 201.184 163.278 200.87 163.55 200.759C163.681 200.7 166.887 199.383 170.315 201.235C170.553 201.371 170.66 201.668 170.562 201.923Z" fill="#FFCF2D"/>
<path d="M171.614 204.72C171.606 204.737 171.597 204.754 171.589 204.78C171.449 205.043 171.129 205.145 170.874 205.001C168.227 203.522 165.736 204.457 165.712 204.465C165.44 204.567 165.136 204.423 165.038 204.143C164.939 203.862 165.071 203.556 165.334 203.446C165.449 203.395 168.285 202.307 171.376 204.041C171.614 204.168 171.713 204.465 171.614 204.72Z" fill="#FFCF2D"/>
<path d="M175.675 186.344C175.675 186.344 160.812 173.217 156.563 163.464C168.844 161.926 173.866 152.767 175.33 146.684C168.26 145.265 155.486 144.73 148.038 144.568C143.394 144.467 139.431 144.577 135.93 144.178C130.825 143.591 126.723 141.867 122.991 136.48C120.96 133.15 119.752 128.978 119.752 124.45C119.752 124.059 119.76 123.668 119.777 123.286C120.303 118.723 122.054 114.331 123.879 111.094C123.887 111.077 123.895 111.06 123.903 111.043C124.84 109.394 127.002 106.123 127.931 105.027C128.564 104.288 128.827 103.948 128.934 103.812C129.32 103.855 132.041 104.152 135.921 104.713C136.776 104.841 137.689 104.976 138.642 105.129C148.597 106.71 163.287 109.76 168.268 114.492C166.887 115.758 165.852 117.313 165.087 118.919C174.606 122.487 186.402 126.964 192.337 135.35C209.756 159.921 175.675 186.344 175.675 186.344Z" fill="#F94F46"/>
<path d="M166.295 175.727C164.972 173.569 158.7 159.364 155.115 164.555C152.74 167.996 156.924 175.065 163.755 179.823C163.763 179.823 166.09 176.127 166.295 175.727Z" fill="#5B2448"/>
<path d="M175.667 186.33C170.71 183.416 167.512 181.088 164.643 178.386C165.177 177.596 165.646 176.772 166.279 175.727C168.367 178.649 170.923 182.124 175.667 186.33Z" fill="#9B3C82"/>
<path d="M174.104 151.599C174.088 151.65 174.063 151.692 174.039 151.752C173.545 152.754 171.975 154.59 171.482 155.15C170.792 155.932 169.978 156.892 169.369 157.436C169.312 157.291 169.254 157.13 169.197 156.994C170.512 155.762 173.241 152.61 173.726 151.438L173.792 151.463L174.104 151.599Z" fill="#F4ADA2"/>
</g>
</g>
</g>
<defs>
<clipPath id="clip0_6136_10197">
<rect width="327" height="280" fill="white"/>
</clipPath>
<clipPath id="clip1_6136_10197">
<rect width="327" height="280" fill="white"/>
</clipPath>
<clipPath id="clip2_6136_10197">
<rect width="16.8333" height="3.33333" fill="white" transform="translate(220.5 237.336)"/>
</clipPath>
<clipPath id="clip3_6136_10197">
<rect width="94.5" height="164.333" fill="white" transform="translate(120 57)"/>
</clipPath>
<clipPath id="clip4_6136_10197">
<rect width="191.667" height="111" fill="white" transform="translate(79.1665 129.5)"/>
</clipPath>
<clipPath id="clip5_6136_10197">
<rect width="40.5" height="24.5" fill="white" transform="translate(56 215.664)"/>
</clipPath>
<clipPath id="clip6_6136_10197">
<rect width="66.5" height="54" fill="white" transform="translate(110 53)"/>
</clipPath>
<clipPath id="clip7_6136_10197">
<rect width="43.1667" height="23.5" fill="white" transform="translate(82.5 145.164)"/>
</clipPath>
<clipPath id="clip8_6136_10197">
<rect width="59" height="67" fill="white" transform="translate(116.833 157.336)"/>
</clipPath>
</defs>
</svg>
