<svg width="327" height="280" viewBox="0 0 327 280" fill="none" xmlns="http://www.w3.org/2000/svg">
<g clip-path="url(#clip0_6136_10060)">
<g clip-path="url(#clip1_6136_10060)">
<g clip-path="url(#clip2_6136_10060)">
<g clip-path="url(#clip3_6136_10060)">
<path d="M67.9997 252.812C77.5726 252.812 85.333 250.798 85.333 248.312C85.333 245.827 77.5726 243.812 67.9997 243.812C58.4269 243.812 50.6665 245.827 50.6665 248.312C50.6665 250.798 58.4269 252.812 67.9997 252.812Z" fill="#5B2448"/>
</g>
<g clip-path="url(#clip4_6136_10060)">
<path d="M170.167 239.146C174.769 239.146 178.5 238.176 178.5 236.979C178.5 235.783 174.769 234.812 170.167 234.812C165.564 234.812 161.833 235.783 161.833 236.979C161.833 238.176 165.564 239.146 170.167 239.146Z" fill="#5B2448"/>
</g>
<g clip-path="url(#clip5_6136_10060)">
<path d="M183.695 27.125L182.966 28.5704L184.519 29.3577L185.215 27.8148L183.695 27.125Z" fill="#9B3C82"/>
<path d="M179.862 49.6846L179.541 51.1521H182.214L181.727 49.0234L179.862 49.6846Z" fill="#9B3C82"/>
<path d="M238.175 58.313L238.376 59.9401L236.424 58.7283L236.815 57.0312L238.175 58.313Z" fill="#9B3C82"/>
<path d="M241.37 35.9315L241.735 37.4439L239.806 37.1892L239.676 35.4922L241.37 35.9315Z" fill="#9B3C82"/>
<path d="M196.419 41.5008C196.546 41.4609 196.66 41.3859 196.746 41.2844C196.833 41.1828 196.89 41.0588 196.91 40.9265C196.929 40.7942 196.912 40.659 196.859 40.5363C196.805 40.4136 196.719 40.3084 196.609 40.2327C187.777 34.153 182.666 28.9068 183.695 27.1183C185.059 24.748 197.011 29.3102 211.334 37.3857C211.485 37.4709 211.662 37.4977 211.832 37.4611C227.888 33.9727 240.762 33.2572 241.37 35.9256C241.829 37.9389 235.293 41.3281 225.069 44.5302C224.942 44.5701 224.828 44.6451 224.742 44.7466C224.655 44.8482 224.598 44.9722 224.578 45.1045C224.559 45.2368 224.576 45.3721 224.629 45.4948C224.682 45.6175 224.769 45.7227 224.879 45.7984C233.711 51.878 239.082 57.1243 238.053 58.9129C236.689 61.2834 224.477 56.7208 210.154 48.6452C210.003 48.5601 209.826 48.5334 209.656 48.57C193.6 52.0584 180.466 52.7735 179.858 50.1055C179.399 48.0923 186.195 44.703 196.419 41.5008Z" fill="#9B3C82"/>
<path d="M197.193 42.7475C197.23 42.7362 197.263 42.7147 197.288 42.6853C197.313 42.656 197.33 42.6201 197.335 42.5818C197.341 42.5434 197.336 42.5043 197.32 42.4688C197.305 42.4333 197.28 42.4029 197.248 42.3812C187.838 36.0034 181.894 30.4291 182.965 28.5685C184.339 26.1804 196.771 30.7747 211.199 38.9094C211.357 38.9982 211.542 39.0261 211.719 38.9877C227.894 35.4749 241.123 34.7549 241.735 37.443C242.214 39.5437 234.854 43.1308 223.937 46.4561C223.909 46.4648 223.884 46.4813 223.865 46.5036C223.846 46.526 223.833 46.5533 223.829 46.5825C223.824 46.6117 223.828 46.6415 223.84 46.6685C223.852 46.6956 223.871 46.7187 223.895 46.7353C233.353 53.1371 239.336 58.7392 238.262 60.6054C236.888 62.9943 224.452 58.397 210.021 50.2603C209.867 50.174 209.688 50.1469 209.516 50.1841C193.338 53.6987 180.105 54.4194 179.491 51.7308C179.015 49.6365 186.33 46.0643 197.193 42.7475Z" fill="#66B0F0"/>
<path d="M240.726 42.998C244.69 42.998 247.93 41.215 248.433 38.4887C249.039 35.1976 245.429 31.7583 240.386 30.823C235.342 29.8877 230.746 31.8039 230.14 35.0952C229.533 38.3866 233.143 41.8254 238.186 42.761C239.024 42.9174 239.874 42.9967 240.726 42.998ZM237.815 31.2354C238.638 31.2368 239.459 31.3136 240.268 31.4649C244.958 32.3351 248.334 35.4333 247.793 38.3705C247.252 41.3077 242.997 42.9897 238.305 42.1196C233.613 41.2494 230.238 38.1511 230.779 35.2139C231.224 32.8012 234.175 31.2354 237.815 31.2354Z" fill="#FFCF2D"/>
<path d="M187 35.5605C190.964 35.5605 194.204 33.7775 194.706 31.0512C195.312 27.7601 191.703 24.3208 186.659 23.3855C181.616 22.4502 177.02 24.3664 176.413 27.6577C175.807 30.9491 179.417 34.3879 184.46 35.3235C185.298 35.4799 186.148 35.5592 187 35.5605ZM184.088 23.7979C184.911 23.7993 185.732 23.8761 186.541 24.0274C191.232 24.8976 194.608 27.9958 194.066 30.933C193.525 33.8702 189.271 35.552 184.578 34.6818C179.885 33.8116 176.512 30.7133 177.053 27.7761C177.498 25.3637 180.449 23.7979 184.088 23.7979Z" fill="#FFCF2D"/>
<path d="M187.832 33.0267C187.854 33.0267 187.876 33.0245 187.897 33.0201C189.669 32.6574 190.869 31.6717 191.106 30.3831C191.115 30.3407 191.115 30.2969 191.106 30.2545C191.098 30.212 191.081 30.1717 191.057 30.1358C191.033 30.0999 191.002 30.0692 190.966 30.0455C190.93 30.0218 190.889 30.0055 190.847 29.9976C190.804 29.9898 190.761 29.9904 190.719 29.9996C190.676 30.0088 190.636 30.0263 190.601 30.0512C190.566 30.076 190.536 30.1077 190.513 30.1443C190.49 30.1809 190.474 30.2217 190.467 30.2644C190.28 31.2818 189.27 32.0727 187.767 32.3803C187.688 32.3964 187.618 32.4414 187.57 32.5065C187.522 32.5717 187.5 32.6524 187.508 32.7329C187.516 32.8134 187.554 32.888 187.614 32.9423C187.674 32.9965 187.752 33.0265 187.832 33.0265L187.832 33.0267Z" fill="#FFCF2D"/>
<path d="M184.943 33.0289C185.024 33.0289 185.103 32.9984 185.163 32.9435C185.223 32.8886 185.26 32.8132 185.267 32.7321C185.275 32.651 185.251 32.57 185.202 32.5052C185.153 32.4403 185.082 32.3962 185.002 32.3815C183.666 32.1335 182.475 31.5714 181.649 30.7983C180.862 30.062 180.508 29.227 180.652 28.4468C180.73 28.0454 180.927 27.6768 181.216 27.3885C181.247 27.3581 181.272 27.3217 181.289 27.2814C181.306 27.2412 181.315 27.1979 181.315 27.1543C181.315 27.1106 181.306 27.0673 181.289 27.0271C181.272 26.9869 181.247 26.9505 181.216 26.9201C181.185 26.8897 181.148 26.8659 181.107 26.8501C181.066 26.8344 181.023 26.8269 180.98 26.8283C180.936 26.8296 180.893 26.8397 180.854 26.858C180.814 26.8762 180.779 26.9022 180.749 26.9345C180.371 27.3146 180.114 27.8 180.013 28.3279C179.827 29.3348 180.251 30.3816 181.206 31.2753C182.122 32.132 183.428 32.7528 184.885 33.023C184.904 33.0268 184.924 33.0287 184.943 33.0289Z" fill="#FFCF2D"/>
<path d="M182.922 54.9686C183.827 54.9806 184.725 54.8061 185.56 54.4557C185.6 54.4393 185.637 54.4149 185.667 54.3841C185.698 54.3533 185.722 54.3167 185.738 54.2764C185.755 54.2361 185.763 54.1929 185.762 54.1494C185.762 54.1059 185.752 54.0629 185.735 54.023C185.718 53.9831 185.693 53.9471 185.661 53.9171C185.63 53.8871 185.593 53.8638 185.552 53.8484C185.512 53.833 185.468 53.8258 185.425 53.8275C185.382 53.8291 185.339 53.8394 185.3 53.8577C184.251 54.3179 182.863 54.4359 181.49 54.1813C180.316 53.9636 179.227 53.4888 178.422 52.8447C178.389 52.818 178.351 52.7981 178.309 52.7862C178.268 52.7743 178.225 52.7707 178.183 52.7755C178.141 52.7803 178.099 52.7934 178.062 52.8141C178.025 52.8348 177.992 52.8627 177.965 52.8962C177.938 52.9297 177.919 52.9681 177.907 53.0093C177.895 53.0505 177.891 53.0936 177.896 53.1362C177.901 53.1788 177.914 53.22 177.935 53.2576C177.955 53.2951 177.983 53.3281 178.016 53.3549C178.903 54.0648 180.095 54.5863 181.372 54.8232C181.883 54.9189 182.402 54.9676 182.922 54.9686Z" fill="#FFCF2D"/>
<path d="M176.806 51.2426C176.821 51.2426 176.837 51.2416 176.852 51.2394C176.895 51.2333 176.935 51.2189 176.972 51.1971C177.009 51.1752 177.041 51.1463 177.067 51.112C177.092 51.0777 177.111 51.0386 177.121 50.9971C177.132 50.9556 177.134 50.9124 177.128 50.8699C177.098 50.6634 177.102 50.4532 177.139 50.2479C177.31 49.3194 178.16 48.5804 179.47 48.2202C179.512 48.2093 179.551 48.1902 179.585 48.164C179.619 48.1378 179.648 48.1051 179.669 48.0677C179.691 48.0303 179.705 47.989 179.71 47.9462C179.716 47.9034 179.713 47.8599 179.701 47.8183C179.69 47.7766 179.67 47.7377 179.644 47.7036C179.618 47.6696 179.585 47.6412 179.547 47.62C179.51 47.5989 179.468 47.5854 179.426 47.5803C179.383 47.5753 179.34 47.5788 179.298 47.5907C177.738 48.0196 176.718 48.9448 176.5 50.1292C176.449 50.4043 176.444 50.6858 176.484 50.9626C176.495 51.0403 176.534 51.1113 176.593 51.1627C176.652 51.2142 176.728 51.2425 176.806 51.2426Z" fill="#FFCF2D"/>
<path d="M240.341 61.7932C240.398 61.7932 240.454 61.7783 240.503 61.7498C240.553 61.7214 240.594 61.6804 240.622 61.6311C240.772 61.3745 240.876 61.0939 240.931 60.8016C241.135 59.691 240.586 58.5171 239.424 57.583C239.357 57.5311 239.272 57.5077 239.187 57.518C239.103 57.5282 239.026 57.5713 238.973 57.6378C238.92 57.7044 238.895 57.7892 238.903 57.8741C238.911 57.959 238.952 58.0373 239.018 58.0921C239.987 58.8717 240.451 59.816 240.291 60.6828C240.25 60.9011 240.172 61.1108 240.06 61.3024C240.032 61.3519 240.016 61.4083 240.016 61.4656C240.016 61.523 240.031 61.5794 240.059 61.6292C240.088 61.679 240.129 61.7203 240.178 61.7491C240.228 61.7779 240.284 61.793 240.341 61.7931V61.7932Z" fill="#FFCF2D"/>
<path d="M236.254 63.5825C236.921 63.5863 237.586 63.4952 238.227 63.312C238.268 63.3 238.307 63.28 238.34 63.2532C238.373 63.2264 238.401 63.1932 238.421 63.1556C238.442 63.1181 238.455 63.0768 238.459 63.0342C238.464 62.9916 238.46 62.9485 238.448 62.9073C238.436 62.8662 238.417 62.8278 238.39 62.7944C238.363 62.761 238.33 62.7332 238.293 62.7126C238.255 62.692 238.214 62.679 238.172 62.6743C238.129 62.6696 238.086 62.6734 238.045 62.6854C236.995 62.9682 235.893 63.0058 234.826 62.7955C233.814 62.6195 232.851 62.2267 232.003 61.6437C231.933 61.5949 231.846 61.576 231.762 61.5909C231.678 61.6059 231.603 61.6535 231.553 61.7236C231.504 61.7936 231.484 61.8804 231.497 61.9651C231.511 62.0498 231.558 62.1257 231.627 62.1762C232.552 62.814 233.603 63.2442 234.708 63.4373C235.218 63.5329 235.736 63.5814 236.254 63.5825Z" fill="#FFCF2D"/>
<path d="M240.141 40.6055C242.054 40.6055 243.725 39.9203 244.468 38.7496C244.492 38.7134 244.508 38.6729 244.517 38.6302C244.525 38.5876 244.524 38.5437 244.515 38.5012C244.507 38.4587 244.489 38.4184 244.465 38.3827C244.44 38.347 244.408 38.3166 244.372 38.2933C244.335 38.27 244.295 38.2542 244.252 38.2469C244.209 38.2395 244.166 38.2408 244.124 38.2507C244.081 38.2605 244.042 38.2787 244.007 38.3041C243.972 38.3296 243.942 38.3618 243.919 38.3989C243.122 39.6553 240.988 40.2396 238.729 39.8211C238.644 39.8053 238.556 39.8241 238.485 39.8731C238.414 39.9222 238.366 39.9976 238.35 40.0827C238.334 40.1678 238.353 40.2557 238.402 40.327C238.451 40.3983 238.526 40.4472 238.611 40.4629C239.115 40.5571 239.627 40.6048 240.141 40.6055Z" fill="#FFCF2D"/>
<path d="M244.194 36.4115C244.251 36.4114 244.307 36.3965 244.356 36.3681C244.405 36.3397 244.446 36.2989 244.475 36.2498C244.503 36.2006 244.519 36.1448 244.519 36.0878C244.52 36.0309 244.505 35.9748 244.477 35.9252C243.723 34.578 241.993 33.5072 239.962 33.1304C239.92 33.1226 239.877 33.1232 239.835 33.1322C239.793 33.1411 239.753 33.1582 239.718 33.1825C239.683 33.2068 239.653 33.2378 239.63 33.2738C239.606 33.3098 239.591 33.35 239.583 33.3921C239.575 33.4342 239.576 33.4775 239.585 33.5194C239.593 33.5613 239.61 33.6011 239.635 33.6364C239.659 33.6717 239.69 33.7019 239.726 33.7252C239.761 33.7485 239.802 33.7645 239.844 33.7723C241.689 34.1147 243.248 35.0622 243.91 36.245C243.939 36.2955 243.98 36.3376 244.03 36.3669C244.08 36.3961 244.136 36.4115 244.194 36.4115Z" fill="#FFCF2D"/>
<path d="M183.487 57.3577C187.451 57.3577 190.691 55.5748 191.193 52.8484C191.8 49.5571 188.19 46.1182 183.147 45.1825C178.103 44.2468 173.507 46.1634 172.901 49.4548C172.294 52.7461 175.904 56.185 180.947 57.1206C181.785 57.277 182.635 57.3564 183.487 57.3577ZM180.575 45.5949C181.398 45.5963 182.219 45.6731 183.028 45.8244C187.719 46.6946 191.095 49.7929 190.554 52.73C190.013 55.6672 185.757 57.3493 181.065 56.4791C176.373 55.6089 172.999 52.5106 173.54 49.5734C173.985 47.161 176.936 45.5952 180.575 45.5952V45.5949Z" fill="#FFCF2D"/>
<path d="M236.823 65.9745C240.788 65.9745 244.027 64.1916 244.53 61.4652C245.136 58.1741 241.526 54.7349 236.483 53.7996C231.44 52.8642 226.843 54.7805 226.237 58.0718C225.631 61.3631 229.24 64.802 234.284 65.7376C235.121 65.894 235.971 65.9733 236.823 65.9745ZM233.912 54.2117C234.735 54.2131 235.556 54.2899 236.365 54.4412C241.055 55.3114 244.431 58.4096 243.89 61.3468C243.349 64.284 239.094 65.966 234.402 65.0959C229.71 64.2257 226.335 61.1274 226.877 58.1902C227.321 55.7778 230.272 54.2119 233.912 54.2119V54.2117Z" fill="#FFCF2D"/>
<path d="M215.307 46.1033C214.84 46.1033 214.462 45.7234 214.462 45.2548C214.462 44.7861 214.84 44.4062 215.307 44.4062C215.774 44.4062 216.153 44.7861 216.153 45.2548C216.153 45.7234 215.774 46.1033 215.307 46.1033Z" fill="white"/>
<path d="M210.204 45.408C209.737 45.408 209.359 45.0281 209.359 44.5595C209.359 44.0908 209.737 43.7109 210.204 43.7109C210.671 43.7109 211.05 44.0908 211.05 44.5595C211.05 45.0281 210.671 45.408 210.204 45.408Z" fill="white"/>
<path d="M205.05 44.5252C204.583 44.5252 204.205 44.1453 204.205 43.6766C204.205 43.208 204.583 42.8281 205.05 42.8281C205.517 42.8281 205.896 43.208 205.896 43.6766C205.896 44.1453 205.517 44.5252 205.05 44.5252Z" fill="white"/>
</g>
<g clip-path="url(#clip6_6136_10060)">
<path d="M233 111.087H184.295L191.918 59.625H225.377L233 111.087Z" fill="#F94F46"/>
<path d="M233 111.087H185.395C192.273 110.935 228.987 107.875 225.377 59.625L233 111.087Z" fill="#F73E39"/>
<path d="M201.294 64.3507C201.189 64.3506 201.089 64.3106 201.012 64.2389C200.936 64.1673 200.89 64.0692 200.883 63.9648C200.789 61.9214 200.845 59.874 201.05 57.8388C201.51 53.356 202.636 50.1023 204.398 48.1689C205.57 46.8818 207.018 46.2023 208.702 46.1484H208.716H208.729C210.413 46.2018 211.861 46.8814 213.034 48.1685C214.795 50.1021 215.921 53.3556 216.381 57.8384C216.586 59.8736 216.642 61.921 216.548 63.9644C216.545 64.0183 216.531 64.0711 216.507 64.1197C216.483 64.1683 216.45 64.2117 216.409 64.2475C216.369 64.2832 216.321 64.3107 216.27 64.3282C216.219 64.3457 216.165 64.353 216.11 64.3496C216.056 64.3462 216.004 64.3322 215.955 64.3084C215.906 64.2846 215.863 64.2515 215.827 64.2109C215.791 64.1703 215.764 64.1231 215.746 64.0719C215.729 64.0207 215.721 63.9666 215.725 63.9126C215.732 63.8044 216.359 53.0421 212.423 48.7221C211.409 47.6104 210.162 47.0217 208.715 46.9722C207.268 47.0213 206.021 47.61 205.008 48.7221C201.072 53.0425 201.7 63.8048 201.706 63.9133C201.713 64.0223 201.676 64.1295 201.604 64.2114C201.532 64.2934 201.43 64.3433 201.321 64.3501C201.312 64.3504 201.303 64.3507 201.294 64.3507Z" fill="#9B3C82"/>
</g>
<g clip-path="url(#clip7_6136_10060)">
<path d="M125.279 88.1274C124.498 89.211 123.308 90.1356 123.308 90.1356L123.566 129.063C123.566 129.063 152.373 132.366 169.379 128.704C169.379 128.704 157.532 82.8387 140.734 89.965L125.279 88.1274Z" fill="#66B0F0"/>
<path d="M142.065 57.103C141.417 56.907 140.731 56.8674 140.065 56.9877C139.399 57.108 138.771 57.3847 138.232 57.7949C136.189 53.7764 130.696 55.4908 130.487 58.851C126.084 56.5511 122.062 61.7297 124.271 65.0103C125.082 66.2148 126.522 68.777 126.315 71.0921C128.363 71.6273 132.709 75.6649 132.709 75.6649C132.709 75.6649 139.597 66.0304 142.672 64.4927C146.512 62.5731 144.862 58.0166 142.065 57.103Z" fill="#5B2448"/>
<path d="M136.541 60.4192L136.537 60.4186C136.469 60.4089 136.407 60.3726 136.366 60.3176C136.325 60.2626 136.307 60.1935 136.317 60.1254C136.674 57.6177 139.083 56.6587 139.185 56.6191C139.249 56.5953 139.32 56.5976 139.382 56.6256C139.444 56.6535 139.493 56.7048 139.518 56.7684C139.542 56.832 139.541 56.9028 139.514 56.9653C139.487 57.0279 139.436 57.0772 139.373 57.1027C139.346 57.1133 137.144 57.9989 136.83 60.1985C136.82 60.2658 136.784 60.3266 136.73 60.3679C136.676 60.4091 136.608 60.4275 136.541 60.4192Z" fill="#9B3C82"/>
<path d="M148.19 76.7683C148.514 77.9187 148.131 79.2575 147.039 80.1882C144.193 82.6123 139.801 82.4611 139.801 82.4611C139.801 82.4611 140.004 86.3103 140.734 89.9641C140.475 91.7751 140.035 93.5554 139.421 95.2785C135.402 94.7727 128.344 91.9504 125.28 88.1265C125.28 88.1265 127.609 84.9816 128.81 79.113C126.495 79.2536 122.538 77.5765 122.49 74.4107C122.464 72.605 124.036 70.8168 125.947 70.983C127.803 71.1442 128.675 72.0624 130.395 73.3243C131.99 74.4953 132.215 73.6175 132.753 71.7167C133.197 70.203 133.921 68.7858 134.887 67.5387C136.549 65.4713 140.201 64.7133 142.672 64.49C143.032 66.3292 143.514 68.1425 144.113 69.918C145.152 73.0389 147.435 74.0832 148.19 76.7683Z" fill="#F4ADA2"/>
<path d="M134.887 69.2901L134.855 69.1011C134.847 69.0424 134.841 68.9844 134.838 68.9271C134.832 68.8132 134.833 68.699 134.843 68.5852C134.861 68.358 134.907 68.1338 134.978 67.9174C135.128 67.4613 135.382 67.0469 135.722 66.708C135.9 66.5278 136.101 66.3728 136.32 66.2472C136.543 66.1206 136.783 66.0286 137.033 65.9744C137.278 65.9208 137.53 65.9092 137.778 65.9402C138.023 65.967 138.258 66.0452 138.47 66.1699C138.547 66.216 138.613 66.2798 138.661 66.3561C138.709 66.4323 138.738 66.5188 138.746 66.6086C138.754 66.6983 138.741 66.7887 138.708 66.8723C138.674 66.956 138.621 67.0305 138.554 67.0899L138.473 67.1593C138.315 67.2968 138.176 67.3899 138.054 67.4898C137.93 67.582 137.825 67.6742 137.725 67.7537C137.529 67.9185 137.358 68.0577 137.168 68.2201C136.981 68.381 136.788 68.5723 136.573 68.788L136.236 69.1318C136.178 69.1925 136.116 69.2538 136.053 69.3162C135.914 69.4661 135.736 69.576 135.54 69.6345C135.438 69.665 135.33 69.6706 135.225 69.6509C135.155 69.6352 135.09 69.6025 135.035 69.5559C134.981 69.5092 134.939 69.4499 134.913 69.3832C134.901 69.3531 134.892 69.3219 134.887 69.2901Z" fill="#5B2448"/>
<path d="M136.138 70.7028C136.645 70.4889 137.871 70.0036 138.934 69.1752C138.969 69.1476 139.01 69.1272 139.053 69.1153C139.096 69.1033 139.141 69.1001 139.186 69.1059C139.231 69.1116 139.274 69.1261 139.313 69.1485C139.352 69.171 139.386 69.2009 139.413 69.2366C139.71 69.6232 140.079 70.3323 139.283 70.8037C138.305 71.383 136.545 71.3812 136.09 70.9949C136.067 70.9753 136.051 70.9504 136.041 70.9224C136.031 70.8945 136.028 70.8646 136.033 70.8354C136.038 70.8061 136.05 70.7787 136.069 70.7555C136.087 70.7323 136.111 70.7142 136.138 70.7028Z" fill="#5B2448"/>
<path d="M143.143 68.2468C142.621 68.4187 142.218 68.456 141.217 68.5271C141.126 68.5326 141.042 68.5738 140.981 68.6416C140.921 68.7094 140.891 68.7983 140.896 68.8888C140.926 69.3754 141.254 69.8092 142.033 69.744C142.902 69.6711 143.311 68.9391 143.372 68.4342C143.376 68.4049 143.372 68.3753 143.361 68.3479C143.35 68.3206 143.332 68.2964 143.309 68.2778C143.286 68.2591 143.259 68.2465 143.23 68.2411C143.201 68.2356 143.171 68.2376 143.143 68.2468Z" fill="#5B2448"/>
<path d="M127.591 79.6479C127.485 79.6355 127.38 79.6173 127.276 79.5931C127.209 79.5764 127.152 79.5339 127.116 79.4749C127.081 79.4159 127.071 79.3453 127.087 79.2785C127.104 79.2118 127.147 79.1545 127.206 79.1191C127.265 79.0838 127.335 79.0733 127.402 79.09C128.384 79.2625 129.395 79.1189 130.29 78.6799C130.321 78.6648 130.355 78.656 130.389 78.6539C130.423 78.6519 130.457 78.6566 130.49 78.6679C130.522 78.6791 130.552 78.6967 130.577 78.7196C130.603 78.7424 130.624 78.7701 130.638 78.8011C130.653 78.832 130.662 78.8656 130.663 78.8998C130.665 78.934 130.66 78.9683 130.648 79.0005C130.637 79.0328 130.619 79.0624 130.596 79.0877C130.573 79.113 130.545 79.1335 130.514 79.1479C129.606 79.5876 128.593 79.761 127.591 79.6479Z" fill="#9B3C82"/>
<path d="M144.733 65.8678L144.652 65.715C144.625 65.6684 144.597 65.6236 144.568 65.581C144.51 65.4957 144.446 65.4146 144.377 65.3383C144.238 65.1855 144.082 65.0498 143.912 64.9342C143.554 64.6892 143.143 64.5323 142.713 64.4764C142.487 64.4448 142.257 64.4444 142.031 64.4751C141.802 64.5066 141.579 64.5729 141.37 64.6717C141.165 64.7679 140.978 64.8984 140.817 65.0574C140.656 65.211 140.531 65.3968 140.447 65.6026C140.417 65.6783 140.406 65.76 140.413 65.841C140.421 65.9221 140.447 66.0002 140.491 66.069C140.534 66.1379 140.593 66.1954 140.663 66.237C140.733 66.2786 140.812 66.303 140.893 66.3083L140.989 66.3138C141.179 66.3252 141.33 66.3149 141.472 66.3198C141.612 66.3176 141.738 66.326 141.853 66.328C142.084 66.3383 142.283 66.3439 142.508 66.3563C142.731 66.3681 142.974 66.3994 143.247 66.4357L143.678 66.4968C143.753 66.5085 143.831 66.5183 143.91 66.5283C144.093 66.559 144.28 66.5403 144.453 66.4742C144.543 66.4397 144.624 66.3843 144.689 66.3124C144.73 66.2627 144.759 66.2035 144.772 66.1401C144.785 66.0767 144.783 66.011 144.765 65.9488C144.757 65.9208 144.746 65.8937 144.733 65.8678Z" fill="#5B2448"/>
<path d="M139.801 82.4634C139.801 82.4634 136.917 82.1651 135.223 80.9952C134.731 81.4336 135.365 85.2487 140.02 85.6956C143.593 86.0385 139.801 82.4634 139.801 82.4634Z" fill="#5B2448"/>
<path opacity="0.52" d="M135.535 77.1626C136.784 77.3199 137.925 76.4342 138.082 75.1843C138.24 73.9344 137.354 72.7936 136.104 72.6364C134.854 72.4791 133.714 73.3648 133.556 74.6147C133.399 75.8646 134.285 77.0053 135.535 77.1626Z" fill="#E57281"/>
<path d="M143.443 74.896C143.339 75.0833 143.197 75.2459 143.024 75.3727C142.857 75.4972 142.672 75.5949 142.474 75.6622C142.076 75.8032 141.646 75.8277 141.235 75.7326C141.03 75.6796 140.834 75.5979 140.651 75.4898C140.47 75.38 140.307 75.2432 140.168 75.0839C139.883 74.7692 139.723 74.3616 139.718 73.9373C139.718 73.8821 139.738 73.829 139.775 73.7873C139.811 73.7456 139.86 73.7181 139.915 73.7097C139.97 73.7013 140.025 73.7125 140.072 73.7414C140.119 73.7703 140.155 73.8149 140.172 73.8674L140.176 73.8798C140.313 74.3061 140.612 74.6618 141.008 74.8712C141.135 74.9409 141.271 74.9939 141.411 75.0288C141.699 75.0939 141.998 75.0923 142.285 75.0243C142.576 74.9645 142.846 74.8278 143.066 74.6285L143.076 74.6187C143.116 74.5805 143.169 74.5579 143.224 74.5547C143.279 74.5516 143.333 74.5681 143.377 74.6015C143.421 74.6348 143.452 74.6827 143.464 74.7366C143.476 74.7906 143.468 74.847 143.443 74.8958L143.443 74.896Z" fill="#9B3C82"/>
<path d="M129.279 76.1962C129.238 76.1911 129.199 76.1762 129.165 76.1529C129.13 76.1295 129.102 76.0984 129.083 76.062C127.591 73.2963 125.183 73.922 125.081 73.9501C125.015 73.9681 124.944 73.9592 124.885 73.9254C124.825 73.8916 124.782 73.8357 124.763 73.7698C124.745 73.7038 124.753 73.6333 124.786 73.5735C124.82 73.5138 124.875 73.4696 124.941 73.4507C124.97 73.4425 127.845 72.6759 129.539 75.8157C129.562 75.8577 129.573 75.905 129.57 75.9526C129.568 76.0001 129.552 76.0461 129.525 76.0854C129.498 76.1247 129.461 76.1558 129.418 76.1754C129.374 76.1949 129.326 76.2021 129.279 76.1962Z" fill="#9B3C82"/>
<path d="M142.33 72.4222C142.291 72.4174 142.255 72.4019 142.225 72.3776C142.195 72.3533 142.173 72.3211 142.16 72.2846C142.147 72.2481 142.145 72.2089 142.153 72.1712C142.162 72.1335 142.181 72.0989 142.208 72.0713C142.572 71.699 142.741 71.4237 142.723 71.2283C142.704 71.0101 142.444 70.8105 142.018 70.5076C140.834 69.6645 140.924 68.8707 140.928 68.8373C140.936 68.783 140.964 68.7337 141.007 68.7003C141.051 68.6668 141.106 68.6519 141.16 68.6587L141.161 68.6589C141.215 68.666 141.264 68.6941 141.298 68.737C141.331 68.7799 141.346 68.8342 141.34 68.8883C141.339 68.9061 141.307 69.4919 142.259 70.1694C142.71 70.4903 143.099 70.7671 143.136 71.1917C143.166 71.5242 142.971 71.885 142.504 72.3616C142.482 72.3845 142.454 72.4019 142.424 72.4124C142.394 72.4229 142.362 72.4263 142.33 72.4222Z" fill="#5B2448"/>
<path d="M86.8578 227.808C81.6782 223.718 78.6497 217.487 78.2375 211.788C77.8454 206.367 77.9139 195.332 71.5203 196.868C65.6487 198.277 65.8722 215.282 86.8578 227.808Z" fill="#5B2448"/>
<path d="M86.858 227.804C85.2368 228.425 83.7177 228.975 82.3533 229.451C78.396 230.826 75.7485 231.562 75.7485 231.562C75.7485 231.562 59.9158 228.489 63.367 223.235C65.6999 221.352 69.0489 219.095 72.3224 217.014C72.7133 216.765 73.1021 216.519 73.4888 216.276C73.912 216.012 74.3306 215.751 74.7444 215.495L74.7456 215.494C76.0493 214.687 77.2943 213.931 78.4034 213.266C80.1527 212.216 81.5662 211.393 82.3475 210.94C82.7747 210.694 83.0124 210.557 83.0124 210.557L84.0102 215.031L86.858 227.804Z" fill="#F4ADA2"/>
<path d="M198.821 209.771C194.379 210.071 186.057 208.208 180.971 203.877C175.93 199.584 170.968 196.145 168.7 199.24C166.196 202.657 173.762 215.105 198.821 209.771Z" fill="#5B2448"/>
<path d="M198.822 209.772C198.291 211.239 197.684 212.763 197.067 214.241C197.051 214.279 197.036 214.316 197.02 214.353C194.994 219.181 192.85 223.487 192.783 223.622L192.781 223.625C192.781 223.625 192.773 223.624 192.757 223.623C192.748 223.622 192.735 223.621 192.718 223.619C192.71 223.619 192.701 223.618 192.693 223.617C191.49 223.498 178.361 222.106 179.93 217.722C179.933 217.703 179.71 216.982 179.712 216.963C180.268 215.419 180.812 213.694 181.314 211.963C181.441 211.526 181.564 211.088 181.685 210.652C181.792 210.262 181.897 209.876 182 209.492C182.03 209.381 182.058 209.269 182.088 209.159C182.442 207.818 182.755 206.532 183.015 205.386C183.336 203.979 183.573 202.783 183.701 201.956C183.705 201.933 183.708 201.909 183.712 201.886C183.756 201.614 183.787 201.34 183.804 201.065C183.985 196.757 198.629 209.603 198.82 209.771L198.822 209.772Z" fill="#F4ADA2"/>
<path d="M198.822 209.766C191.784 211.264 186.126 211.36 181.684 210.646C181.792 210.256 181.897 209.869 182 209.486C182.029 209.375 182.058 209.263 182.087 209.153C182.441 207.812 182.755 206.526 183.015 205.38C188.076 208.634 194.934 210.028 198.822 209.766Z" fill="#9B3C82"/>
<path d="M86.8576 227.802C80.7778 224.173 76.4409 220.168 73.4884 216.275C73.9117 216.011 74.3302 215.75 74.744 215.493L74.7452 215.492C76.0489 214.685 77.2939 213.929 78.403 213.265C79.1871 218.539 82.1243 224.064 86.8576 227.802Z" fill="#9B3C82"/>
<path d="M197.02 214.347C194.994 219.175 192.849 223.481 192.782 223.616L192.781 223.618C192.781 223.618 192.773 223.617 192.757 223.617C192.748 223.615 192.734 223.615 192.718 223.613C192.71 223.612 192.701 223.612 192.693 223.611C191.49 223.492 178.361 222.1 179.93 217.716C179.932 217.696 179.71 216.975 179.712 216.957C180.268 215.413 180.812 213.688 181.313 211.956L197.02 214.347Z" fill="#66B0F0"/>
<path d="M82.3532 229.45C78.3959 230.826 75.7485 231.562 75.7485 231.562C75.7485 231.562 59.9155 228.488 63.3668 223.235C65.6999 221.351 69.049 219.095 72.3225 217.013L82.2688 229.266L82.3532 229.45Z" fill="#66B0F0"/>
<path d="M80.5421 232.318C80.4161 232.302 80.3002 232.24 80.2167 232.145L67.5361 217.655C67.4455 217.552 67.3997 217.417 67.4089 217.279C67.418 217.142 67.4813 217.014 67.5848 216.923C67.6884 216.833 67.8236 216.787 67.9609 216.796C68.0981 216.805 68.2261 216.869 68.3167 216.972L80.9971 231.461C81.0664 231.541 81.11 231.639 81.122 231.743C81.1341 231.848 81.1141 231.954 81.0648 232.046C81.0154 232.139 80.9389 232.215 80.8455 232.263C80.7522 232.312 80.6463 232.331 80.5419 232.318L80.5421 232.318Z" fill="white"/>
<path d="M202.314 218.444L202.303 218.443L177.548 214.812C177.412 214.793 177.288 214.722 177.205 214.612C177.122 214.503 177.085 214.364 177.104 214.228C177.122 214.092 177.194 213.969 177.304 213.885C177.413 213.802 177.551 213.766 177.688 213.784L177.698 213.786L202.454 217.416C202.59 217.435 202.713 217.507 202.796 217.616C202.88 217.726 202.916 217.864 202.898 218C202.879 218.136 202.807 218.26 202.698 218.343C202.588 218.426 202.45 218.463 202.314 218.444Z" fill="white"/>
<path d="M179.712 216.961C179.712 216.961 175.199 229.373 172.986 236.41C172.986 236.41 195.181 240.125 203.196 240.463C207.546 240.646 209.811 239.291 210.945 238.249C210.945 238.249 210.943 238.245 210.941 238.234C210.939 238.227 210.937 238.216 210.933 238.202C210.933 238.202 210.933 238.202 210.933 238.202C210.933 238.201 210.933 238.201 210.933 238.201C210.933 238.201 210.933 238.201 210.933 238.201C210.933 238.201 210.933 238.201 210.932 238.201C210.772 237.626 209.036 231.933 201.718 227.018C200.577 226.252 196.88 224.05 192.44 222.948C189.402 222.194 186.761 222 184.868 221.092C182.464 219.94 181.13 217.086 179.712 216.961Z" fill="white"/>
<path d="M179.841 216.766C181.97 217.565 182.539 219.749 185.095 221.07C186.751 221.925 191.736 222.179 195.205 223.602C195.331 223.654 195.455 223.705 195.579 223.756C195.613 223.771 195.647 223.784 195.681 223.798C196.414 224.105 197.113 224.423 197.779 224.751C197.912 224.816 198.044 224.881 198.175 224.947C198.363 225.042 198.548 225.138 198.73 225.234C198.874 225.31 199.016 225.386 199.155 225.463C199.271 225.526 199.385 225.589 199.499 225.654C199.57 225.693 199.641 225.733 199.71 225.772C199.879 225.869 200.045 225.966 200.209 226.063C200.212 226.065 200.216 226.067 200.22 226.069C200.276 226.103 200.333 226.137 200.39 226.171C200.579 226.284 200.766 226.4 200.949 226.515C200.989 226.54 201.029 226.566 201.069 226.591C201.29 226.732 201.506 226.873 201.718 227.015C201.924 227.153 202.126 227.292 202.323 227.432C202.398 227.485 202.473 227.538 202.546 227.592C202.771 227.753 202.989 227.915 203.202 228.079L203.351 228.193C203.401 228.231 203.45 228.269 203.499 228.308C203.594 228.382 203.686 228.457 203.779 228.53C203.878 228.61 203.976 228.69 204.072 228.77C204.118 228.809 204.165 228.847 204.211 228.885C204.533 229.155 204.84 229.425 205.132 229.694C205.258 229.809 205.38 229.923 205.5 230.039C205.581 230.114 205.66 230.191 205.738 230.268C205.776 230.307 205.816 230.344 205.854 230.383C205.978 230.505 206.1 230.628 206.217 230.749C206.245 230.779 206.274 230.809 206.303 230.839C206.484 231.027 206.659 231.215 206.827 231.402C206.86 231.44 206.894 231.477 206.926 231.514C206.991 231.585 207.053 231.656 207.115 231.728C207.15 231.767 207.184 231.807 207.218 231.848C207.281 231.921 207.343 231.994 207.404 232.067C207.434 232.103 207.465 232.14 207.495 232.177C207.525 232.213 207.554 232.249 207.584 232.285C207.615 232.322 207.644 232.358 207.673 232.394C207.76 232.503 207.845 232.61 207.928 232.717L208.01 232.823C208.037 232.858 208.064 232.894 208.091 232.929C208.145 232.999 208.198 233.07 208.249 233.139C208.274 233.174 208.3 233.209 208.326 233.243C208.377 233.314 208.427 233.381 208.475 233.45C208.523 233.518 208.571 233.587 208.619 233.654C208.666 233.721 208.713 233.788 208.757 233.855C208.783 233.892 208.808 233.929 208.832 233.966C208.918 234.094 209.001 234.22 209.081 234.345L209.081 234.346C209.122 234.41 209.162 234.474 209.202 234.537C209.241 234.6 209.28 234.663 209.317 234.725C209.355 234.787 209.392 234.848 209.428 234.909C209.763 235.471 210.03 235.983 210.24 236.429C210.257 236.464 210.273 236.498 210.288 236.531C202.826 240.505 196.263 237.049 192.521 234.888C189.294 233.024 188.122 234.789 185.455 233.543C183.227 232.501 183.061 230.505 180.147 229.774C177.423 229.09 174.761 230.553 174.761 230.553C174.761 230.553 176.708 224.212 179.841 216.766Z" fill="#5B2448"/>
<path d="M176.548 227.051C176.428 227.038 176.309 227.014 176.193 226.98C176.114 226.955 176.049 226.9 176.011 226.826C175.973 226.753 175.966 226.667 175.991 226.589C176.016 226.51 176.071 226.445 176.145 226.407C176.218 226.369 176.304 226.362 176.382 226.387C176.409 226.395 177.948 226.835 180.261 225.323C180.462 225.192 180.651 225.066 180.831 224.945C182.524 223.816 183.545 223.135 186.583 223.412C186.624 223.416 186.663 223.427 186.699 223.446C186.736 223.465 186.768 223.491 186.794 223.523C186.82 223.554 186.84 223.59 186.852 223.63C186.864 223.669 186.868 223.71 186.865 223.75C186.861 223.791 186.849 223.831 186.83 223.867C186.811 223.903 186.785 223.935 186.754 223.961C186.722 223.987 186.686 224.007 186.647 224.019C186.608 224.031 186.567 224.036 186.526 224.032C183.708 223.775 182.862 224.339 181.177 225.463C180.995 225.585 180.804 225.712 180.602 225.844C178.658 227.115 177.191 227.132 176.548 227.051Z" fill="white"/>
<path d="M201.526 238.459C197.763 237.986 194.65 236.188 192.579 234.991C190.875 234.008 189.733 234.058 188.629 234.106C187.683 234.148 186.704 234.19 185.442 233.6C184.45 233.137 183.838 232.508 183.246 231.901C182.462 231.097 181.722 230.337 180.121 229.935C177.535 229.285 175.086 230.631 175.061 230.645C175.001 230.678 174.931 230.685 174.865 230.666C174.8 230.648 174.744 230.604 174.711 230.544C174.677 230.484 174.669 230.414 174.687 230.348C174.705 230.282 174.748 230.226 174.808 230.192C174.914 230.133 177.456 228.731 180.247 229.432C181.991 229.87 182.818 230.718 183.617 231.539C184.202 232.14 184.755 232.707 185.661 233.131C186.809 233.667 187.682 233.629 188.607 233.588C189.785 233.537 191.004 233.483 192.838 234.543C194.547 235.53 197.13 237.021 200.159 237.697C203.664 238.478 206.937 238.022 210.166 236.303C210.197 236.288 210.23 236.279 210.264 236.277C210.298 236.274 210.332 236.279 210.364 236.29C210.397 236.301 210.426 236.318 210.452 236.34C210.478 236.363 210.499 236.39 210.514 236.42C210.529 236.451 210.538 236.484 210.54 236.518C210.542 236.552 210.538 236.586 210.527 236.619C210.516 236.651 210.499 236.681 210.477 236.706C210.454 236.732 210.427 236.753 210.396 236.768C207.205 238.463 204.201 238.796 201.526 238.459Z" fill="#5B2448"/>
<path d="M178.937 236.221C177.033 235.981 175.657 234.873 175.805 233.697C175.953 232.522 177.561 231.789 179.465 232.029C181.368 232.269 182.745 233.377 182.597 234.552C182.449 235.727 180.842 236.46 178.937 236.221ZM179.4 232.543C177.838 232.347 176.427 232.905 176.32 233.762C176.212 234.619 177.44 235.51 179.002 235.706C180.564 235.903 181.974 235.345 182.082 234.487C182.19 233.63 180.962 232.74 179.4 232.543Z" fill="#6D2A53"/>
<path d="M191.344 239.537C182.474 238.421 172.823 236.934 172.675 236.911C172.638 236.905 172.603 236.892 172.572 236.871C172.541 236.851 172.514 236.824 172.495 236.792C172.475 236.76 172.462 236.724 172.458 236.687C172.453 236.65 172.456 236.613 172.467 236.577C174.658 229.613 179.467 217.053 179.515 216.927C179.527 216.895 179.545 216.866 179.569 216.842C179.592 216.817 179.62 216.797 179.651 216.783C179.683 216.769 179.716 216.762 179.75 216.761C179.784 216.76 179.818 216.766 179.85 216.778C179.882 216.79 179.911 216.808 179.935 216.832C179.96 216.855 179.98 216.883 179.994 216.915C180.008 216.946 180.015 216.979 180.016 217.013C180.017 217.047 180.011 217.081 179.999 217.113C179.952 217.237 175.278 229.443 173.053 236.444C175.747 236.857 195.799 239.893 203.207 240.205C205.446 240.299 208.536 240.017 210.652 238.165C210.351 237.174 208.47 231.867 201.574 227.234C201.507 227.19 201.434 227.14 201.354 227.086C200.138 226.259 197.289 224.322 192.271 223.295C192.237 223.289 192.204 223.276 192.175 223.257C192.146 223.238 192.121 223.214 192.102 223.185C192.083 223.157 192.069 223.124 192.062 223.091C192.056 223.057 192.056 223.022 192.063 222.988C192.07 222.954 192.083 222.922 192.103 222.893C192.122 222.865 192.147 222.84 192.176 222.822C192.205 222.803 192.238 222.79 192.272 222.784C192.306 222.778 192.341 222.779 192.375 222.787C197.494 223.835 200.404 225.813 201.646 226.657C201.724 226.71 201.797 226.759 201.863 226.804C209.172 231.713 210.978 237.413 211.178 238.118C211.18 238.123 211.181 238.128 211.183 238.133C211.187 238.148 211.19 238.161 211.192 238.172L211.196 238.188C211.207 238.233 211.206 238.281 211.193 238.325C211.179 238.37 211.154 238.41 211.12 238.441C208.872 240.509 205.564 240.823 203.185 240.723C200.451 240.608 196.005 240.124 191.344 239.537Z" fill="#5B2448"/>
<path d="M190.663 230.01C190.531 229.993 190.406 229.943 190.299 229.864C190.193 229.786 190.108 229.681 190.053 229.56C189.998 229.439 189.975 229.306 189.986 229.174C189.997 229.042 190.042 228.915 190.116 228.804C190.227 228.64 192.899 224.76 198.139 224.211C198.344 224.189 198.549 224.25 198.71 224.38C198.87 224.51 198.972 224.698 198.994 224.904C199.015 225.109 198.954 225.314 198.824 225.474C198.694 225.635 198.506 225.737 198.301 225.758C193.804 226.229 191.428 229.641 191.405 229.676C191.324 229.794 191.212 229.888 191.081 229.947C190.95 230.006 190.805 230.028 190.663 230.01Z" fill="#FFCF2D"/>
<path d="M193.992 231.796C193.86 231.78 193.735 231.729 193.628 231.651C193.521 231.572 193.436 231.467 193.381 231.346C193.326 231.225 193.304 231.092 193.315 230.959C193.326 230.827 193.371 230.7 193.445 230.59C193.555 230.427 196.193 226.613 201.367 226.076C201.469 226.065 201.573 226.073 201.671 226.102C201.77 226.131 201.862 226.179 201.942 226.243C202.022 226.307 202.089 226.387 202.138 226.477C202.187 226.567 202.217 226.667 202.228 226.769C202.239 226.871 202.229 226.974 202.199 227.073C202.17 227.171 202.121 227.263 202.056 227.342C201.991 227.421 201.911 227.487 201.82 227.536C201.73 227.584 201.63 227.614 201.528 227.623C197.095 228.083 194.756 231.43 194.732 231.464C194.651 231.582 194.539 231.675 194.409 231.734C194.278 231.793 194.134 231.814 193.992 231.796Z" fill="#FFCF2D"/>
<path d="M197.891 233.382C197.758 233.365 197.632 233.314 197.524 233.233C197.417 233.153 197.332 233.046 197.278 232.923C197.224 232.8 197.202 232.665 197.216 232.532C197.23 232.398 197.278 232.27 197.355 232.161C197.455 232.021 199.845 228.731 204.558 228.299C204.764 228.28 204.968 228.344 205.127 228.476C205.286 228.608 205.385 228.798 205.404 229.003C205.423 229.209 205.359 229.413 205.227 229.572C205.095 229.73 204.906 229.83 204.7 229.849C200.721 230.213 198.642 233.036 198.621 233.064C198.539 233.178 198.428 233.267 198.3 233.323C198.172 233.379 198.03 233.399 197.891 233.382Z" fill="#FFCF2D"/>
<path d="M65.1529 221.857C65.1529 221.857 55.1647 228.659 50.4114 236.404C50.4114 236.404 70.6584 246.227 78.2531 248.811C82.3748 250.213 84.9307 249.552 86.3116 248.872C86.3116 248.872 86.3122 248.867 86.3124 248.857C86.3134 248.849 86.3139 248.838 86.3139 248.824C86.314 248.824 86.314 248.823 86.3139 248.823C86.3139 248.823 86.3137 248.823 86.3135 248.823C86.3213 248.226 86.2609 242.274 80.6263 235.495C79.7476 234.439 76.8213 231.284 72.8723 228.974C70.1701 227.394 68.5203 227.241 67.1461 225.654C66.0344 224.37 66.5529 223.537 65.1529 221.857Z" fill="white"/>
<path d="M65.2719 221.763C66.4213 222.875 66.0367 224.223 67.3443 225.785C68.5411 227.214 72.4129 228.038 75.3399 230.382C75.4459 230.466 75.5503 230.55 75.6548 230.634C75.6839 230.658 75.7126 230.68 75.741 230.704C76.3575 231.205 76.939 231.707 77.4854 232.209C77.5947 232.309 77.7028 232.409 77.8092 232.509C77.963 232.654 78.1134 232.797 78.2615 232.942C78.3779 233.055 78.4923 233.168 78.6048 233.281C78.6983 233.374 78.7898 233.467 78.881 233.561C78.9379 233.619 78.9943 233.677 79.05 233.735C79.184 233.875 79.3166 234.014 79.4461 234.154C79.4494 234.156 79.4525 234.159 79.4555 234.163C79.5002 234.212 79.5452 234.26 79.5899 234.309C79.7393 234.471 79.886 234.634 80.0293 234.796C80.0603 234.831 80.0916 234.868 80.1227 234.903C80.295 235.1 80.4636 235.297 80.6265 235.493C80.7852 235.684 80.9393 235.874 81.0889 236.064C81.1465 236.135 81.2029 236.207 81.2582 236.28C81.4283 236.498 81.5922 236.715 81.7499 236.932L81.8611 237.084C81.8982 237.134 81.9344 237.185 81.9703 237.236C82.0402 237.333 82.1081 237.431 82.1763 237.528C82.2491 237.633 82.3201 237.737 82.3899 237.841C82.4233 237.891 82.4572 237.94 82.4905 237.99C82.7235 238.34 82.9422 238.685 83.1466 239.026C83.2347 239.172 83.3197 239.316 83.4026 239.461C83.4587 239.556 83.5126 239.652 83.5651 239.748C83.5916 239.796 83.6183 239.843 83.6448 239.891C83.7293 240.043 83.8109 240.195 83.8896 240.345C83.9082 240.381 83.927 240.417 83.9464 240.454C84.0671 240.686 84.1817 240.916 84.2903 241.142C84.3118 241.188 84.3335 241.233 84.3545 241.278C84.396 241.364 84.4361 241.451 84.4754 241.537C84.4974 241.584 84.5189 241.632 84.54 241.681C84.5794 241.769 84.6189 241.857 84.6571 241.944C84.6755 241.987 84.6948 242.031 84.7138 242.075C84.7328 242.118 84.7502 242.161 84.7688 242.204C84.7873 242.248 84.8052 242.29 84.8229 242.333C84.8762 242.462 84.9274 242.589 84.977 242.715L85.0261 242.84C85.0418 242.881 85.0574 242.924 85.0732 242.964C85.1051 243.047 85.136 243.13 85.165 243.21C85.1797 243.251 85.1945 243.292 85.2095 243.332C85.2389 243.414 85.2674 243.494 85.2943 243.572L85.3747 243.809C85.4015 243.887 85.427 243.965 85.4508 244.041C85.4648 244.084 85.4788 244.126 85.4911 244.168C85.5381 244.316 85.5818 244.46 85.6233 244.603L85.6232 244.604C85.6445 244.677 85.6653 244.749 85.6853 244.821C85.7052 244.892 85.7247 244.963 85.7435 245.033C85.7622 245.103 85.7803 245.173 85.7977 245.241C85.9602 245.875 86.0722 246.442 86.1481 246.928C86.1537 246.966 86.1596 247.003 86.1653 247.04C77.885 248.748 72.5634 243.582 69.5825 240.453C67.0117 237.755 65.3896 239.118 63.1821 237.17C61.338 235.543 61.7417 233.581 59.1528 232.058C56.7324 230.634 54.1718 231.434 54.1718 231.434C54.1718 231.434 59.557 225.342 65.2719 221.763Z" fill="#5B2448"/>
<path d="M57.654 228.737C56.686 228.615 56.1828 228.282 56.147 228.258C56.079 228.212 56.0322 228.14 56.0169 228.059C56.0015 227.978 56.0188 227.895 56.065 227.826C56.1112 227.758 56.1825 227.711 56.2633 227.696C56.3441 227.68 56.4278 227.697 56.4962 227.743C56.5194 227.758 57.8709 228.614 60.5178 227.816C60.7475 227.747 60.9644 227.679 61.1714 227.614C63.1134 227.008 64.2857 226.643 67.1214 227.765C67.1981 227.795 67.2596 227.855 67.2924 227.931C67.3252 228.007 67.3265 228.092 67.2961 228.169C67.2657 228.246 67.2061 228.307 67.1304 228.34C67.0546 228.373 66.969 228.374 66.8923 228.344C64.2605 227.302 63.29 227.605 61.3565 228.208C61.1477 228.274 60.929 228.342 60.6973 228.412C59.411 228.8 58.3959 228.83 57.654 228.737Z" fill="white"/>
<path d="M81.1925 247.519C75.5554 246.809 71.8298 242.899 69.6083 240.567C68.2509 239.143 67.1417 238.869 66.0686 238.604C65.149 238.377 64.1982 238.142 63.1528 237.22C62.3318 236.495 61.9219 235.72 61.5254 234.97C61.0006 233.977 60.5049 233.039 59.0818 232.203C56.7958 230.858 54.334 231.624 54.3093 231.632C54.2439 231.653 54.1727 231.648 54.1115 231.616C54.0503 231.585 54.004 231.531 53.9828 231.465C53.9617 231.4 53.9674 231.329 53.9987 231.267C54.03 231.206 54.0844 231.16 54.1498 231.139C54.2588 231.103 56.8529 230.289 59.3447 231.756C60.8945 232.667 61.4483 233.714 61.9839 234.727C62.3758 235.469 62.7459 236.169 63.4963 236.831C64.4465 237.669 65.2948 237.879 66.1932 238.101C67.3388 238.384 68.5227 238.676 69.9837 240.21C71.3452 241.639 73.4028 243.798 76.1185 245.3C79.2601 247.038 82.5289 247.524 86.1123 246.785C86.1459 246.779 86.1802 246.779 86.2135 246.787C86.2467 246.794 86.2782 246.808 86.3061 246.828C86.334 246.847 86.3578 246.872 86.3762 246.901C86.3945 246.929 86.407 246.961 86.4129 246.995C86.4188 247.028 86.4181 247.063 86.4108 247.096C86.4034 247.129 86.3896 247.161 86.3701 247.189C86.3506 247.217 86.3257 247.24 86.297 247.259C86.2683 247.277 86.2363 247.29 86.2027 247.295C84.5564 247.645 82.8635 247.721 81.1925 247.519Z" fill="#5B2448"/>
<path d="M57.6237 238.304C57.1241 238.238 56.6364 238.101 56.1753 237.898C54.4158 237.131 53.4082 235.679 53.8815 234.594C54.1175 234.052 54.6787 233.702 55.4615 233.609C56.1938 233.521 57.047 233.669 57.8633 234.025C59.6228 234.792 60.6303 236.243 60.1571 237.329C59.921 237.871 59.3599 238.22 58.5771 238.314C58.2601 238.349 57.9399 238.346 57.6237 238.304ZM56.3507 234.132C56.0761 234.096 55.7981 234.093 55.5228 234.124C54.9302 234.194 54.5161 234.435 54.3567 234.801C54.0114 235.593 54.9392 236.793 56.3823 237.422C57.1157 237.742 57.873 237.876 58.5154 237.799C59.1079 237.728 59.522 237.488 59.6815 237.122C60.0267 236.33 59.0991 235.129 57.6558 234.5C57.2405 234.316 56.8011 234.193 56.3509 234.132L56.3507 234.132Z" fill="#6D2A53"/>
<path d="M81.2998 249.795C80.2342 249.653 79.1855 249.404 78.1695 249.053C70.6486 246.494 50.1785 236.889 49.9726 236.792C49.9391 236.777 49.9094 236.754 49.8854 236.726C49.8614 236.698 49.8437 236.664 49.8335 236.629C49.8233 236.593 49.8209 236.556 49.8264 236.519C49.8318 236.483 49.8451 236.448 49.8652 236.417C55.2388 228.122 64.8544 221.747 64.9509 221.683C65.0083 221.648 65.0772 221.637 65.143 221.651C65.2088 221.666 65.2663 221.706 65.3033 221.762C65.3404 221.818 65.354 221.887 65.3414 221.953C65.3288 222.019 65.2909 222.078 65.2357 222.117C65.1411 222.179 55.8061 228.369 50.4635 236.449C52.9179 237.597 71.3135 246.173 78.3366 248.562C80.4584 249.284 83.5021 249.884 86.0542 248.704C86.045 247.668 85.7379 242.047 80.4268 235.657C80.3752 235.595 80.319 235.526 80.2582 235.453C79.3245 234.316 77.1364 231.655 72.6119 229.254C72.5818 229.238 72.5552 229.216 72.5335 229.19C72.5118 229.164 72.4955 229.134 72.4855 229.101C72.4755 229.068 72.472 229.034 72.4753 229C72.4785 228.966 72.4884 228.933 72.5043 228.903C72.5203 228.873 72.542 228.847 72.5682 228.825C72.5945 228.803 72.6248 228.787 72.6573 228.777C72.6899 228.767 72.7241 228.763 72.758 228.767C72.7919 228.77 72.8248 228.78 72.8549 228.796C77.4712 231.245 79.7049 233.963 80.6589 235.123C80.719 235.196 80.7746 235.264 80.8256 235.325C86.4514 242.094 86.5796 248.068 86.5727 248.806C86.5731 248.813 86.5732 248.82 86.5729 248.826C86.5728 248.84 86.5721 248.852 86.5714 248.862L86.5706 248.877C86.5687 248.924 86.5542 248.969 86.5288 249.009C86.5034 249.048 86.4679 249.08 86.426 249.101C84.7947 249.905 82.9783 250.006 81.2998 249.795Z" fill="#5B2448"/>
<path d="M69.3898 235.303C69.2394 235.284 69.0979 235.222 68.9826 235.123C68.8674 235.025 68.7834 234.895 68.7409 234.749C68.6985 234.604 68.6995 234.449 68.7438 234.304C68.7881 234.159 68.8738 234.03 68.9904 233.933C69.1436 233.806 72.8002 230.838 77.9829 231.789C78.1858 231.826 78.3657 231.943 78.4828 232.112C78.6 232.282 78.6449 232.492 78.6077 232.695C78.5705 232.898 78.4541 233.077 78.2843 233.195C78.1145 233.312 77.9051 233.357 77.7022 233.319C73.2551 232.503 70.0135 235.107 69.9811 235.133C69.8993 235.2 69.8047 235.25 69.703 235.279C69.6013 235.308 69.4947 235.317 69.3898 235.303Z" fill="#FFCF2D"/>
<path d="M72.0795 237.955C71.9288 237.936 71.787 237.874 71.6715 237.775C71.556 237.676 71.472 237.546 71.4297 237.4C71.3874 237.254 71.3887 237.099 71.4335 236.954C71.4783 236.809 71.5646 236.68 71.6817 236.584C71.8327 236.459 75.438 233.54 80.5548 234.487C80.7565 234.526 80.9347 234.643 81.0505 234.812C81.1663 234.982 81.2104 235.19 81.1732 235.392C81.1359 235.594 81.0203 235.773 80.8516 235.89C80.6828 236.007 80.4747 236.053 80.2725 236.017C75.8617 235.203 72.7032 237.758 72.6718 237.784C72.5901 237.851 72.4954 237.901 72.3935 237.931C72.2916 237.96 72.1848 237.969 72.0795 237.955Z" fill="#FFCF2D"/>
<path d="M75.3746 240.576C75.2223 240.557 75.0792 240.493 74.9631 240.392C74.847 240.292 74.7632 240.16 74.7222 240.012C74.6812 239.864 74.6848 239.707 74.7326 239.562C74.7803 239.416 74.8702 239.287 74.9907 239.192C75.1257 239.086 78.348 236.604 82.9901 237.519C83.1925 237.559 83.3708 237.677 83.4858 237.849C83.6007 238.02 83.6429 238.23 83.603 238.433C83.5631 238.635 83.4445 238.813 83.2731 238.928C83.1018 239.043 82.8918 239.085 82.6894 239.045C78.7367 238.265 75.9802 240.394 75.9523 240.415C75.8715 240.479 75.7788 240.526 75.6796 240.553C75.5804 240.581 75.4767 240.589 75.3746 240.576Z" fill="#FFCF2D"/>
<path d="M163.396 142.504C173.437 145.972 190.728 151.855 199.863 166.489C209.996 182.722 198.822 209.766 198.822 209.766C198.822 209.766 189.521 210.798 182.822 205.347C176.009 199.804 171.147 195.753 168.526 199.506C168.526 199.506 170.135 197.118 175.673 190.521C182.119 182.844 171.841 172.31 148.351 166.883C143.003 189.74 115.914 218.027 86.8578 227.801C81.361 223.671 78.5505 216.978 78.0127 211.861C77.4749 206.743 77.9866 195.848 71.5203 196.861C79.8925 193.509 90.5226 195.69 101.036 191.12C113.879 185.538 111.606 162.673 115.849 151.557L163.396 142.504Z" fill="#21A0AA"/>
<path d="M95.9716 192.517C95.9064 192.509 95.8468 192.476 95.8049 192.425C95.7631 192.375 95.742 192.31 95.7459 192.244C95.7499 192.179 95.7786 192.117 95.8263 192.072C95.874 192.027 95.9371 192.001 96.0028 192.001C97.8243 191.99 101.049 190.886 104.628 189.047C108.047 187.289 111.221 185.157 112.912 183.482C112.936 183.458 112.964 183.438 112.996 183.425C113.028 183.411 113.062 183.404 113.096 183.404C113.13 183.404 113.164 183.411 113.196 183.424C113.228 183.437 113.257 183.457 113.281 183.481C113.305 183.506 113.324 183.535 113.337 183.566C113.35 183.598 113.356 183.632 113.356 183.667C113.355 183.701 113.348 183.735 113.335 183.767C113.321 183.798 113.301 183.827 113.276 183.85C109.683 187.411 100.144 192.496 96.0057 192.519C95.9943 192.519 95.9829 192.519 95.9716 192.517Z" fill="#6CE0DC"/>
<path d="M147.926 169.834C147.914 169.833 147.901 169.83 147.889 169.827C147.823 169.808 147.767 169.764 147.733 169.705C147.699 169.645 147.69 169.574 147.709 169.508C148.641 166.153 149.322 162.734 149.745 159.278C149.749 159.245 149.759 159.212 149.775 159.182C149.791 159.152 149.813 159.125 149.84 159.104C149.866 159.082 149.896 159.066 149.929 159.056C149.962 159.047 149.996 159.043 150.03 159.047C150.064 159.05 150.097 159.06 150.127 159.076C150.157 159.093 150.183 159.115 150.205 159.141C150.226 159.167 150.242 159.198 150.252 159.23C150.262 159.263 150.265 159.297 150.261 159.331C149.835 162.816 149.149 166.264 148.209 169.646C148.192 169.706 148.154 169.758 148.102 169.793C148.051 169.827 147.988 169.842 147.926 169.834Z" fill="#6CE0DC"/>
<path d="M176.164 189.609C176.122 189.604 176.081 189.588 176.046 189.562C176.011 189.537 175.982 189.504 175.964 189.465C175.945 189.426 175.936 189.383 175.938 189.34C175.94 189.297 175.953 189.255 175.975 189.218C180.619 181.509 178.937 174.387 178.92 174.316C178.905 174.25 178.916 174.18 178.952 174.123C178.988 174.065 179.045 174.023 179.11 174.007C179.176 173.991 179.246 174.001 179.304 174.036C179.363 174.07 179.405 174.126 179.423 174.192C179.442 174.267 179.875 176.063 179.726 178.858C179.508 182.617 178.372 186.266 176.419 189.486C176.393 189.529 176.355 189.563 176.31 189.585C176.265 189.607 176.214 189.615 176.164 189.609Z" fill="#6CE0DC"/>
<path d="M123.565 129.066C123.565 129.066 115.474 135.127 111.682 140.679C107.891 146.231 104.983 152.084 106.278 152.892C109.57 154.945 119.192 141.624 123.565 129.066Z" fill="#5B2448"/>
<path d="M123.519 90.1649C120.367 88.0043 109.967 90.2859 101.371 108.222C92.7745 126.158 95.8446 138.471 99.1596 142.863C98.7306 143.803 98.673 144.871 98.9985 145.851C99.5537 147.576 102.088 151.183 106.278 152.892C104.904 151 111.288 137.836 123.565 129.066C129.923 116.113 130.047 94.6395 123.519 90.1649Z" fill="#66B0F0"/>
<path d="M123.764 129.62C123.724 129.615 123.685 129.6 123.651 129.577C123.617 129.554 123.589 129.523 123.569 129.487C123.55 129.452 123.539 129.412 123.537 129.371C123.536 129.33 123.545 129.289 123.562 129.252C126.973 121.996 128.682 113.019 128.25 104.625C127.869 97.1985 125.84 91.4059 123.082 89.8677C123.052 89.8511 123.026 89.8288 123.005 89.8021C122.984 89.7754 122.968 89.7448 122.959 89.7121C122.95 89.6793 122.947 89.645 122.951 89.6112C122.955 89.5774 122.965 89.5447 122.982 89.5149C122.998 89.4852 123.021 89.459 123.047 89.4379C123.074 89.4167 123.105 89.4011 123.137 89.3918C123.17 89.3825 123.204 89.3797 123.238 89.3837C123.272 89.3876 123.305 89.3982 123.335 89.4147C124.791 90.2269 126.069 92.0978 127.032 94.8248C127.977 97.5032 128.577 100.883 128.768 104.598C129.204 113.075 127.477 122.141 124.031 129.472C124.008 129.522 123.969 129.563 123.921 129.589C123.874 129.616 123.819 129.626 123.764 129.62Z" fill="#B0DCF7"/>
<path d="M156.229 129.896C156.172 129.889 156.119 129.863 156.078 129.822C156.037 129.78 156.011 129.727 156.005 129.669C154.267 114.913 145.441 92.7194 139.998 89.4191C139.969 89.4017 139.943 89.3785 139.922 89.3511C139.902 89.3236 139.887 89.2923 139.879 89.259C139.87 89.2257 139.869 89.1911 139.874 89.1572C139.879 89.1233 139.891 89.0907 139.908 89.0614C139.926 89.0321 139.95 89.0066 139.977 88.9864C140.005 88.9662 140.037 88.9517 140.07 88.9437C140.103 88.9357 140.138 88.9345 140.172 88.94C140.206 88.9455 140.238 88.9576 140.267 88.9757C142.924 90.5867 146.52 96.6113 149.887 105.091C153.221 113.49 155.701 122.656 156.52 129.609C156.524 129.648 156.52 129.687 156.507 129.724C156.494 129.762 156.473 129.795 156.445 129.823C156.417 129.851 156.383 129.872 156.345 129.884C156.308 129.897 156.269 129.901 156.229 129.896L156.229 129.896Z" fill="#B0DCF7"/>
<path d="M136.92 103.925C135.791 103.783 134.298 102.648 132.315 100.44C128.473 96.1641 126.676 93.8236 125.602 92.4247C124.506 90.9979 124.137 90.5173 123.072 89.8621C123.043 89.8443 123.018 89.8209 122.998 89.7933C122.978 89.7657 122.964 89.7345 122.956 89.7014C122.948 89.6682 122.947 89.6339 122.952 89.6002C122.958 89.5666 122.97 89.5344 122.987 89.5054C123.005 89.4764 123.029 89.4511 123.056 89.4312C123.084 89.4112 123.115 89.3969 123.148 89.389C123.181 89.3811 123.216 89.3798 123.249 89.3852C123.283 89.3906 123.315 89.4025 123.344 89.4204C124.49 90.1257 124.905 90.6657 126.013 92.1084C127.082 93.501 128.872 95.832 132.7 100.093C134.259 101.827 136.362 103.801 137.535 103.354C138.862 102.848 138.876 99.3516 138.887 96.5426C138.891 95.669 138.894 94.8439 138.931 94.1101C138.934 94.0414 138.965 93.9769 139.016 93.9308C139.067 93.8846 139.134 93.8607 139.203 93.8641C139.271 93.8676 139.336 93.8981 139.382 93.9492C139.428 94.0002 139.452 94.0674 139.449 94.1361C139.412 94.8579 139.409 95.6772 139.406 96.5446C139.393 99.8198 139.379 103.206 137.72 103.838C137.464 103.933 137.19 103.963 136.92 103.925Z" fill="#B0DCF7"/>
<path d="M145.849 100.225C145.263 100.151 144.351 99.5158 142.768 98.123C142.742 98.1007 142.721 98.0734 142.705 98.0427C142.689 98.012 142.68 97.9784 142.677 97.9441C142.675 97.9097 142.679 97.8752 142.69 97.8425C142.701 97.8099 142.719 97.7797 142.741 97.7538C142.764 97.728 142.792 97.7069 142.823 97.6919C142.854 97.6768 142.888 97.6681 142.922 97.6662C142.956 97.6643 142.991 97.6693 143.023 97.6809C143.056 97.6925 143.085 97.7104 143.111 97.7337C143.685 98.2391 144.423 98.872 145.035 99.2813C145.814 99.8023 146.016 99.7094 146.036 99.6971C146.044 99.6923 146.231 99.5678 146.008 98.6197C145.731 97.4447 144.088 93.9724 142.735 92.2308C142.714 92.2039 142.699 92.1731 142.689 92.1402C142.68 92.1073 142.678 92.0729 142.682 92.0391C142.686 92.0052 142.697 91.9724 142.714 91.9428C142.731 91.9131 142.753 91.887 142.78 91.8661C142.807 91.8451 142.838 91.8297 142.871 91.8207C142.904 91.8118 142.938 91.8094 142.972 91.8137C143.006 91.818 143.039 91.829 143.068 91.846C143.098 91.863 143.124 91.8857 143.145 91.9128C144.559 93.7346 146.219 97.255 146.512 98.5009C146.646 99.0709 146.77 99.861 146.302 100.142C146.165 100.221 146.005 100.251 145.849 100.225Z" fill="#B0DCF7"/>
<path d="M98.7372 143.236C98.6951 143.231 98.6549 143.216 98.6203 143.191C98.5856 143.167 98.5575 143.134 98.5383 143.096C98.5191 143.058 98.5096 143.016 98.5104 142.974C98.5112 142.932 98.5225 142.89 98.5431 142.853C100.392 139.533 104.343 136.161 109.668 133.358C114.311 130.915 119.648 129.095 123.946 128.489C124.014 128.48 124.083 128.497 124.138 128.539C124.193 128.58 124.23 128.642 124.239 128.71C124.249 128.778 124.231 128.847 124.189 128.902C124.148 128.957 124.087 128.993 124.018 129.003C119.777 129.6 114.502 131.4 109.91 133.817C104.672 136.573 100.797 139.872 98.9963 143.105C98.9711 143.15 98.933 143.187 98.8868 143.21C98.8406 143.234 98.7885 143.243 98.7372 143.236Z" fill="#B0DCF7"/>
<path d="M106.614 131.006C106.558 130.998 106.505 130.973 106.464 130.933C106.424 130.893 106.397 130.84 106.39 130.784C106.382 130.727 106.393 130.67 106.421 130.62C106.449 130.57 106.493 130.531 106.546 130.509C111.621 128.371 120.877 127.975 124.023 128.484C124.091 128.493 124.153 128.53 124.194 128.585C124.235 128.64 124.253 128.709 124.243 128.777C124.233 128.845 124.197 128.907 124.142 128.948C124.087 128.989 124.018 129.007 123.95 128.997C123.947 128.997 123.944 128.996 123.941 128.996C120.842 128.497 111.738 128.885 106.747 130.988C106.705 131.005 106.659 131.011 106.614 131.006Z" fill="#B0DCF7"/>
<path d="M139.42 95.2812C142.196 96.2753 143.521 97.6416 144.151 98.6702C144.864 99.8344 144.539 101.136 144.539 101.136C144.539 101.136 155.609 120.312 160.032 143.217L153.779 149.544C153.585 149.741 153.342 149.881 153.074 149.952C152.807 150.023 152.526 150.02 152.26 149.945L143.488 147.474C143.488 147.474 143.572 127.178 142.798 119.667C142.024 112.156 140.128 102.462 140.128 102.462C139.058 101.575 139.363 100.861 139.391 98.9307C139.417 97.1062 139.42 95.2812 139.42 95.2812Z" fill="#F94F46"/>
<path d="M139.965 102.992C139.827 102.975 139.69 102.949 139.555 102.915C139.522 102.907 139.49 102.893 139.463 102.872C139.435 102.852 139.412 102.827 139.394 102.797C139.376 102.768 139.364 102.735 139.359 102.701C139.354 102.667 139.356 102.632 139.364 102.599C139.373 102.566 139.388 102.534 139.409 102.507C139.429 102.48 139.455 102.456 139.485 102.439C139.515 102.422 139.547 102.411 139.581 102.406C139.616 102.401 139.65 102.404 139.683 102.413C141.263 102.816 143.776 101.857 144.802 100.796C144.85 100.746 144.916 100.718 144.984 100.717C145.018 100.716 145.052 100.722 145.084 100.735C145.116 100.747 145.145 100.766 145.169 100.789C145.193 100.813 145.213 100.841 145.227 100.873C145.24 100.904 145.247 100.937 145.248 100.972C145.249 101.006 145.242 101.039 145.23 101.071C145.217 101.103 145.199 101.132 145.175 101.156C144.115 102.252 141.72 103.213 139.965 102.992Z" fill="#66B0F0"/>
<path d="M184.009 136.243C183.686 136.418 183.352 136.591 183.007 136.761C178.384 139.038 171.813 140.833 163.4 142.509L163.396 142.511C162.536 142.682 161.657 142.852 160.758 143.021C160.703 143.031 160.647 143.042 160.591 143.052C160.227 143.121 159.86 143.189 159.49 143.257C159.06 143.336 158.621 143.423 158.173 143.518C156.942 143.778 155.644 144.095 154.288 144.451C153.037 144.779 151.738 145.141 150.399 145.522C150.348 145.537 150.296 145.552 150.243 145.567C138.454 148.928 123.614 153.758 111.248 150.822C111.141 150.796 111.035 150.77 110.929 150.744C110.74 150.696 110.553 150.648 110.366 150.598C109.139 150.267 107.937 149.85 106.768 149.35L106.768 149.348C108.667 144.384 114.515 135.531 123.566 129.065C123.778 129.03 123.992 128.996 124.207 128.964C124.233 128.96 124.257 128.956 124.282 128.953C131.731 127.833 140.945 128.325 148.736 128.742C151.523 128.892 154.128 129.032 156.404 129.085C156.974 129.098 157.522 129.105 158.048 129.107C162.457 129.117 168.924 128.042 172.343 126.501C176.064 124.823 176.737 125.768 174.643 127.865C169.971 132.542 176.7 130.079 182.773 128.996C187.719 128.114 185.403 130.294 184.821 130.65C186.501 130.109 189.106 129.9 186.181 132.648C187.993 131.909 188.078 134.035 184.009 136.243Z" fill="#F4ADA2"/>
<path d="M124.281 128.953C121.951 130.797 113.64 139.636 110.929 150.744C110.74 150.697 110.553 150.649 110.366 150.598C109.139 150.267 107.936 149.851 106.768 149.351L106.768 149.349C108.667 144.384 114.515 135.531 123.566 129.066C123.778 129.03 123.991 128.996 124.207 128.964C124.232 128.961 124.256 128.956 124.281 128.953Z" fill="#9B3C82"/>
<path d="M163.395 142.506C167.674 143.961 189.442 152.824 204.024 139.403C207.252 137.66 211.597 137.3 209.025 136.379C208.099 136.047 206.605 135.967 206.605 135.967C206.605 135.967 208.141 133.152 208.844 130.984C209.546 128.816 208.595 128.696 206.689 131.035C207.405 128.761 207.235 126.698 204.362 130.742C204.893 128.23 204.749 126.815 200.434 132.074C200.872 130.303 200.78 129.324 197.445 132.773C194.11 136.221 189.64 137.592 189.64 137.592L182.977 136.754L163.395 142.506Z" fill="#F4ADA2"/>
<path d="M162.334 143.285C162.273 143.278 162.217 143.249 162.176 143.204C162.134 143.16 162.11 143.102 162.107 143.04C162.104 142.979 162.122 142.919 162.159 142.871C162.196 142.822 162.249 142.788 162.309 142.775C173.781 140.175 178.792 138.526 184.024 136.393C184.087 136.368 184.157 136.37 184.22 136.397C184.282 136.424 184.331 136.474 184.357 136.537C184.383 136.6 184.382 136.67 184.357 136.733C184.331 136.796 184.282 136.846 184.219 136.873C178.962 139.017 173.931 140.673 162.424 143.281C162.394 143.287 162.364 143.289 162.334 143.285Z" fill="#9B3C82"/>
<path d="M177.11 134.292C177.049 134.284 176.993 134.256 176.952 134.211C176.91 134.166 176.886 134.108 176.883 134.047C176.88 133.986 176.899 133.926 176.936 133.877C176.973 133.828 177.026 133.795 177.086 133.781C179.375 133.268 182.775 132.179 185.973 129.903C186.029 129.864 186.098 129.848 186.166 129.859C186.234 129.87 186.295 129.908 186.334 129.964C186.374 130.02 186.39 130.09 186.379 130.158C186.367 130.226 186.33 130.286 186.274 130.326C183.006 132.652 179.535 133.764 177.199 134.288C177.17 134.294 177.14 134.295 177.11 134.292Z" fill="#9B3C82"/>
<path d="M178.285 136.912C178.225 136.904 178.169 136.876 178.128 136.832C178.086 136.788 178.062 136.731 178.058 136.671C178.054 136.611 178.071 136.551 178.106 136.502C178.142 136.453 178.193 136.418 178.251 136.403C181.126 135.653 185.249 133.599 186.735 132.177C186.785 132.13 186.851 132.105 186.92 132.107C186.988 132.109 187.053 132.137 187.1 132.187C187.147 132.236 187.173 132.302 187.172 132.37C187.171 132.439 187.143 132.504 187.094 132.551C185.41 134.162 181.029 136.214 178.382 136.905C178.35 136.913 178.317 136.916 178.285 136.912Z" fill="#9B3C82"/>
<path d="M186.559 140.04C186.515 140.034 186.474 140.018 186.438 139.991C186.402 139.965 186.374 139.93 186.356 139.89C186.337 139.849 186.33 139.805 186.333 139.761C186.337 139.717 186.352 139.674 186.377 139.638C186.423 139.569 187.543 137.937 189.86 136.916C189.892 136.901 189.925 136.893 189.96 136.892C189.994 136.891 190.028 136.897 190.061 136.909C190.093 136.921 190.122 136.94 190.147 136.963C190.172 136.987 190.192 137.015 190.206 137.047C190.22 137.078 190.227 137.112 190.228 137.147C190.229 137.181 190.222 137.215 190.21 137.247C190.197 137.279 190.178 137.308 190.154 137.333C190.13 137.357 190.101 137.377 190.07 137.39C187.896 138.348 186.817 139.912 186.807 139.928C186.78 139.967 186.742 139.999 186.699 140.019C186.655 140.039 186.607 140.046 186.559 140.04Z" fill="#9B3C82"/>
<path d="M197.045 138.092C196.998 138.086 196.953 138.067 196.916 138.037C196.879 138.008 196.851 137.969 196.834 137.924C196.818 137.88 196.814 137.831 196.823 137.785C196.832 137.738 196.854 137.695 196.886 137.66C196.916 137.627 199.85 134.38 200.947 130.651C200.967 130.586 201.012 130.532 201.072 130.499C201.132 130.467 201.202 130.46 201.268 130.479C201.333 130.498 201.388 130.542 201.421 130.602C201.454 130.662 201.463 130.732 201.444 130.797C200.313 134.644 197.393 137.874 197.269 138.009C197.241 138.04 197.206 138.064 197.167 138.078C197.128 138.092 197.086 138.097 197.045 138.092Z" fill="#9B3C82"/>
<path d="M200.522 138.64C200.478 138.634 200.436 138.618 200.4 138.591C200.365 138.565 200.336 138.53 200.318 138.489C200.3 138.449 200.292 138.405 200.296 138.36C200.3 138.316 200.315 138.274 200.34 138.237C201.736 136.183 204.091 132.109 204.86 129.301C204.878 129.235 204.921 129.179 204.981 129.144C205.041 129.11 205.112 129.101 205.178 129.12C205.244 129.138 205.301 129.182 205.335 129.241C205.369 129.301 205.378 129.372 205.36 129.438C204.575 132.307 202.184 136.446 200.769 138.528C200.742 138.568 200.705 138.599 200.661 138.619C200.617 138.639 200.569 138.646 200.522 138.64Z" fill="#9B3C82"/>
<path d="M203.06 138.954C203.015 138.949 202.973 138.931 202.937 138.905C202.901 138.878 202.873 138.842 202.855 138.801C202.837 138.76 202.83 138.714 202.834 138.67C202.839 138.625 202.855 138.582 202.881 138.546C204.664 136.057 206.346 132.104 207.244 129.475C207.255 129.443 207.272 129.413 207.294 129.388C207.317 129.362 207.344 129.341 207.375 129.326C207.405 129.311 207.439 129.302 207.473 129.3C207.507 129.298 207.541 129.303 207.573 129.314C207.605 129.325 207.635 129.342 207.661 129.365C207.686 129.387 207.707 129.414 207.722 129.445C207.737 129.476 207.746 129.509 207.748 129.543C207.75 129.577 207.746 129.611 207.735 129.643C206.825 132.305 205.119 136.313 203.303 138.848C203.276 138.886 203.239 138.916 203.196 138.935C203.153 138.953 203.106 138.96 203.06 138.954Z" fill="#9B3C82"/>
<path d="M203.998 140.043C203.95 140.037 203.905 140.018 203.868 139.988C203.83 139.958 203.802 139.918 203.786 139.872C203.77 139.827 203.767 139.778 203.777 139.731C203.787 139.684 203.81 139.64 203.844 139.606C204.942 138.408 205.924 137.109 206.775 135.725C206.811 135.666 206.869 135.625 206.936 135.609C207.003 135.593 207.074 135.605 207.132 135.641C207.19 135.677 207.232 135.735 207.248 135.802C207.264 135.869 207.252 135.94 207.216 135.998C206.347 137.415 205.343 138.744 204.217 139.966C204.189 139.995 204.154 140.017 204.116 140.031C204.078 140.044 204.038 140.048 203.998 140.043Z" fill="#9B3C82"/>
<path d="M158.161 144.533L154.288 144.446L152.781 144.412L150.866 144.37C150.894 143.115 150.867 141.826 150.791 140.527C150.765 140.069 150.732 139.611 150.692 139.152C150.384 135.493 149.697 131.831 148.736 128.737C151.522 128.887 154.127 129.027 156.404 129.08C157.103 131.883 157.596 134.733 157.879 137.608C157.918 137.994 157.953 138.379 157.984 138.765C158.081 139.948 158.141 141.13 158.164 142.301C158.169 142.559 158.173 142.818 158.174 143.076C158.175 143.222 158.174 143.369 158.173 143.513C158.172 143.854 158.168 144.194 158.161 144.533Z" fill="#5B2448"/>
<path d="M155.981 146.179C159.363 145.346 161.633 142.756 161.052 140.396C160.47 138.035 157.257 136.798 153.875 137.631C150.493 138.465 148.223 141.054 148.804 143.415C149.386 145.775 152.599 147.013 155.981 146.179Z" fill="#5B2448"/>
<path d="M152.766 146.893C150.461 146.603 148.639 145.375 148.192 143.561C147.543 140.927 150.037 138.039 153.751 137.123C155.534 136.684 157.334 136.756 158.818 137.328C160.335 137.913 161.346 138.947 161.664 140.24C161.983 141.534 161.569 142.92 160.497 144.142C159.448 145.338 157.889 146.239 156.105 146.678C155.015 146.953 153.883 147.026 152.766 146.893ZM148.695 143.437C149.276 145.794 152.544 147.022 155.982 146.175C157.663 145.761 159.128 144.917 160.107 143.8C161.064 142.709 161.438 141.489 161.161 140.364C160.884 139.24 159.986 138.334 158.632 137.812C157.245 137.278 155.556 137.212 153.875 137.627C150.439 138.474 148.115 141.08 148.696 143.437L148.695 143.437Z" fill="white"/>
<path d="M155.999 146.232C159.282 145.423 161.54 143.126 161.041 141.102C160.542 139.078 157.476 138.093 154.193 138.902C150.91 139.711 148.652 142.008 149.151 144.032C149.65 146.057 152.716 147.042 155.999 146.232Z" fill="white"/>
<path d="M155.144 143.245C155.09 143.238 155.04 143.214 155 143.178C154.961 143.141 154.933 143.093 154.922 143.04L154.446 140.745C154.433 140.678 154.447 140.609 154.485 140.552C154.523 140.495 154.581 140.456 154.648 140.442C154.714 140.428 154.784 140.441 154.841 140.478C154.898 140.515 154.939 140.573 154.954 140.639L155.377 142.676L158.683 141.918C158.75 141.902 158.821 141.914 158.879 141.951C158.937 141.987 158.979 142.046 158.994 142.113C159.009 142.18 158.997 142.25 158.961 142.309C158.924 142.367 158.866 142.408 158.799 142.424L155.235 143.241C155.205 143.247 155.174 143.249 155.144 143.245Z" fill="#5B2448"/>
</g>
<g clip-path="url(#clip8_6136_10060)">
<path d="M244.984 46.5883C245.041 46.5412 245.114 46.5172 245.188 46.521C252.244 46.8673 269.237 44.9224 276.855 41.8721C276.929 41.8435 277.011 41.8453 277.083 41.8769C277.156 41.9085 277.213 41.9675 277.243 42.041C277.272 42.1146 277.271 42.1967 277.241 42.2696C277.21 42.3425 277.152 42.4004 277.079 42.4305C269.394 45.5077 252.267 47.4704 245.16 47.1216C245.099 47.1186 245.041 47.0973 244.993 47.0604C244.944 47.0236 244.908 46.9729 244.889 46.9152C244.87 46.8574 244.869 46.7953 244.886 46.7369C244.903 46.6786 244.937 46.6268 244.984 46.5883Z" fill="#66B0F0"/>
<path d="M263.801 52.2023C263.843 52.1675 263.894 52.1452 263.949 52.1377C270.608 51.2079 276.127 49.9541 279.489 48.6076C279.563 48.578 279.646 48.5791 279.719 48.6105C279.793 48.642 279.851 48.7013 279.88 48.7754C279.91 48.8494 279.909 48.9322 279.878 49.0055C279.847 49.0788 279.787 49.1366 279.713 49.1662C276.307 50.5303 270.738 51.7971 264.033 52.7337C263.968 52.7428 263.901 52.7304 263.844 52.6984C263.787 52.6663 263.741 52.6163 263.715 52.5561C263.689 52.4959 263.683 52.4288 263.698 52.365C263.714 52.3011 263.749 52.2441 263.8 52.2027L263.801 52.2023Z" fill="#66B0F0"/>
</g>
</g>
</g>
</g>
<defs>
<clipPath id="clip0_6136_10060">
<rect width="327" height="280" fill="white"/>
</clipPath>
<clipPath id="clip1_6136_10060">
<rect width="327" height="280" fill="white"/>
</clipPath>
<clipPath id="clip2_6136_10060">
<rect width="250" height="250" fill="white" transform="translate(39 15.1484)"/>
</clipPath>
<clipPath id="clip3_6136_10060">
<rect width="34.6667" height="9" fill="white" transform="translate(50.6665 243.812)"/>
</clipPath>
<clipPath id="clip4_6136_10060">
<rect width="16.6667" height="4.33333" fill="white" transform="translate(161.833 234.812)"/>
</clipPath>
<clipPath id="clip5_6136_10060">
<rect width="75.6667" height="42.8333" fill="white" transform="matrix(-1 0 0 1 248.5 23.1484)"/>
</clipPath>
<clipPath id="clip6_6136_10060">
<rect width="47.7667" height="65" fill="white" transform="translate(185.233 46.1484)"/>
</clipPath>
<clipPath id="clip7_6136_10060">
<rect width="160.333" height="199.5" fill="white" transform="translate(73.5825 47.75) rotate(7.17298)"/>
</clipPath>
<clipPath id="clip8_6136_10060">
<rect width="28.1667" height="24" fill="white" transform="translate(281.749 47.5234) rotate(140.72)"/>
</clipPath>
</defs>
</svg>
