<svg width="327" height="280" viewBox="0 0 327 280" fill="none" xmlns="http://www.w3.org/2000/svg">
<g clip-path="url(#clip0_6136_10062)">
<g clip-path="url(#clip1_6136_10062)">
<g clip-path="url(#clip2_6136_10062)">
<path d="M126.4 244.503C132.034 244.503 136.6 243.317 136.6 241.853C136.6 240.39 132.034 239.203 126.4 239.203C120.767 239.203 116.2 240.39 116.2 241.853C116.2 243.317 120.767 244.503 126.4 244.503Z" fill="#5B2448"/>
</g>
<g clip-path="url(#clip3_6136_10062)">
<path d="M231.489 220.812H183.634V209.667H231.489V220.812Z" fill="#FFCF2D"/>
<path d="M183.608 209.352H231.548V209.865H183.608V209.352Z" fill="#9B3C82"/>
<path d="M183.55 220.422H231.489V220.935H183.55V220.422Z" fill="#9B3C82"/>
<path d="M226.542 209.602H227.054V220.8H226.542V209.602Z" fill="#9B3C82"/>
<path d="M216.998 209.602H217.51V220.8H216.998V209.602Z" fill="#9B3C82"/>
<path d="M206.708 209.727H207.221V220.925H206.708V209.727Z" fill="#9B3C82"/>
<path d="M196.916 209.727H197.428V220.925H196.916V209.727Z" fill="#9B3C82"/>
<path d="M187.751 209.727H188.263V220.925H187.751V209.727Z" fill="#9B3C82"/>
<path d="M236.829 232.062H188.89V220.74H236.829V232.062Z" fill="#FFCF2D"/>
<path d="M188.948 220.422H236.887V220.935H188.948V220.422Z" fill="#9B3C82"/>
<path d="M188.89 231.5H236.829V232.013H188.89V231.5Z" fill="#9B3C82"/>
<path d="M231.882 220.68H232.394V231.878H231.882V220.68Z" fill="#9B3C82"/>
<path d="M222.337 220.68H222.849V231.878H222.337V220.68Z" fill="#9B3C82"/>
<path d="M212.048 220.805H212.56V232.003H212.048V220.805Z" fill="#9B3C82"/>
<path d="M202.255 220.805H202.767V232.003H202.255V220.805Z" fill="#9B3C82"/>
<path d="M193.091 220.805H193.603V232.003H193.091V220.805Z" fill="#9B3C82"/>
<path d="M227.639 242.945H179.756V231.813H227.639V242.945Z" fill="#FFCF2D"/>
<path d="M179.759 231.5H227.698V232.013H179.759V231.5Z" fill="#9B3C82"/>
<path d="M179.7 242.57H227.639V243.083H179.7V242.57Z" fill="#9B3C82"/>
<path d="M222.692 231.75H223.204V242.949H222.692V231.75Z" fill="#9B3C82"/>
<path d="M213.148 231.75H213.66V242.949H213.148V231.75Z" fill="#9B3C82"/>
<path d="M202.858 231.875H203.37V243.074H202.858V231.875Z" fill="#9B3C82"/>
<path d="M193.066 231.875H193.578V243.074H193.066V231.875Z" fill="#9B3C82"/>
<path d="M183.901 231.875H184.413V243.074H183.901V231.875Z" fill="#9B3C82"/>
<path d="M219.473 209.497C221.615 209.198 223.14 209.513 223.966 209.746C232.555 212.17 226.584 233.3 237.196 240.973C238.92 242.22 240.608 242.806 241.6 243.089C236.928 243.089 232.257 243.089 227.586 243.088C225.372 239.923 222.274 234.67 220.472 227.537C218.544 219.905 218.934 213.423 219.473 209.497Z" fill="#9B3C82"/>
<path d="M221.74 219.121L221.869 219.708C222.48 222.377 223.435 225.172 224.739 227.964C224.755 228.001 224.772 228.037 224.79 228.074C224.855 228.214 224.922 228.354 224.99 228.493C226.275 231.156 227.765 233.566 229.367 235.656C229.49 235.817 229.614 235.975 229.739 236.131C231.828 238.765 234.093 240.854 236.335 242.246C236.524 242.364 236.71 242.475 236.897 242.581C236.899 242.584 236.903 242.585 236.905 242.586C236.918 242.594 236.93 242.601 236.943 242.609C239.854 244.256 242.695 244.698 245.024 243.599L250.761 240.89L251.92 240.344L254.025 239.35C259.872 236.591 260.292 225.166 254.963 213.832C249.635 202.499 240.574 195.548 234.728 198.308L232.626 199.298L232.625 199.299L232.625 199.3L231.466 199.847L231.465 199.848L225.728 202.555C223.397 203.656 221.929 206.131 221.344 209.429C221.302 209.659 221.266 209.892 221.234 210.13C220.877 212.749 221.044 215.83 221.74 219.121Z" fill="#FFCF2D"/>
<path d="M229.328 207.373C229.209 209.818 229.458 212.465 230.052 215.193C230.093 215.388 230.138 215.584 230.184 215.779C230.82 218.499 231.791 221.288 233.072 224.027C233.088 224.064 233.105 224.1 233.123 224.137C233.189 224.277 233.256 224.418 233.323 224.557C234.584 227.171 236.06 229.589 237.684 231.728C237.804 231.888 237.927 232.047 238.05 232.204C239.772 234.399 241.65 236.279 243.608 237.743C243.909 237.969 244.21 238.183 244.51 238.384C244.703 238.515 244.896 238.64 245.088 238.761C247.057 239.993 248.976 240.708 250.761 240.887L251.919 240.34C251.721 240.348 251.523 240.347 251.322 240.339C245.493 240.105 238.202 233.563 233.652 223.886C228.946 213.877 228.689 203.734 232.625 199.297L231.466 199.843L231.465 199.845C230.465 201.337 229.794 203.275 229.488 205.582C229.458 205.807 229.431 206.035 229.409 206.268C229.373 206.628 229.346 206.997 229.328 207.373Z" fill="#9B3C82"/>
<path d="M224.617 228.016L233.306 223.914L233.555 224.445L224.866 228.546L224.617 228.016Z" fill="#9B3C82"/>
<path d="M236.334 242.243L244.51 238.384L244.944 238.18L245.194 238.711L245.088 238.761L236.942 242.606L236.334 242.243Z" fill="#9B3C82"/>
<path d="M229.367 235.66C229.49 235.821 229.613 235.978 229.738 236.135L238.051 232.211L238.134 232.171L237.883 231.641L237.684 231.735L229.367 235.66Z" fill="#9B3C82"/>
<path d="M221.344 209.432L229.489 205.589L229.594 205.539L229.843 206.07L229.41 206.275L221.234 210.134L221.344 209.432Z" fill="#9B3C82"/>
<path d="M221.74 219.12L230.052 215.195L230.135 215.156L230.385 215.688L230.184 215.782L221.869 219.707L221.74 219.12Z" fill="#9B3C82"/>
<path d="M232.201 208.628C232.224 212.883 233.513 217.939 235.829 222.865C238.145 227.79 241.216 232.006 244.476 234.733C246.776 236.657 248.989 237.687 250.921 237.764C251.776 237.798 252.577 237.646 253.307 237.302C255.682 236.181 256.976 233.177 256.952 228.844C256.93 224.589 255.641 219.533 253.325 214.606C251.008 209.681 247.938 205.466 244.679 202.74C241.359 199.962 238.222 199.049 235.848 200.17C233.473 201.291 232.178 204.295 232.201 208.628ZM236.097 200.701C236.741 200.397 237.452 200.262 238.216 200.293C240.013 200.365 242.104 201.349 244.303 203.19C247.499 205.862 250.515 210.007 252.795 214.858C255.076 219.707 256.344 224.675 256.367 228.847C256.389 232.938 255.214 235.753 253.057 236.771C250.9 237.789 247.985 236.905 244.85 234.282C241.655 231.609 238.64 227.465 236.359 222.615C234.078 217.764 232.809 212.796 232.787 208.625C232.764 204.533 233.941 201.719 236.097 200.701Z" fill="#9B3C82"/>
<path d="M245.96 231.796C245.878 231.895 245.737 231.931 245.614 231.875C245.467 231.807 245.402 231.633 245.47 231.486C247.872 226.231 250.048 220.921 248.037 218.77C246.688 217.327 245.289 218.038 243.807 218.792C242.46 219.477 241.066 220.186 239.89 218.928C238.4 217.333 237.782 213.628 243.3 205.033C243.387 204.896 243.569 204.858 243.705 204.945C243.841 205.033 243.88 205.214 243.793 205.351C239.646 211.808 238.412 216.488 240.318 218.527C241.151 219.418 242.086 219.009 243.542 218.269C245 217.527 246.815 216.604 248.465 218.369C250.723 220.786 248.487 226.295 246.002 231.73C245.991 231.755 245.977 231.777 245.96 231.796Z" fill="#9B3C82"/>
<path d="M240.809 210.225C240.784 210.256 240.752 210.281 240.714 210.3C240.569 210.372 240.394 210.312 240.322 210.167L238.303 206.08C238.231 205.935 238.29 205.758 238.435 205.687C238.58 205.615 238.756 205.674 238.827 205.82L240.847 209.907C240.9 210.014 240.881 210.139 240.809 210.225Z" fill="#9B3C82"/>
<path d="M250.451 231.577C250.425 231.608 250.393 231.634 250.354 231.653C250.209 231.724 250.034 231.663 249.963 231.518L247.827 227.125C247.756 226.979 247.816 226.804 247.961 226.733C248.107 226.662 248.282 226.722 248.353 226.868L250.489 231.26C250.541 231.368 250.522 231.491 250.451 231.577Z" fill="#9B3C82"/>
</g>
<g clip-path="url(#clip4_6136_10062)">
<path d="M198.187 182.84C195.184 180.772 182.089 171.982 174.328 172.786C172.818 172.942 169.938 172.54 168.625 175.437C168.076 176.652 168.675 178.006 168.781 178.252C170.324 182.003 176.781 182.586 183.14 183.078C186.733 183.366 191.902 183.521 198.187 182.84Z" fill="#5B2448"/>
<path d="M198.909 182.612C198.909 182.612 198.671 183.359 198.253 184.557C198.187 184.746 198.113 184.951 198.04 185.164C197.916 185.501 197.785 185.87 197.646 186.256C196.801 188.578 195.595 191.656 194.274 194.389C194.224 194.504 194.167 194.611 194.109 194.718L186.939 194.504L181.852 189.801C182.024 188.414 182.213 186.518 182.393 184.549C182.409 184.343 182.434 184.138 182.451 183.933C182.483 183.572 182.516 183.211 182.549 182.858C182.713 181.044 182.861 179.28 182.967 177.884L182.984 177.704C183.115 176.136 183.189 175.094 183.189 175.094L198.909 182.612Z" fill="#F4ADA2"/>
<path d="M197.646 186.254C196.801 188.577 195.595 191.654 194.274 194.388C194.224 194.502 194.167 194.609 194.109 194.716L186.939 194.502L181.852 189.8C182.024 188.413 182.213 186.517 182.393 184.547L197.646 186.254Z" fill="#66B0F0"/>
<path d="M196.841 188.396C192.837 187.953 185.486 187.14 182.171 186.828C182.138 187.14 182.106 187.444 182.081 187.731C185.306 188.035 192.444 188.823 196.497 189.266C196.62 188.97 196.735 188.683 196.841 188.396Z" fill="white"/>
<path d="M214.662 206.939C213.743 207.99 211.84 209.442 207.893 209.713C200.624 210.214 178.75 209.467 178.75 209.467C179.218 207.095 179.513 205.552 179.759 204.189C179.751 204.198 179.743 204.206 179.735 204.214C180.063 201.973 180.416 199.634 180.727 197.509C181.162 194.538 181.523 191.985 181.712 190.721C181.712 190.713 181.712 190.697 181.72 190.688C181.794 190.163 181.843 189.859 181.851 189.859C184.452 190.106 185.552 192.469 187.66 193.282C187.726 193.306 187.8 193.331 187.874 193.356C189.671 193.988 193.609 194.62 196.423 194.997C199.885 195.457 202.954 196.672 204.496 197.394C204.775 197.525 205.013 197.64 205.202 197.738C205.538 197.911 205.858 198.091 206.17 198.264C206.277 198.321 206.375 198.379 206.474 198.444C206.63 198.535 206.786 198.633 206.933 198.723C206.983 198.748 207.024 198.781 207.073 198.805C208.049 199.413 208.984 200.094 209.862 200.841C209.936 200.898 210.01 200.964 210.076 201.03C210.1 201.054 210.125 201.071 210.15 201.095C210.174 201.12 210.199 201.136 210.223 201.161C210.232 201.169 210.24 201.177 210.248 201.177C210.264 201.186 210.273 201.202 210.289 201.21C210.297 201.21 210.297 201.218 210.305 201.218C210.371 201.276 210.437 201.333 210.494 201.391L210.543 201.44C210.576 201.473 210.609 201.506 210.65 201.538L210.691 201.58C210.74 201.621 210.781 201.662 210.822 201.703C210.822 201.703 210.831 201.711 210.839 201.711L210.88 201.752L210.929 201.801C210.962 201.826 210.986 201.859 211.019 201.891L211.068 201.941C211.077 201.949 211.085 201.957 211.093 201.957L211.118 201.982C211.159 202.031 211.208 202.072 211.249 202.113L211.429 202.294C211.454 202.318 211.479 202.343 211.503 202.376C211.536 202.408 211.569 202.441 211.594 202.474C211.651 202.532 211.7 202.589 211.758 202.655C211.791 202.696 211.832 202.729 211.864 202.77C211.881 202.794 211.897 202.811 211.922 202.827C211.955 202.86 211.987 202.901 212.02 202.934C212.045 202.958 212.069 202.991 212.094 203.016C212.168 203.106 212.25 203.188 212.316 203.278C212.348 203.319 212.381 203.361 212.414 203.402C212.472 203.467 212.521 203.533 212.578 203.599L212.709 203.754L212.775 203.837C212.8 203.861 212.816 203.886 212.833 203.919C212.874 203.968 212.915 204.025 212.947 204.075C213.029 204.181 213.103 204.288 213.177 204.386C213.202 204.419 213.226 204.452 213.251 204.493C213.407 204.707 213.538 204.912 213.661 205.101C213.686 205.142 213.71 205.174 213.735 205.215C213.776 205.281 213.817 205.347 213.858 205.412C213.916 205.511 213.973 205.609 214.03 205.7L214.104 205.823C214.285 206.143 214.416 206.405 214.506 206.594C214.514 206.619 214.531 206.643 214.539 206.668C214.588 206.767 214.613 206.84 214.629 206.882C214.638 206.89 214.638 206.906 214.638 206.906C214.662 206.931 214.662 206.939 214.662 206.939Z" fill="white"/>
<path d="M213.899 205.462C207.565 209.795 200.255 207.317 196.661 205.741C193.559 204.386 192.493 206.036 189.966 205.183C187.849 204.469 187.209 202.934 184.51 202.564C182.885 202.343 180.768 203.344 179.767 204.189C179.759 204.198 179.751 204.206 179.743 204.214C180.071 201.973 180.424 199.634 180.735 197.509C181.17 194.538 181.531 191.985 181.72 190.721C181.72 190.713 181.72 190.697 181.728 190.688C181.802 190.163 181.851 189.859 181.86 189.859C184.46 190.106 185.56 192.469 187.668 193.282C187.734 193.306 187.808 193.331 187.882 193.356C189.679 193.988 193.617 194.62 196.431 194.997C199.894 195.457 202.962 196.672 204.505 197.394C204.784 197.525 205.021 197.64 205.21 197.738C205.547 197.911 205.867 198.091 206.178 198.264C206.285 198.321 206.383 198.379 206.482 198.444C206.638 198.535 206.794 198.633 206.941 198.723C206.991 198.748 207.032 198.781 207.081 198.805C208.057 199.413 208.993 200.094 209.87 200.841C209.944 200.898 210.018 200.964 210.084 201.03C210.108 201.054 210.133 201.071 210.158 201.095C210.182 201.12 210.207 201.136 210.232 201.161C210.24 201.169 210.248 201.177 210.256 201.177C210.273 201.186 210.281 201.202 210.297 201.21C210.305 201.21 210.305 201.218 210.314 201.218C210.33 201.235 210.346 201.251 210.363 201.259C210.412 201.3 210.453 201.342 210.502 201.391L210.551 201.44C210.584 201.473 210.617 201.506 210.658 201.539L210.699 201.58C210.748 201.621 210.789 201.662 210.83 201.703C210.83 201.703 210.839 201.711 210.847 201.711L210.888 201.752L210.937 201.801C210.97 201.826 210.995 201.859 211.027 201.891L211.077 201.941C211.085 201.949 211.093 201.957 211.101 201.957L211.126 201.982C211.167 202.031 211.216 202.072 211.257 202.113L211.438 202.294L211.47 202.326L211.511 202.367C211.544 202.4 211.577 202.433 211.602 202.466C211.643 202.507 211.676 202.548 211.708 202.581L211.766 202.638L211.79 202.663C211.815 202.696 211.84 202.72 211.872 202.753C211.889 202.778 211.905 202.794 211.93 202.811C211.963 202.843 211.996 202.885 212.028 202.917C212.053 202.942 212.078 202.975 212.102 202.999C212.176 203.09 212.258 203.172 212.324 203.262C212.357 203.303 212.389 203.344 212.422 203.385C212.48 203.451 212.529 203.516 212.586 203.582L212.718 203.738L212.783 203.82C212.808 203.845 212.824 203.869 212.841 203.902C212.882 203.951 212.923 204.009 212.955 204.058C213.038 204.165 213.111 204.272 213.185 204.37C213.21 204.403 213.234 204.436 213.259 204.477C213.415 204.69 213.546 204.895 213.669 205.084C213.694 205.125 213.719 205.158 213.743 205.199C213.784 205.265 213.825 205.33 213.866 205.396C213.883 205.437 213.891 205.445 213.899 205.462Z" fill="#5B2448"/>
<path d="M180.76 199.742C180.645 199.742 180.58 199.733 180.563 199.733C180.416 199.717 180.309 199.577 180.325 199.43C180.342 199.282 180.481 199.175 180.629 199.192C180.645 199.192 182.311 199.356 184.428 197.919C184.895 197.599 185.281 197.312 185.617 197.058C186.93 196.081 187.652 195.539 190.253 195.244C190.401 195.227 190.54 195.334 190.557 195.482C190.573 195.63 190.466 195.769 190.319 195.786C190.319 195.786 190.319 195.786 190.311 195.786C187.857 196.065 187.217 196.541 185.937 197.493C185.593 197.747 185.207 198.043 184.731 198.363C182.844 199.651 181.294 199.75 180.76 199.742Z" fill="white"/>
<path d="M205.489 208.109C205.071 208.1 204.652 208.076 204.226 208.043C201.822 207.829 199.245 207.124 196.562 205.95C194.856 205.203 193.74 205.343 192.657 205.474C191.828 205.572 190.975 205.679 189.933 205.351C188.948 205.047 188.333 204.571 187.734 204.103C186.988 203.529 186.282 202.987 184.887 202.749C182.5 202.339 179.972 204.12 179.948 204.136C179.841 204.21 179.702 204.185 179.628 204.087C179.554 203.98 179.579 203.841 179.677 203.767C179.784 203.685 182.385 201.854 184.961 202.306C186.471 202.569 187.25 203.168 188.005 203.75C188.596 204.21 189.154 204.637 190.056 204.916C191.008 205.211 191.771 205.121 192.583 205.023C193.674 204.891 194.905 204.735 196.727 205.531C199.36 206.689 201.896 207.378 204.242 207.583C207.828 207.903 211.019 207.124 213.735 205.269C213.842 205.203 213.981 205.228 214.055 205.334C214.129 205.441 214.096 205.581 213.989 205.655C211.536 207.345 208.673 208.166 205.489 208.109Z" fill="#5B2448"/>
<path d="M184.321 208.302C183.525 208.286 182.77 208.089 182.204 207.744C181.597 207.375 181.26 206.874 181.269 206.341C181.277 205.807 181.621 205.323 182.245 204.97C182.828 204.642 183.591 204.461 184.403 204.478H184.428C185.223 204.494 185.978 204.691 186.544 205.036C187.151 205.405 187.488 205.906 187.48 206.439C187.471 206.973 187.127 207.457 186.503 207.81C185.921 208.138 185.158 208.319 184.345 208.302H184.321ZM184.419 204.937H184.395C183.664 204.929 182.983 205.085 182.475 205.372C181.999 205.643 181.736 205.988 181.736 206.357C181.728 206.718 181.983 207.079 182.45 207.358C182.951 207.662 183.615 207.834 184.337 207.843H184.362C185.092 207.851 185.773 207.695 186.282 207.408C186.758 207.137 187.02 206.792 187.02 206.423C187.028 206.062 186.774 205.7 186.306 205.421C185.806 205.126 185.141 204.954 184.419 204.937Z" fill="#5B2448"/>
<path d="M190.852 210.012C184.428 209.889 178.849 209.7 178.742 209.692C178.619 209.683 178.512 209.585 178.52 209.454C178.52 209.445 178.52 209.429 178.529 209.421C179.013 206.95 179.3 205.49 179.538 204.152C179.989 201.657 180.252 199.687 180.974 194.426C181.121 193.334 181.294 192.103 181.482 190.692C181.482 190.683 181.482 190.667 181.491 190.651L181.573 190.068C181.589 189.945 181.712 189.854 181.835 189.879C181.958 189.895 182.04 190.01 182.032 190.133L181.95 190.716V190.733V190.741C181.753 192.161 181.589 193.392 181.441 194.483C180.728 199.753 180.457 201.722 180.006 204.226C179.776 205.522 179.497 206.926 179.046 209.24C181.581 209.322 201.157 209.946 207.893 209.478C211.52 209.224 213.44 207.952 214.416 206.885C214.4 206.852 214.383 206.811 214.367 206.77C214.359 206.745 214.351 206.729 214.334 206.704C214.219 206.466 214.088 206.204 213.94 205.941C213.916 205.9 213.891 205.859 213.866 205.818C213.809 205.728 213.76 205.629 213.694 205.531C213.653 205.465 213.62 205.407 213.571 205.342C213.547 205.301 213.522 205.268 213.497 205.227C213.366 205.022 213.227 204.817 213.087 204.62C213.062 204.587 213.038 204.554 213.013 204.521C212.931 204.406 212.857 204.308 212.783 204.209C212.726 204.135 212.669 204.053 212.603 203.979L212.537 203.897C212.505 203.856 212.48 203.823 212.447 203.782L212.414 203.741C212.365 203.676 212.308 203.61 212.258 203.544L212.234 203.512C212.209 203.487 212.185 203.454 212.168 203.429C212.094 203.339 212.02 203.257 211.947 203.167C211.922 203.142 211.897 203.109 211.873 203.085L211.865 203.077C211.832 203.044 211.807 203.003 211.774 202.97C211.758 202.945 211.733 202.929 211.717 202.904L211.618 202.797C211.569 202.74 211.512 202.683 211.454 202.625L211.413 202.584C211.397 202.568 211.38 202.551 211.364 202.527C211.339 202.494 211.315 202.469 211.29 202.445C211.233 202.379 211.167 202.321 211.11 202.264L211.101 202.256C211.044 202.198 210.995 202.141 210.937 202.092C210.888 202.042 210.847 202.001 210.798 201.952L210.749 201.903C210.691 201.845 210.626 201.788 210.56 201.722C210.544 201.706 210.527 201.698 210.519 201.681C210.462 201.632 210.412 201.583 210.363 201.534L210.347 201.517C210.289 201.468 210.232 201.41 210.174 201.361L210.166 201.353C210.117 201.312 210.076 201.271 210.027 201.23C210.002 201.205 209.977 201.189 209.953 201.164C209.879 201.099 209.813 201.041 209.74 200.975C208.87 200.237 207.943 199.564 206.975 198.956C206.933 198.932 206.901 198.907 206.868 198.891L206.843 198.874C206.696 198.784 206.54 198.686 206.384 198.595C206.285 198.538 206.187 198.48 206.08 198.415C205.744 198.226 205.432 198.054 205.12 197.889C204.899 197.775 204.669 197.66 204.423 197.553C203.02 196.913 200.55 196.035 196.76 195.493C196.637 195.476 196.546 195.362 196.563 195.23C196.579 195.107 196.694 195.017 196.825 195.033C200.665 195.575 203.184 196.47 204.612 197.126C204.866 197.241 205.104 197.356 205.325 197.479C205.637 197.643 205.957 197.816 206.302 198.013C206.408 198.07 206.507 198.136 206.605 198.193C206.769 198.292 206.925 198.382 207.073 198.48L207.098 198.497C207.139 198.521 207.18 198.546 207.221 198.571C208.205 199.186 209.149 199.876 210.035 200.623C210.109 200.68 210.183 200.746 210.256 200.811C210.281 200.836 210.306 200.861 210.338 200.885C210.379 200.918 210.429 200.959 210.47 201L210.478 201.008C210.544 201.066 210.601 201.115 210.658 201.172L210.675 201.189C210.732 201.238 210.782 201.287 210.831 201.337C210.847 201.345 210.855 201.361 210.872 201.378C210.937 201.435 211.003 201.501 211.069 201.558L211.118 201.607L211.257 201.747L211.43 201.919L211.438 201.928C211.504 201.993 211.561 202.051 211.618 202.116C211.643 202.141 211.668 202.174 211.7 202.198L211.758 202.256L211.791 202.297C211.848 202.354 211.906 202.42 211.963 202.477L212.07 202.592C212.086 202.617 212.102 202.633 212.127 202.65C212.16 202.691 212.193 202.724 212.226 202.765C212.25 202.798 212.275 202.822 212.299 202.855C212.373 202.945 212.455 203.027 212.521 203.118C212.546 203.142 212.57 203.175 212.595 203.208L212.619 203.241C212.677 203.306 212.734 203.372 212.783 203.446L212.816 203.487C212.849 203.528 212.882 203.569 212.915 203.602L212.98 203.684C213.046 203.766 213.103 203.84 213.161 203.922C213.235 204.02 213.317 204.127 213.399 204.242C213.423 204.275 213.448 204.316 213.473 204.349C213.612 204.546 213.76 204.759 213.891 204.964L213.965 205.087C214.006 205.153 214.047 205.219 214.088 205.284C214.154 205.383 214.211 205.481 214.26 205.58C214.285 205.621 214.31 205.662 214.334 205.711C214.49 205.982 214.63 206.253 214.744 206.499C214.753 206.524 214.769 206.548 214.777 206.573C214.826 206.68 214.859 206.753 214.876 206.803V206.811C214.876 206.819 214.884 206.827 214.884 206.827V206.836C214.933 206.918 214.917 207.016 214.843 207.082C213.021 209.175 210.068 209.79 207.918 209.938C204.333 210.192 197.186 210.135 190.852 210.012Z" fill="#5B2448"/>
<path d="M194.24 201.076C193.863 201.068 193.559 200.756 193.568 200.37C193.568 200.28 193.592 200.19 193.625 200.107C193.699 199.952 195.397 196.201 199.828 194.74C200.189 194.617 200.574 194.814 200.697 195.175C200.821 195.536 200.624 195.922 200.263 196.045H200.254C196.423 197.309 194.889 200.633 194.88 200.666C194.765 200.92 194.511 201.076 194.24 201.076Z" fill="#FFCF2D"/>
<path d="M197.482 202.184C197.104 202.176 196.801 201.864 196.809 201.478C196.809 201.38 196.833 201.289 196.874 201.207C196.948 201.043 198.745 197.251 203.299 196.012C203.668 195.905 204.045 196.119 204.152 196.48C204.259 196.841 204.045 197.227 203.684 197.333C203.676 197.333 203.668 197.333 203.668 197.342C199.754 198.408 198.146 201.757 198.13 201.79C198.007 202.036 197.752 202.192 197.482 202.184Z" fill="#FFCF2D"/>
<path d="M201.214 203.035C200.837 203.027 200.533 202.715 200.542 202.329C200.542 202.23 200.566 202.132 200.607 202.042C200.673 201.902 202.33 198.611 206.482 197.536C206.851 197.446 207.229 197.667 207.319 198.028C207.409 198.398 207.196 198.767 206.827 198.865C203.307 199.776 201.854 202.616 201.838 202.649C201.723 202.895 201.477 203.043 201.214 203.035Z" fill="#FFCF2D"/>
<path d="M182.729 180.727C183.919 181.105 185.199 181.449 186.561 181.736C191.23 182.746 195.455 182.844 198.917 182.606C193.642 180.464 188.374 178.322 183.099 176.172C182.967 177.69 182.853 179.209 182.729 180.727Z" fill="#9B3C82"/>
<path d="M153.299 215.072C149.672 211.625 122.334 199.511 122.769 209.335C123.048 215.564 141.64 219.331 153.299 215.072Z" fill="#5B2448"/>
<path d="M153.988 214.744C153.627 217.116 153.233 219.521 152.815 221.958C152.413 224.281 152.003 226.563 151.576 228.811C148.86 228.795 146.153 228.779 143.437 228.762L137.899 224.601C137.972 220.612 137.833 213.628 137.743 209.836C143.166 211.469 148.581 213.102 153.988 214.744Z" fill="#F4ADA2"/>
<path d="M153.258 219.46C153.159 220.043 153.061 220.626 152.962 221.208C152.913 221.512 152.856 221.816 152.806 222.119C152.421 224.335 152.011 226.568 151.576 228.8C151.527 229.063 151.477 229.326 151.42 229.596C148.762 229.317 146.095 229.03 143.437 228.751L137.898 224.59C137.915 223.876 137.923 223.03 137.923 222.111C137.923 221.816 137.923 221.512 137.923 221.2C137.923 220.593 137.915 219.953 137.915 219.312L153.258 219.46Z" fill="#66B0F0"/>
<path d="M152.963 221.212C152.913 221.516 152.856 221.819 152.807 222.123C148.606 222.106 141.558 222.082 137.923 222.115C137.923 221.819 137.923 221.516 137.923 221.204C141.607 221.171 148.778 221.195 152.963 221.212Z" fill="white"/>
<path d="M170.644 240.038C169.741 241.089 167.862 242.542 163.948 242.837C156.745 243.387 135.06 242.788 135.06 242.788C135.503 240.441 135.79 238.906 136.028 237.552C136.02 237.56 136.011 237.568 136.003 237.576C136.315 235.352 136.643 233.029 136.938 230.92C137.349 227.974 137.693 225.437 137.866 224.182C137.866 224.173 137.866 224.157 137.874 224.149C137.948 223.624 137.989 223.328 137.997 223.328C140.581 223.55 141.681 225.889 143.781 226.677C143.847 226.701 143.921 226.726 143.986 226.751C145.775 227.358 149.68 227.965 152.478 228.318C155.916 228.753 158.96 229.935 160.502 230.633C160.781 230.756 161.019 230.871 161.208 230.969C161.536 231.142 161.864 231.314 162.176 231.486C162.283 231.544 162.381 231.601 162.48 231.659C162.636 231.749 162.792 231.839 162.939 231.938C162.989 231.962 163.03 231.995 163.079 232.02C164.055 232.619 164.982 233.284 165.86 234.014C165.934 234.072 166.008 234.137 166.073 234.195C166.098 234.219 166.123 234.236 166.147 234.26C166.172 234.285 166.197 234.301 166.221 234.326C166.229 234.334 166.238 234.342 166.246 234.342C166.262 234.351 166.27 234.367 166.287 234.375C166.295 234.375 166.295 234.384 166.303 234.384C166.369 234.441 166.435 234.498 166.492 234.556C166.508 234.572 166.525 234.589 166.541 234.605C166.574 234.638 166.607 234.671 166.648 234.704C166.664 234.72 166.672 234.728 166.689 234.745C166.738 234.786 166.779 234.827 166.82 234.868C166.82 234.868 166.828 234.876 166.837 234.876L166.878 234.917C166.894 234.933 166.91 234.95 166.927 234.966C166.96 234.991 166.984 235.024 167.017 235.057L167.066 235.106C167.074 235.114 167.083 235.122 167.091 235.122C167.099 235.122 167.107 235.139 167.116 235.147L167.247 235.278C167.304 235.336 167.37 235.401 167.427 235.459C167.452 235.483 167.477 235.508 167.501 235.541C167.534 235.574 167.567 235.606 167.591 235.639C167.649 235.697 167.698 235.754 167.755 235.812C167.788 235.853 167.829 235.885 167.862 235.926C167.879 235.943 167.895 235.968 167.92 235.984C167.952 236.017 167.985 236.058 168.018 236.091C168.043 236.115 168.067 236.148 168.092 236.173C168.166 236.263 168.248 236.345 168.313 236.427C168.346 236.468 168.379 236.509 168.412 236.542C168.469 236.608 168.519 236.673 168.576 236.739L168.707 236.895L168.773 236.977C168.797 237.002 168.814 237.026 168.83 237.051C168.871 237.1 168.912 237.149 168.945 237.207C169.027 237.314 169.101 237.412 169.175 237.519C169.2 237.552 169.224 237.584 169.249 237.617C169.405 237.831 169.536 238.028 169.659 238.216C169.684 238.257 169.708 238.29 169.733 238.331L169.856 238.528C169.913 238.627 169.971 238.725 170.028 238.815C170.053 238.857 170.077 238.898 170.102 238.939C170.283 239.259 170.414 239.521 170.504 239.702C170.512 239.726 170.529 239.751 170.537 239.776C170.586 239.874 170.611 239.948 170.627 239.989C170.635 239.997 170.635 240.014 170.635 240.014C170.635 240.03 170.644 240.038 170.644 240.038Z" fill="white"/>
<path d="M169.873 238.577C163.621 242.919 156.359 240.506 152.79 238.971C149.705 237.65 148.663 239.3 146.144 238.463C144.044 237.765 143.396 236.255 140.713 235.91C139.105 235.705 137.004 236.706 136.028 237.552C136.02 237.56 136.012 237.568 136.003 237.576C136.315 235.352 136.643 233.029 136.939 230.92C137.349 227.974 137.694 225.437 137.866 224.182C137.866 224.173 137.866 224.157 137.874 224.149C137.948 223.624 137.989 223.328 137.997 223.328C140.582 223.55 141.681 225.889 143.782 226.677C143.847 226.701 143.921 226.726 143.987 226.751C145.775 227.358 149.681 227.965 152.479 228.318C155.916 228.753 158.96 229.935 160.503 230.633C160.782 230.756 161.02 230.871 161.208 230.969C161.537 231.142 161.865 231.314 162.177 231.486C162.283 231.544 162.382 231.601 162.48 231.659C162.636 231.749 162.792 231.839 162.94 231.938C162.989 231.962 163.03 231.995 163.079 232.02C164.055 232.619 164.983 233.284 165.86 234.014C165.934 234.072 166.008 234.137 166.074 234.195C166.098 234.219 166.123 234.236 166.148 234.26C166.172 234.285 166.197 234.301 166.221 234.326C166.23 234.334 166.238 234.342 166.246 234.342C166.263 234.351 166.271 234.367 166.287 234.375C166.295 234.375 166.295 234.384 166.304 234.384C166.32 234.4 166.336 234.416 166.353 234.425C166.402 234.466 166.443 234.507 166.492 234.548C166.509 234.564 166.525 234.58 166.541 234.597C166.574 234.63 166.607 234.663 166.648 234.695C166.665 234.712 166.673 234.72 166.689 234.736C166.738 234.777 166.779 234.818 166.82 234.86C166.82 234.86 166.829 234.868 166.837 234.868L166.878 234.909C166.894 234.925 166.911 234.942 166.927 234.958C166.96 234.983 166.985 235.015 167.017 235.048C167.034 235.065 167.05 235.081 167.067 235.098C167.075 235.106 167.083 235.114 167.091 235.114C167.099 235.122 167.108 235.13 167.116 235.139L167.247 235.27C167.305 235.327 167.37 235.393 167.428 235.45L167.46 235.483C167.477 235.5 167.485 235.508 167.501 235.524C167.534 235.557 167.567 235.59 167.592 235.623C167.633 235.664 167.666 235.697 167.698 235.738L167.756 235.795L167.78 235.82C167.805 235.853 167.83 235.877 167.862 235.902C167.879 235.918 167.895 235.943 167.92 235.959C167.953 235.992 167.986 236.033 168.018 236.066C168.043 236.091 168.068 236.123 168.092 236.148C168.166 236.238 168.248 236.32 168.314 236.403C168.347 236.444 168.379 236.485 168.412 236.517C168.47 236.583 168.519 236.649 168.576 236.714L168.708 236.87L168.773 236.952C168.798 236.977 168.814 237.002 168.831 237.026C168.872 237.076 168.913 237.125 168.945 237.182C169.028 237.289 169.101 237.387 169.175 237.494C169.2 237.527 169.224 237.56 169.249 237.593C169.405 237.806 169.536 238.003 169.659 238.192C169.684 238.233 169.708 238.266 169.733 238.307C169.774 238.372 169.815 238.438 169.856 238.504C169.856 238.553 169.864 238.561 169.873 238.577Z" fill="#5B2448"/>
<path d="M136.988 233.126C136.873 233.126 136.807 233.118 136.791 233.118C136.643 233.101 136.537 232.962 136.553 232.814C136.569 232.666 136.701 232.56 136.848 232.576C136.865 232.576 138.514 232.732 140.606 231.288C141.066 230.967 141.443 230.68 141.779 230.426C143.076 229.449 143.781 228.907 146.366 228.596C146.513 228.579 146.653 228.678 146.669 228.834C146.686 228.981 146.587 229.121 146.431 229.137C146.431 229.137 146.431 229.137 146.423 229.137C143.986 229.433 143.363 229.909 142.099 230.861C141.763 231.115 141.377 231.411 140.91 231.731C139.055 233.028 137.513 233.134 136.988 233.126Z" fill="white"/>
<path d="M161.553 241.264C161.143 241.256 160.724 241.24 160.306 241.207C157.918 241.01 155.358 240.329 152.692 239.188C150.994 238.457 149.894 238.605 148.819 238.745C147.999 238.851 147.154 238.958 146.12 238.646C145.144 238.351 144.528 237.883 143.929 237.431C143.183 236.865 142.485 236.332 141.099 236.102C138.727 235.708 136.233 237.489 136.209 237.505C136.11 237.579 135.962 237.554 135.889 237.456C135.815 237.358 135.839 237.21 135.938 237.136C136.045 237.054 138.613 235.224 141.172 235.65C142.666 235.897 143.445 236.488 144.2 237.062C144.791 237.513 145.349 237.932 146.243 238.211C147.187 238.498 147.95 238.4 148.754 238.293C149.828 238.154 151.051 237.998 152.864 238.769C155.482 239.894 158 240.567 160.331 240.755C163.883 241.051 167.05 240.255 169.725 238.392C169.832 238.326 169.971 238.351 170.037 238.457C170.102 238.564 170.078 238.704 169.971 238.769C167.543 240.468 164.712 241.305 161.553 241.264Z" fill="#5B2448"/>
<path d="M140.573 241.589C139.786 241.58 139.039 241.392 138.473 241.055C137.866 240.694 137.53 240.202 137.538 239.676C137.538 239.143 137.882 238.659 138.498 238.306C139.072 237.977 139.827 237.797 140.631 237.805H140.656C141.443 237.813 142.19 238.002 142.756 238.338C143.363 238.7 143.7 239.192 143.691 239.717C143.691 240.251 143.347 240.735 142.731 241.088C142.157 241.416 141.402 241.597 140.598 241.589H140.573ZM140.647 238.256H140.623C139.901 238.248 139.228 238.412 138.719 238.7C138.252 238.97 137.989 239.315 137.989 239.676C137.989 240.037 138.243 240.39 138.703 240.661C139.195 240.957 139.86 241.121 140.573 241.129H140.598C141.32 241.137 141.993 240.973 142.502 240.686C142.969 240.415 143.232 240.07 143.232 239.709C143.232 239.348 142.977 238.995 142.518 238.724C142.026 238.429 141.361 238.265 140.647 238.256Z" fill="#5B2448"/>
<path d="M147.063 243.25C140.688 243.168 135.166 243.021 135.052 243.021C134.929 243.021 134.83 242.914 134.83 242.791C134.83 242.783 134.83 242.766 134.83 242.758C135.298 240.304 135.569 238.851 135.798 237.522C136.225 235.043 136.479 233.09 137.152 227.87C137.291 226.786 137.447 225.563 137.636 224.16C137.636 224.152 137.636 224.135 137.644 224.119L137.718 223.544C137.735 223.421 137.849 223.331 137.972 223.356C138.096 223.372 138.178 223.487 138.169 223.61L138.096 224.193V224.209V224.217C137.915 225.621 137.751 226.852 137.611 227.935C136.939 233.163 136.684 235.117 136.249 237.604C136.028 238.884 135.765 240.287 135.331 242.586C137.841 242.651 157.254 243.135 163.932 242.627C167.526 242.356 169.413 241.075 170.381 240.008C170.365 239.976 170.348 239.935 170.332 239.894C170.324 239.869 170.316 239.852 170.299 239.828C170.184 239.59 170.053 239.335 169.905 239.073C169.881 239.032 169.856 238.991 169.832 238.95C169.774 238.859 169.725 238.769 169.659 238.671C169.618 238.605 169.585 238.548 169.536 238.482C169.512 238.441 169.487 238.408 169.462 238.367C169.331 238.162 169.192 237.965 169.052 237.768C169.027 237.735 169.003 237.702 168.978 237.669C168.896 237.554 168.822 237.456 168.748 237.357C168.691 237.284 168.634 237.21 168.568 237.128L168.502 237.046C168.47 237.013 168.445 236.972 168.412 236.931L168.379 236.89C168.33 236.824 168.273 236.758 168.223 236.701L168.199 236.668C168.174 236.643 168.15 236.611 168.133 236.586C168.059 236.504 167.985 236.414 167.912 236.332C167.887 236.307 167.862 236.282 167.838 236.249L167.83 236.241C167.797 236.208 167.772 236.176 167.739 236.135C167.723 236.118 167.698 236.094 167.682 236.069L167.583 235.962C167.534 235.905 167.477 235.847 167.419 235.79L167.378 235.749C167.362 235.732 167.345 235.716 167.329 235.691C167.304 235.659 167.28 235.634 167.255 235.617C167.198 235.552 167.132 235.494 167.075 235.437L167.067 235.429C167.009 235.371 166.96 235.322 166.902 235.265C166.853 235.215 166.812 235.174 166.763 235.133L166.714 235.084C166.656 235.027 166.591 234.969 166.525 234.912C166.509 234.895 166.492 234.887 166.484 234.871C166.427 234.821 166.377 234.772 166.328 234.731L166.312 234.715C166.254 234.665 166.197 234.608 166.139 234.559L166.131 234.551C166.082 234.509 166.041 234.468 166 234.436C165.975 234.411 165.951 234.395 165.926 234.37C165.852 234.304 165.787 234.247 165.713 234.189C164.843 233.467 163.924 232.802 162.956 232.211C162.915 232.187 162.882 232.162 162.849 232.146L162.825 232.129C162.677 232.039 162.529 231.949 162.365 231.858C162.267 231.801 162.168 231.744 162.062 231.686C161.725 231.497 161.413 231.333 161.11 231.177C160.888 231.062 160.659 230.956 160.421 230.849C159.026 230.225 156.564 229.372 152.807 228.863C152.684 228.846 152.593 228.731 152.61 228.608C152.626 228.485 152.741 228.395 152.864 228.411C156.679 228.928 159.174 229.798 160.601 230.439C160.847 230.554 161.093 230.668 161.315 230.783C161.627 230.939 161.947 231.112 162.283 231.309C162.39 231.366 162.488 231.423 162.587 231.481C162.751 231.579 162.907 231.67 163.054 231.76L163.079 231.776L163.202 231.85C164.187 232.458 165.122 233.131 166 233.861C166.074 233.919 166.148 233.984 166.221 234.042C166.246 234.066 166.271 234.083 166.303 234.107C166.344 234.14 166.394 234.181 166.435 234.222L166.443 234.23C166.509 234.288 166.566 234.337 166.623 234.395L166.64 234.411C166.697 234.46 166.747 234.509 166.796 234.559C166.812 234.567 166.82 234.583 166.837 234.6C166.902 234.657 166.968 234.715 167.025 234.78L167.075 234.83L167.214 234.969C167.272 235.027 167.329 235.076 167.386 235.133L167.395 235.141C167.46 235.207 167.518 235.265 167.575 235.322C167.6 235.347 167.624 235.371 167.657 235.404L167.715 235.462L167.748 235.494C167.805 235.552 167.862 235.617 167.92 235.675L168.026 235.79C168.043 235.814 168.067 235.831 168.084 235.847C168.117 235.88 168.15 235.921 168.182 235.954C168.207 235.987 168.232 236.011 168.256 236.044C168.33 236.126 168.412 236.217 168.478 236.299C168.502 236.323 168.527 236.356 168.552 236.381L168.576 236.414C168.634 236.479 168.691 236.545 168.74 236.611L168.773 236.652C168.806 236.693 168.839 236.725 168.872 236.767L168.937 236.849C169.003 236.922 169.06 237.005 169.118 237.078C169.192 237.177 169.274 237.284 169.356 237.39C169.38 237.423 169.405 237.456 169.429 237.497C169.569 237.694 169.717 237.899 169.848 238.104C169.873 238.145 169.897 238.178 169.922 238.219C169.963 238.285 170.004 238.351 170.045 238.416C170.11 238.515 170.168 238.613 170.217 238.703C170.242 238.744 170.266 238.786 170.291 238.827C170.447 239.097 170.586 239.36 170.701 239.606C170.709 239.631 170.726 239.656 170.734 239.68C170.783 239.787 170.816 239.861 170.832 239.902V239.91C170.832 239.918 170.841 239.926 170.841 239.926V239.935C170.89 240.017 170.874 240.115 170.808 240.181C169.019 242.265 166.098 242.897 163.957 243.062C160.429 243.332 153.332 243.324 147.063 243.25Z" fill="#5B2448"/>
<path d="M150.354 234.365C149.976 234.357 149.673 234.053 149.681 233.676C149.681 233.585 149.697 233.495 149.738 233.413C149.804 233.257 151.469 229.531 155.851 228.045C156.204 227.922 156.597 228.111 156.72 228.464C156.844 228.817 156.655 229.211 156.302 229.334H156.294C152.503 230.614 151.01 233.922 150.994 233.955C150.879 234.209 150.633 234.365 150.354 234.365Z" fill="#FFCF2D"/>
<path d="M153.578 235.442C153.2 235.433 152.897 235.13 152.905 234.752C152.905 234.662 152.93 234.563 152.962 234.481C153.036 234.317 154.792 230.542 159.296 229.286C159.657 229.179 160.035 229.385 160.142 229.746C160.248 230.107 160.043 230.484 159.682 230.591C159.674 230.591 159.666 230.591 159.666 230.599C155.793 231.683 154.218 235.015 154.21 235.048C154.095 235.294 153.848 235.45 153.578 235.442Z" fill="#FFCF2D"/>
<path d="M157.278 236.264C156.901 236.256 156.597 235.952 156.606 235.574C156.606 235.476 156.63 235.377 156.671 235.287C156.737 235.148 158.353 231.873 162.464 230.781C162.825 230.683 163.202 230.904 163.301 231.265C163.399 231.627 163.178 231.996 162.817 232.094C159.33 233.022 157.91 235.853 157.902 235.878C157.787 236.116 157.549 236.264 157.278 236.264Z" fill="#FFCF2D"/>
<path d="M137.874 214.826C139.498 215.244 141.287 215.622 143.223 215.909C147.203 216.492 150.772 216.533 153.766 216.344C148.417 214.177 143.076 212.011 137.726 209.844C137.775 211.502 137.825 213.168 137.874 214.826Z" fill="#9B3C82"/>
<path d="M189.958 78.9766C188.358 80.0435 170.824 91.8704 173.343 98.4855C173.819 99.7495 175.083 100.956 176.519 101.087C181.384 101.522 186.471 89.3507 189.958 78.9766Z" fill="#5B2448"/>
<path d="M207.869 98.2005C207.139 103.445 201.912 107.82 201.297 108.32C196.792 111.981 194.068 113.811 186.126 118.292C183.214 119.934 180.326 120.672 178.972 121.69C179.046 122.232 179.128 123.061 179.046 124.062C178.89 126.056 178.258 126.82 178.709 127.32C179.415 128.092 181.302 126.894 182.401 127.944C182.524 128.059 182.844 128.371 182.812 128.732C182.713 129.783 179.718 130.579 177.364 130.521C176.551 130.505 173.179 130.423 170.906 127.952C168.519 125.367 168.232 121.6 168.429 119.507C169.019 113.122 173.778 108.813 178.086 104.184C180.703 101.369 181.384 100.696 183.14 99.3495C183.263 99.2593 183.386 99.1608 183.525 99.0623C183.32 99.0048 183.123 98.9556 182.918 98.8981C178.529 97.6588 174.919 96.0009 170.447 94.8026C174.279 88.7784 179.981 80.7352 183.813 74.7109C199.705 82.7378 208.993 90.1162 207.869 98.2005Z" fill="#F4ADA2"/>
<path d="M190.458 78.6172C187.168 82.2941 183.689 86.9067 180.637 92.5616C179.743 94.2112 178.955 95.8281 178.25 97.4039C176.157 96.7309 174.057 96.0579 171.965 95.3767C178.135 89.7957 184.297 84.2064 190.458 78.6172Z" fill="#9B3C82"/>
<path d="M95.8984 85.5565C111.766 100.256 117.649 102.603 119.668 101.093C121.571 99.665 120.316 94.5928 118.511 91.5561C114.786 85.2938 105.58 82.4459 95.8984 85.5565Z" fill="#5B2448"/>
<path d="M131.917 109.812C131.113 111.339 129.907 113.818 128.8 116.986C121.407 138.038 129.817 152.672 129.464 172.763C129.317 181.159 129.251 188.735 122.777 208.039C123.245 207.349 123.516 206.725 124.73 206.159C128.849 204.247 131.794 207.998 138.104 211.174C141.656 212.963 146.842 215.081 153.791 216.312C156.638 202.794 157.721 191.673 158.181 183.95C158.673 175.578 158.673 168.134 158.484 154.091C158.361 144.883 158.197 137.381 158.082 132.522C159.362 131.521 161.315 129.674 162.587 126.777C165.467 120.244 162.423 113.949 161.922 112.94C151.921 111.905 141.919 110.855 131.917 109.812Z" fill="#21A0AA"/>
<path d="M202.921 169.285C201.649 174.866 200.115 179.413 198.909 182.605C197.539 182.663 194.995 182.663 191.976 181.957C182.253 179.684 175.041 171.493 170.521 173.577C170.11 173.766 169.405 174.168 168.715 175.096C169.946 173.118 171.924 169.818 173.195 167.512C176.666 161.225 177.888 158.623 180.563 151.762C180.555 151.762 180.539 151.754 180.53 151.754C180.374 151.696 180.21 151.647 180.054 151.59C177.142 150.588 173.901 149.669 170.348 148.939C160.954 147.002 152.634 147.076 146.218 147.708C145.923 143.169 145.045 124.029 155.424 118.309C156.023 117.98 156.671 117.685 157.36 117.447C159.239 116.823 161.856 116.56 166.115 117.439C170.955 118.44 201.871 127.123 205.12 142.364C206.728 149.874 205.743 156.941 202.921 169.285Z" fill="#21A0AA"/>
<path d="M190.745 78.4002C186.791 82.2002 183.509 85.7458 180.85 88.8072C173.483 97.2936 174.812 99.7558 175.14 100.298C175.361 100.659 175.657 100.888 175.862 101.02C175.567 100.856 172.957 99.4029 170.644 98.2293C170.447 98.1308 170.242 98.0241 170.053 97.9338C170.012 97.9092 169.971 97.8927 169.93 97.8681C169.758 97.7861 169.594 97.704 169.438 97.6301C168.355 97.1048 167.378 96.6698 167.378 96.6698C166.705 96.3662 166.041 96.0871 165.393 95.8245C165.393 95.8245 158.919 90.7769 155.457 78.0144C155.104 76.7177 154.784 75.347 154.505 73.8943C154.464 73.6973 154.423 73.4757 154.398 73.2295C154.283 72.376 154.275 71.2762 154.85 70.2502C155.506 69.0766 156.712 68.4118 157.959 68.0178C159.28 67.5993 160.659 67.4926 161.495 67.4269C170.578 66.7129 187.948 76.7587 190.745 78.4002Z" fill="#F94F46"/>
<path d="M171.284 118.78C165.852 122.21 156.335 127.233 143.47 129.261C133.148 130.877 124.459 129.975 118.691 128.899C118.88 127.266 119.093 125.346 119.331 123.179C119.758 119.297 120.259 114.619 120.784 109.325C120.792 109.267 120.792 109.202 120.8 109.144C121.194 105.246 121.44 102.546 121.637 100.461C121.662 100.223 121.678 99.993 121.703 99.7714C121.703 99.7632 121.703 99.7632 121.703 99.755C121.932 97.3502 122.08 95.758 122.31 93.8621C122.326 93.7144 122.343 93.5748 122.367 93.4271C122.876 89.3398 123.68 84.1774 125.05 78.1449C125.838 74.665 126.814 70.8896 128.028 66.8598V66.8516C129.571 66.8598 131.515 67.0075 133.706 67.5246C135.823 68.0252 137.612 68.7311 139.015 69.4123C139.162 69.4861 139.31 69.56 139.449 69.6257C139.507 69.6503 139.556 69.6831 139.605 69.7077C139.72 69.7652 139.835 69.8308 139.942 69.8883C141.336 69.2399 145.004 67.7872 149.221 68.9527C150.485 69.3056 151.535 69.8144 152.364 70.3233C152.438 70.2823 152.511 70.2412 152.593 70.192C152.61 70.1838 152.618 70.1756 152.626 70.1756C152.757 70.1017 152.897 70.0278 153.036 69.954C153.676 69.6175 154.398 69.2727 155.178 68.9527C156.162 68.5505 157.09 68.2468 157.926 68.017L157.935 68.0252C160.913 72.646 164.556 79.2776 167.313 87.764V87.7722C167.682 88.9048 168.035 90.0703 168.363 91.2768C168.798 92.8444 169.175 94.3874 169.503 95.8975V95.9057C169.651 96.5705 169.782 97.2353 169.905 97.8919C171.546 106.305 171.596 113.568 171.284 118.78Z" fill="#F94F46"/>
<path d="M133.345 49.156C134.329 50.0999 136.093 52.0696 136.586 54.2118C136.627 54.3841 136.66 54.5565 136.676 54.7288C138.817 54.8109 143.986 57.8723 143.986 57.8723C143.986 57.8723 144.027 57.782 144.109 57.6096C144.347 57.109 144.922 55.9353 145.66 54.5072C145.914 54.023 146.185 53.5059 146.472 52.9724C146.686 52.5785 146.899 52.1845 147.129 51.7824C147.966 50.2804 148.885 48.7538 149.746 47.5474C150.361 46.6856 150.944 45.988 151.453 45.5694C151.461 45.5612 151.461 45.5612 151.469 45.553C151.477 45.553 151.477 45.5448 151.485 45.5448C154.841 42.8117 152.355 37.6985 149.229 37.5015C147.843 37.4112 146.489 37.9529 145.586 39.0117C142.698 35.4825 137.636 38.3633 138.161 41.7283C133.312 40.4069 130.449 46.3983 133.345 49.156Z" fill="#5B2448"/>
<path d="M157.992 59.5323C156.277 63.0943 151.601 63.5539 151.116 63.5949C151.108 63.5949 151.108 63.5949 151.108 63.5949C151.346 64.8014 151.609 66.0489 151.921 67.3375C152.076 68.0023 152.241 68.6425 152.413 69.2827C152.495 69.5781 152.569 69.8736 152.651 70.1691C152.675 70.2593 152.7 70.3414 152.725 70.4317C152.749 70.5138 152.766 70.5876 152.79 70.6697C152.577 71.2935 152.29 71.7613 151.994 72.1142C151.42 72.8118 150.665 73.2632 149.853 73.5423C149.689 73.5997 149.517 73.649 149.344 73.69C146.784 74.3466 143.839 73.5505 143.642 73.4931C143.642 73.4931 141.418 72.7626 140.344 71.3427C140.13 71.0555 139.958 70.7764 139.827 70.5138C139.654 70.1773 139.54 69.8654 139.466 69.6192C139.466 69.611 139.458 69.6027 139.458 69.5863C139.466 69.4386 139.482 69.2909 139.49 69.1431C139.654 66.9107 139.778 64.547 139.86 62.29C139.868 62.1504 139.868 62.0109 139.876 61.8714C139.876 61.8468 139.876 61.8221 139.876 61.7975C131.663 62.7824 131.204 53.8199 136.594 54.2631C137.702 54.3534 139.055 54.8459 140.647 55.8964C143.511 57.5133 141.862 52.8186 144.684 49.1417C145.012 48.7149 145.398 48.3046 145.849 47.9188C146.932 47.0078 148.425 46.2363 150.518 45.7439C150.813 45.67 151.125 45.6125 151.453 45.5551C151.461 45.5551 151.477 45.5469 151.486 45.5469C151.543 45.7028 151.592 45.8588 151.65 46.0065C151.691 46.1296 151.74 46.2527 151.789 46.384C151.806 46.4333 151.822 46.4825 151.847 46.5318C151.896 46.6631 151.945 46.7944 151.994 46.9339C152.035 47.0488 152.085 47.1637 152.134 47.2868C152.15 47.3197 152.158 47.3607 152.175 47.3935C152.618 48.5097 153.11 49.6095 153.644 50.6847C155.26 53.9184 158.304 54.3288 158.575 56.8567C158.706 58.0632 158.255 58.9988 157.992 59.5323Z" fill="#F4ADA2"/>
<path d="M144.503 51.342L144.446 51.1614C144.429 51.104 144.421 51.0465 144.405 50.9973C144.388 50.8906 144.372 50.7757 144.364 50.6608C144.347 50.431 144.364 50.2094 144.405 49.9878C144.487 49.52 144.684 49.0768 144.971 48.6992C145.119 48.494 145.299 48.3217 145.496 48.1657C145.701 48.0098 145.923 47.8867 146.161 47.7964C146.39 47.7143 146.636 47.6651 146.883 47.6651C147.121 47.6569 147.367 47.6979 147.596 47.7964C147.884 47.9195 148.015 48.2478 147.9 48.5433C147.875 48.6007 147.843 48.65 147.81 48.691L147.736 48.7731C147.596 48.929 147.473 49.0439 147.367 49.1506C147.26 49.2573 147.17 49.364 147.079 49.4543C146.907 49.6431 146.759 49.799 146.595 49.9878C146.431 50.1683 146.267 50.3817 146.087 50.628L145.8 51.0137C145.75 51.0794 145.701 51.1532 145.644 51.2189C145.529 51.383 145.365 51.5144 145.184 51.6046C145.086 51.6457 144.979 51.6703 144.872 51.6621C144.725 51.6457 144.602 51.5718 144.528 51.4405C144.528 51.3912 144.511 51.3666 144.503 51.342Z" fill="#5B2448"/>
<path d="M145.923 52.5493C146.391 52.2703 147.523 51.6219 148.458 50.6699C148.589 50.5385 148.803 50.5385 148.934 50.6616V50.6699C149.279 51.0146 149.738 51.6547 149.016 52.221C148.138 52.9187 146.407 53.1567 145.907 52.8448C145.824 52.7956 145.808 52.6807 145.857 52.6068C145.882 52.5822 145.898 52.5658 145.923 52.5493Z" fill="#5B2448"/>
<path d="M152.462 49.1805C151.97 49.4267 151.584 49.5088 150.616 49.7222C150.436 49.7632 150.313 49.9356 150.354 50.1161C150.452 50.5839 150.829 50.9697 151.584 50.8055C152.429 50.6168 152.725 49.8371 152.717 49.3364C152.708 49.2379 152.635 49.1641 152.544 49.1641C152.511 49.1641 152.487 49.1723 152.462 49.1805Z" fill="#5B2448"/>
<path d="M139.876 61.8746C140.311 61.7597 140.803 61.5627 141.303 61.2262C141.394 61.1688 141.517 61.1934 141.574 61.2837C141.632 61.374 141.607 61.4971 141.517 61.5545C141.008 61.891 140.442 62.1372 139.851 62.285L139.876 61.8746Z" fill="#9A3C81"/>
<path d="M149.746 47.5417C149.771 47.5499 149.804 47.5663 149.828 47.5663C149.878 47.5745 149.935 47.5827 149.993 47.5827L150.091 47.5745C150.28 47.5663 150.427 47.5335 150.567 47.517C150.706 47.4924 150.829 47.4842 150.944 47.476C151.174 47.4514 151.371 47.435 151.592 47.4186C151.773 47.4021 151.97 47.4021 152.191 47.3939C151.953 46.7866 151.724 46.171 151.51 45.5555C151.494 45.5555 151.486 45.5637 151.469 45.5637C151.478 45.5555 151.478 45.5555 151.486 45.5473C151.494 45.5473 151.494 45.5391 151.502 45.5391C151.289 45.5473 151.076 45.5719 150.87 45.6293C150.674 45.6868 150.493 45.7607 150.321 45.8674C150.296 45.8838 150.272 45.9002 150.247 45.9166C150.058 46.0397 149.894 46.1957 149.755 46.368C149.615 46.5404 149.525 46.7373 149.467 46.9507C149.394 47.197 149.525 47.4432 149.746 47.5417Z" fill="#5B2448"/>
<path d="M151.756 66.7376C151.691 66.475 151.633 66.2123 151.568 65.9415C151.387 65.129 151.231 64.3493 151.108 63.5942H151.116C151.116 63.5942 148.245 63.6927 146.423 62.7734C146.005 63.2659 147.137 66.9182 151.756 66.7376Z" fill="#5B2448"/>
<path opacity="0.52" d="M146.912 58.8422C148.092 58.4403 148.723 57.158 148.321 55.978C147.919 54.7981 146.637 54.1673 145.458 54.5692C144.278 54.9711 143.647 56.2534 144.049 57.4334C144.451 58.6133 145.733 59.2441 146.912 58.8422Z" fill="#E47280"/>
<path d="M153.291 55.3341C153.102 55.5804 152.856 55.7691 152.56 55.8758C152.273 55.9907 151.97 56.04 151.666 56.0154C151.362 55.9825 151.075 55.8676 150.829 55.6953C150.575 55.5147 150.378 55.2685 150.255 54.9894V54.9812C150.214 54.8909 150.115 54.8499 150.017 54.8909C149.943 54.9238 149.902 54.9976 149.91 55.0879C149.984 55.4901 150.197 55.8512 150.509 56.1056C150.665 56.237 150.837 56.3437 151.026 56.4257C151.592 56.6637 152.232 56.6391 152.774 56.3519C152.954 56.2616 153.118 56.1467 153.258 56.0154C153.405 55.8758 153.52 55.7035 153.602 55.5147C153.643 55.4244 153.594 55.3177 153.504 55.2849C153.414 55.2357 153.332 55.2603 153.291 55.3341Z" fill="#9A3C81"/>
<path d="M139.958 58.8201C140.073 58.8037 140.147 58.7134 140.13 58.5985C140.122 58.5657 140.114 58.5329 140.089 58.5C138.03 55.6849 135.355 56.8175 135.331 56.8257C135.232 56.875 135.183 56.9899 135.232 57.0884C135.281 57.1869 135.388 57.2279 135.495 57.1869C135.593 57.1458 137.907 56.1856 139.778 58.7381C139.819 58.7955 139.884 58.8201 139.958 58.8201Z" fill="#9A3C81"/>
<path d="M152.249 53.3377C152.29 53.3377 152.331 53.3131 152.363 53.2721C152.749 52.755 152.889 52.3857 152.815 52.0738C152.724 51.6798 152.314 51.4664 151.838 51.2202C150.772 50.6621 150.739 50.0548 150.739 50.0466C150.739 49.9563 150.665 49.8906 150.575 49.8906C150.485 49.8906 150.419 49.9645 150.419 50.0466C150.419 50.0794 150.435 50.8427 151.691 51.4993C152.167 51.7455 152.454 51.9096 152.511 52.1395C152.56 52.3446 152.429 52.6483 152.109 53.0751C152.06 53.149 152.076 53.2474 152.142 53.2967C152.167 53.3377 152.208 53.3459 152.249 53.3377Z" fill="#5B2448"/>
<path d="M144.446 41.8485C144.454 41.9716 144.561 42.0619 144.684 42.0455C144.7 42.0455 144.717 42.0455 144.733 42.0373C144.823 42.0045 144.889 41.9142 144.873 41.8075C144.873 41.7911 144.733 40.2399 145.57 39.0006C145.472 38.8775 145.373 38.7708 145.267 38.6641C144.963 39.0908 144.733 39.5997 144.594 40.166C144.372 41.077 144.438 41.8157 144.446 41.8485Z" fill="#9A3C81"/>
<path d="M130.867 106.165C130.096 105.131 128.898 102.595 129.891 101.323C130.317 100.773 130.998 100.666 131.056 100.658C132.861 100.395 134.018 103.169 136.709 105.303C137.792 106.165 139.466 107.191 141.993 107.807C137.144 109.144 132.73 108.652 130.867 106.165Z" fill="#5B2448"/>
<path d="M133.353 123.123C134.912 127.259 136.799 133.776 136.873 141.926C136.955 151.266 134.625 158.62 132.877 162.945C134.01 173.508 132.853 176.569 131.36 177.111C129.579 177.759 128.25 174.485 123.565 172.408C117.174 169.577 114.45 173.36 106.762 171.21C101.035 169.61 101.617 167.246 94.9797 165.498C89.3594 164.02 86.4878 165.071 85.2653 163.232C84.2725 161.73 84.5515 158.554 90.2702 151.168C90.3768 151.036 90.4835 150.897 90.5901 150.757C90.5984 150.749 90.6066 150.741 90.6066 150.733C90.6066 150.716 90.6148 150.7 90.6148 150.675C90.6558 150.462 90.6968 150.24 90.746 150.002C90.7624 149.945 90.7707 149.887 90.7871 149.822C90.7953 149.805 90.7953 149.78 90.8035 149.764C91.2383 147.753 91.9932 145.069 93.3551 142.115C100.165 127.407 114.761 121.957 117.805 120.907C121.924 119.487 125.518 118.945 127.946 118.724C129.152 114.415 129.226 111.485 129.038 109.54C128.956 108.735 128.652 106.322 129.251 103.253C129.374 102.613 129.513 102.087 129.612 101.734C129.399 102.892 129.76 103.327 130.047 103.762C131.589 106.076 136.684 103.039 140.229 105.206C141.525 106.002 142.239 107.209 142.616 108.021C141.238 108.3 139.408 108.899 137.702 110.262C132.295 114.595 133.271 122.483 133.353 123.123Z" fill="#FFCF2D"/>
<path d="M123.86 110.776C123.819 111.605 125.132 112.812 124.968 113.616C124.64 115.216 124.377 116.431 124.041 117.687C123.598 119.353 123.147 121.06 122.408 123.572C121.735 123.44 120.57 123.465 119.446 123.21C119.413 123.202 119.372 123.194 119.331 123.186C110.708 121.224 86.5288 115.889 84.2725 104.276C82.9843 97.6526 89.1707 90.8323 94.3151 86.4331C96.8996 84.2253 99.2133 82.6249 100.198 81.9683C108.854 76.1657 117.854 74.3518 124.369 73.8594L125.075 78.1436L127.183 90.98C125.583 91.9156 123.959 92.8841 122.334 93.8608C120.866 94.7472 119.389 95.6418 117.92 96.5528C115.36 98.1368 112.809 99.7291 110.355 101.313C113.974 103.308 116.189 106.328 120.816 109.143C121.727 109.701 122.728 110.251 123.86 110.776Z" fill="#F4ADA2"/>
<path d="M158.312 147.386C158.287 147.124 158.263 146.861 158.238 146.598C157.811 141.977 157.204 137.316 156.433 132.744C156.408 132.605 156.507 132.473 156.638 132.457C156.778 132.432 156.909 132.531 156.925 132.662C157.697 137.25 158.304 141.928 158.73 146.557C158.755 146.844 158.78 147.132 158.804 147.419L158.312 147.386Z" fill="#6CE0DC"/>
<path d="M182.582 144.658C182.311 146.128 181.942 147.597 181.499 149.025C181.212 149.936 180.892 150.839 180.531 151.733C180.375 151.676 180.211 151.627 180.055 151.569C180.416 150.683 180.736 149.78 181.023 148.877C181.466 147.474 181.827 146.021 182.098 144.576C182.122 144.437 182.254 144.347 182.393 144.371C182.524 144.396 182.615 144.527 182.582 144.658Z" fill="#6CE0DC"/>
<path d="M152.208 91.3769C152.06 91.3769 151.904 91.3523 151.732 91.3031C151.6 91.262 151.518 91.1225 151.559 90.9912C151.6 90.8599 151.74 90.7778 151.871 90.8188C152.125 90.8927 152.331 90.8927 152.486 90.8106C153.266 90.4167 152.569 87.5605 151.51 83.2352C150.936 80.8961 150.23 77.9825 149.5 74.5107C149.475 74.3712 149.557 74.2399 149.697 74.2153C149.836 74.1907 149.968 74.2727 149.992 74.4123C150.714 77.8758 151.428 80.7812 151.994 83.1203C153.266 88.3156 153.84 90.6875 152.708 91.2702C152.569 91.3441 152.396 91.3769 152.208 91.3769Z" fill="#FCB6B1"/>
<path d="M150.436 83.9349C150.735 83.9349 150.977 83.6924 150.977 83.3933C150.977 83.0941 150.735 82.8516 150.436 82.8516C150.136 82.8516 149.894 83.0941 149.894 83.3933C149.894 83.6924 150.136 83.9349 150.436 83.9349Z" fill="#FCB6B1"/>
<path d="M151.379 88.0521C151.678 88.0521 151.92 87.8096 151.92 87.5104C151.92 87.2113 151.678 86.9688 151.379 86.9688C151.08 86.9688 150.837 87.2113 150.837 87.5104C150.837 87.8096 151.08 88.0521 151.379 88.0521Z" fill="#FCB6B1"/>
<path d="M170.652 98.2207C170.455 98.1222 170.25 98.0155 170.061 97.9252C169.897 97.244 169.716 96.5628 169.536 95.8816C169.536 95.8816 169.536 95.8816 169.536 95.8734C168.863 93.4276 168.067 91.0064 167.156 88.6426C165.36 83.9973 163.079 79.516 160.388 75.322C160.314 75.2071 160.347 75.0512 160.461 74.9691C160.576 74.8953 160.732 74.9281 160.814 75.043C163.382 79.0482 165.581 83.3161 167.345 87.7398V87.748C167.435 87.9861 167.534 88.2159 167.624 88.4539C168.847 91.6383 169.856 94.9049 170.652 98.2207Z" fill="#FCB6B1"/>
<path d="M132.918 162.871L132.41 158.726C132.393 158.587 132.492 158.464 132.631 158.447C132.771 158.431 132.894 158.529 132.91 158.669L133.304 161.886" fill="#5B2448"/>
<path d="M132.877 162.881L132.369 158.737C132.352 158.572 132.467 158.433 132.623 158.408C132.697 158.4 132.779 158.416 132.836 158.466C132.902 158.515 132.935 158.581 132.951 158.663L133.345 161.88L133.263 161.888L132.869 158.671C132.861 158.613 132.836 158.564 132.787 158.531C132.746 158.499 132.689 158.482 132.631 158.49C132.574 158.499 132.525 158.523 132.492 158.572C132.459 158.613 132.443 158.671 132.451 158.728L132.959 162.873L132.877 162.881Z" fill="#5B2448"/>
<path d="M94.4872 147.769C93.5929 148.294 92.7314 148.885 91.9273 149.542C91.4842 149.903 91.0494 150.289 90.6392 150.683C90.6802 150.469 90.7212 150.248 90.7704 150.01C90.7868 149.952 90.7951 149.895 90.8115 149.829C91.074 149.591 91.3366 149.361 91.6155 149.14C92.436 148.475 93.3221 147.859 94.241 147.326C94.3641 147.252 94.52 147.293 94.5856 147.416C94.6513 147.539 94.6103 147.695 94.4872 147.769Z" fill="#5B2448"/>
<path d="M94.6105 147.404C94.5284 147.265 94.3561 147.216 94.2166 147.298C93.2977 147.831 92.4198 148.447 91.5911 149.111C91.3286 149.325 91.066 149.546 90.8281 149.768C90.8199 149.784 90.8199 149.809 90.8117 149.826C90.7953 149.883 90.787 149.949 90.7706 150.006C90.7214 150.244 90.6804 150.466 90.6394 150.679C90.6394 150.695 90.6312 150.712 90.6312 150.737C90.623 150.745 90.6147 150.753 90.6147 150.761C91.0414 150.351 91.4927 149.949 91.9603 149.571C92.3624 149.243 92.7726 148.939 93.1992 148.644C93.6259 148.348 94.0607 148.069 94.512 147.806C94.5776 147.765 94.6269 147.708 94.6433 147.634C94.6597 147.552 94.6515 147.47 94.6105 147.404ZM90.664 150.597C90.7132 150.343 90.7624 150.105 90.8035 149.883C91.066 149.645 91.345 149.407 91.6321 149.177C92.4526 148.512 93.3387 147.897 94.2494 147.363C94.2987 147.33 94.3561 147.322 94.4135 147.339C94.471 147.355 94.512 147.388 94.5448 147.437C94.5776 147.486 94.5776 147.544 94.5694 147.601C94.553 147.659 94.5202 147.7 94.471 147.733C93.5685 148.258 92.707 148.857 91.9111 149.505C91.4762 149.858 91.0578 150.228 90.664 150.597Z" fill="#5B2448"/>
<path d="M118.864 149.626C117.879 149.626 116.73 149.535 115.409 149.346C113.457 149.076 111.504 148.641 110.323 148.329C110.191 148.296 110.109 148.156 110.142 148.017C110.175 147.886 110.314 147.804 110.454 147.836C111.619 148.148 113.555 148.575 115.483 148.846C118.888 149.322 121.177 149.174 122.105 148.403C122.392 148.165 122.539 147.877 122.556 147.516C122.621 146.088 119.725 144.299 117.617 142.994L117.28 142.789C114.819 141.27 112.694 139.957 112.669 138.734C112.661 138.324 112.882 137.963 113.325 137.659C114.646 136.756 116.829 136.518 119.807 136.953C122.531 137.347 124.968 138.193 124.993 138.201C125.124 138.25 125.198 138.39 125.148 138.521C125.099 138.652 124.96 138.726 124.828 138.677C124.804 138.669 122.408 137.848 119.733 137.454C116.927 137.044 114.811 137.257 113.613 138.078C113.317 138.283 113.17 138.488 113.178 138.718C113.202 139.662 115.409 141.032 117.551 142.354L117.887 142.559C120.767 144.34 123.138 145.94 123.064 147.541C123.04 148.05 122.827 148.468 122.433 148.797C121.76 149.355 120.57 149.626 118.864 149.626Z" fill="#9B3C82"/>
<path d="M118.864 149.668C117.879 149.668 116.722 149.578 115.41 149.389C113.457 149.118 111.496 148.683 110.315 148.372C110.241 148.355 110.175 148.306 110.134 148.232C110.093 148.166 110.085 148.084 110.101 148.01C110.142 147.854 110.306 147.764 110.462 147.805C111.627 148.117 113.564 148.544 115.492 148.815C118.888 149.291 121.161 149.143 122.08 148.38C122.359 148.15 122.499 147.871 122.515 147.518C122.581 146.114 119.701 144.333 117.592 143.029L117.256 142.823C114.786 141.297 112.653 139.975 112.62 138.736C112.612 138.309 112.833 137.94 113.293 137.628C114.63 136.717 116.821 136.479 119.799 136.914C122.523 137.316 124.968 138.153 124.993 138.162C125.149 138.211 125.231 138.383 125.173 138.539C125.124 138.695 124.952 138.777 124.796 138.72C124.771 138.711 122.367 137.891 119.709 137.497C116.911 137.086 114.803 137.3 113.613 138.112C113.326 138.309 113.194 138.506 113.194 138.72C113.219 139.647 115.418 141.009 117.551 142.323L117.887 142.528C120.776 144.317 123.163 145.926 123.089 147.543C123.065 148.06 122.851 148.495 122.449 148.831C121.785 149.389 120.579 149.668 118.864 149.668ZM110.388 147.879C110.298 147.879 110.208 147.945 110.183 148.035C110.167 148.092 110.175 148.15 110.208 148.199C110.232 148.248 110.282 148.281 110.339 148.298C111.521 148.61 113.482 149.045 115.426 149.315C116.731 149.496 117.896 149.594 118.872 149.594C120.562 149.594 121.752 149.315 122.408 148.774C122.794 148.454 122.999 148.043 123.024 147.551C123.097 145.975 120.726 144.383 117.863 142.61L117.526 142.405C115.377 141.075 113.153 139.705 113.137 138.736C113.129 138.49 113.276 138.268 113.588 138.055C114.794 137.234 116.928 137.012 119.742 137.423C122.408 137.809 124.82 138.638 124.845 138.646C124.952 138.687 125.075 138.621 125.116 138.514C125.157 138.408 125.099 138.285 124.985 138.244C124.96 138.235 122.523 137.398 119.807 136.996C116.845 136.561 114.671 136.799 113.358 137.694C112.924 137.989 112.71 138.334 112.718 138.728C112.743 139.926 114.86 141.239 117.313 142.749L117.65 142.955C119.775 144.268 122.679 146.065 122.613 147.518C122.597 147.895 122.449 148.191 122.154 148.437C121.219 149.209 118.921 149.365 115.508 148.889C113.58 148.618 111.644 148.191 110.47 147.879C110.429 147.879 110.405 147.879 110.388 147.879Z" fill="#9B3C82"/>
<path d="M113.933 153.546C113.908 153.546 113.875 153.538 113.842 153.53C113.711 153.48 113.645 153.341 113.695 153.21L115.212 149.016C115.262 148.884 115.409 148.819 115.532 148.868C115.664 148.917 115.729 149.057 115.68 149.188L114.162 153.382C114.129 153.489 114.039 153.546 113.933 153.546Z" fill="#9B3C82"/>
<path d="M113.933 153.583C113.9 153.583 113.867 153.574 113.834 153.566C113.678 153.509 113.605 153.345 113.662 153.189L115.18 148.995C115.204 148.921 115.262 148.863 115.336 148.83C115.41 148.798 115.483 148.798 115.557 148.822C115.631 148.847 115.689 148.904 115.721 148.97C115.754 149.044 115.754 149.118 115.73 149.192L114.212 153.386C114.171 153.509 114.056 153.583 113.933 153.583ZM115.451 148.888C115.418 148.888 115.393 148.896 115.36 148.904C115.311 148.929 115.27 148.97 115.254 149.027L113.736 153.221C113.695 153.328 113.752 153.451 113.859 153.492C113.966 153.533 114.089 153.476 114.13 153.369L115.648 149.175C115.664 149.126 115.664 149.068 115.639 149.011C115.615 148.962 115.574 148.921 115.516 148.904C115.5 148.896 115.475 148.888 115.451 148.888Z" fill="#9B3C82"/>
<path d="M119.766 137.456C119.742 137.456 119.709 137.447 119.676 137.439C119.545 137.39 119.479 137.25 119.529 137.119C119.947 135.97 120.357 134.821 120.776 133.672C120.825 133.541 120.973 133.475 121.096 133.524C121.227 133.573 121.293 133.713 121.243 133.844C120.825 134.993 120.415 136.142 119.996 137.291C119.963 137.398 119.865 137.456 119.766 137.456Z" fill="#9B3C82"/>
<path d="M119.766 137.5C119.733 137.5 119.701 137.492 119.668 137.483C119.512 137.426 119.438 137.262 119.495 137.106C119.914 135.957 120.324 134.808 120.743 133.659C120.767 133.585 120.825 133.527 120.898 133.495C120.972 133.462 121.046 133.462 121.12 133.486C121.276 133.544 121.35 133.708 121.292 133.864L121.136 134.299C120.775 135.3 120.406 136.31 120.045 137.311C119.996 137.426 119.889 137.5 119.766 137.5ZM121.013 133.552C120.981 133.552 120.956 133.56 120.923 133.568C120.874 133.593 120.833 133.634 120.816 133.691C120.398 134.841 119.988 135.99 119.569 137.139C119.528 137.245 119.586 137.368 119.692 137.409C119.799 137.45 119.922 137.393 119.963 137.286C120.324 136.285 120.693 135.284 121.054 134.274L121.21 133.839C121.251 133.733 121.194 133.609 121.087 133.568C121.063 133.56 121.038 133.552 121.013 133.552Z" fill="#9B3C82"/>
<path d="M95.5377 86.6442C95.4639 86.8412 102.405 89.0161 110.487 94.5889C112.448 95.9432 114.056 97.2071 115.254 98.2002C117.133 97.1907 119.011 96.173 120.89 95.1635C101.051 88.2118 95.6033 86.4718 95.5377 86.6442Z" fill="#9B3C82"/>
<path d="M130.416 92.3081C128.077 94.6226 125.796 96.4364 124.508 97.5526C123.507 98.4226 122.67 99.071 121.932 99.6045C121.858 99.6537 121.793 99.703 121.719 99.7522C120.882 100.343 120.16 100.786 119.454 101.238C119.905 100.803 120.193 100.598 120.25 99.7933C120.332 98.5622 119.479 97.5608 117.92 96.5513C116.402 95.5665 114.211 94.5816 111.586 93.3587C107.352 91.3971 101.551 88.9185 94.3231 86.4234C94.2492 86.3988 94.1754 86.3742 94.1016 86.3496C95.603 85.0035 97.9906 82.9106 101.035 80.4977C117.698 67.2756 125.657 66.7831 128.045 66.857C128.151 66.857 128.241 66.8652 128.324 66.8652C132.221 67.0622 134.124 68.3918 135.019 69.1797C137.611 71.4695 138.063 74.81 138.202 76.0246C138.965 82.3936 134.6 88.1634 130.416 92.3081Z" fill="#F94F46"/>
<path d="M155.104 79.9255C154.923 80.2785 154.702 80.4918 154.439 80.5575C153.775 80.7381 152.979 80.0733 151.937 78.4728C151.42 77.6849 150.845 76.659 150.206 75.4033C150.082 75.1652 149.959 74.9108 149.828 74.6482C149.812 75.0339 149.795 75.4197 149.771 75.7972C149.705 76.8396 149.598 77.8244 149.451 78.6862C148.983 81.4849 148.154 83.0361 146.981 83.307C146.899 83.3234 146.784 83.3398 146.645 83.3398C146.382 83.3398 146.021 83.2824 145.586 83.069C142.313 81.4603 139.991 73.4089 139.022 69.3954C139.17 69.4693 139.318 69.5432 139.457 69.6088C139.457 69.6006 139.449 69.5924 139.449 69.576C139.457 69.4283 139.474 69.2805 139.482 69.1328C139.523 69.3216 139.572 69.5021 139.613 69.6909C139.679 69.9618 139.744 70.2326 139.818 70.5034C141.238 75.9696 143.396 81.4275 145.808 82.6094C146.357 82.8802 146.735 82.8392 146.866 82.8063C148.614 82.4042 149.287 77.8491 149.344 73.6797C149.344 73.6469 149.344 73.614 149.344 73.5894C149.344 73.4745 149.426 73.3678 149.541 73.3432C149.656 73.3186 149.771 73.376 149.82 73.4827C149.828 73.4991 149.836 73.5156 149.845 73.532C152.774 79.7204 153.93 80.1636 154.3 80.0651C154.447 80.024 154.57 79.8353 154.644 79.6875C155.711 77.6357 153.693 72.6127 152.716 70.4132C152.675 70.3311 152.642 70.249 152.61 70.1752C152.495 69.9207 152.396 69.7237 152.331 69.5842C152.281 69.4775 152.314 69.3462 152.404 69.2723C152.486 69.5678 152.56 69.8633 152.642 70.1587C152.774 70.0849 152.913 70.011 153.053 69.9371C153.422 70.7415 153.93 71.9233 154.382 73.2201C154.94 74.8041 155.416 76.5605 155.44 78.005C155.473 78.7519 155.375 79.4085 155.104 79.9255Z" fill="#FCB6B1"/>
<path d="M136.414 78.9823C136.102 82.692 134.773 86.2212 132.336 89.775C131.753 90.6203 131.113 91.4657 130.416 92.3029C128.16 95.0113 125.263 97.7033 121.653 100.453C121.678 100.215 121.694 99.985 121.719 99.7634C121.793 99.7059 121.867 99.6485 121.932 99.5992C130.744 92.7461 135.322 85.9832 135.913 78.9412C135.921 78.8017 136.044 78.7032 136.184 78.7114C136.323 78.7196 136.43 78.8427 136.414 78.9823Z" fill="#FCB6B1"/>
<path d="M187.906 97.105C187.234 97.3348 186.561 97.5974 185.904 97.8929C184.953 98.3197 184.034 98.8121 183.139 99.362C183.263 99.2717 183.386 99.1732 183.525 99.0747C183.32 99.0173 183.123 98.968 182.918 98.9106C183.812 98.3607 184.739 97.8683 185.699 97.4415C186.364 97.146 187.053 96.8752 187.742 96.6371C187.874 96.5961 188.021 96.6618 188.062 96.7931C188.103 96.9162 188.038 97.0557 187.906 97.105Z" fill="#9B3C82"/>
<path d="M110.371 101.293C110.084 101.17 109.789 101.047 109.502 100.924C108.263 100.423 106.983 99.9884 105.703 99.6355C105.572 99.5945 105.49 99.4549 105.531 99.3236C105.572 99.1923 105.711 99.1102 105.842 99.1513C107.147 99.5124 108.443 99.9556 109.699 100.464C110.101 100.629 110.495 100.793 110.897 100.973L110.371 101.293Z" fill="#9B3C82"/>
<path d="M135.445 115.297C135.544 115.749 135.577 116.487 135.06 117.357C135.01 117.448 134.945 117.538 134.879 117.636V117.645V117.653C134.92 117.768 134.961 117.899 134.994 118.047V118.055C135.002 118.088 135.002 118.112 135.01 118.145C135.076 118.572 135.019 119.13 134.641 119.861C134.592 119.951 134.543 120.049 134.477 120.148V120.173C134.477 120.353 134.461 120.534 134.428 120.714C134.42 120.747 134.411 120.788 134.411 120.821C134.149 122.077 133.123 123.078 131.507 123.685C128.11 124.966 120.603 123.636 115.795 122.405C117.001 118.58 118.092 114.715 118.765 110.75C118.913 109.856 119.044 108.961 119.142 108.067C119.996 108.526 120.849 108.945 121.653 109.265C122.974 109.79 124.008 110.012 125.009 109.7C127.314 108.986 127.831 105.522 129.119 105.728C129.341 105.76 129.48 105.883 129.628 106.015C131.253 107.467 129.833 111.875 129.645 112.458C130.777 112.86 132.664 112.023 133.936 111.957C134.748 111.916 135.946 112.942 135.355 114.616C135.33 114.69 135.298 114.764 135.273 114.838V114.846C135.289 114.879 135.355 115.01 135.421 115.223C135.437 115.24 135.445 115.264 135.445 115.297Z" fill="#F4ADA2"/>
<path d="M135.281 114.828C134.543 115.624 133.017 115.87 132.36 115.944C132.278 115.953 132.213 116.018 132.196 116.092C132.196 116.108 132.188 116.125 132.188 116.141C132.188 116.223 132.254 116.297 132.336 116.314C132.352 116.314 132.377 116.314 132.401 116.322C134.083 116.133 134.969 115.632 135.429 115.214C135.371 115 135.298 114.861 135.281 114.828Z" fill="#9B3C82"/>
<path d="M135.429 115.209C134.969 115.627 134.083 116.128 132.401 116.317H132.336C132.245 116.292 132.188 116.218 132.188 116.136C132.188 116.12 132.188 116.112 132.196 116.095C132.213 116.021 132.278 115.956 132.36 115.948C133.017 115.882 134.551 115.627 135.281 114.831V114.823C135.314 114.749 135.339 114.675 135.363 114.602C135.355 114.61 135.355 114.61 135.355 114.618C134.699 115.521 133.033 115.792 132.352 115.865C132.245 115.874 132.155 115.956 132.13 116.062C132.114 116.128 132.13 116.202 132.163 116.259C132.204 116.317 132.262 116.358 132.327 116.374C132.344 116.374 132.36 116.383 132.385 116.383H132.418C134.075 116.202 134.969 115.71 135.445 115.291C135.445 115.258 135.437 115.234 135.429 115.209Z" fill="#9B3C82"/>
<path d="M135.002 118.035C134.978 117.887 134.937 117.756 134.887 117.641C134.108 118.363 132.886 118.527 132.295 118.494C132.27 118.494 132.237 118.494 132.213 118.486C132.205 118.486 132.205 118.486 132.196 118.486C132.196 118.486 132.196 118.486 132.188 118.486C132.098 118.486 132.024 118.552 132.008 118.634C131.983 118.732 132.049 118.831 132.147 118.855H132.155H132.172C132.188 118.855 132.213 118.855 132.229 118.864H132.27H132.328H132.393H132.467H132.492C133.214 118.872 134.248 118.658 135.002 118.035Z" fill="#9B3C82"/>
<path d="M135.002 118.041C134.239 118.656 133.189 118.87 132.475 118.87C132.451 118.87 132.426 118.87 132.401 118.87C132.377 118.87 132.352 118.87 132.336 118.87C132.319 118.87 132.303 118.87 132.278 118.87C132.262 118.87 132.254 118.87 132.237 118.87C132.213 118.87 132.188 118.861 132.163 118.861H132.155C132.147 118.861 132.147 118.861 132.147 118.861C132.048 118.837 131.983 118.738 132.007 118.64C132.024 118.558 132.106 118.492 132.188 118.492H132.196H132.204C132.237 118.492 132.27 118.5 132.303 118.5H132.459C133.099 118.5 134.174 118.303 134.887 117.647C134.887 117.647 134.887 117.647 134.887 117.638C134.953 117.54 135.01 117.45 135.068 117.359L135.06 117.368C134.42 118.155 133.263 118.435 132.467 118.435C132.377 118.435 132.295 118.435 132.221 118.426H132.196C132.073 118.426 131.966 118.508 131.942 118.632C131.909 118.771 131.999 118.911 132.139 118.935C132.147 118.935 132.155 118.935 132.163 118.943C132.262 118.952 132.368 118.96 132.483 118.96C133.23 118.96 134.256 118.738 135.019 118.139C135.019 118.098 135.01 118.065 135.002 118.041Z" fill="#9B3C82"/>
<path d="M134.436 120.706C134.469 120.534 134.486 120.353 134.486 120.164V120.156C133.969 120.755 132.828 121.223 131.95 121.166C131.95 121.166 131.95 121.166 131.942 121.166H131.934H131.918C131.827 121.166 131.745 121.223 131.729 121.313C131.704 121.412 131.77 121.51 131.868 121.535H131.877H131.901H131.909H131.918H131.926C131.975 121.535 132.032 121.543 132.082 121.543C132.213 121.543 132.352 121.535 132.492 121.519C132.566 121.51 132.631 121.502 132.697 121.486C132.73 121.478 132.771 121.469 132.804 121.461C132.836 121.453 132.877 121.445 132.91 121.437C132.943 121.428 132.976 121.42 133.017 121.412C133.05 121.404 133.091 121.396 133.124 121.379C133.156 121.371 133.189 121.363 133.222 121.346C133.23 121.346 133.247 121.338 133.255 121.338C133.312 121.322 133.378 121.297 133.435 121.272C133.485 121.256 133.534 121.231 133.583 121.207C133.608 121.199 133.632 121.182 133.657 121.174C133.682 121.166 133.706 121.149 133.731 121.141C133.764 121.125 133.796 121.108 133.829 121.092C133.854 121.075 133.887 121.059 133.911 121.051C133.936 121.034 133.961 121.026 133.985 121.01C133.993 121.002 134.002 121.002 134.01 120.993C134.084 120.952 134.149 120.911 134.223 120.862C134.297 120.813 134.371 120.764 134.436 120.706Z" fill="#9B3C82"/>
<path d="M134.436 120.705C134.37 120.762 134.297 120.811 134.223 120.861C134.157 120.902 134.083 120.951 134.009 120.992C134.001 121 133.993 121 133.985 121.008C133.96 121.025 133.936 121.033 133.911 121.049C133.886 121.066 133.854 121.082 133.829 121.09C133.796 121.107 133.763 121.123 133.731 121.14C133.706 121.148 133.681 121.164 133.657 121.173C133.632 121.181 133.607 121.197 133.583 121.205C133.534 121.23 133.484 121.246 133.435 121.271C133.378 121.296 133.312 121.312 133.255 121.337C133.246 121.337 133.23 121.345 133.222 121.345C133.189 121.353 133.156 121.361 133.123 121.378C133.091 121.386 133.058 121.394 133.017 121.411C132.984 121.419 132.951 121.427 132.91 121.435C132.877 121.443 132.836 121.452 132.803 121.46C132.771 121.468 132.738 121.476 132.697 121.484C132.631 121.501 132.557 121.509 132.492 121.517C132.352 121.534 132.221 121.542 132.09 121.542C132.032 121.542 131.983 121.542 131.925 121.534H131.917H131.909H131.901H131.876C131.778 121.509 131.712 121.411 131.737 121.312C131.753 121.23 131.835 121.164 131.917 121.164H131.934H131.942H131.95C131.999 121.173 132.057 121.173 132.106 121.173C132.959 121.173 133.993 120.729 134.485 120.171V120.163V120.147C134.543 120.048 134.6 119.95 134.649 119.859C134.608 119.876 134.576 119.909 134.551 119.95C134.157 120.573 133.025 121.107 132.098 121.107C132.04 121.107 131.983 121.107 131.925 121.099C131.917 121.099 131.909 121.099 131.909 121.099C131.786 121.099 131.679 121.181 131.655 121.304C131.622 121.443 131.712 121.583 131.852 121.608C131.86 121.608 131.876 121.616 131.884 121.616C131.95 121.624 132.024 121.624 132.09 121.624C132.894 121.624 133.796 121.296 134.42 120.82C134.428 120.779 134.436 120.746 134.436 120.705Z" fill="#9B3C82"/>
<path d="M128.988 105.642C128.857 107.152 128.865 108.448 128.914 109.474C129.029 111.838 129.357 112.24 129.636 112.437C130.211 112.839 131.007 112.61 132.598 112.15C133.928 111.764 134.6 111.567 134.838 111.141C135.56 109.852 133.583 106.84 130.941 105.937C130.178 105.674 129.489 105.633 128.988 105.642Z" fill="#FFCF2D"/>
</g>
</g>
</g>
<defs>
<clipPath id="clip0_6136_10062">
<rect width="327" height="280" fill="white"/>
</clipPath>
<clipPath id="clip1_6136_10062">
<rect width="327" height="280" fill="white"/>
</clipPath>
<clipPath id="clip2_6136_10062">
<rect width="20.4" height="5.3" fill="white" transform="translate(116.2 239.203)"/>
</clipPath>
<clipPath id="clip3_6136_10062">
<rect width="79" height="46.5" fill="white" transform="translate(179.7 197.703)"/>
</clipPath>
<clipPath id="clip4_6136_10062">
<rect width="130.8" height="208" fill="white" transform="translate(84.1001 37.3984)"/>
</clipPath>
</defs>
</svg>
